G75*
G70*
%OFA0B0*%
%FSLAX24Y24*%
%IPPOS*%
%LPD*%
%AMOC8*
5,1,8,0,0,1.08239X$1,22.5*
%
%ADD10OC8,0.0640*%
%ADD11C,0.1580*%
%ADD12OC8,0.0600*%
%ADD13C,0.0740*%
%ADD14OC8,0.0710*%
%ADD15C,0.0520*%
%ADD16C,0.0600*%
%ADD17C,0.0640*%
%ADD18R,0.0476X0.0476*%
D10*
X024246Y005341D03*
X025033Y005341D03*
X025033Y006325D03*
X024246Y006325D03*
D11*
X026100Y008203D03*
X026100Y003463D03*
D12*
X021600Y004833D03*
X021100Y002833D03*
X018100Y002833D03*
X015600Y002333D03*
X013600Y002333D03*
X012100Y002333D03*
X013600Y003333D03*
X015600Y003333D03*
X009100Y002333D03*
X021600Y007833D03*
X019100Y008833D03*
X016100Y008833D03*
X015600Y010333D03*
X018600Y010333D03*
D13*
X020100Y008663D02*
X020100Y008003D01*
X023100Y008163D02*
X023100Y007503D01*
X020100Y004663D02*
X020100Y004003D01*
X023100Y004163D02*
X023100Y003503D01*
D14*
X014600Y008833D03*
X013100Y008833D03*
X013100Y009833D03*
X014600Y009833D03*
X022100Y009833D03*
X023100Y009833D03*
X006100Y009833D03*
X006100Y008833D03*
D15*
X008600Y009113D02*
X008600Y009553D01*
X010600Y009553D02*
X010600Y009113D01*
D16*
X010600Y007593D02*
X010600Y007073D01*
X011600Y007073D02*
X011600Y007593D01*
X012600Y007593D02*
X012600Y007073D01*
X013600Y007073D02*
X013600Y007593D01*
X014600Y007593D02*
X014600Y007073D01*
X015600Y007073D02*
X015600Y007593D01*
X016600Y007593D02*
X016600Y007073D01*
X017600Y007073D02*
X017600Y007593D01*
X018600Y007593D02*
X018600Y007073D01*
X018600Y004593D02*
X018600Y004073D01*
X017600Y004073D02*
X017600Y004593D01*
X016600Y004593D02*
X016600Y004073D01*
X015600Y004073D02*
X015600Y004593D01*
X014600Y004593D02*
X014600Y004073D01*
X013600Y004073D02*
X013600Y004593D01*
X012600Y004593D02*
X012600Y004073D01*
X011600Y004073D02*
X011600Y004593D01*
X010600Y004593D02*
X010600Y004073D01*
X009600Y004073D02*
X009600Y004593D01*
X008600Y004593D02*
X008600Y004073D01*
X007600Y004073D02*
X007600Y004593D01*
X006600Y004593D02*
X006600Y004073D01*
X005600Y004073D02*
X005600Y004593D01*
X005600Y007073D02*
X005600Y007593D01*
X006600Y007593D02*
X006600Y007073D01*
X007600Y007073D02*
X007600Y007593D01*
X008600Y007593D02*
X008600Y007073D01*
X009600Y007073D02*
X009600Y007593D01*
D17*
X003880Y007833D02*
X003320Y007833D01*
X003320Y006833D02*
X003880Y006833D01*
X003880Y005833D02*
X003320Y005833D01*
X003320Y004833D02*
X003880Y004833D01*
X003880Y003833D02*
X003320Y003833D01*
D18*
X005600Y002333D03*
X008600Y003333D03*
X011100Y003333D03*
M02*
