G75*
G70*
%OFA0B0*%
%FSLAX24Y24*%
%IPPOS*%
%LPD*%
%AMOC8*
5,1,8,0,0,1.08239X$1,22.5*
%
%ADD10OC8,0.0640*%
%ADD11C,0.1580*%
%ADD12OC8,0.0600*%
%ADD13C,0.0740*%
%ADD14OC8,0.0710*%
%ADD15C,0.0520*%
%ADD16C,0.0600*%
%ADD17C,0.0640*%
%ADD18R,0.0476X0.0476*%
D10*
X024246Y005268D03*
X025033Y005268D03*
X025033Y006252D03*
X024246Y006252D03*
D11*
X026100Y008130D03*
X026100Y003390D03*
D12*
X021600Y004760D03*
X021100Y002760D03*
X018100Y002760D03*
X015600Y002260D03*
X013600Y002260D03*
X012100Y002260D03*
X013600Y003260D03*
X015600Y003260D03*
X009100Y002260D03*
X021600Y007760D03*
X019100Y008760D03*
X016100Y008760D03*
X015600Y010260D03*
X018600Y010260D03*
D13*
X020100Y008590D02*
X020100Y007930D01*
X023100Y008090D02*
X023100Y007430D01*
X020100Y004590D02*
X020100Y003930D01*
X023100Y004090D02*
X023100Y003430D01*
D14*
X014600Y008760D03*
X013100Y008760D03*
X013100Y009760D03*
X014600Y009760D03*
X022100Y009760D03*
X023100Y009760D03*
X006100Y009760D03*
X006100Y008760D03*
D15*
X008600Y009040D02*
X008600Y009480D01*
X010600Y009480D02*
X010600Y009040D01*
D16*
X010600Y007520D02*
X010600Y007000D01*
X011600Y007000D02*
X011600Y007520D01*
X012600Y007520D02*
X012600Y007000D01*
X013600Y007000D02*
X013600Y007520D01*
X014600Y007520D02*
X014600Y007000D01*
X015600Y007000D02*
X015600Y007520D01*
X016600Y007520D02*
X016600Y007000D01*
X017600Y007000D02*
X017600Y007520D01*
X018600Y007520D02*
X018600Y007000D01*
X018600Y004520D02*
X018600Y004000D01*
X017600Y004000D02*
X017600Y004520D01*
X016600Y004520D02*
X016600Y004000D01*
X015600Y004000D02*
X015600Y004520D01*
X014600Y004520D02*
X014600Y004000D01*
X013600Y004000D02*
X013600Y004520D01*
X012600Y004520D02*
X012600Y004000D01*
X011600Y004000D02*
X011600Y004520D01*
X010600Y004520D02*
X010600Y004000D01*
X009600Y004000D02*
X009600Y004520D01*
X008600Y004520D02*
X008600Y004000D01*
X007600Y004000D02*
X007600Y004520D01*
X006600Y004520D02*
X006600Y004000D01*
X005600Y004000D02*
X005600Y004520D01*
X005600Y007000D02*
X005600Y007520D01*
X006600Y007520D02*
X006600Y007000D01*
X007600Y007000D02*
X007600Y007520D01*
X008600Y007520D02*
X008600Y007000D01*
X009600Y007000D02*
X009600Y007520D01*
D17*
X003880Y007760D02*
X003320Y007760D01*
X003320Y006760D02*
X003880Y006760D01*
X003880Y005760D02*
X003320Y005760D01*
X003320Y004760D02*
X003880Y004760D01*
X003880Y003760D02*
X003320Y003760D01*
D18*
X005600Y001260D03*
X005600Y003260D03*
X008600Y003260D03*
X011100Y003260D03*
M02*
