G75*
G70*
%OFA0B0*%
%FSLAX24Y24*%
%IPPOS*%
%LPD*%
%AMOC8*
5,1,8,0,0,1.08239X$1,22.5*
%
%ADD10C,0.0060*%
%ADD11C,0.0050*%
%ADD12OC8,0.0560*%
%ADD13C,0.1500*%
%ADD14OC8,0.0520*%
%ADD15C,0.0660*%
%ADD16OC8,0.0630*%
%ADD17C,0.0440*%
%ADD18C,0.0520*%
%ADD19C,0.0560*%
%ADD20C,0.0160*%
%ADD21R,0.0396X0.0396*%
D10*
X001143Y001163D02*
X001036Y001270D01*
X001143Y001377D01*
X001463Y001377D01*
X001463Y001484D02*
X001463Y001163D01*
X001143Y001163D01*
X001463Y001484D02*
X001356Y001590D01*
X001143Y001590D01*
X001681Y001590D02*
X001894Y001163D01*
X002108Y001590D01*
X002325Y001590D02*
X002325Y001163D01*
X002325Y001377D02*
X002539Y001590D01*
X002645Y001590D01*
X003507Y001590D02*
X003827Y001590D01*
X003934Y001484D01*
X003934Y001270D01*
X003827Y001163D01*
X003507Y001163D01*
X003507Y000950D02*
X003507Y001590D01*
X004151Y001590D02*
X004151Y001163D01*
X004151Y001377D02*
X004365Y001590D01*
X004472Y001590D01*
X004688Y001484D02*
X004688Y001270D01*
X004795Y001163D01*
X005009Y001163D01*
X005115Y001270D01*
X005115Y001484D01*
X005009Y001590D01*
X004795Y001590D01*
X004688Y001484D01*
X005333Y001484D02*
X005333Y001270D01*
X005440Y001163D01*
X005760Y001163D01*
X005760Y001057D02*
X005760Y001590D01*
X005440Y001590D01*
X005333Y001484D01*
X005978Y001590D02*
X005978Y001163D01*
X005978Y001377D02*
X006191Y001590D01*
X006298Y001590D01*
X006621Y001590D02*
X006835Y001590D01*
X006942Y001484D01*
X006942Y001163D01*
X006621Y001163D01*
X006515Y001270D01*
X006621Y001377D01*
X006942Y001377D01*
X007159Y001163D02*
X007159Y001590D01*
X007266Y001590D01*
X007373Y001484D01*
X007479Y001590D01*
X007586Y001484D01*
X007586Y001163D01*
X007373Y001163D02*
X007373Y001484D01*
X007804Y001590D02*
X007911Y001590D01*
X008017Y001484D01*
X008124Y001590D01*
X008231Y001484D01*
X008231Y001163D01*
X008017Y001163D02*
X008017Y001484D01*
X007804Y001590D02*
X007804Y001163D01*
X008448Y001270D02*
X008448Y001484D01*
X008555Y001590D01*
X008769Y001590D01*
X008875Y001484D01*
X008875Y001377D01*
X008448Y001377D01*
X008448Y001270D02*
X008555Y001163D01*
X008769Y001163D01*
X009093Y001163D02*
X009093Y001590D01*
X009093Y001377D02*
X009306Y001590D01*
X009413Y001590D01*
X005760Y001057D02*
X005653Y000950D01*
X005547Y000950D01*
X013130Y000790D02*
X013130Y000470D01*
X013237Y000363D01*
X013344Y000470D01*
X013450Y000363D01*
X013557Y000470D01*
X013557Y000790D01*
X013775Y000790D02*
X013775Y000470D01*
X013881Y000363D01*
X013988Y000470D01*
X014095Y000363D01*
X014202Y000470D01*
X014202Y000790D01*
X014419Y000790D02*
X014419Y000470D01*
X014526Y000363D01*
X014633Y000470D01*
X014739Y000363D01*
X014846Y000470D01*
X014846Y000790D01*
X015386Y000684D02*
X015386Y000470D01*
X015493Y000363D01*
X015813Y000363D01*
X016030Y000470D02*
X016137Y000363D01*
X016351Y000363D01*
X016458Y000470D01*
X016458Y000684D01*
X016351Y000790D01*
X016137Y000790D01*
X016030Y000684D01*
X016030Y000470D01*
X015813Y000790D02*
X015493Y000790D01*
X015386Y000684D01*
X015170Y000470D02*
X015064Y000470D01*
X015064Y000363D01*
X015170Y000363D01*
X015170Y000470D01*
X016675Y000363D02*
X016675Y000790D01*
X016782Y000790D01*
X016889Y000684D01*
X016995Y000790D01*
X017102Y000684D01*
X017102Y000363D01*
X016889Y000363D02*
X016889Y000684D01*
X017320Y000790D02*
X017640Y000790D01*
X017747Y000684D01*
X017747Y000470D01*
X017640Y000363D01*
X017320Y000363D01*
X017320Y000150D02*
X017320Y000790D01*
X017964Y000790D02*
X017964Y000470D01*
X018071Y000363D01*
X018391Y000363D01*
X018391Y000790D01*
X018609Y000790D02*
X018822Y000790D01*
X018715Y000897D02*
X018715Y000470D01*
X018822Y000363D01*
X019038Y000363D02*
X019038Y000790D01*
X019038Y000577D02*
X019252Y000790D01*
X019359Y000790D01*
X019575Y000684D02*
X019575Y000470D01*
X019682Y000363D01*
X019896Y000363D01*
X020003Y000470D01*
X020003Y000684D01*
X019896Y000790D01*
X019682Y000790D01*
X019575Y000684D01*
X020220Y000790D02*
X020220Y000363D01*
X020647Y000363D02*
X020647Y000684D01*
X020540Y000790D01*
X020220Y000790D01*
X020865Y000790D02*
X020971Y000790D01*
X020971Y000363D01*
X020865Y000363D02*
X021078Y000363D01*
X021294Y000470D02*
X021401Y000363D01*
X021721Y000363D01*
X021939Y000363D02*
X022259Y000363D01*
X022366Y000470D01*
X022259Y000577D01*
X022046Y000577D01*
X021939Y000684D01*
X022046Y000790D01*
X022366Y000790D01*
X022583Y001004D02*
X022690Y001004D01*
X022690Y000363D01*
X022583Y000363D02*
X022797Y000363D01*
X023013Y000470D02*
X023120Y000577D01*
X023440Y000577D01*
X023440Y000684D02*
X023440Y000363D01*
X023120Y000363D01*
X023013Y000470D01*
X023333Y000790D02*
X023440Y000684D01*
X023333Y000790D02*
X023120Y000790D01*
X023658Y000790D02*
X023978Y000790D01*
X024085Y000684D01*
X024085Y000470D01*
X023978Y000363D01*
X023658Y000363D01*
X023658Y001004D01*
X024624Y000684D02*
X024624Y000470D01*
X024731Y000363D01*
X025052Y000363D01*
X025269Y000470D02*
X025376Y000363D01*
X025589Y000363D01*
X025696Y000470D01*
X025696Y000684D01*
X025589Y000790D01*
X025376Y000790D01*
X025269Y000684D01*
X025269Y000470D01*
X025052Y000790D02*
X024731Y000790D01*
X024624Y000684D01*
X024409Y000470D02*
X024409Y000363D01*
X024302Y000363D01*
X024302Y000470D01*
X024409Y000470D01*
X025914Y000363D02*
X025914Y000790D01*
X026020Y000790D01*
X026127Y000684D01*
X026234Y000790D01*
X026341Y000684D01*
X026341Y000363D01*
X026127Y000363D02*
X026127Y000684D01*
X021721Y000790D02*
X021401Y000790D01*
X021294Y000684D01*
X021294Y000470D01*
X020971Y001004D02*
X020971Y001111D01*
D11*
X002466Y003358D02*
X002282Y003358D01*
X002374Y003358D02*
X002374Y003909D01*
X002282Y003909D02*
X002466Y003909D01*
X002097Y003817D02*
X002005Y003909D01*
X001822Y003909D01*
X001730Y003817D01*
X001730Y003725D01*
X001822Y003634D01*
X002005Y003634D01*
X002097Y003542D01*
X002097Y003450D01*
X002005Y003358D01*
X001822Y003358D01*
X001730Y003450D01*
X001544Y003450D02*
X001544Y003817D01*
X001453Y003909D01*
X001269Y003909D01*
X001177Y003817D01*
X001177Y003450D01*
X001269Y003358D01*
X001453Y003358D01*
X001544Y003450D01*
X000992Y003358D02*
X000992Y003909D01*
X000808Y003725D01*
X000625Y003909D01*
X000625Y003358D01*
X000625Y004358D02*
X000625Y004909D01*
X000900Y004909D01*
X000992Y004817D01*
X000992Y004634D01*
X000900Y004542D01*
X000625Y004542D01*
X000808Y004542D02*
X000992Y004358D01*
X001177Y004450D02*
X001269Y004358D01*
X001453Y004358D01*
X001544Y004450D01*
X001544Y004542D01*
X001453Y004634D01*
X001269Y004634D01*
X001177Y004725D01*
X001177Y004817D01*
X001269Y004909D01*
X001453Y004909D01*
X001544Y004817D01*
X001730Y004909D02*
X002097Y004909D01*
X001913Y004909D02*
X001913Y004358D01*
X001730Y005358D02*
X001730Y005909D01*
X001544Y005817D02*
X001453Y005909D01*
X001269Y005909D01*
X001177Y005817D01*
X001177Y005450D01*
X001269Y005358D01*
X001453Y005358D01*
X001544Y005450D01*
X001730Y005542D02*
X002097Y005909D01*
X001822Y005634D02*
X002097Y005358D01*
X000992Y005450D02*
X000900Y005358D01*
X000717Y005358D01*
X000625Y005450D01*
X000717Y005634D02*
X000900Y005634D01*
X000992Y005542D01*
X000992Y005450D01*
X000717Y005634D02*
X000625Y005725D01*
X000625Y005817D01*
X000717Y005909D01*
X000900Y005909D01*
X000992Y005817D01*
X000992Y006358D02*
X000992Y006909D01*
X000808Y006725D01*
X000625Y006909D01*
X000625Y006358D01*
X001177Y006358D02*
X001361Y006358D01*
X001269Y006358D02*
X001269Y006909D01*
X001177Y006909D02*
X001361Y006909D01*
X001546Y006817D02*
X001546Y006725D01*
X001638Y006634D01*
X001821Y006634D01*
X001913Y006542D01*
X001913Y006450D01*
X001821Y006358D01*
X001638Y006358D01*
X001546Y006450D01*
X002098Y006450D02*
X002190Y006358D01*
X002373Y006358D01*
X002465Y006450D01*
X002465Y006817D01*
X002373Y006909D01*
X002190Y006909D01*
X002098Y006817D01*
X002098Y006450D01*
X001913Y006817D02*
X001821Y006909D01*
X001638Y006909D01*
X001546Y006817D01*
X001544Y007358D02*
X001544Y007909D01*
X001730Y007909D02*
X002005Y007909D01*
X002097Y007817D01*
X002097Y007450D01*
X002005Y007358D01*
X001730Y007358D01*
X001730Y007909D01*
X001177Y007909D02*
X001544Y007358D01*
X001177Y007358D02*
X001177Y007909D01*
X000992Y007817D02*
X000900Y007909D01*
X000717Y007909D01*
X000625Y007817D01*
X000625Y007450D01*
X000717Y007358D01*
X000900Y007358D01*
X000992Y007450D01*
X000992Y007634D01*
X000808Y007634D01*
D12*
X024246Y006325D03*
X025033Y006325D03*
X025033Y005341D03*
X024246Y005341D03*
D13*
X026100Y003463D03*
X026100Y008203D03*
D14*
X021600Y007833D03*
X019100Y008833D03*
X016100Y008833D03*
X015600Y010333D03*
X018600Y010333D03*
X021600Y004833D03*
X015600Y003333D03*
X013600Y003333D03*
X013600Y002333D03*
X012100Y002333D03*
X009100Y002333D03*
X015600Y002333D03*
X018100Y002333D03*
X021100Y002333D03*
D15*
X023100Y003503D02*
X023100Y004163D01*
X020100Y004003D02*
X020100Y004663D01*
X023100Y007503D02*
X023100Y008163D01*
X020100Y008003D02*
X020100Y008663D01*
D16*
X022100Y009833D03*
X023100Y009833D03*
X014600Y009833D03*
X013100Y009833D03*
X013100Y008833D03*
X014600Y008833D03*
X006100Y008833D03*
X006100Y009833D03*
D17*
X008600Y009553D02*
X008600Y009113D01*
X010600Y009113D02*
X010600Y009553D01*
D18*
X010600Y007593D02*
X010600Y007073D01*
X011600Y007073D02*
X011600Y007593D01*
X012600Y007593D02*
X012600Y007073D01*
X013600Y007073D02*
X013600Y007593D01*
X014600Y007593D02*
X014600Y007073D01*
X015600Y007073D02*
X015600Y007593D01*
X016600Y007593D02*
X016600Y007073D01*
X017600Y007073D02*
X017600Y007593D01*
X018600Y007593D02*
X018600Y007073D01*
X018600Y004593D02*
X018600Y004073D01*
X017600Y004073D02*
X017600Y004593D01*
X016600Y004593D02*
X016600Y004073D01*
X015600Y004073D02*
X015600Y004593D01*
X014600Y004593D02*
X014600Y004073D01*
X013600Y004073D02*
X013600Y004593D01*
X012600Y004593D02*
X012600Y004073D01*
X011600Y004073D02*
X011600Y004593D01*
X010600Y004593D02*
X010600Y004073D01*
X009600Y004073D02*
X009600Y004593D01*
X008600Y004593D02*
X008600Y004073D01*
X007600Y004073D02*
X007600Y004593D01*
X006600Y004593D02*
X006600Y004073D01*
X005600Y004073D02*
X005600Y004593D01*
X005600Y007073D02*
X005600Y007593D01*
X006600Y007593D02*
X006600Y007073D01*
X007600Y007073D02*
X007600Y007593D01*
X008600Y007593D02*
X008600Y007073D01*
X009600Y007073D02*
X009600Y007593D01*
D19*
X003880Y007833D02*
X003320Y007833D01*
X003320Y006833D02*
X003880Y006833D01*
X003880Y005833D02*
X003320Y005833D01*
X003320Y004833D02*
X003880Y004833D01*
X003880Y003833D02*
X003320Y003833D01*
D20*
X005600Y004333D02*
X005600Y002333D01*
X008600Y003333D02*
X011100Y003333D01*
D21*
X011100Y003333D03*
X008600Y003333D03*
X005600Y002333D03*
M02*
