G75*
G70*
%OFA0B0*%
%FSLAX24Y24*%
%IPPOS*%
%LPD*%
%AMOC8*
5,1,8,0,0,1.08239X$1,22.5*
%
%ADD10C,0.0000*%
%ADD11C,0.0100*%
%ADD12C,0.0020*%
%ADD13C,0.0040*%
%ADD14C,0.0010*%
%ADD15C,0.0060*%
%ADD16R,0.0150X0.0200*%
%ADD17R,0.0200X0.0150*%
%ADD18C,0.0050*%
%ADD19R,0.0900X0.0200*%
%ADD20R,0.0300X0.0700*%
D10*
X000100Y000333D02*
X000100Y011329D01*
X028470Y011329D01*
X028470Y000333D01*
X000100Y000333D01*
D11*
X013997Y002138D02*
X014045Y002168D01*
X014090Y002201D01*
X014133Y002237D01*
X014174Y002275D01*
X014211Y002317D01*
X014246Y002361D01*
X014277Y002407D01*
X014306Y002456D01*
X014330Y002506D01*
X014351Y002558D01*
X014369Y002612D01*
X014382Y002666D01*
X014392Y002721D01*
X014398Y002777D01*
X014400Y002833D01*
X013224Y002127D02*
X013177Y002154D01*
X013132Y002184D01*
X013089Y002217D01*
X013049Y002253D01*
X013011Y002292D01*
X012976Y002333D01*
X012943Y002376D01*
X012914Y002421D01*
X012888Y002469D01*
X012865Y002518D01*
X012845Y002568D01*
X012829Y002619D01*
X012816Y002672D01*
X012807Y002725D01*
X012802Y002779D01*
X012800Y002833D01*
X014117Y003444D02*
X014156Y003408D01*
X014194Y003369D01*
X014228Y003329D01*
X014260Y003286D01*
X014288Y003241D01*
X014314Y003194D01*
X014337Y003145D01*
X014356Y003095D01*
X014372Y003044D01*
X014384Y002992D01*
X014393Y002940D01*
X014398Y002886D01*
X014400Y002833D01*
X013088Y003448D02*
X013048Y003412D01*
X013010Y003373D01*
X012975Y003332D01*
X012943Y003289D01*
X012913Y003244D01*
X012887Y003197D01*
X012865Y003148D01*
X012845Y003097D01*
X012829Y003046D01*
X012816Y002994D01*
X012807Y002940D01*
X012802Y002887D01*
X012800Y002833D01*
X015997Y002138D02*
X016045Y002168D01*
X016090Y002201D01*
X016133Y002237D01*
X016174Y002275D01*
X016211Y002317D01*
X016246Y002361D01*
X016277Y002407D01*
X016306Y002456D01*
X016330Y002506D01*
X016351Y002558D01*
X016369Y002612D01*
X016382Y002666D01*
X016392Y002721D01*
X016398Y002777D01*
X016400Y002833D01*
X015224Y002127D02*
X015177Y002154D01*
X015132Y002184D01*
X015089Y002217D01*
X015049Y002253D01*
X015011Y002292D01*
X014976Y002333D01*
X014943Y002376D01*
X014914Y002421D01*
X014888Y002469D01*
X014865Y002518D01*
X014845Y002568D01*
X014829Y002619D01*
X014816Y002672D01*
X014807Y002725D01*
X014802Y002779D01*
X014800Y002833D01*
X016117Y003444D02*
X016156Y003408D01*
X016194Y003369D01*
X016228Y003329D01*
X016260Y003286D01*
X016288Y003241D01*
X016314Y003194D01*
X016337Y003145D01*
X016356Y003095D01*
X016372Y003044D01*
X016384Y002992D01*
X016393Y002940D01*
X016398Y002886D01*
X016400Y002833D01*
X015088Y003448D02*
X015048Y003412D01*
X015010Y003373D01*
X014975Y003332D01*
X014943Y003289D01*
X014913Y003244D01*
X014887Y003197D01*
X014865Y003148D01*
X014845Y003097D01*
X014829Y003046D01*
X014816Y002994D01*
X014807Y002940D01*
X014802Y002887D01*
X014800Y002833D01*
X023895Y003510D02*
X025346Y003510D01*
X023895Y003510D02*
X023895Y008156D01*
X025346Y008156D01*
X026895Y008156D02*
X030096Y008156D01*
X030096Y003510D01*
X026895Y003510D01*
X014900Y009233D02*
X014600Y009233D01*
X014300Y009233D01*
X014300Y009433D02*
X014600Y009433D01*
X014900Y009433D01*
X013400Y009433D02*
X013100Y009433D01*
X012800Y009433D01*
X012800Y009233D02*
X013100Y009233D01*
X013400Y009233D01*
X006400Y009233D02*
X006100Y009233D01*
X005800Y009233D01*
X005800Y009433D02*
X006100Y009433D01*
X006400Y009433D01*
X022500Y009533D02*
X022500Y009833D01*
X022500Y010133D01*
X022700Y010133D02*
X022700Y009833D01*
X022700Y009533D01*
D12*
X025834Y007471D02*
X026009Y007471D01*
X026206Y007473D02*
X026551Y007473D01*
X026010Y007473D02*
X026005Y007424D01*
X026003Y007375D01*
X026005Y007326D01*
X026010Y007277D01*
X026009Y007276D02*
X026011Y007249D01*
X026016Y007223D01*
X026025Y007198D01*
X026038Y007174D01*
X026053Y007152D01*
X026072Y007132D01*
X026092Y007115D01*
X026115Y007101D01*
X026140Y007090D01*
X026166Y007083D01*
X026193Y007079D01*
X026219Y007079D01*
X026246Y007083D01*
X026272Y007090D01*
X026297Y007101D01*
X026320Y007115D01*
X026340Y007132D01*
X026359Y007152D01*
X026374Y007174D01*
X026387Y007198D01*
X026396Y007223D01*
X026401Y007249D01*
X026403Y007276D01*
X026206Y007276D01*
X026206Y007473D01*
X025812Y007178D02*
X025814Y007139D01*
X025820Y007101D01*
X025829Y007064D01*
X025842Y007027D01*
X025859Y006992D01*
X025878Y006959D01*
X025901Y006928D01*
X025927Y006899D01*
X025956Y006873D01*
X025987Y006850D01*
X026020Y006831D01*
X026055Y006814D01*
X026092Y006801D01*
X026129Y006792D01*
X026167Y006786D01*
X026206Y006784D01*
X026245Y006786D01*
X026283Y006792D01*
X026320Y006801D01*
X026357Y006814D01*
X026392Y006831D01*
X026425Y006850D01*
X026456Y006873D01*
X026485Y006899D01*
X026511Y006928D01*
X026534Y006959D01*
X026553Y006992D01*
X026570Y007027D01*
X026583Y007064D01*
X026592Y007101D01*
X026598Y007139D01*
X026600Y007178D01*
X025813Y007178D02*
X025812Y007253D01*
X025816Y007328D01*
X025823Y007403D01*
X025834Y007477D01*
X026551Y007473D02*
X026568Y007416D01*
X026582Y007357D01*
X026592Y007298D01*
X026598Y007238D01*
X026600Y007178D01*
X026600Y006686D02*
X026305Y006489D01*
X026157Y006341D02*
X026157Y006194D01*
X026009Y006194D01*
X026009Y006341D01*
X026011Y006356D01*
X026015Y006371D01*
X026023Y006384D01*
X026033Y006396D01*
X026046Y006405D01*
X026060Y006411D01*
X026075Y006415D01*
X026091Y006415D01*
X026106Y006411D01*
X026120Y006405D01*
X026133Y006396D01*
X026143Y006384D01*
X026151Y006371D01*
X026155Y006356D01*
X026157Y006341D01*
X026305Y006489D02*
X026303Y006519D01*
X026298Y006548D01*
X026289Y006576D01*
X026277Y006603D01*
X026261Y006629D01*
X026243Y006652D01*
X026222Y006673D01*
X026199Y006691D01*
X026173Y006707D01*
X026146Y006719D01*
X026118Y006728D01*
X026089Y006733D01*
X026059Y006735D01*
X026029Y006733D01*
X026000Y006728D01*
X025972Y006719D01*
X025945Y006707D01*
X025919Y006691D01*
X025896Y006673D01*
X025875Y006652D01*
X025857Y006629D01*
X025841Y006603D01*
X025829Y006576D01*
X025820Y006548D01*
X025815Y006519D01*
X025813Y006489D01*
X025813Y005948D01*
X026600Y005948D01*
X026600Y006194D01*
X026305Y006194D01*
X026600Y006390D01*
X026600Y006686D01*
X026600Y005849D02*
X026403Y005849D01*
X026403Y005406D01*
X026305Y005406D01*
X026305Y005849D01*
X026108Y005849D01*
X026108Y005406D01*
X026009Y005406D01*
X026009Y005849D01*
X025813Y005849D01*
X025813Y005160D01*
X026600Y005160D01*
X026600Y005849D01*
X026600Y004865D02*
X026600Y004570D01*
X026403Y004865D01*
X026600Y004865D02*
X026598Y004892D01*
X026593Y004918D01*
X026584Y004943D01*
X026571Y004967D01*
X026556Y004989D01*
X026537Y005009D01*
X026517Y005026D01*
X026494Y005040D01*
X026469Y005051D01*
X026443Y005058D01*
X026416Y005062D01*
X026390Y005062D01*
X026363Y005058D01*
X026337Y005051D01*
X026312Y005040D01*
X026289Y005026D01*
X026269Y005009D01*
X026250Y004989D01*
X026235Y004967D01*
X026222Y004943D01*
X026213Y004918D01*
X026208Y004892D01*
X026206Y004865D01*
X026204Y004892D01*
X026199Y004918D01*
X026190Y004943D01*
X026177Y004967D01*
X026162Y004989D01*
X026143Y005009D01*
X026123Y005026D01*
X026100Y005040D01*
X026075Y005051D01*
X026049Y005058D01*
X026022Y005062D01*
X025996Y005062D01*
X025969Y005058D01*
X025943Y005051D01*
X025918Y005040D01*
X025895Y005026D01*
X025875Y005009D01*
X025856Y004989D01*
X025841Y004967D01*
X025828Y004943D01*
X025819Y004918D01*
X025814Y004892D01*
X025812Y004865D01*
X025813Y004865D02*
X025813Y004570D01*
X026009Y004865D01*
X026206Y004570D01*
X026403Y004865D01*
X026206Y004570D02*
X025813Y004570D01*
X025813Y004323D01*
X026600Y004323D01*
X026600Y004570D01*
X026206Y004570D01*
X010950Y008633D02*
X008250Y008633D01*
X008199Y008635D01*
X008148Y008640D01*
X008098Y008650D01*
X008048Y008663D01*
X008000Y008679D01*
X007953Y008699D01*
X007907Y008723D01*
X007864Y008749D01*
X007822Y008779D01*
X007783Y008812D01*
X007746Y008847D01*
X007712Y008885D01*
X007681Y008926D01*
X007652Y008968D01*
X007627Y009013D01*
X007606Y009059D01*
X007587Y009107D01*
X007573Y009156D01*
X007562Y009206D01*
X007554Y009256D01*
X007550Y009307D01*
X007550Y009359D01*
X007554Y009410D01*
X007562Y009460D01*
X007573Y009510D01*
X007587Y009559D01*
X007606Y009607D01*
X007627Y009653D01*
X007652Y009698D01*
X007681Y009740D01*
X007712Y009781D01*
X007746Y009819D01*
X007783Y009854D01*
X007822Y009887D01*
X007864Y009917D01*
X007907Y009943D01*
X007953Y009967D01*
X008000Y009987D01*
X008048Y010003D01*
X008098Y010016D01*
X008148Y010026D01*
X008199Y010031D01*
X008250Y010033D01*
X010950Y010033D01*
X011001Y010031D01*
X011052Y010026D01*
X011102Y010016D01*
X011152Y010003D01*
X011200Y009987D01*
X011247Y009967D01*
X011293Y009943D01*
X011336Y009917D01*
X011378Y009887D01*
X011417Y009854D01*
X011454Y009819D01*
X011488Y009781D01*
X011519Y009740D01*
X011548Y009698D01*
X011573Y009653D01*
X011594Y009607D01*
X011613Y009559D01*
X011627Y009510D01*
X011638Y009460D01*
X011646Y009410D01*
X011650Y009359D01*
X011650Y009307D01*
X011646Y009256D01*
X011638Y009206D01*
X011627Y009156D01*
X011613Y009107D01*
X011594Y009059D01*
X011573Y009013D01*
X011548Y008968D01*
X011519Y008926D01*
X011488Y008885D01*
X011454Y008847D01*
X011417Y008812D01*
X011378Y008779D01*
X011336Y008749D01*
X011293Y008723D01*
X011247Y008699D01*
X011200Y008679D01*
X011152Y008663D01*
X011102Y008650D01*
X011052Y008640D01*
X011001Y008635D01*
X010950Y008633D01*
D13*
X016120Y010863D02*
X016120Y011214D01*
X016295Y011214D01*
X016354Y011155D01*
X016354Y011038D01*
X016295Y010980D01*
X016120Y010980D01*
X016237Y010980D02*
X016354Y010863D01*
X016479Y010863D02*
X016713Y010863D01*
X016596Y010863D02*
X016596Y011214D01*
X016479Y011097D01*
X017902Y008304D02*
X018077Y008304D01*
X018135Y008245D01*
X018135Y008128D01*
X018077Y008070D01*
X017902Y008070D01*
X018019Y008070D02*
X018135Y007953D01*
X018261Y008012D02*
X018319Y007953D01*
X018436Y007953D01*
X018494Y008012D01*
X018494Y008070D01*
X018436Y008128D01*
X018261Y008128D01*
X018261Y008012D01*
X018261Y008128D02*
X018378Y008245D01*
X018494Y008304D01*
X017902Y008304D02*
X017902Y007953D01*
X020720Y005888D02*
X020778Y005946D01*
X020836Y005946D01*
X021070Y005712D01*
X021070Y005946D01*
X020720Y005888D02*
X020720Y005771D01*
X020778Y005712D01*
X020778Y005587D02*
X020895Y005587D01*
X020953Y005528D01*
X020953Y005353D01*
X021070Y005353D02*
X020720Y005353D01*
X020720Y005528D01*
X020778Y005587D01*
X020953Y005470D02*
X021070Y005587D01*
X023580Y004121D02*
X023580Y003814D01*
X023580Y003660D02*
X023120Y003353D01*
X023120Y003660D02*
X023580Y003353D01*
X023273Y003814D02*
X023120Y003967D01*
X023580Y003967D01*
X020494Y001745D02*
X020494Y001687D01*
X020436Y001628D01*
X020494Y001570D01*
X020494Y001512D01*
X020436Y001453D01*
X020319Y001453D01*
X020261Y001512D01*
X020135Y001453D02*
X020019Y001570D01*
X020077Y001570D02*
X019902Y001570D01*
X019902Y001453D02*
X019902Y001804D01*
X020077Y001804D01*
X020135Y001745D01*
X020135Y001628D01*
X020077Y001570D01*
X020378Y001628D02*
X020436Y001628D01*
X020494Y001745D02*
X020436Y001804D01*
X020319Y001804D01*
X020261Y001745D01*
X010213Y003038D02*
X009979Y003038D01*
X010154Y003214D01*
X010154Y002863D01*
X009854Y002863D02*
X009737Y002980D01*
X009795Y002980D02*
X009620Y002980D01*
X009620Y002863D02*
X009620Y003214D01*
X009795Y003214D01*
X009854Y003155D01*
X009854Y003038D01*
X009795Y002980D01*
D14*
X026748Y004338D02*
X026898Y004338D01*
X026898Y004438D01*
X026823Y004388D02*
X026823Y004338D01*
X026748Y004338D02*
X026748Y004438D01*
X026748Y004633D02*
X026898Y004633D01*
X026898Y004733D01*
X026898Y004928D02*
X026898Y005028D01*
X026823Y004978D02*
X026823Y004928D01*
X026748Y004928D02*
X026898Y004928D01*
X026748Y004928D02*
X026748Y005028D01*
X026773Y005222D02*
X026873Y005222D01*
X026898Y005247D01*
X026898Y005297D01*
X026873Y005322D01*
X026773Y005322D02*
X026748Y005297D01*
X026748Y005247D01*
X026773Y005222D01*
X026748Y005517D02*
X026748Y005617D01*
X026748Y005567D02*
X026898Y005567D01*
X026898Y005812D02*
X026748Y005812D01*
X026748Y005887D01*
X026773Y005912D01*
X026823Y005912D01*
X026848Y005887D01*
X026848Y005812D01*
X026848Y005862D02*
X026898Y005912D01*
X026873Y006106D02*
X026898Y006131D01*
X026898Y006181D01*
X026873Y006206D01*
X026773Y006206D01*
X026748Y006181D01*
X026748Y006131D01*
X026773Y006106D01*
X026873Y006106D01*
X026898Y006401D02*
X026748Y006401D01*
X026898Y006501D01*
X026748Y006501D01*
X026748Y006696D02*
X026748Y006746D01*
X026748Y006721D02*
X026898Y006721D01*
X026898Y006696D02*
X026898Y006746D01*
X026873Y006941D02*
X026898Y006966D01*
X026898Y007016D01*
X026873Y007041D01*
X026873Y006941D02*
X026773Y006941D01*
X026748Y006966D01*
X026748Y007016D01*
X026773Y007041D01*
X026773Y007236D02*
X026798Y007236D01*
X026823Y007261D01*
X026823Y007311D01*
X026848Y007336D01*
X026873Y007336D01*
X026898Y007311D01*
X026898Y007261D01*
X026873Y007236D01*
X026773Y007236D02*
X026748Y007261D01*
X026748Y007311D01*
X026773Y007336D01*
D15*
X023550Y006583D02*
X023550Y005083D01*
X023548Y005066D01*
X023544Y005049D01*
X023537Y005033D01*
X023527Y005019D01*
X023514Y005006D01*
X023500Y004996D01*
X023484Y004989D01*
X023467Y004985D01*
X023450Y004983D01*
X023350Y004983D01*
X023300Y004983D01*
X023250Y004983D01*
X022950Y004983D01*
X022950Y004883D01*
X022900Y004983D01*
X022950Y004983D01*
X022900Y004983D02*
X022850Y004983D01*
X022750Y004983D01*
X022850Y004983D02*
X022950Y004833D01*
X022950Y004883D01*
X022950Y004833D02*
X023250Y004833D01*
X023250Y004883D01*
X023250Y004983D01*
X023300Y004983D02*
X023250Y004883D01*
X023250Y004833D02*
X023350Y004983D01*
X022750Y004983D02*
X022733Y004985D01*
X022716Y004989D01*
X022700Y004996D01*
X022686Y005006D01*
X022673Y005019D01*
X022663Y005033D01*
X022656Y005049D01*
X022652Y005066D01*
X022650Y005083D01*
X022650Y006583D01*
X022652Y006600D01*
X022656Y006617D01*
X022663Y006633D01*
X022673Y006647D01*
X022686Y006660D01*
X022700Y006670D01*
X022716Y006677D01*
X022733Y006681D01*
X022750Y006683D01*
X022850Y006683D01*
X022900Y006683D01*
X022950Y006683D01*
X023250Y006683D01*
X023250Y006783D01*
X023300Y006683D01*
X023250Y006683D01*
X023300Y006683D02*
X023350Y006683D01*
X023450Y006683D01*
X023467Y006681D01*
X023484Y006677D01*
X023500Y006670D01*
X023514Y006660D01*
X023527Y006647D01*
X023537Y006633D01*
X023544Y006617D01*
X023548Y006600D01*
X023550Y006583D01*
X023350Y006683D02*
X023250Y006833D01*
X023250Y006783D01*
X023250Y006833D02*
X022950Y006833D01*
X022950Y006783D01*
X022950Y006683D01*
X022900Y006683D02*
X022950Y006783D01*
X022950Y006833D02*
X022850Y006683D01*
X023100Y006433D02*
X023100Y005833D01*
X022850Y005833D01*
X023100Y005833D02*
X023350Y005833D01*
X023100Y005833D02*
X022850Y006233D01*
X023350Y006233D01*
X023100Y005833D01*
X023100Y005583D01*
X022000Y005583D02*
X022000Y005433D01*
X021998Y005416D01*
X021994Y005399D01*
X021987Y005383D01*
X021977Y005369D01*
X021964Y005356D01*
X021950Y005346D01*
X021934Y005339D01*
X021917Y005335D01*
X021900Y005333D01*
X021300Y005333D01*
X021283Y005335D01*
X021266Y005339D01*
X021250Y005346D01*
X021236Y005356D01*
X021223Y005369D01*
X021213Y005383D01*
X021206Y005399D01*
X021202Y005416D01*
X021200Y005433D01*
X021200Y005583D01*
X021250Y005633D01*
X021250Y007033D01*
X021200Y007083D01*
X021200Y007233D01*
X021202Y007250D01*
X021206Y007267D01*
X021213Y007283D01*
X021223Y007297D01*
X021236Y007310D01*
X021250Y007320D01*
X021266Y007327D01*
X021283Y007331D01*
X021300Y007333D01*
X021900Y007333D01*
X021917Y007331D01*
X021934Y007327D01*
X021950Y007320D01*
X021964Y007310D01*
X021977Y007297D01*
X021987Y007283D01*
X021994Y007267D01*
X021998Y007250D01*
X022000Y007233D01*
X022000Y007083D01*
X021950Y007033D01*
X021950Y005633D01*
X022000Y005583D01*
X020550Y005583D02*
X020550Y007083D01*
X020548Y007100D01*
X020544Y007117D01*
X020537Y007133D01*
X020527Y007147D01*
X020514Y007160D01*
X020500Y007170D01*
X020484Y007177D01*
X020467Y007181D01*
X020450Y007183D01*
X020350Y007183D01*
X020300Y007183D01*
X020250Y007183D01*
X019950Y007183D01*
X019900Y007183D01*
X019850Y007183D01*
X019750Y007183D01*
X019733Y007181D01*
X019716Y007177D01*
X019700Y007170D01*
X019686Y007160D01*
X019673Y007147D01*
X019663Y007133D01*
X019656Y007117D01*
X019652Y007100D01*
X019650Y007083D01*
X019650Y005583D01*
X019652Y005566D01*
X019656Y005549D01*
X019663Y005533D01*
X019673Y005519D01*
X019686Y005506D01*
X019700Y005496D01*
X019716Y005489D01*
X019733Y005485D01*
X019750Y005483D01*
X019850Y005483D01*
X019900Y005483D01*
X019950Y005483D01*
X020250Y005483D01*
X020300Y005483D01*
X020350Y005483D01*
X020450Y005483D01*
X020350Y005483D02*
X020250Y005333D01*
X020250Y005383D01*
X020250Y005483D01*
X020300Y005483D02*
X020250Y005383D01*
X020250Y005333D02*
X019950Y005333D01*
X019950Y005383D01*
X019950Y005483D01*
X019900Y005483D02*
X019950Y005383D01*
X019950Y005333D02*
X019850Y005483D01*
X020100Y005733D02*
X020100Y006333D01*
X020350Y006333D01*
X020100Y006333D02*
X019850Y006333D01*
X020100Y006333D02*
X020350Y005933D01*
X019850Y005933D01*
X020100Y006333D01*
X020100Y006583D01*
X019100Y006233D02*
X019100Y006983D01*
X005100Y006983D01*
X005100Y004683D01*
X019100Y004683D01*
X019100Y005433D01*
X019061Y005435D01*
X019022Y005441D01*
X018984Y005450D01*
X018947Y005463D01*
X018911Y005480D01*
X018878Y005500D01*
X018846Y005524D01*
X018817Y005550D01*
X018791Y005579D01*
X018767Y005611D01*
X018747Y005644D01*
X018730Y005680D01*
X018717Y005717D01*
X018708Y005755D01*
X018702Y005794D01*
X018700Y005833D01*
X018702Y005872D01*
X018708Y005911D01*
X018717Y005949D01*
X018730Y005986D01*
X018747Y006022D01*
X018767Y006055D01*
X018791Y006087D01*
X018817Y006116D01*
X018846Y006142D01*
X018878Y006166D01*
X018911Y006186D01*
X018947Y006203D01*
X018984Y006216D01*
X019022Y006225D01*
X019061Y006231D01*
X019100Y006233D01*
X020450Y005483D02*
X020467Y005485D01*
X020484Y005489D01*
X020500Y005496D01*
X020514Y005506D01*
X020527Y005519D01*
X020537Y005533D01*
X020544Y005549D01*
X020548Y005566D01*
X020550Y005583D01*
X020350Y007183D02*
X020250Y007333D01*
X020250Y007283D01*
X020250Y007183D01*
X020300Y007183D02*
X020250Y007283D01*
X020250Y007333D02*
X019950Y007333D01*
X019950Y007283D01*
X019950Y007183D01*
X019900Y007183D02*
X019950Y007283D01*
X019950Y007333D02*
X019850Y007183D01*
X018500Y008433D02*
X018350Y008433D01*
X018300Y008483D01*
X016900Y008483D01*
X016850Y008433D01*
X016700Y008433D01*
X016683Y008435D01*
X016666Y008439D01*
X016650Y008446D01*
X016636Y008456D01*
X016623Y008469D01*
X016613Y008483D01*
X016606Y008499D01*
X016602Y008516D01*
X016600Y008533D01*
X016600Y009133D01*
X016602Y009150D01*
X016606Y009167D01*
X016613Y009183D01*
X016623Y009197D01*
X016636Y009210D01*
X016650Y009220D01*
X016666Y009227D01*
X016683Y009231D01*
X016700Y009233D01*
X016850Y009233D01*
X016900Y009183D01*
X018300Y009183D01*
X018350Y009233D01*
X018500Y009233D01*
X018517Y009231D01*
X018534Y009227D01*
X018550Y009220D01*
X018564Y009210D01*
X018577Y009197D01*
X018587Y009183D01*
X018594Y009167D01*
X018598Y009150D01*
X018600Y009133D01*
X018600Y008533D01*
X018598Y008516D01*
X018594Y008499D01*
X018587Y008483D01*
X018577Y008469D01*
X018564Y008456D01*
X018550Y008446D01*
X018534Y008439D01*
X018517Y008435D01*
X018500Y008433D01*
X021650Y009333D02*
X021650Y010333D01*
X021652Y010350D01*
X021656Y010367D01*
X021663Y010383D01*
X021673Y010397D01*
X021686Y010410D01*
X021700Y010420D01*
X021716Y010427D01*
X021733Y010431D01*
X021750Y010433D01*
X023450Y010433D01*
X023467Y010431D01*
X023484Y010427D01*
X023500Y010420D01*
X023514Y010410D01*
X023527Y010397D01*
X023537Y010383D01*
X023544Y010367D01*
X023548Y010350D01*
X023550Y010333D01*
X023550Y009333D01*
X023548Y009316D01*
X023544Y009299D01*
X023537Y009283D01*
X023527Y009269D01*
X023514Y009256D01*
X023500Y009246D01*
X023484Y009239D01*
X023467Y009235D01*
X023450Y009233D01*
X021750Y009233D01*
X021733Y009235D01*
X021716Y009239D01*
X021700Y009246D01*
X021686Y009256D01*
X021673Y009269D01*
X021663Y009283D01*
X021656Y009299D01*
X021652Y009316D01*
X021650Y009333D01*
X022450Y009833D02*
X022500Y009833D01*
X022700Y009833D02*
X022750Y009833D01*
X018100Y010033D02*
X018100Y010633D01*
X018098Y010650D01*
X018094Y010667D01*
X018087Y010683D01*
X018077Y010697D01*
X018064Y010710D01*
X018050Y010720D01*
X018034Y010727D01*
X018017Y010731D01*
X018000Y010733D01*
X017850Y010733D01*
X017800Y010683D01*
X016400Y010683D01*
X016350Y010733D01*
X016200Y010733D01*
X016183Y010731D01*
X016166Y010727D01*
X016150Y010720D01*
X016136Y010710D01*
X016123Y010697D01*
X016113Y010683D01*
X016106Y010667D01*
X016102Y010650D01*
X016100Y010633D01*
X016100Y010033D01*
X016102Y010016D01*
X016106Y009999D01*
X016113Y009983D01*
X016123Y009969D01*
X016136Y009956D01*
X016150Y009946D01*
X016166Y009939D01*
X016183Y009935D01*
X016200Y009933D01*
X016350Y009933D01*
X016400Y009983D01*
X017800Y009983D01*
X017850Y009933D01*
X018000Y009933D01*
X018017Y009935D01*
X018034Y009939D01*
X018050Y009946D01*
X018064Y009956D01*
X018077Y009969D01*
X018087Y009983D01*
X018094Y009999D01*
X018098Y010016D01*
X018100Y010033D01*
X015200Y010183D02*
X015200Y008483D01*
X015198Y008466D01*
X015194Y008449D01*
X015187Y008433D01*
X015177Y008419D01*
X015164Y008406D01*
X015150Y008396D01*
X015134Y008389D01*
X015117Y008385D01*
X015100Y008383D01*
X014100Y008383D01*
X014083Y008385D01*
X014066Y008389D01*
X014050Y008396D01*
X014036Y008406D01*
X014023Y008419D01*
X014013Y008433D01*
X014006Y008449D01*
X014002Y008466D01*
X014000Y008483D01*
X014000Y010183D01*
X014002Y010200D01*
X014006Y010217D01*
X014013Y010233D01*
X014023Y010247D01*
X014036Y010260D01*
X014050Y010270D01*
X014066Y010277D01*
X014083Y010281D01*
X014100Y010283D01*
X015100Y010283D01*
X015117Y010281D01*
X015134Y010277D01*
X015150Y010270D01*
X015164Y010260D01*
X015177Y010247D01*
X015187Y010233D01*
X015194Y010217D01*
X015198Y010200D01*
X015200Y010183D01*
X013700Y010183D02*
X013700Y008483D01*
X013698Y008466D01*
X013694Y008449D01*
X013687Y008433D01*
X013677Y008419D01*
X013664Y008406D01*
X013650Y008396D01*
X013634Y008389D01*
X013617Y008385D01*
X013600Y008383D01*
X012600Y008383D01*
X012583Y008385D01*
X012566Y008389D01*
X012550Y008396D01*
X012536Y008406D01*
X012523Y008419D01*
X012513Y008433D01*
X012506Y008449D01*
X012502Y008466D01*
X012500Y008483D01*
X012500Y010183D01*
X012502Y010200D01*
X012506Y010217D01*
X012513Y010233D01*
X012523Y010247D01*
X012536Y010260D01*
X012550Y010270D01*
X012566Y010277D01*
X012583Y010281D01*
X012600Y010283D01*
X013600Y010283D01*
X013617Y010281D01*
X013634Y010277D01*
X013650Y010270D01*
X013664Y010260D01*
X013677Y010247D01*
X013687Y010233D01*
X013694Y010217D01*
X013698Y010200D01*
X013700Y010183D01*
X013100Y009483D02*
X013100Y009433D01*
X013100Y009233D02*
X013100Y009183D01*
X014600Y009233D02*
X014600Y009183D01*
X014600Y009433D02*
X014600Y009483D01*
X010950Y010233D02*
X011009Y010231D01*
X011067Y010225D01*
X011126Y010216D01*
X011183Y010202D01*
X011239Y010185D01*
X011294Y010164D01*
X011348Y010140D01*
X011400Y010112D01*
X011450Y010081D01*
X011498Y010047D01*
X011543Y010010D01*
X011586Y009969D01*
X011627Y009926D01*
X011664Y009881D01*
X011698Y009833D01*
X011729Y009783D01*
X011757Y009731D01*
X011781Y009677D01*
X011802Y009622D01*
X011819Y009566D01*
X011833Y009509D01*
X011842Y009450D01*
X011848Y009392D01*
X011850Y009333D01*
X011848Y009274D01*
X011842Y009216D01*
X011833Y009157D01*
X011819Y009100D01*
X011802Y009044D01*
X011781Y008989D01*
X011757Y008935D01*
X011729Y008883D01*
X011698Y008833D01*
X011664Y008785D01*
X011627Y008740D01*
X011586Y008697D01*
X011543Y008656D01*
X011498Y008619D01*
X011450Y008585D01*
X011400Y008554D01*
X011348Y008526D01*
X011294Y008502D01*
X011239Y008481D01*
X011183Y008464D01*
X011126Y008450D01*
X011067Y008441D01*
X011009Y008435D01*
X010950Y008433D01*
X008250Y008433D01*
X006700Y008483D02*
X006700Y010183D01*
X006698Y010200D01*
X006694Y010217D01*
X006687Y010233D01*
X006677Y010247D01*
X006664Y010260D01*
X006650Y010270D01*
X006634Y010277D01*
X006617Y010281D01*
X006600Y010283D01*
X005600Y010283D01*
X005583Y010281D01*
X005566Y010277D01*
X005550Y010270D01*
X005536Y010260D01*
X005523Y010247D01*
X005513Y010233D01*
X005506Y010217D01*
X005502Y010200D01*
X005500Y010183D01*
X005500Y008483D01*
X005502Y008466D01*
X005506Y008449D01*
X005513Y008433D01*
X005523Y008419D01*
X005536Y008406D01*
X005550Y008396D01*
X005566Y008389D01*
X005583Y008385D01*
X005600Y008383D01*
X006600Y008383D01*
X006617Y008385D01*
X006634Y008389D01*
X006650Y008396D01*
X006664Y008406D01*
X006677Y008419D01*
X006687Y008433D01*
X006694Y008449D01*
X006698Y008466D01*
X006700Y008483D01*
X006100Y009183D02*
X006100Y009233D01*
X006100Y009433D02*
X006100Y009483D01*
X008250Y010233D02*
X008191Y010231D01*
X008133Y010225D01*
X008074Y010216D01*
X008017Y010202D01*
X007961Y010185D01*
X007906Y010164D01*
X007852Y010140D01*
X007800Y010112D01*
X007750Y010081D01*
X007702Y010047D01*
X007657Y010010D01*
X007614Y009969D01*
X007573Y009926D01*
X007536Y009881D01*
X007502Y009833D01*
X007471Y009783D01*
X007443Y009731D01*
X007419Y009677D01*
X007398Y009622D01*
X007381Y009566D01*
X007367Y009509D01*
X007358Y009450D01*
X007352Y009392D01*
X007350Y009333D01*
X007352Y009274D01*
X007358Y009216D01*
X007367Y009157D01*
X007381Y009100D01*
X007398Y009044D01*
X007419Y008989D01*
X007443Y008935D01*
X007471Y008883D01*
X007502Y008833D01*
X007536Y008785D01*
X007573Y008740D01*
X007614Y008697D01*
X007657Y008656D01*
X007702Y008619D01*
X007750Y008585D01*
X007800Y008554D01*
X007852Y008526D01*
X007906Y008502D01*
X007961Y008481D01*
X008017Y008464D01*
X008074Y008450D01*
X008133Y008441D01*
X008191Y008435D01*
X008250Y008433D01*
X004500Y008233D02*
X004500Y007433D01*
X004450Y007433D01*
X004450Y007233D01*
X004500Y007233D01*
X004500Y006433D01*
X004450Y006433D01*
X004450Y006233D01*
X004500Y006233D01*
X004500Y005433D01*
X004450Y005433D01*
X004450Y005233D01*
X004500Y005233D01*
X004500Y004433D01*
X004450Y004433D01*
X004450Y004233D01*
X004500Y004233D01*
X004500Y003433D01*
X004300Y003433D01*
X004200Y003433D01*
X004200Y003583D01*
X004100Y003583D01*
X004100Y004083D01*
X004200Y004083D01*
X004200Y004233D01*
X002950Y004233D01*
X003050Y004333D01*
X002950Y004433D01*
X004200Y004433D01*
X004200Y004583D01*
X004100Y004583D01*
X004100Y005083D01*
X004200Y005083D01*
X004200Y005233D01*
X002900Y005233D01*
X002900Y005433D01*
X002900Y006233D01*
X002900Y006433D01*
X002900Y007183D01*
X002950Y007233D01*
X004200Y007233D01*
X004200Y007433D01*
X002950Y007433D01*
X002900Y007483D01*
X002900Y008233D01*
X004200Y008233D01*
X004300Y008233D01*
X004300Y008083D01*
X004200Y008083D01*
X004100Y008083D01*
X004100Y007583D01*
X004200Y007583D01*
X004200Y007433D01*
X004200Y007583D02*
X004300Y007583D01*
X004300Y007083D01*
X004200Y007083D01*
X004200Y007233D01*
X004200Y007083D02*
X004100Y007083D01*
X004100Y006583D01*
X004200Y006583D01*
X004200Y006433D01*
X004200Y006233D01*
X004200Y006083D01*
X004100Y006083D01*
X004100Y005583D01*
X004200Y005583D01*
X004200Y005433D01*
X002900Y005433D01*
X002900Y005233D02*
X002900Y004483D01*
X002950Y004433D01*
X002650Y004433D02*
X002650Y004233D01*
X002600Y004233D01*
X002600Y003933D01*
X002550Y003933D01*
X002550Y003733D01*
X002600Y003733D01*
X002600Y003433D01*
X002900Y003433D01*
X002900Y004183D01*
X002950Y004233D01*
X002650Y004433D02*
X002600Y004433D01*
X002600Y004733D01*
X002550Y004733D01*
X002550Y004933D01*
X002600Y004933D01*
X002600Y005233D01*
X002650Y005233D01*
X002650Y005433D01*
X002600Y005433D01*
X002600Y005733D01*
X002550Y005733D01*
X002550Y005933D01*
X002600Y005933D01*
X002600Y006233D01*
X002650Y006233D01*
X002650Y006433D01*
X002600Y006433D01*
X002600Y006733D01*
X002550Y006733D01*
X002550Y006933D01*
X002600Y006933D01*
X002600Y007233D01*
X002650Y007233D01*
X002650Y007433D01*
X002600Y007433D01*
X002600Y007733D01*
X002550Y007733D01*
X002550Y007933D01*
X002600Y007933D01*
X002600Y008233D01*
X002900Y008233D01*
X004200Y008233D02*
X004200Y008083D01*
X004300Y008233D02*
X004500Y008233D01*
X003050Y007333D02*
X002950Y007433D01*
X003050Y007333D02*
X002950Y007233D01*
X004200Y006583D02*
X004300Y006583D01*
X004300Y006083D01*
X004200Y006083D01*
X004200Y006233D02*
X002900Y006233D01*
X002900Y006433D02*
X004200Y006433D01*
X004200Y005583D02*
X004300Y005583D01*
X004300Y005083D01*
X004200Y005083D01*
X004200Y005233D02*
X004200Y005433D01*
X004200Y004583D02*
X004300Y004583D01*
X004300Y004083D01*
X004200Y004083D01*
X004200Y004233D02*
X004200Y004433D01*
X004200Y003583D02*
X004300Y003583D01*
X004300Y003433D01*
X004200Y003433D02*
X002900Y003433D01*
X009600Y002633D02*
X009600Y002033D01*
X009602Y002016D01*
X009606Y001999D01*
X009613Y001983D01*
X009623Y001969D01*
X009636Y001956D01*
X009650Y001946D01*
X009666Y001939D01*
X009683Y001935D01*
X009700Y001933D01*
X009850Y001933D01*
X009900Y001983D01*
X011300Y001983D01*
X011350Y001933D01*
X011500Y001933D01*
X011517Y001935D01*
X011534Y001939D01*
X011550Y001946D01*
X011564Y001956D01*
X011577Y001969D01*
X011587Y001983D01*
X011594Y001999D01*
X011598Y002016D01*
X011600Y002033D01*
X011600Y002633D01*
X011598Y002650D01*
X011594Y002667D01*
X011587Y002683D01*
X011577Y002697D01*
X011564Y002710D01*
X011550Y002720D01*
X011534Y002727D01*
X011517Y002731D01*
X011500Y002733D01*
X011350Y002733D01*
X011300Y002683D01*
X009900Y002683D01*
X009850Y002733D01*
X009700Y002733D01*
X009683Y002731D01*
X009666Y002727D01*
X009650Y002720D01*
X009636Y002710D01*
X009623Y002697D01*
X009613Y002683D01*
X009606Y002667D01*
X009602Y002650D01*
X009600Y002633D01*
X013968Y003307D02*
X014003Y003277D01*
X014036Y003246D01*
X014066Y003211D01*
X014093Y003175D01*
X014117Y003137D01*
X014139Y003097D01*
X014157Y003055D01*
X014173Y003012D01*
X014185Y002968D01*
X014193Y002924D01*
X014198Y002878D01*
X014200Y002833D01*
X013240Y002353D02*
X013204Y002382D01*
X013170Y002414D01*
X013139Y002449D01*
X013111Y002485D01*
X013086Y002524D01*
X013063Y002565D01*
X013044Y002607D01*
X013028Y002650D01*
X013016Y002695D01*
X013007Y002741D01*
X013002Y002787D01*
X013000Y002833D01*
X013968Y002359D02*
X014003Y002389D01*
X014036Y002420D01*
X014066Y002455D01*
X014093Y002491D01*
X014117Y002529D01*
X014139Y002569D01*
X014157Y002611D01*
X014173Y002654D01*
X014185Y002698D01*
X014193Y002742D01*
X014198Y002788D01*
X014200Y002833D01*
X013251Y003321D02*
X013214Y003292D01*
X013179Y003260D01*
X013146Y003225D01*
X013116Y003188D01*
X013090Y003149D01*
X013067Y003108D01*
X013046Y003064D01*
X013030Y003020D01*
X013017Y002974D01*
X013008Y002928D01*
X013002Y002880D01*
X013000Y002833D01*
X015968Y002359D02*
X016003Y002389D01*
X016036Y002420D01*
X016066Y002455D01*
X016093Y002491D01*
X016117Y002529D01*
X016139Y002569D01*
X016157Y002611D01*
X016173Y002654D01*
X016185Y002698D01*
X016193Y002742D01*
X016198Y002788D01*
X016200Y002833D01*
X015240Y002353D02*
X015204Y002382D01*
X015170Y002414D01*
X015139Y002449D01*
X015111Y002485D01*
X015086Y002524D01*
X015063Y002565D01*
X015044Y002607D01*
X015028Y002650D01*
X015016Y002695D01*
X015007Y002741D01*
X015002Y002787D01*
X015000Y002833D01*
X015968Y003307D02*
X016003Y003277D01*
X016036Y003246D01*
X016066Y003211D01*
X016093Y003175D01*
X016117Y003137D01*
X016139Y003097D01*
X016157Y003055D01*
X016173Y003012D01*
X016185Y002968D01*
X016193Y002924D01*
X016198Y002878D01*
X016200Y002833D01*
X015251Y003321D02*
X015214Y003292D01*
X015179Y003260D01*
X015146Y003225D01*
X015116Y003188D01*
X015090Y003149D01*
X015067Y003108D01*
X015046Y003064D01*
X015030Y003020D01*
X015017Y002974D01*
X015008Y002928D01*
X015002Y002880D01*
X015000Y002833D01*
X018600Y002633D02*
X018600Y002033D01*
X018602Y002016D01*
X018606Y001999D01*
X018613Y001983D01*
X018623Y001969D01*
X018636Y001956D01*
X018650Y001946D01*
X018666Y001939D01*
X018683Y001935D01*
X018700Y001933D01*
X018850Y001933D01*
X018900Y001983D01*
X020300Y001983D01*
X020350Y001933D01*
X020500Y001933D01*
X020517Y001935D01*
X020534Y001939D01*
X020550Y001946D01*
X020564Y001956D01*
X020577Y001969D01*
X020587Y001983D01*
X020594Y001999D01*
X020598Y002016D01*
X020600Y002033D01*
X020600Y002633D01*
X020598Y002650D01*
X020594Y002667D01*
X020587Y002683D01*
X020577Y002697D01*
X020564Y002710D01*
X020550Y002720D01*
X020534Y002727D01*
X020517Y002731D01*
X020500Y002733D01*
X020350Y002733D01*
X020300Y002683D01*
X018900Y002683D01*
X018850Y002733D01*
X018700Y002733D01*
X018683Y002731D01*
X018666Y002727D01*
X018650Y002720D01*
X018636Y002710D01*
X018623Y002697D01*
X018613Y002683D01*
X018606Y002667D01*
X018602Y002650D01*
X018600Y002633D01*
X010950Y010233D02*
X008250Y010233D01*
D16*
X016025Y010333D03*
X018175Y010333D03*
X018675Y008833D03*
X016525Y008833D03*
X018525Y002333D03*
X020675Y002333D03*
X011675Y002333D03*
X009525Y002333D03*
D17*
X021600Y005258D03*
X021600Y007408D03*
D18*
X021125Y006998D02*
X021125Y006698D01*
X021050Y006538D02*
X020750Y006538D01*
X020675Y006463D01*
X020675Y006238D01*
X021125Y006238D01*
X021125Y006463D01*
X021050Y006538D01*
X020825Y006698D02*
X020675Y006848D01*
X021125Y006848D01*
X019675Y006848D02*
X019675Y006548D01*
X019675Y006698D02*
X019225Y006698D01*
X019375Y006548D01*
X019300Y006388D02*
X019225Y006313D01*
X019225Y006163D01*
X019300Y006088D01*
X019600Y006088D01*
X019675Y006163D01*
X019675Y006313D01*
X019600Y006388D01*
X019675Y005931D02*
X019675Y005781D01*
X019675Y005856D02*
X019225Y005856D01*
X019225Y005781D02*
X019225Y005931D01*
X020675Y006077D02*
X020675Y005777D01*
X020750Y006077D02*
X021050Y005777D01*
X021125Y005777D01*
X021125Y006077D01*
X020750Y006077D02*
X020675Y006077D01*
X022075Y006054D02*
X022150Y005979D01*
X022075Y006054D02*
X022075Y006204D01*
X022150Y006279D01*
X022225Y006279D01*
X022525Y005979D01*
X022525Y006279D01*
X022450Y005819D02*
X022150Y005819D01*
X022075Y005744D01*
X022075Y005519D01*
X022525Y005519D01*
X022525Y005744D01*
X022450Y005819D01*
X022525Y005359D02*
X022525Y005058D01*
X022450Y005058D01*
X022150Y005359D01*
X022075Y005359D01*
X022075Y005058D01*
X015425Y004990D02*
X015125Y005290D01*
X015050Y005290D01*
X014975Y005215D01*
X014975Y005065D01*
X015050Y004990D01*
X015425Y004990D02*
X015425Y005290D01*
X015350Y004829D02*
X015050Y004829D01*
X014975Y004754D01*
X014975Y004529D01*
X015425Y004529D01*
X015425Y004754D01*
X015350Y004829D01*
X015425Y004369D02*
X015425Y004069D01*
X014975Y004069D01*
X014975Y004369D01*
X015200Y004219D02*
X015200Y004069D01*
X015425Y003909D02*
X015425Y003608D01*
X014975Y003608D01*
X013425Y003608D02*
X013425Y003909D01*
X013425Y004069D02*
X012975Y004069D01*
X012975Y004369D01*
X013200Y004219D02*
X013200Y004069D01*
X013425Y004069D02*
X013425Y004369D01*
X013425Y004529D02*
X012975Y004529D01*
X012975Y004754D01*
X013050Y004829D01*
X013350Y004829D01*
X013425Y004754D01*
X013425Y004529D01*
X013425Y004990D02*
X013425Y005290D01*
X013425Y005140D02*
X012975Y005140D01*
X013125Y004990D01*
X012975Y003608D02*
X013425Y003608D01*
X003123Y003668D02*
X002896Y003668D01*
X003009Y003668D02*
X003009Y004009D01*
X002896Y003895D01*
X002415Y003919D02*
X002415Y004219D01*
X002415Y004379D02*
X002115Y004679D01*
X002040Y004679D01*
X001965Y004604D01*
X001965Y004454D01*
X002040Y004379D01*
X002415Y004379D02*
X002415Y004679D01*
X002415Y003919D02*
X001965Y003919D01*
X002040Y003759D02*
X001965Y003684D01*
X001965Y003533D01*
X002040Y003458D01*
X002115Y003458D01*
X002190Y003533D01*
X002190Y003684D01*
X002265Y003759D01*
X002340Y003759D01*
X002415Y003684D01*
X002415Y003533D01*
X002340Y003458D01*
X011925Y008783D02*
X012000Y008708D01*
X012300Y008708D01*
X012375Y008783D01*
X012375Y008934D01*
X012300Y009009D01*
X012000Y009009D02*
X011925Y008934D01*
X011925Y008783D01*
X012000Y009169D02*
X011925Y009244D01*
X011925Y009394D01*
X012000Y009469D01*
X012075Y009469D01*
X012150Y009394D01*
X012225Y009469D01*
X012300Y009469D01*
X012375Y009394D01*
X012375Y009244D01*
X012300Y009169D01*
X012150Y009319D02*
X012150Y009394D01*
X013425Y009319D02*
X013575Y009169D01*
X013425Y009319D02*
X013875Y009319D01*
X013875Y009169D02*
X013875Y009469D01*
X013800Y009009D02*
X013875Y008934D01*
X013875Y008783D01*
X013800Y008708D01*
X013500Y008708D01*
X013425Y008783D01*
X013425Y008934D01*
X013500Y009009D01*
X008386Y010408D02*
X008085Y010408D01*
X008236Y010408D02*
X008236Y010859D01*
X008085Y010709D01*
X007925Y010784D02*
X007850Y010859D01*
X007700Y010859D01*
X007625Y010784D01*
X007625Y010483D01*
X007700Y010408D01*
X007850Y010408D01*
X007925Y010483D01*
X007925Y010784D01*
X007775Y010558D02*
X007925Y010408D01*
X007275Y009848D02*
X007275Y009548D01*
X006975Y009848D01*
X006900Y009848D01*
X006825Y009773D01*
X006825Y009623D01*
X006900Y009548D01*
X006900Y009388D02*
X006825Y009313D01*
X006825Y009163D01*
X006900Y009088D01*
X007200Y009088D01*
X007275Y009163D01*
X007275Y009313D01*
X007200Y009388D01*
X022354Y009034D02*
X022354Y008733D01*
X022429Y008658D01*
X022579Y008658D01*
X022654Y008733D01*
X022815Y008884D02*
X023115Y008884D01*
X023040Y009109D02*
X022815Y008884D01*
X022654Y009034D02*
X022579Y009109D01*
X022429Y009109D01*
X022354Y009034D01*
X023040Y009109D02*
X023040Y008658D01*
D19*
X020100Y006883D03*
X023100Y005283D03*
D20*
X023100Y004633D03*
X020100Y005133D03*
X023100Y007033D03*
X020100Y007533D03*
M02*
