G75*
G70*
%OFA0B0*%
%FSLAX24Y24*%
%IPPOS*%
%LPD*%
%AMOC8*
5,1,8,0,0,1.08239X$1,22.5*
%
%ADD10C,0.0060*%
%ADD11C,0.0050*%
%ADD12OC8,0.0560*%
%ADD13C,0.1500*%
%ADD14OC8,0.0520*%
%ADD15C,0.0660*%
%ADD16OC8,0.0630*%
%ADD17C,0.0440*%
%ADD18C,0.0520*%
%ADD19C,0.0560*%
%ADD20C,0.0160*%
%ADD21R,0.0396X0.0396*%
D10*
X002036Y000697D02*
X002143Y000804D01*
X002463Y000804D01*
X002463Y000910D02*
X002463Y000590D01*
X002143Y000590D01*
X002036Y000697D01*
X002143Y001017D02*
X002356Y001017D01*
X002463Y000910D01*
X002681Y001017D02*
X002894Y000590D01*
X003108Y001017D01*
X003325Y001017D02*
X003325Y000590D01*
X003325Y000804D02*
X003539Y001017D01*
X003645Y001017D01*
X004507Y001017D02*
X004827Y001017D01*
X004934Y000910D01*
X004934Y000697D01*
X004827Y000590D01*
X004507Y000590D01*
X004507Y000376D02*
X004507Y001017D01*
X005151Y001017D02*
X005151Y000590D01*
X005151Y000804D02*
X005365Y001017D01*
X005472Y001017D01*
X005688Y000910D02*
X005688Y000697D01*
X005795Y000590D01*
X006009Y000590D01*
X006115Y000697D01*
X006115Y000910D01*
X006009Y001017D01*
X005795Y001017D01*
X005688Y000910D01*
X006333Y000910D02*
X006333Y000697D01*
X006440Y000590D01*
X006760Y000590D01*
X006760Y000483D02*
X006760Y001017D01*
X006440Y001017D01*
X006333Y000910D01*
X006760Y000483D02*
X006653Y000376D01*
X006547Y000376D01*
X006978Y000590D02*
X006978Y001017D01*
X007191Y001017D02*
X007298Y001017D01*
X007191Y001017D02*
X006978Y000804D01*
X007515Y000697D02*
X007621Y000804D01*
X007942Y000804D01*
X007942Y000910D02*
X007942Y000590D01*
X007621Y000590D01*
X007515Y000697D01*
X007621Y001017D02*
X007835Y001017D01*
X007942Y000910D01*
X008159Y001017D02*
X008266Y001017D01*
X008373Y000910D01*
X008479Y001017D01*
X008586Y000910D01*
X008586Y000590D01*
X008373Y000590D02*
X008373Y000910D01*
X008159Y001017D02*
X008159Y000590D01*
X008804Y000590D02*
X008804Y001017D01*
X008911Y001017D01*
X009017Y000910D01*
X009124Y001017D01*
X009231Y000910D01*
X009231Y000590D01*
X009017Y000590D02*
X009017Y000910D01*
X009448Y000910D02*
X009448Y000697D01*
X009555Y000590D01*
X009769Y000590D01*
X009875Y000804D02*
X009448Y000804D01*
X009448Y000910D02*
X009555Y001017D01*
X009769Y001017D01*
X009875Y000910D01*
X009875Y000804D01*
X010093Y000804D02*
X010306Y001017D01*
X010413Y001017D01*
X010093Y001017D02*
X010093Y000590D01*
X013630Y000897D02*
X013737Y000790D01*
X013844Y000897D01*
X013950Y000790D01*
X014057Y000897D01*
X014057Y001217D01*
X014275Y001217D02*
X014275Y000897D01*
X014381Y000790D01*
X014488Y000897D01*
X014595Y000790D01*
X014702Y000897D01*
X014702Y001217D01*
X014919Y001217D02*
X014919Y000897D01*
X015026Y000790D01*
X015133Y000897D01*
X015239Y000790D01*
X015346Y000897D01*
X015346Y001217D01*
X015886Y001110D02*
X015886Y000897D01*
X015993Y000790D01*
X016313Y000790D01*
X016530Y000897D02*
X016637Y000790D01*
X016851Y000790D01*
X016958Y000897D01*
X016958Y001110D01*
X016851Y001217D01*
X016637Y001217D01*
X016530Y001110D01*
X016530Y000897D01*
X015993Y001217D02*
X015886Y001110D01*
X015993Y001217D02*
X016313Y001217D01*
X015670Y000897D02*
X015670Y000790D01*
X015564Y000790D01*
X015564Y000897D01*
X015670Y000897D01*
X017175Y000790D02*
X017175Y001217D01*
X017282Y001217D01*
X017389Y001110D01*
X017495Y001217D01*
X017602Y001110D01*
X017602Y000790D01*
X017389Y000790D02*
X017389Y001110D01*
X017820Y001217D02*
X018140Y001217D01*
X018247Y001110D01*
X018247Y000897D01*
X018140Y000790D01*
X017820Y000790D01*
X017820Y000576D02*
X017820Y001217D01*
X018464Y001217D02*
X018464Y000897D01*
X018571Y000790D01*
X018891Y000790D01*
X018891Y001217D01*
X019109Y001217D02*
X019322Y001217D01*
X019215Y001324D02*
X019215Y000897D01*
X019322Y000790D01*
X019538Y000790D02*
X019538Y001217D01*
X019538Y001004D02*
X019752Y001217D01*
X019859Y001217D01*
X020075Y001110D02*
X020075Y000897D01*
X020182Y000790D01*
X020396Y000790D01*
X020503Y000897D01*
X020503Y001110D01*
X020396Y001217D01*
X020182Y001217D01*
X020075Y001110D01*
X020720Y001217D02*
X021040Y001217D01*
X021147Y001110D01*
X021147Y000790D01*
X021365Y000790D02*
X021578Y000790D01*
X021471Y000790D02*
X021471Y001217D01*
X021365Y001217D01*
X021471Y001431D02*
X021471Y001537D01*
X021794Y001110D02*
X021901Y001217D01*
X022221Y001217D01*
X022439Y001110D02*
X022546Y001217D01*
X022866Y001217D01*
X022546Y001004D02*
X022439Y001110D01*
X022546Y001004D02*
X022759Y001004D01*
X022866Y000897D01*
X022759Y000790D01*
X022439Y000790D01*
X022221Y000790D02*
X021901Y000790D01*
X021794Y000897D01*
X021794Y001110D01*
X020720Y001217D02*
X020720Y000790D01*
X023083Y000790D02*
X023297Y000790D01*
X023190Y000790D02*
X023190Y001431D01*
X023083Y001431D01*
X023620Y001217D02*
X023833Y001217D01*
X023940Y001110D01*
X023940Y000790D01*
X023620Y000790D01*
X023513Y000897D01*
X023620Y001004D01*
X023940Y001004D01*
X024158Y001217D02*
X024478Y001217D01*
X024585Y001110D01*
X024585Y000897D01*
X024478Y000790D01*
X024158Y000790D01*
X024158Y001431D01*
X025124Y001110D02*
X025124Y000897D01*
X025231Y000790D01*
X025552Y000790D01*
X025769Y000897D02*
X025876Y000790D01*
X026089Y000790D01*
X026196Y000897D01*
X026196Y001110D01*
X026089Y001217D01*
X025876Y001217D01*
X025769Y001110D01*
X025769Y000897D01*
X025231Y001217D02*
X025124Y001110D01*
X025231Y001217D02*
X025552Y001217D01*
X024909Y000897D02*
X024909Y000790D01*
X024802Y000790D01*
X024802Y000897D01*
X024909Y000897D01*
X026414Y000790D02*
X026414Y001217D01*
X026520Y001217D01*
X026627Y001110D01*
X026734Y001217D01*
X026841Y001110D01*
X026841Y000790D01*
X026627Y000790D02*
X026627Y001110D01*
X013630Y001217D02*
X013630Y000897D01*
X021844Y010397D02*
X021844Y010824D01*
X022057Y010610D02*
X021630Y010610D01*
D11*
X002465Y006744D02*
X002465Y006377D01*
X002373Y006285D01*
X002190Y006285D01*
X002098Y006377D01*
X002098Y006744D01*
X002190Y006835D01*
X002373Y006835D01*
X002465Y006744D01*
X001913Y006744D02*
X001821Y006835D01*
X001638Y006835D01*
X001546Y006744D01*
X001546Y006652D01*
X001638Y006560D01*
X001821Y006560D01*
X001913Y006468D01*
X001913Y006377D01*
X001821Y006285D01*
X001638Y006285D01*
X001546Y006377D01*
X001361Y006285D02*
X001177Y006285D01*
X001269Y006285D02*
X001269Y006835D01*
X001177Y006835D02*
X001361Y006835D01*
X000992Y006835D02*
X000992Y006285D01*
X000625Y006285D02*
X000625Y006835D01*
X000808Y006652D01*
X000992Y006835D01*
X000900Y007285D02*
X000992Y007377D01*
X000992Y007560D01*
X000808Y007560D01*
X000625Y007377D02*
X000717Y007285D01*
X000900Y007285D01*
X001177Y007285D02*
X001177Y007835D01*
X001544Y007285D01*
X001544Y007835D01*
X001730Y007835D02*
X002005Y007835D01*
X002097Y007744D01*
X002097Y007377D01*
X002005Y007285D01*
X001730Y007285D01*
X001730Y007835D01*
X000992Y007744D02*
X000900Y007835D01*
X000717Y007835D01*
X000625Y007744D01*
X000625Y007377D01*
X000717Y005835D02*
X000625Y005744D01*
X000625Y005652D01*
X000717Y005560D01*
X000900Y005560D01*
X000992Y005468D01*
X000992Y005377D01*
X000900Y005285D01*
X000717Y005285D01*
X000625Y005377D01*
X001177Y005377D02*
X001269Y005285D01*
X001453Y005285D01*
X001544Y005377D01*
X001730Y005468D02*
X002097Y005835D01*
X001730Y005835D02*
X001730Y005285D01*
X001822Y005560D02*
X002097Y005285D01*
X001177Y005377D02*
X001177Y005744D01*
X001269Y005835D01*
X001453Y005835D01*
X001544Y005744D01*
X000992Y005744D02*
X000900Y005835D01*
X000717Y005835D01*
X000625Y004835D02*
X000900Y004835D01*
X000992Y004744D01*
X000992Y004560D01*
X000900Y004468D01*
X000625Y004468D01*
X000625Y004285D02*
X000625Y004835D01*
X001177Y004744D02*
X001177Y004652D01*
X001269Y004560D01*
X001453Y004560D01*
X001544Y004468D01*
X001544Y004377D01*
X001453Y004285D01*
X001269Y004285D01*
X001177Y004377D01*
X000992Y004285D02*
X000808Y004468D01*
X001177Y004744D02*
X001269Y004835D01*
X001453Y004835D01*
X001544Y004744D01*
X001730Y004835D02*
X002097Y004835D01*
X001913Y004835D02*
X001913Y004285D01*
X001822Y003835D02*
X001730Y003744D01*
X001730Y003652D01*
X001822Y003560D01*
X002005Y003560D01*
X002097Y003468D01*
X002097Y003377D01*
X002005Y003285D01*
X001822Y003285D01*
X001730Y003377D01*
X001544Y003377D02*
X001544Y003744D01*
X001453Y003835D01*
X001269Y003835D01*
X001177Y003744D01*
X001177Y003377D01*
X001269Y003285D01*
X001453Y003285D01*
X001544Y003377D01*
X000992Y003285D02*
X000992Y003835D01*
X000808Y003652D01*
X000625Y003835D01*
X000625Y003285D01*
X002005Y003835D02*
X002097Y003744D01*
X002005Y003835D02*
X001822Y003835D01*
X002282Y003835D02*
X002466Y003835D01*
X002374Y003835D02*
X002374Y003285D01*
X002282Y003285D02*
X002466Y003285D01*
D12*
X024246Y005268D03*
X025033Y005268D03*
X025033Y006252D03*
X024246Y006252D03*
D13*
X026100Y008130D03*
X026100Y003390D03*
D14*
X021600Y004760D03*
X021100Y002760D03*
X018100Y002760D03*
X015600Y002260D03*
X013600Y002260D03*
X012100Y002260D03*
X013600Y003260D03*
X015600Y003260D03*
X009100Y002260D03*
X021600Y007760D03*
X019100Y008760D03*
X016100Y008760D03*
X015600Y010260D03*
X018600Y010260D03*
D15*
X020100Y008590D02*
X020100Y007930D01*
X023100Y008090D02*
X023100Y007430D01*
X020100Y004590D02*
X020100Y003930D01*
X023100Y004090D02*
X023100Y003430D01*
D16*
X014600Y008760D03*
X013100Y008760D03*
X013100Y009760D03*
X014600Y009760D03*
X022100Y009760D03*
X023100Y009760D03*
X006100Y009760D03*
X006100Y008760D03*
D17*
X008600Y009040D02*
X008600Y009480D01*
X010600Y009480D02*
X010600Y009040D01*
D18*
X010600Y007520D02*
X010600Y007000D01*
X011600Y007000D02*
X011600Y007520D01*
X012600Y007520D02*
X012600Y007000D01*
X013600Y007000D02*
X013600Y007520D01*
X014600Y007520D02*
X014600Y007000D01*
X015600Y007000D02*
X015600Y007520D01*
X016600Y007520D02*
X016600Y007000D01*
X017600Y007000D02*
X017600Y007520D01*
X018600Y007520D02*
X018600Y007000D01*
X018600Y004520D02*
X018600Y004000D01*
X017600Y004000D02*
X017600Y004520D01*
X016600Y004520D02*
X016600Y004000D01*
X015600Y004000D02*
X015600Y004520D01*
X014600Y004520D02*
X014600Y004000D01*
X013600Y004000D02*
X013600Y004520D01*
X012600Y004520D02*
X012600Y004000D01*
X011600Y004000D02*
X011600Y004520D01*
X010600Y004520D02*
X010600Y004000D01*
X009600Y004000D02*
X009600Y004520D01*
X008600Y004520D02*
X008600Y004000D01*
X007600Y004000D02*
X007600Y004520D01*
X006600Y004520D02*
X006600Y004000D01*
X005600Y004000D02*
X005600Y004520D01*
X005600Y007000D02*
X005600Y007520D01*
X006600Y007520D02*
X006600Y007000D01*
X007600Y007000D02*
X007600Y007520D01*
X008600Y007520D02*
X008600Y007000D01*
X009600Y007000D02*
X009600Y007520D01*
D19*
X003880Y007760D02*
X003320Y007760D01*
X003320Y006760D02*
X003880Y006760D01*
X003880Y005760D02*
X003320Y005760D01*
X003320Y004760D02*
X003880Y004760D01*
X003880Y003760D02*
X003320Y003760D01*
D20*
X005600Y003260D02*
X005600Y001260D01*
X008600Y003260D02*
X011100Y003260D01*
D21*
X011100Y003260D03*
X008600Y003260D03*
X005600Y003260D03*
X005600Y001260D03*
M02*
