G75*
G70*
%OFA0B0*%
%FSLAX24Y24*%
%IPPOS*%
%LPD*%
%AMOC8*
5,1,8,0,0,1.08239X$1,22.5*
%
%ADD10OC8,0.0560*%
%ADD11C,0.1500*%
%ADD12OC8,0.0520*%
%ADD13C,0.0660*%
%ADD14OC8,0.0630*%
%ADD15C,0.0440*%
%ADD16C,0.0520*%
%ADD17C,0.0560*%
%ADD18C,0.0300*%
%ADD19C,0.0320*%
%ADD20R,0.0396X0.0396*%
D10*
X024246Y005341D03*
X025033Y005341D03*
X025033Y006325D03*
X024246Y006325D03*
D11*
X026100Y008203D03*
X026100Y003463D03*
D12*
X021600Y004833D03*
X015600Y003333D03*
X013600Y003333D03*
X013600Y002333D03*
X012100Y002333D03*
X009100Y002333D03*
X015600Y002333D03*
X018100Y002333D03*
X021100Y002333D03*
X021600Y007833D03*
X019100Y008833D03*
X016100Y008833D03*
X015600Y010333D03*
X018600Y010333D03*
D13*
X020100Y008663D02*
X020100Y008003D01*
X023100Y008163D02*
X023100Y007503D01*
X020100Y004663D02*
X020100Y004003D01*
X023100Y004163D02*
X023100Y003503D01*
D14*
X014600Y008833D03*
X013100Y008833D03*
X013100Y009833D03*
X014600Y009833D03*
X022100Y009833D03*
X023100Y009833D03*
X006100Y009833D03*
X006100Y008833D03*
D15*
X008600Y009113D02*
X008600Y009553D01*
X010600Y009553D02*
X010600Y009113D01*
D16*
X010600Y007593D02*
X010600Y007073D01*
X011600Y007073D02*
X011600Y007593D01*
X012600Y007593D02*
X012600Y007073D01*
X013600Y007073D02*
X013600Y007593D01*
X014600Y007593D02*
X014600Y007073D01*
X015600Y007073D02*
X015600Y007593D01*
X016600Y007593D02*
X016600Y007073D01*
X017600Y007073D02*
X017600Y007593D01*
X018600Y007593D02*
X018600Y007073D01*
X018600Y004593D02*
X018600Y004073D01*
X017600Y004073D02*
X017600Y004593D01*
X016600Y004593D02*
X016600Y004073D01*
X015600Y004073D02*
X015600Y004593D01*
X014600Y004593D02*
X014600Y004073D01*
X013600Y004073D02*
X013600Y004593D01*
X012600Y004593D02*
X012600Y004073D01*
X011600Y004073D02*
X011600Y004593D01*
X010600Y004593D02*
X010600Y004073D01*
X009600Y004073D02*
X009600Y004593D01*
X008600Y004593D02*
X008600Y004073D01*
X007600Y004073D02*
X007600Y004593D01*
X006600Y004593D02*
X006600Y004073D01*
X005600Y004073D02*
X005600Y004593D01*
X005600Y007073D02*
X005600Y007593D01*
X006600Y007593D02*
X006600Y007073D01*
X007600Y007073D02*
X007600Y007593D01*
X008600Y007593D02*
X008600Y007073D01*
X009600Y007073D02*
X009600Y007593D01*
D17*
X003880Y007833D02*
X003320Y007833D01*
X003320Y006833D02*
X003880Y006833D01*
X003880Y005833D02*
X003320Y005833D01*
X003320Y004833D02*
X003880Y004833D01*
X003880Y003833D02*
X003320Y003833D01*
D18*
X003600Y003833D02*
X004100Y003333D01*
X006600Y003333D01*
X007600Y004333D01*
X008600Y004333D02*
X007100Y002833D01*
X003100Y002833D01*
X002600Y003333D01*
X002600Y006833D01*
X003600Y006833D01*
X004100Y007833D02*
X005600Y006333D01*
X006100Y006333D01*
X006100Y008833D01*
X005600Y008333D02*
X005100Y008833D01*
X005100Y010833D01*
X020100Y010833D01*
X021600Y009333D01*
X021600Y007833D01*
X021100Y007333D02*
X022100Y007333D01*
X022100Y009833D01*
X023100Y010833D01*
X025100Y010833D01*
X027100Y008833D01*
X027100Y001333D01*
X012100Y001333D01*
X010100Y001333D01*
X010100Y001833D01*
X010100Y003333D01*
X010100Y001833D01*
X010100Y002333D01*
X009100Y002333D01*
X010100Y003333D02*
X010600Y003833D01*
X010600Y004333D01*
X010600Y005833D01*
X011100Y005833D01*
X012600Y007333D01*
X013600Y008333D01*
X014100Y008333D01*
X014600Y008833D01*
X016100Y008833D01*
X016600Y009333D02*
X017100Y008833D01*
X017100Y005333D01*
X013600Y005333D01*
X012600Y004333D01*
X013600Y004333D02*
X013600Y003333D01*
X013100Y002833D02*
X012100Y003833D01*
X012100Y005833D01*
X014100Y005833D01*
X015600Y005833D01*
X015600Y007333D01*
X018600Y007333D02*
X018600Y008833D01*
X019100Y008833D01*
X019600Y009333D02*
X020100Y008833D01*
X020100Y008333D01*
X020100Y006333D01*
X021600Y004833D01*
X022100Y005333D01*
X024100Y005333D01*
X024246Y005341D01*
X025033Y005341D02*
X025100Y005333D01*
X023600Y003833D01*
X023100Y003833D01*
X022600Y003833D01*
X021100Y003833D01*
X021100Y003333D01*
X021100Y002333D01*
X020600Y001833D02*
X020100Y002333D01*
X020100Y004333D01*
X019100Y005333D01*
X017100Y005333D01*
X015600Y003333D02*
X014600Y004333D01*
X013100Y002833D02*
X017600Y002833D01*
X018100Y002333D01*
X015600Y002333D02*
X013600Y002333D01*
X012100Y002333D01*
X009600Y004333D02*
X009600Y005333D01*
X009600Y005833D01*
X008100Y005833D01*
X003600Y005833D01*
X004100Y004833D02*
X004600Y005333D01*
X005600Y005333D01*
X006600Y005333D01*
X006600Y004833D01*
X006600Y004333D01*
X004100Y004833D02*
X003600Y004833D01*
X006100Y006333D02*
X010600Y006333D01*
X011600Y007333D01*
X011600Y008333D01*
X011600Y008833D01*
X013100Y008833D01*
X013600Y008833D01*
X014600Y009833D01*
X015100Y009333D01*
X016600Y009333D01*
X016100Y009833D02*
X015600Y010333D01*
X016100Y009833D02*
X017600Y009833D01*
X018100Y009333D01*
X019600Y009333D01*
X020100Y009833D02*
X021100Y008833D01*
X021100Y007333D01*
X021100Y006333D01*
X024100Y006333D01*
X024246Y006325D01*
X025033Y006325D02*
X025100Y006333D01*
X025600Y005833D01*
X025600Y004833D01*
X022600Y001833D01*
X020600Y001833D01*
X025033Y006325D02*
X025100Y006333D01*
X023600Y007833D01*
X023100Y007833D01*
X023100Y009833D01*
X020100Y009833D02*
X019600Y010333D01*
X018600Y010333D01*
X013100Y009833D02*
X012600Y009333D01*
X010600Y009333D01*
X010600Y007333D01*
X009600Y007333D02*
X009600Y009333D01*
X008600Y009333D01*
X008100Y009833D01*
X006100Y009833D01*
X005600Y008333D02*
X005600Y007333D01*
X004100Y007833D02*
X003600Y007833D01*
D19*
X002100Y001333D02*
X002540Y000893D01*
X009934Y000893D01*
X009834Y000935D01*
X009702Y001067D01*
X009630Y001240D01*
X009630Y001863D01*
X009450Y001863D01*
X009340Y001753D01*
X008860Y001753D01*
X008741Y001872D01*
X008695Y001853D01*
X005954Y001853D01*
X005862Y001815D01*
X005338Y001815D01*
X005221Y001864D01*
X005131Y001954D01*
X005082Y002072D01*
X005082Y002363D01*
X003007Y002363D01*
X002834Y002435D01*
X002334Y002935D01*
X002202Y003067D01*
X002130Y003240D01*
X002130Y006927D01*
X002202Y007100D01*
X002334Y007232D01*
X002507Y007303D01*
X002941Y007303D01*
X002971Y007333D01*
X002811Y007493D01*
X002720Y007714D01*
X002720Y007953D01*
X002811Y008173D01*
X002980Y008342D01*
X003201Y008433D01*
X003999Y008433D01*
X004220Y008342D01*
X004305Y008257D01*
X004366Y008232D01*
X005020Y007578D01*
X005020Y007709D01*
X005108Y007922D01*
X005130Y007944D01*
X005130Y008139D01*
X004834Y008435D01*
X004702Y008567D01*
X004630Y008740D01*
X004630Y010769D01*
X002536Y010769D01*
X002100Y010333D01*
X002100Y001333D01*
X002134Y001299D02*
X009630Y001299D01*
X009630Y001618D02*
X002100Y001618D01*
X002100Y001936D02*
X005148Y001936D01*
X005082Y002255D02*
X002100Y002255D01*
X002100Y002573D02*
X002695Y002573D01*
X002377Y002892D02*
X002100Y002892D01*
X002100Y003210D02*
X002142Y003210D01*
X002130Y003529D02*
X002100Y003529D01*
X002100Y003847D02*
X002130Y003847D01*
X002130Y004166D02*
X002100Y004166D01*
X002100Y004484D02*
X002130Y004484D01*
X002130Y004803D02*
X002100Y004803D01*
X002100Y005121D02*
X002130Y005121D01*
X002130Y005440D02*
X002100Y005440D01*
X002100Y005758D02*
X002130Y005758D01*
X002130Y006077D02*
X002100Y006077D01*
X002100Y006395D02*
X002130Y006395D01*
X002130Y006714D02*
X002100Y006714D01*
X002100Y007032D02*
X002174Y007032D01*
X002100Y007351D02*
X002954Y007351D01*
X002738Y007669D02*
X002100Y007669D01*
X002100Y007988D02*
X002735Y007988D01*
X002944Y008306D02*
X002100Y008306D01*
X002100Y008625D02*
X004678Y008625D01*
X004630Y008943D02*
X002100Y008943D01*
X002100Y009262D02*
X004630Y009262D01*
X004630Y009580D02*
X002100Y009580D01*
X002100Y009899D02*
X004630Y009899D01*
X004630Y010217D02*
X002100Y010217D01*
X002303Y010536D02*
X004630Y010536D01*
X005570Y010363D02*
X005570Y010201D01*
X005732Y010363D01*
X005570Y010363D01*
X005570Y010217D02*
X005586Y010217D01*
X006468Y010363D02*
X006528Y010303D01*
X008193Y010303D01*
X008366Y010232D01*
X008505Y010093D01*
X008707Y010093D01*
X008906Y010011D01*
X009058Y009859D01*
X009081Y009803D01*
X009693Y009803D01*
X009866Y009732D01*
X009998Y009600D01*
X010060Y009451D01*
X010060Y009661D01*
X010142Y009859D01*
X010294Y010011D01*
X010493Y010093D01*
X010707Y010093D01*
X010906Y010011D01*
X011058Y009859D01*
X011081Y009803D01*
X012405Y009803D01*
X012465Y009863D01*
X012465Y010096D01*
X012732Y010363D01*
X006468Y010363D01*
X008381Y010217D02*
X012586Y010217D01*
X012465Y009899D02*
X011018Y009899D01*
X010182Y009899D02*
X009018Y009899D01*
X010006Y009580D02*
X010060Y009580D01*
X010070Y008982D02*
X010130Y008837D01*
X010130Y007944D01*
X010108Y007922D01*
X010100Y007902D01*
X010092Y007922D01*
X010070Y007944D01*
X010070Y008982D01*
X010070Y008943D02*
X010086Y008943D01*
X010070Y008625D02*
X010130Y008625D01*
X010130Y008306D02*
X010070Y008306D01*
X010070Y007988D02*
X010130Y007988D01*
X011070Y007988D02*
X011130Y007988D01*
X011130Y007944D02*
X011108Y007922D01*
X011100Y007902D01*
X011092Y007922D01*
X011070Y007944D01*
X011070Y008837D01*
X011081Y008863D01*
X011130Y008863D01*
X011130Y007944D01*
X011130Y008306D02*
X011070Y008306D01*
X011070Y008625D02*
X011130Y008625D01*
X012070Y008363D02*
X012672Y008363D01*
X012819Y008217D01*
X012758Y008156D01*
X012715Y008173D01*
X012485Y008173D01*
X012271Y008085D01*
X012108Y007922D01*
X012100Y007902D01*
X012092Y007922D01*
X012070Y007944D01*
X012070Y008363D01*
X012070Y008306D02*
X012729Y008306D01*
X012174Y007988D02*
X012070Y007988D01*
X014605Y008173D02*
X014630Y008198D01*
X014863Y008198D01*
X015028Y008363D01*
X015750Y008363D01*
X015860Y008253D01*
X016340Y008253D01*
X016630Y008543D01*
X016630Y008173D01*
X016485Y008173D01*
X016271Y008085D01*
X016108Y007922D01*
X016100Y007902D01*
X016092Y007922D01*
X015929Y008085D01*
X015715Y008173D01*
X015485Y008173D01*
X015271Y008085D01*
X015108Y007922D01*
X015100Y007902D01*
X015092Y007922D01*
X014929Y008085D01*
X014715Y008173D01*
X014605Y008173D01*
X014971Y008306D02*
X015807Y008306D01*
X016393Y008306D02*
X016630Y008306D01*
X016174Y007988D02*
X016026Y007988D01*
X015174Y007988D02*
X015026Y007988D01*
X017570Y008173D02*
X017570Y008927D01*
X017498Y009100D01*
X017366Y009232D01*
X017235Y009363D01*
X017405Y009363D01*
X017702Y009067D01*
X017834Y008935D01*
X018007Y008863D01*
X018130Y008863D01*
X018130Y007944D01*
X018108Y007922D01*
X018100Y007902D01*
X018092Y007922D01*
X017929Y008085D01*
X017715Y008173D01*
X017570Y008173D01*
X017570Y008306D02*
X018130Y008306D01*
X018130Y007988D02*
X018026Y007988D01*
X019070Y007988D02*
X019450Y007988D01*
X019450Y007874D02*
X019549Y007635D01*
X019630Y007554D01*
X019630Y006240D01*
X019702Y006067D01*
X019834Y005935D01*
X021020Y004749D01*
X021020Y004593D01*
X021310Y004303D01*
X021007Y004303D01*
X020834Y004232D01*
X020750Y004148D01*
X020750Y004793D01*
X020651Y005032D01*
X020468Y005214D01*
X020229Y005313D01*
X019971Y005313D01*
X019839Y005259D01*
X019366Y005732D01*
X019193Y005803D01*
X017570Y005803D01*
X017570Y006493D01*
X017715Y006493D01*
X017929Y006582D01*
X018092Y006745D01*
X018100Y006765D01*
X018108Y006745D01*
X018271Y006582D01*
X018485Y006493D01*
X018715Y006493D01*
X018929Y006582D01*
X019092Y006745D01*
X019180Y006958D01*
X019180Y007709D01*
X019092Y007922D01*
X019070Y007944D01*
X019070Y008253D01*
X019340Y008253D01*
X019450Y008363D01*
X019450Y007874D01*
X019535Y007669D02*
X019180Y007669D01*
X019180Y007351D02*
X019630Y007351D01*
X019630Y007032D02*
X019180Y007032D01*
X019061Y006714D02*
X019630Y006714D01*
X019630Y006395D02*
X017570Y006395D01*
X018061Y006714D02*
X018139Y006714D01*
X017570Y006077D02*
X019698Y006077D01*
X020010Y005758D02*
X019302Y005758D01*
X019658Y005440D02*
X020329Y005440D01*
X020561Y005121D02*
X020647Y005121D01*
X020746Y004803D02*
X020966Y004803D01*
X021129Y004484D02*
X020750Y004484D01*
X020750Y004166D02*
X020768Y004166D01*
X020630Y003614D02*
X020570Y003554D01*
X020570Y002624D01*
X020630Y002684D01*
X020630Y003614D01*
X020630Y003529D02*
X020570Y003529D01*
X020570Y003210D02*
X020630Y003210D01*
X020630Y002892D02*
X020570Y002892D01*
X021570Y002892D02*
X022878Y002892D01*
X022960Y002858D02*
X022405Y002303D01*
X021680Y002303D01*
X021680Y002574D01*
X021570Y002684D01*
X021570Y003363D01*
X022454Y003363D01*
X022549Y003135D01*
X022732Y002952D01*
X022960Y002858D01*
X022675Y002573D02*
X021680Y002573D01*
X021570Y003210D02*
X022518Y003210D01*
X024005Y002573D02*
X025501Y002573D01*
X025443Y002607D02*
X025687Y002466D01*
X025959Y002393D01*
X026241Y002393D01*
X026513Y002466D01*
X026630Y002534D01*
X026630Y001803D01*
X023235Y001803D01*
X025030Y003599D01*
X025030Y003322D01*
X025103Y003050D01*
X025244Y002806D01*
X025443Y002607D01*
X025194Y002892D02*
X024323Y002892D01*
X024642Y003210D02*
X025060Y003210D01*
X025030Y003529D02*
X024960Y003529D01*
X026513Y004460D02*
X026630Y004393D01*
X026630Y007274D01*
X026513Y007206D01*
X026241Y007133D01*
X025959Y007133D01*
X025687Y007206D01*
X025443Y007347D01*
X025244Y007546D01*
X025103Y007790D01*
X025030Y008063D01*
X025030Y008344D01*
X025103Y008616D01*
X025244Y008860D01*
X025443Y009060D01*
X025687Y009200D01*
X025959Y009273D01*
X025995Y009273D01*
X024905Y010363D01*
X023468Y010363D01*
X023735Y010096D01*
X023735Y009570D01*
X023570Y009405D01*
X023570Y008613D01*
X023651Y008532D01*
X023750Y008293D01*
X023750Y008280D01*
X023866Y008232D01*
X023998Y008100D01*
X025173Y006925D01*
X025282Y006925D01*
X025633Y006574D01*
X025633Y006465D01*
X025866Y006232D01*
X025998Y006100D01*
X026070Y005927D01*
X026070Y004740D01*
X025998Y004567D01*
X025965Y004533D01*
X026241Y004533D01*
X026513Y004460D01*
X026423Y004484D02*
X026630Y004484D01*
X026630Y004803D02*
X026070Y004803D01*
X026070Y005121D02*
X026630Y005121D01*
X026630Y005440D02*
X026070Y005440D01*
X026070Y005758D02*
X026630Y005758D01*
X026630Y006077D02*
X026008Y006077D01*
X025703Y006395D02*
X026630Y006395D01*
X026630Y006714D02*
X025493Y006714D01*
X025066Y007032D02*
X026630Y007032D01*
X027570Y007032D02*
X027910Y007032D01*
X027910Y006714D02*
X027570Y006714D01*
X027570Y006395D02*
X027910Y006395D01*
X027910Y006077D02*
X027570Y006077D01*
X027570Y005758D02*
X027910Y005758D01*
X027910Y005440D02*
X027570Y005440D01*
X027570Y005121D02*
X027910Y005121D01*
X027910Y004803D02*
X027570Y004803D01*
X027570Y004484D02*
X027910Y004484D01*
X027910Y004166D02*
X027570Y004166D01*
X027570Y003847D02*
X027910Y003847D01*
X027910Y003529D02*
X027570Y003529D01*
X027570Y003210D02*
X027910Y003210D01*
X027910Y002892D02*
X027570Y002892D01*
X027570Y002573D02*
X027910Y002573D01*
X027910Y002255D02*
X027570Y002255D01*
X027570Y001936D02*
X027910Y001936D01*
X027910Y001618D02*
X027570Y001618D01*
X027570Y001299D02*
X027910Y001299D01*
X027570Y001240D02*
X027570Y008927D01*
X027498Y009100D01*
X027366Y009232D01*
X025829Y010769D01*
X027910Y010769D01*
X027910Y000893D01*
X027266Y000893D01*
X027366Y000935D01*
X027498Y001067D01*
X027570Y001240D01*
X027412Y000981D02*
X027910Y000981D01*
X026630Y001936D02*
X023368Y001936D01*
X023686Y002255D02*
X026630Y002255D01*
X022454Y004303D02*
X021890Y004303D01*
X022180Y004593D01*
X022180Y004749D01*
X022295Y004863D01*
X023875Y004863D01*
X023920Y004818D01*
X023642Y004540D01*
X023468Y004714D01*
X023229Y004813D01*
X022971Y004813D01*
X022732Y004714D01*
X022549Y004532D01*
X022454Y004303D01*
X022529Y004484D02*
X022071Y004484D01*
X022234Y004803D02*
X022945Y004803D01*
X023255Y004803D02*
X023905Y004803D01*
X024639Y005796D02*
X024677Y005833D01*
X024639Y005871D01*
X024602Y005833D01*
X024639Y005796D01*
X023889Y005833D02*
X023859Y005863D01*
X021235Y005863D01*
X021600Y005498D01*
X021702Y005600D01*
X021702Y005600D01*
X021834Y005732D01*
X022007Y005803D01*
X023859Y005803D01*
X023889Y005833D01*
X021898Y005758D02*
X021340Y005758D01*
X020630Y006468D02*
X020570Y006528D01*
X020570Y007554D01*
X020630Y007614D01*
X020630Y006468D01*
X020630Y006714D02*
X020570Y006714D01*
X020570Y007032D02*
X020630Y007032D01*
X020630Y007351D02*
X020570Y007351D01*
X021570Y006863D02*
X022193Y006863D01*
X022366Y006935D01*
X022498Y007067D01*
X022538Y007162D01*
X022549Y007135D01*
X022732Y006952D01*
X022971Y006853D01*
X023229Y006853D01*
X023468Y006952D01*
X023642Y007126D01*
X023920Y006848D01*
X023875Y006803D01*
X021570Y006803D01*
X021570Y006863D01*
X022464Y007032D02*
X022652Y007032D01*
X023548Y007032D02*
X023736Y007032D01*
X024747Y007351D02*
X025439Y007351D01*
X025173Y007669D02*
X024429Y007669D01*
X024110Y007988D02*
X025050Y007988D01*
X025030Y008306D02*
X023744Y008306D01*
X023570Y008625D02*
X025108Y008625D01*
X025327Y008943D02*
X023570Y008943D01*
X023570Y009262D02*
X025916Y009262D01*
X025688Y009580D02*
X023735Y009580D01*
X023735Y009899D02*
X025370Y009899D01*
X025051Y010217D02*
X023614Y010217D01*
X022371Y010769D02*
X022070Y010468D01*
X021837Y010468D01*
X021483Y010115D01*
X020829Y010769D01*
X022371Y010769D01*
X022138Y010536D02*
X021062Y010536D01*
X021381Y010217D02*
X021586Y010217D01*
X022570Y009405D02*
X022600Y009435D01*
X022630Y009405D01*
X022630Y008613D01*
X022570Y008553D01*
X022570Y009405D01*
X022570Y009262D02*
X022630Y009262D01*
X022630Y008943D02*
X022570Y008943D01*
X022570Y008625D02*
X022630Y008625D01*
X019450Y008306D02*
X019393Y008306D01*
X018130Y008625D02*
X017570Y008625D01*
X017563Y008943D02*
X017825Y008943D01*
X017507Y009262D02*
X017336Y009262D01*
X018020Y010093D02*
X018310Y009803D01*
X018295Y009803D01*
X017866Y010232D01*
X017693Y010303D01*
X016295Y010303D01*
X016235Y010363D01*
X018020Y010363D01*
X018020Y010093D01*
X018020Y010217D02*
X017881Y010217D01*
X018199Y009899D02*
X018214Y009899D01*
X018890Y009803D02*
X019465Y009803D01*
X019405Y009863D01*
X018950Y009863D01*
X018890Y009803D01*
X015310Y009803D02*
X015295Y009803D01*
X015235Y009863D01*
X015235Y009878D01*
X015310Y009803D01*
X015020Y010311D02*
X015020Y010363D01*
X014968Y010363D01*
X015020Y010311D01*
X014232Y010363D02*
X013965Y010096D01*
X013965Y009863D01*
X013735Y009633D01*
X013735Y010096D01*
X013468Y010363D01*
X014232Y010363D01*
X014086Y010217D02*
X013614Y010217D01*
X013735Y009899D02*
X013965Y009899D01*
X009130Y008863D02*
X009130Y007944D01*
X009108Y007922D01*
X009100Y007902D01*
X009092Y007922D01*
X008929Y008085D01*
X008715Y008173D01*
X008485Y008173D01*
X008271Y008085D01*
X008108Y007922D01*
X008100Y007902D01*
X008092Y007922D01*
X007929Y008085D01*
X007715Y008173D01*
X007485Y008173D01*
X007271Y008085D01*
X007108Y007922D01*
X007100Y007902D01*
X007092Y007922D01*
X006929Y008085D01*
X006715Y008173D01*
X006570Y008173D01*
X006570Y008405D01*
X006735Y008570D01*
X006735Y009096D01*
X006498Y009333D01*
X006528Y009363D01*
X007905Y009363D01*
X008060Y009209D01*
X008060Y009006D01*
X008142Y008807D01*
X008294Y008656D01*
X008493Y008573D01*
X008707Y008573D01*
X008906Y008656D01*
X009058Y008807D01*
X009081Y008863D01*
X009130Y008863D01*
X009130Y008625D02*
X008832Y008625D01*
X008368Y008625D02*
X006735Y008625D01*
X006735Y008943D02*
X008086Y008943D01*
X008007Y009262D02*
X006570Y009262D01*
X005702Y009333D02*
X005570Y009201D01*
X005570Y009465D01*
X005702Y009333D01*
X005630Y009262D02*
X005570Y009262D01*
X004962Y008306D02*
X004256Y008306D01*
X004610Y007988D02*
X005130Y007988D01*
X005020Y007669D02*
X004929Y007669D01*
X006570Y008306D02*
X009130Y008306D01*
X009130Y007988D02*
X009026Y007988D01*
X008174Y007988D02*
X008026Y007988D01*
X007174Y007988D02*
X007026Y007988D01*
X004965Y006303D02*
X004480Y006789D01*
X004480Y006714D01*
X004389Y006493D01*
X004229Y006333D01*
X004259Y006303D01*
X004965Y006303D01*
X004873Y006395D02*
X004291Y006395D01*
X004480Y006714D02*
X004555Y006714D01*
X007070Y005363D02*
X008193Y005363D01*
X009130Y005363D01*
X009130Y004944D01*
X009108Y004922D01*
X009100Y004902D01*
X009092Y004922D01*
X008929Y005085D01*
X008715Y005173D01*
X008485Y005173D01*
X008271Y005085D01*
X008108Y004922D01*
X008100Y004902D01*
X008092Y004922D01*
X007929Y005085D01*
X007715Y005173D01*
X007485Y005173D01*
X007271Y005085D01*
X007108Y004922D01*
X007100Y004902D01*
X007092Y004922D01*
X007070Y004944D01*
X007070Y005363D01*
X007070Y005121D02*
X007359Y005121D01*
X007841Y005121D02*
X008359Y005121D01*
X008841Y005121D02*
X009130Y005121D01*
X010070Y005121D02*
X010130Y005121D01*
X010130Y004944D02*
X010108Y004922D01*
X010100Y004902D01*
X010092Y004922D01*
X010070Y004944D01*
X010070Y005863D01*
X010130Y005863D01*
X010130Y004944D01*
X011070Y004944D02*
X011070Y005363D01*
X011193Y005363D01*
X011366Y005435D01*
X011630Y005699D01*
X011630Y005173D01*
X011485Y005173D01*
X011271Y005085D01*
X011108Y004922D01*
X011100Y004902D01*
X011092Y004922D01*
X011070Y004944D01*
X011070Y005121D02*
X011359Y005121D01*
X011371Y005440D02*
X011630Y005440D01*
X012570Y005363D02*
X012570Y005173D01*
X012715Y005173D01*
X012758Y005156D01*
X012965Y005363D01*
X012570Y005363D01*
X012235Y006303D02*
X012442Y006511D01*
X012485Y006493D01*
X012715Y006493D01*
X012929Y006582D01*
X013092Y006745D01*
X013100Y006765D01*
X013108Y006745D01*
X013271Y006582D01*
X013485Y006493D01*
X013715Y006493D01*
X013929Y006582D01*
X014092Y006745D01*
X014100Y006765D01*
X014108Y006745D01*
X014271Y006582D01*
X014485Y006493D01*
X014715Y006493D01*
X014929Y006582D01*
X015092Y006745D01*
X015100Y006765D01*
X015108Y006745D01*
X015130Y006723D01*
X015130Y006303D01*
X012235Y006303D01*
X012327Y006395D02*
X015130Y006395D01*
X015130Y006714D02*
X015061Y006714D01*
X014139Y006714D02*
X014061Y006714D01*
X013139Y006714D02*
X013061Y006714D01*
X016070Y006714D02*
X016139Y006714D01*
X016108Y006745D02*
X016271Y006582D01*
X016485Y006493D01*
X016630Y006493D01*
X016630Y005803D01*
X016070Y005803D01*
X016070Y006723D01*
X016092Y006745D01*
X016100Y006765D01*
X016108Y006745D01*
X016070Y006395D02*
X016630Y006395D01*
X016630Y006077D02*
X016070Y006077D01*
X019180Y004589D02*
X019450Y004319D01*
X019450Y003874D01*
X019549Y003635D01*
X019630Y003554D01*
X019630Y002240D01*
X019702Y002067D01*
X019834Y001935D01*
X019965Y001803D01*
X018390Y001803D01*
X018680Y002093D01*
X018680Y002574D01*
X018340Y002913D01*
X018185Y002913D01*
X017998Y003100D01*
X017866Y003232D01*
X017693Y003303D01*
X016180Y003303D01*
X016180Y003574D01*
X016050Y003703D01*
X016092Y003745D01*
X016100Y003765D01*
X016108Y003745D01*
X016271Y003582D01*
X016485Y003493D01*
X016715Y003493D01*
X016929Y003582D01*
X017092Y003745D01*
X017100Y003765D01*
X017108Y003745D01*
X017271Y003582D01*
X017485Y003493D01*
X017715Y003493D01*
X017929Y003582D01*
X018092Y003745D01*
X018100Y003765D01*
X018108Y003745D01*
X018271Y003582D01*
X018485Y003493D01*
X018715Y003493D01*
X018929Y003582D01*
X019092Y003745D01*
X019180Y003958D01*
X019180Y004589D01*
X019180Y004484D02*
X019284Y004484D01*
X019180Y004166D02*
X019450Y004166D01*
X019461Y003847D02*
X019134Y003847D01*
X018801Y003529D02*
X019630Y003529D01*
X019630Y003210D02*
X017888Y003210D01*
X017801Y003529D02*
X018399Y003529D01*
X017399Y003529D02*
X016801Y003529D01*
X016399Y003529D02*
X016180Y003529D01*
X014965Y003303D02*
X014180Y003303D01*
X014180Y003574D01*
X014070Y003684D01*
X014070Y003723D01*
X014092Y003745D01*
X014100Y003765D01*
X014108Y003745D01*
X014271Y003582D01*
X014485Y003493D01*
X014715Y003493D01*
X014758Y003511D01*
X014965Y003303D01*
X014399Y003529D02*
X014180Y003529D01*
X013130Y003684D02*
X013022Y003576D01*
X012972Y003626D01*
X013092Y003745D01*
X013100Y003765D01*
X013108Y003745D01*
X013130Y003723D01*
X013130Y003684D01*
X012100Y003833D02*
X011600Y003333D01*
X011100Y003333D01*
X010582Y003151D02*
X010582Y003072D01*
X010631Y002954D01*
X010721Y002864D01*
X010838Y002815D01*
X011362Y002815D01*
X011454Y002853D01*
X011695Y002853D01*
X011872Y002926D01*
X012107Y003162D01*
X012465Y002803D01*
X012450Y002803D01*
X012340Y002913D01*
X011860Y002913D01*
X011520Y002574D01*
X011520Y002093D01*
X011810Y001803D01*
X010570Y001803D01*
X010570Y003139D01*
X010582Y003151D01*
X010570Y002892D02*
X010693Y002892D01*
X010570Y002573D02*
X011520Y002573D01*
X011788Y002892D02*
X011838Y002892D01*
X012362Y002892D02*
X012377Y002892D01*
X011520Y002255D02*
X010570Y002255D01*
X010570Y001936D02*
X011677Y001936D01*
X012390Y001803D02*
X012450Y001863D01*
X013250Y001863D01*
X013310Y001803D01*
X012390Y001803D01*
X013890Y001803D02*
X013950Y001863D01*
X015250Y001863D01*
X015310Y001803D01*
X013890Y001803D01*
X015890Y001803D02*
X016180Y002093D01*
X016180Y002363D01*
X017405Y002363D01*
X017520Y002249D01*
X017520Y002093D01*
X017810Y001803D01*
X015890Y001803D01*
X016023Y001936D02*
X017677Y001936D01*
X017514Y002255D02*
X016180Y002255D01*
X018362Y002892D02*
X019630Y002892D01*
X019630Y002573D02*
X018680Y002573D01*
X018680Y002255D02*
X019630Y002255D01*
X019832Y001936D02*
X018523Y001936D01*
X009788Y000981D02*
X002452Y000981D01*
X005600Y002333D02*
X007600Y002333D01*
X008600Y002333D01*
X008600Y003333D01*
X009118Y003210D02*
X009630Y003210D01*
X009118Y003072D02*
X009118Y003595D01*
X009069Y003713D01*
X009065Y003718D01*
X009092Y003745D01*
X009100Y003765D01*
X009108Y003745D01*
X009271Y003582D01*
X009485Y003493D01*
X009658Y003493D01*
X009630Y003427D01*
X009630Y002803D01*
X009450Y002803D01*
X009340Y002913D01*
X009080Y002913D01*
X009080Y002980D01*
X009118Y003072D01*
X009362Y002892D02*
X009630Y002892D01*
X008120Y002892D02*
X007823Y002892D01*
X007745Y002813D02*
X008082Y003151D01*
X008082Y003072D01*
X008120Y002980D01*
X008120Y002813D01*
X007745Y002813D01*
X009118Y003529D02*
X009399Y003529D01*
X005084Y003803D02*
X004480Y003803D01*
X004480Y003953D01*
X004389Y004173D01*
X004229Y004333D01*
X004305Y004409D01*
X004366Y004435D01*
X004498Y004567D01*
X004795Y004863D01*
X005084Y004863D01*
X005020Y004709D01*
X005020Y003958D01*
X005084Y003803D01*
X005066Y003847D02*
X004480Y003847D01*
X004392Y004166D02*
X005020Y004166D01*
X005020Y004484D02*
X004416Y004484D01*
X004734Y004803D02*
X005059Y004803D01*
X010070Y005440D02*
X010130Y005440D01*
X010130Y005758D02*
X010070Y005758D01*
X026062Y010536D02*
X027910Y010536D01*
X027910Y010217D02*
X026381Y010217D01*
X026699Y009899D02*
X027910Y009899D01*
X027910Y009580D02*
X027018Y009580D01*
X027336Y009262D02*
X027910Y009262D01*
X027910Y008943D02*
X027563Y008943D01*
X027570Y008625D02*
X027910Y008625D01*
X027910Y008306D02*
X027570Y008306D01*
X027570Y007988D02*
X027910Y007988D01*
X027910Y007669D02*
X027570Y007669D01*
X027570Y007351D02*
X027910Y007351D01*
D20*
X011100Y003333D03*
X008600Y003333D03*
X005600Y002333D03*
M02*
