G75*
G70*
%OFA0B0*%
%FSLAX24Y24*%
%IPPOS*%
%LPD*%
%AMOC8*
5,1,8,0,0,1.08239X$1,22.5*
%
%ADD10OC8,0.0520*%
%ADD11C,0.0660*%
%ADD12OC8,0.0630*%
%ADD13C,0.0440*%
%ADD14C,0.0520*%
%ADD15C,0.0574*%
%ADD16C,0.0560*%
%ADD17C,0.0200*%
D10*
X009600Y001600D03*
X012600Y001600D03*
X014600Y001600D03*
X016600Y001600D03*
X016600Y002600D03*
X014600Y002600D03*
X022600Y006600D03*
X025100Y005600D03*
X025100Y008600D03*
X022600Y009600D03*
X024100Y010100D03*
X027100Y010100D03*
X005600Y010100D03*
X005600Y007100D03*
D11*
X021600Y006430D02*
X021600Y005770D01*
X023600Y005770D02*
X023600Y006430D01*
X023600Y002430D02*
X023600Y001770D01*
X021600Y001770D02*
X021600Y002430D01*
D12*
X014600Y008600D03*
X016600Y009100D03*
X017600Y009100D03*
X014600Y009600D03*
X007600Y009600D03*
X007600Y008600D03*
X004100Y009100D03*
X003100Y009100D03*
D13*
X010100Y009380D02*
X010100Y009820D01*
X012100Y009820D02*
X012100Y009380D01*
D14*
X012100Y007360D02*
X012100Y006840D01*
X013100Y006840D02*
X013100Y007360D01*
X014100Y007360D02*
X014100Y006840D01*
X015100Y006840D02*
X015100Y007360D01*
X016100Y007360D02*
X016100Y006840D01*
X017100Y006840D02*
X017100Y007360D01*
X018100Y007360D02*
X018100Y006840D01*
X019100Y006840D02*
X019100Y007360D01*
X020100Y007360D02*
X020100Y006840D01*
X020100Y004360D02*
X020100Y003840D01*
X019100Y003840D02*
X019100Y004360D01*
X018100Y004360D02*
X018100Y003840D01*
X017100Y003840D02*
X017100Y004360D01*
X016100Y004360D02*
X016100Y003840D01*
X015100Y003840D02*
X015100Y004360D01*
X014100Y004360D02*
X014100Y003840D01*
X013100Y003840D02*
X013100Y004360D01*
X012100Y004360D02*
X012100Y003840D01*
X011100Y003840D02*
X011100Y004360D01*
X010100Y004360D02*
X010100Y003840D01*
X009100Y003840D02*
X009100Y004360D01*
X008100Y004360D02*
X008100Y003840D01*
X007100Y003840D02*
X007100Y004360D01*
X007100Y006840D02*
X007100Y007360D01*
X008100Y007360D02*
X008100Y006840D01*
X009100Y006840D02*
X009100Y007360D01*
X010100Y007360D02*
X010100Y006840D01*
X011100Y006840D02*
X011100Y007360D01*
D15*
X026246Y006978D02*
X026820Y006978D01*
X026820Y005994D02*
X026246Y005994D01*
X026246Y005206D02*
X026820Y005206D01*
X026820Y004222D02*
X026246Y004222D01*
D16*
X003880Y004100D02*
X003320Y004100D01*
X003320Y003100D02*
X003880Y003100D01*
X003880Y002100D02*
X003320Y002100D01*
X003320Y005100D02*
X003880Y005100D01*
X003880Y006100D02*
X003320Y006100D01*
X003320Y007100D02*
X003880Y007100D01*
D17*
X003100Y001600D02*
X002100Y001600D01*
X002100Y002600D01*
X002100Y006100D01*
X002600Y006100D01*
X002600Y007100D01*
X002600Y009100D01*
X003100Y009100D01*
X004100Y009100D02*
X006100Y009100D01*
X006100Y009600D01*
X006600Y010100D01*
X007100Y010100D01*
X007600Y010600D01*
X015100Y010600D01*
X025600Y010600D01*
X025600Y008100D01*
X019600Y008100D01*
X019600Y003600D01*
X020100Y003100D01*
X022600Y003100D01*
X024100Y003100D01*
X024100Y002100D01*
X023600Y002100D01*
X021600Y002100D01*
X017100Y002100D01*
X017100Y004100D01*
X016100Y004100D02*
X016100Y002600D01*
X016600Y002600D01*
X017100Y002100D02*
X014100Y002100D01*
X014100Y004100D01*
X015100Y004100D02*
X015100Y002600D01*
X014600Y002600D01*
X013600Y002100D02*
X012100Y002100D01*
X011100Y002100D01*
X011100Y001600D01*
X011100Y001100D01*
X026100Y001100D01*
X026600Y001100D01*
X026600Y003600D01*
X027100Y003600D01*
X027600Y004100D01*
X027600Y007100D01*
X026600Y007100D01*
X026533Y006978D01*
X026100Y006100D02*
X025100Y007100D01*
X025100Y007600D01*
X026100Y007600D01*
X026600Y008100D01*
X026600Y009100D01*
X027100Y009100D01*
X027100Y010100D01*
X027100Y011100D01*
X006600Y011100D01*
X006100Y011100D01*
X005600Y010600D01*
X005600Y010100D01*
X007600Y009600D02*
X010100Y009600D01*
X011100Y009600D01*
X011100Y007100D01*
X012100Y007100D02*
X012100Y009600D01*
X014600Y009600D01*
X016100Y008600D02*
X016600Y009100D01*
X017600Y009100D02*
X017600Y010100D01*
X024100Y010100D01*
X024100Y008600D01*
X019600Y008600D01*
X018600Y007600D01*
X018600Y006100D01*
X016600Y006100D01*
X016100Y005600D01*
X014600Y005600D01*
X013600Y005600D01*
X013600Y004600D01*
X013600Y002100D01*
X014600Y001600D02*
X012600Y001600D01*
X011100Y001100D02*
X010100Y001100D01*
X009600Y001600D01*
X003100Y001600D01*
X003600Y002100D02*
X010100Y002100D01*
X010600Y002600D01*
X012600Y002600D01*
X012600Y004600D01*
X012600Y005600D01*
X011600Y005600D01*
X009600Y005600D01*
X009600Y005100D01*
X009100Y005100D01*
X009100Y004100D01*
X008100Y004100D02*
X008100Y005100D01*
X007100Y005100D01*
X003600Y005100D01*
X002600Y005100D02*
X002600Y005600D01*
X009100Y005600D01*
X009100Y006100D01*
X011100Y006100D01*
X016100Y006100D01*
X017100Y007100D01*
X019100Y009100D01*
X022100Y009100D01*
X022600Y009600D01*
X024100Y010100D02*
X025100Y010100D01*
X025100Y008600D01*
X025100Y007100D02*
X022100Y007100D01*
X021600Y006600D01*
X021600Y006100D01*
X022600Y006600D02*
X023100Y006100D01*
X023600Y006100D01*
X025600Y006100D01*
X025600Y005600D01*
X026100Y005100D01*
X026533Y005206D01*
X025100Y005600D02*
X024600Y005100D01*
X020100Y005100D01*
X020100Y007100D01*
X017600Y008100D02*
X016600Y008100D01*
X015100Y008100D01*
X014100Y007100D01*
X013100Y007100D02*
X013100Y008600D01*
X014600Y008600D01*
X015100Y008600D01*
X015100Y010600D01*
X017600Y009100D02*
X017600Y008100D01*
X016100Y008600D02*
X015100Y008600D01*
X007600Y008600D02*
X007100Y009100D01*
X006100Y009100D01*
X004100Y009100D02*
X004100Y007100D01*
X003600Y007100D01*
X005600Y007100D02*
X007100Y007100D01*
X003600Y006100D02*
X002600Y006100D01*
X002600Y005100D02*
X002600Y004600D01*
X003100Y004600D01*
X006600Y004600D01*
X007100Y004600D01*
X007100Y004100D01*
X004600Y004100D02*
X004600Y003100D01*
X010100Y003100D01*
X011100Y004100D01*
X010100Y004100D02*
X010100Y005100D01*
X011600Y005100D01*
X011600Y003100D01*
X010600Y003100D01*
X010100Y002600D01*
X004100Y002600D01*
X003600Y003100D01*
X003600Y004100D02*
X004600Y004100D01*
X014600Y001600D02*
X016600Y001600D01*
X023600Y002100D02*
X024100Y002100D01*
X024100Y004100D01*
X026100Y004100D01*
X026533Y004222D01*
X026533Y005994D02*
X026100Y006100D01*
M02*
