G75*
G70*
%OFA0B0*%
%FSLAX24Y24*%
%IPPOS*%
%LPD*%
%AMOC8*
5,1,8,0,0,1.08239X$1,22.5*
%
%ADD10C,0.0000*%
%ADD11C,0.0060*%
%ADD12C,0.0040*%
%ADD13R,0.0150X0.0200*%
%ADD14R,0.0200X0.0150*%
%ADD15C,0.0050*%
%ADD16R,0.0900X0.0200*%
%ADD17R,0.0300X0.0700*%
%ADD18C,0.0100*%
%ADD19C,0.0020*%
%ADD20C,0.0010*%
D10*
X000100Y000100D02*
X000100Y012096D01*
X028470Y012096D01*
X028470Y000100D01*
X000100Y000100D01*
X027147Y003013D02*
X027149Y003055D01*
X027155Y003097D01*
X027165Y003139D01*
X027178Y003179D01*
X027196Y003218D01*
X027217Y003255D01*
X027241Y003289D01*
X027269Y003322D01*
X027299Y003352D01*
X027332Y003378D01*
X027367Y003402D01*
X027405Y003422D01*
X027444Y003438D01*
X027484Y003451D01*
X027526Y003460D01*
X027568Y003465D01*
X027611Y003466D01*
X027653Y003463D01*
X027695Y003456D01*
X027736Y003445D01*
X027776Y003430D01*
X027814Y003412D01*
X027851Y003390D01*
X027885Y003365D01*
X027917Y003337D01*
X027945Y003306D01*
X027971Y003272D01*
X027994Y003236D01*
X028013Y003199D01*
X028029Y003159D01*
X028041Y003118D01*
X028049Y003077D01*
X028053Y003034D01*
X028053Y002992D01*
X028049Y002949D01*
X028041Y002908D01*
X028029Y002867D01*
X028013Y002827D01*
X027994Y002790D01*
X027971Y002754D01*
X027945Y002720D01*
X027917Y002689D01*
X027885Y002661D01*
X027851Y002636D01*
X027814Y002614D01*
X027776Y002596D01*
X027736Y002581D01*
X027695Y002570D01*
X027653Y002563D01*
X027611Y002560D01*
X027568Y002561D01*
X027526Y002566D01*
X027484Y002575D01*
X027444Y002588D01*
X027405Y002604D01*
X027367Y002624D01*
X027332Y002648D01*
X027299Y002674D01*
X027269Y002704D01*
X027241Y002737D01*
X027217Y002771D01*
X027196Y002808D01*
X027178Y002847D01*
X027165Y002887D01*
X027155Y002929D01*
X027149Y002971D01*
X027147Y003013D01*
X027147Y008187D02*
X027149Y008229D01*
X027155Y008271D01*
X027165Y008313D01*
X027178Y008353D01*
X027196Y008392D01*
X027217Y008429D01*
X027241Y008463D01*
X027269Y008496D01*
X027299Y008526D01*
X027332Y008552D01*
X027367Y008576D01*
X027405Y008596D01*
X027444Y008612D01*
X027484Y008625D01*
X027526Y008634D01*
X027568Y008639D01*
X027611Y008640D01*
X027653Y008637D01*
X027695Y008630D01*
X027736Y008619D01*
X027776Y008604D01*
X027814Y008586D01*
X027851Y008564D01*
X027885Y008539D01*
X027917Y008511D01*
X027945Y008480D01*
X027971Y008446D01*
X027994Y008410D01*
X028013Y008373D01*
X028029Y008333D01*
X028041Y008292D01*
X028049Y008251D01*
X028053Y008208D01*
X028053Y008166D01*
X028049Y008123D01*
X028041Y008082D01*
X028029Y008041D01*
X028013Y008001D01*
X027994Y007964D01*
X027971Y007928D01*
X027945Y007894D01*
X027917Y007863D01*
X027885Y007835D01*
X027851Y007810D01*
X027814Y007788D01*
X027776Y007770D01*
X027736Y007755D01*
X027695Y007744D01*
X027653Y007737D01*
X027611Y007734D01*
X027568Y007735D01*
X027526Y007740D01*
X027484Y007749D01*
X027444Y007762D01*
X027405Y007778D01*
X027367Y007798D01*
X027332Y007822D01*
X027299Y007848D01*
X027269Y007878D01*
X027241Y007911D01*
X027217Y007945D01*
X027196Y007982D01*
X027178Y008021D01*
X027165Y008061D01*
X027155Y008103D01*
X027149Y008145D01*
X027147Y008187D01*
D11*
X025500Y008000D02*
X025500Y007850D01*
X025450Y007800D01*
X025450Y006400D01*
X025500Y006350D01*
X025500Y006200D01*
X025498Y006183D01*
X025494Y006166D01*
X025487Y006150D01*
X025477Y006136D01*
X025464Y006123D01*
X025450Y006113D01*
X025434Y006106D01*
X025417Y006102D01*
X025400Y006100D01*
X024800Y006100D01*
X024783Y006102D01*
X024766Y006106D01*
X024750Y006113D01*
X024736Y006123D01*
X024723Y006136D01*
X024713Y006150D01*
X024706Y006166D01*
X024702Y006183D01*
X024700Y006200D01*
X024700Y006350D01*
X024750Y006400D01*
X024750Y007800D01*
X024700Y007850D01*
X024700Y008000D01*
X024702Y008017D01*
X024706Y008034D01*
X024713Y008050D01*
X024723Y008064D01*
X024736Y008077D01*
X024750Y008087D01*
X024766Y008094D01*
X024783Y008098D01*
X024800Y008100D01*
X025400Y008100D01*
X025417Y008098D01*
X025434Y008094D01*
X025450Y008087D01*
X025464Y008077D01*
X025477Y008064D01*
X025487Y008050D01*
X025494Y008034D01*
X025498Y008017D01*
X025500Y008000D01*
X023000Y007350D02*
X023000Y007200D01*
X022998Y007183D01*
X022994Y007166D01*
X022987Y007150D01*
X022977Y007136D01*
X022964Y007123D01*
X022950Y007113D01*
X022934Y007106D01*
X022917Y007102D01*
X022900Y007100D01*
X022300Y007100D01*
X022283Y007102D01*
X022266Y007106D01*
X022250Y007113D01*
X022236Y007123D01*
X022223Y007136D01*
X022213Y007150D01*
X022206Y007166D01*
X022202Y007183D01*
X022200Y007200D01*
X022200Y007350D01*
X022250Y007400D01*
X022250Y008800D01*
X022200Y008850D01*
X022200Y009000D01*
X022202Y009017D01*
X022206Y009034D01*
X022213Y009050D01*
X022223Y009064D01*
X022236Y009077D01*
X022250Y009087D01*
X022266Y009094D01*
X022283Y009098D01*
X022300Y009100D01*
X022900Y009100D01*
X022917Y009098D01*
X022934Y009094D01*
X022950Y009087D01*
X022964Y009077D01*
X022977Y009064D01*
X022987Y009050D01*
X022994Y009034D01*
X022998Y009017D01*
X023000Y009000D01*
X023000Y008850D01*
X022950Y008800D01*
X022950Y007400D01*
X023000Y007350D01*
X020600Y006750D02*
X020600Y006000D01*
X020561Y005998D01*
X020522Y005992D01*
X020484Y005983D01*
X020447Y005970D01*
X020411Y005953D01*
X020378Y005933D01*
X020346Y005909D01*
X020317Y005883D01*
X020291Y005854D01*
X020267Y005822D01*
X020247Y005789D01*
X020230Y005753D01*
X020217Y005716D01*
X020208Y005678D01*
X020202Y005639D01*
X020200Y005600D01*
X020202Y005561D01*
X020208Y005522D01*
X020217Y005484D01*
X020230Y005447D01*
X020247Y005411D01*
X020267Y005378D01*
X020291Y005346D01*
X020317Y005317D01*
X020346Y005291D01*
X020378Y005267D01*
X020411Y005247D01*
X020447Y005230D01*
X020484Y005217D01*
X020522Y005208D01*
X020561Y005202D01*
X020600Y005200D01*
X020600Y004450D01*
X006600Y004450D01*
X006600Y006750D01*
X020600Y006750D01*
X021450Y005100D02*
X021450Y005050D01*
X021450Y004950D01*
X021750Y004950D01*
X021750Y005050D01*
X021800Y004950D01*
X021750Y004950D01*
X021800Y004950D02*
X021850Y004950D01*
X021950Y004950D01*
X021967Y004948D01*
X021984Y004944D01*
X022000Y004937D01*
X022014Y004927D01*
X022027Y004914D01*
X022037Y004900D01*
X022044Y004884D01*
X022048Y004867D01*
X022050Y004850D01*
X022050Y003350D01*
X022048Y003333D01*
X022044Y003316D01*
X022037Y003300D01*
X022027Y003286D01*
X022014Y003273D01*
X022000Y003263D01*
X021984Y003256D01*
X021967Y003252D01*
X021950Y003250D01*
X021850Y003250D01*
X021800Y003250D01*
X021750Y003250D01*
X021450Y003250D01*
X021450Y003150D01*
X021400Y003250D01*
X021450Y003250D01*
X021400Y003250D02*
X021350Y003250D01*
X021250Y003250D01*
X021233Y003252D01*
X021216Y003256D01*
X021200Y003263D01*
X021186Y003273D01*
X021173Y003286D01*
X021163Y003300D01*
X021156Y003316D01*
X021152Y003333D01*
X021150Y003350D01*
X021150Y004850D01*
X021152Y004867D01*
X021156Y004884D01*
X021163Y004900D01*
X021173Y004914D01*
X021186Y004927D01*
X021200Y004937D01*
X021216Y004944D01*
X021233Y004948D01*
X021250Y004950D01*
X021350Y004950D01*
X021400Y004950D01*
X021450Y004950D01*
X021400Y004950D02*
X021450Y005050D01*
X021450Y005100D02*
X021350Y004950D01*
X021750Y005050D02*
X021750Y005100D01*
X021450Y005100D01*
X021750Y005100D02*
X021850Y004950D01*
X023150Y004850D02*
X023150Y003350D01*
X023152Y003333D01*
X023156Y003316D01*
X023163Y003300D01*
X023173Y003286D01*
X023186Y003273D01*
X023200Y003263D01*
X023216Y003256D01*
X023233Y003252D01*
X023250Y003250D01*
X023350Y003250D01*
X023400Y003250D01*
X023450Y003250D01*
X023750Y003250D01*
X023800Y003250D01*
X023850Y003250D01*
X023950Y003250D01*
X023967Y003252D01*
X023984Y003256D01*
X024000Y003263D01*
X024014Y003273D01*
X024027Y003286D01*
X024037Y003300D01*
X024044Y003316D01*
X024048Y003333D01*
X024050Y003350D01*
X024050Y004850D01*
X024048Y004867D01*
X024044Y004884D01*
X024037Y004900D01*
X024027Y004914D01*
X024014Y004927D01*
X024000Y004937D01*
X023984Y004944D01*
X023967Y004948D01*
X023950Y004950D01*
X023850Y004950D01*
X023800Y004950D01*
X023750Y004950D01*
X023450Y004950D01*
X023400Y004950D01*
X023350Y004950D01*
X023250Y004950D01*
X023233Y004948D01*
X023216Y004944D01*
X023200Y004937D01*
X023186Y004927D01*
X023173Y004914D01*
X023163Y004900D01*
X023156Y004884D01*
X023152Y004867D01*
X023150Y004850D01*
X023350Y004950D02*
X023450Y005100D01*
X023450Y005050D01*
X023450Y004950D01*
X023400Y004950D02*
X023450Y005050D01*
X023450Y005100D02*
X023750Y005100D01*
X023750Y005050D01*
X023750Y004950D01*
X023800Y004950D02*
X023750Y005050D01*
X023750Y005100D02*
X023850Y004950D01*
X023600Y004350D02*
X023600Y004100D01*
X023850Y004100D01*
X023600Y004100D02*
X023350Y004100D01*
X023600Y004100D02*
X023850Y003700D01*
X023350Y003700D01*
X023600Y004100D01*
X023600Y003500D01*
X023450Y003250D02*
X023450Y003150D01*
X023400Y003250D01*
X023350Y003250D02*
X023450Y003100D01*
X023450Y003150D01*
X023450Y003100D02*
X023750Y003100D01*
X023750Y003150D01*
X023750Y003250D01*
X023800Y003250D02*
X023750Y003150D01*
X023750Y003100D02*
X023850Y003250D01*
X021850Y003250D02*
X021750Y003100D01*
X021750Y003150D01*
X021750Y003250D01*
X021800Y003250D02*
X021750Y003150D01*
X021750Y003100D02*
X021450Y003100D01*
X021450Y003150D01*
X021450Y003100D02*
X021350Y003250D01*
X021600Y003500D02*
X021600Y004100D01*
X021850Y004100D01*
X021600Y004100D02*
X021350Y004100D01*
X021600Y004100D02*
X021850Y003700D01*
X021350Y003700D01*
X021600Y004100D01*
X021600Y004350D01*
X016240Y001620D02*
X016204Y001649D01*
X016170Y001681D01*
X016139Y001716D01*
X016111Y001752D01*
X016086Y001791D01*
X016063Y001832D01*
X016044Y001874D01*
X016028Y001917D01*
X016016Y001962D01*
X016007Y002008D01*
X016002Y002054D01*
X016000Y002100D01*
X016968Y001626D02*
X017003Y001656D01*
X017036Y001687D01*
X017066Y001722D01*
X017093Y001758D01*
X017117Y001796D01*
X017139Y001836D01*
X017157Y001878D01*
X017173Y001921D01*
X017185Y001965D01*
X017193Y002009D01*
X017198Y002055D01*
X017200Y002100D01*
X016251Y002588D02*
X016214Y002559D01*
X016179Y002527D01*
X016146Y002492D01*
X016116Y002455D01*
X016090Y002416D01*
X016067Y002375D01*
X016046Y002331D01*
X016030Y002287D01*
X016017Y002241D01*
X016008Y002195D01*
X016002Y002147D01*
X016000Y002100D01*
X016968Y002574D02*
X017003Y002544D01*
X017036Y002513D01*
X017066Y002478D01*
X017093Y002442D01*
X017117Y002404D01*
X017139Y002364D01*
X017157Y002322D01*
X017173Y002279D01*
X017185Y002235D01*
X017193Y002191D01*
X017198Y002145D01*
X017200Y002100D01*
X014240Y001620D02*
X014204Y001649D01*
X014170Y001681D01*
X014139Y001716D01*
X014111Y001752D01*
X014086Y001791D01*
X014063Y001832D01*
X014044Y001874D01*
X014028Y001917D01*
X014016Y001962D01*
X014007Y002008D01*
X014002Y002054D01*
X014000Y002100D01*
X014968Y001626D02*
X015003Y001656D01*
X015036Y001687D01*
X015066Y001722D01*
X015093Y001758D01*
X015117Y001796D01*
X015139Y001836D01*
X015157Y001878D01*
X015173Y001921D01*
X015185Y001965D01*
X015193Y002009D01*
X015198Y002055D01*
X015200Y002100D01*
X014251Y002588D02*
X014214Y002559D01*
X014179Y002527D01*
X014146Y002492D01*
X014116Y002455D01*
X014090Y002416D01*
X014067Y002375D01*
X014046Y002331D01*
X014030Y002287D01*
X014017Y002241D01*
X014008Y002195D01*
X014002Y002147D01*
X014000Y002100D01*
X014968Y002574D02*
X015003Y002544D01*
X015036Y002513D01*
X015066Y002478D01*
X015093Y002442D01*
X015117Y002404D01*
X015139Y002364D01*
X015157Y002322D01*
X015173Y002279D01*
X015185Y002235D01*
X015193Y002191D01*
X015198Y002145D01*
X015200Y002100D01*
X012100Y001900D02*
X012100Y001300D01*
X012098Y001283D01*
X012094Y001266D01*
X012087Y001250D01*
X012077Y001236D01*
X012064Y001223D01*
X012050Y001213D01*
X012034Y001206D01*
X012017Y001202D01*
X012000Y001200D01*
X011850Y001200D01*
X011800Y001250D01*
X010400Y001250D01*
X010350Y001200D01*
X010200Y001200D01*
X010183Y001202D01*
X010166Y001206D01*
X010150Y001213D01*
X010136Y001223D01*
X010123Y001236D01*
X010113Y001250D01*
X010106Y001266D01*
X010102Y001283D01*
X010100Y001300D01*
X010100Y001900D01*
X010102Y001917D01*
X010106Y001934D01*
X010113Y001950D01*
X010123Y001964D01*
X010136Y001977D01*
X010150Y001987D01*
X010166Y001994D01*
X010183Y001998D01*
X010200Y002000D01*
X010350Y002000D01*
X010400Y001950D01*
X011800Y001950D01*
X011850Y002000D01*
X012000Y002000D01*
X012017Y001998D01*
X012034Y001994D01*
X012050Y001987D01*
X012064Y001977D01*
X012077Y001964D01*
X012087Y001950D01*
X012094Y001934D01*
X012098Y001917D01*
X012100Y001900D01*
X004650Y002000D02*
X004650Y002200D01*
X004600Y002200D01*
X004600Y002500D01*
X004550Y002500D01*
X004550Y002700D01*
X004600Y002700D01*
X004600Y003000D01*
X004650Y003000D01*
X004650Y003200D01*
X004600Y003200D01*
X004600Y003500D01*
X004550Y003500D01*
X004550Y003700D01*
X004600Y003700D01*
X004600Y004000D01*
X004650Y004000D01*
X004650Y004200D01*
X004600Y004200D01*
X004600Y004500D01*
X004550Y004500D01*
X004550Y004700D01*
X004600Y004700D01*
X004600Y005000D01*
X004650Y005000D01*
X004650Y005200D01*
X004600Y005200D01*
X004600Y005500D01*
X004550Y005500D01*
X004550Y005700D01*
X004600Y005700D01*
X004600Y006000D01*
X004650Y006000D01*
X004650Y006200D01*
X004600Y006200D01*
X004600Y006500D01*
X004550Y006500D01*
X004550Y006700D01*
X004600Y006700D01*
X004600Y007000D01*
X004650Y007000D01*
X004650Y007200D01*
X004600Y007200D01*
X004600Y007500D01*
X004300Y007500D01*
X004300Y006750D01*
X004250Y006700D01*
X003000Y006700D01*
X003000Y006500D01*
X004250Y006500D01*
X004300Y006450D01*
X004300Y005700D01*
X003000Y005700D01*
X003000Y005500D01*
X004300Y005500D01*
X004300Y004700D01*
X004300Y004500D01*
X004300Y003700D01*
X004300Y003500D01*
X004300Y002750D01*
X004250Y002700D01*
X003000Y002700D01*
X003000Y002500D01*
X004250Y002500D01*
X004300Y002450D01*
X004300Y001700D01*
X003000Y001700D01*
X002900Y001700D01*
X002900Y001850D01*
X003000Y001850D01*
X003100Y001850D01*
X003100Y002350D01*
X003000Y002350D01*
X003000Y002500D01*
X003000Y002700D02*
X003000Y002850D01*
X003100Y002850D01*
X003100Y003350D01*
X003000Y003350D01*
X003000Y003500D01*
X004300Y003500D01*
X004300Y003700D02*
X003000Y003700D01*
X003000Y003500D01*
X003000Y003700D02*
X003000Y003850D01*
X003100Y003850D01*
X003100Y004350D01*
X003000Y004350D01*
X003000Y004500D01*
X003000Y004700D01*
X003000Y004850D01*
X003100Y004850D01*
X003100Y005350D01*
X003000Y005350D01*
X003000Y005500D01*
X003000Y005350D02*
X002900Y005350D01*
X002900Y005850D01*
X003000Y005850D01*
X003000Y005700D01*
X002750Y005700D02*
X002750Y005500D01*
X002700Y005500D01*
X002700Y004700D01*
X002750Y004700D01*
X002750Y004500D01*
X002700Y004500D01*
X002700Y003700D01*
X002750Y003700D01*
X002750Y003500D01*
X002700Y003500D01*
X002700Y002700D01*
X002750Y002700D01*
X002750Y002500D01*
X002700Y002500D01*
X002700Y001700D01*
X002900Y001700D01*
X003000Y001700D02*
X003000Y001850D01*
X003000Y002350D02*
X002900Y002350D01*
X002900Y002850D01*
X003000Y002850D01*
X003000Y003350D02*
X002900Y003350D01*
X002900Y003850D01*
X003000Y003850D01*
X003000Y004350D02*
X002900Y004350D01*
X002900Y004850D01*
X003000Y004850D01*
X003000Y004700D02*
X004300Y004700D01*
X004300Y004500D02*
X003000Y004500D01*
X004300Y005500D02*
X004300Y005700D01*
X003100Y005850D02*
X003100Y006350D01*
X003000Y006350D01*
X003000Y006500D01*
X003000Y006350D02*
X002900Y006350D01*
X002900Y006850D01*
X003000Y006850D01*
X003000Y006700D01*
X002750Y006700D02*
X002750Y006500D01*
X002700Y006500D01*
X002700Y005700D01*
X002750Y005700D01*
X003000Y005850D02*
X003100Y005850D01*
X004150Y006600D02*
X004250Y006500D01*
X004150Y006600D02*
X004250Y006700D01*
X003100Y006850D02*
X003000Y006850D01*
X003100Y006850D02*
X003100Y007350D01*
X003000Y007350D01*
X003000Y007500D01*
X002900Y007500D01*
X002900Y007350D01*
X003000Y007350D01*
X003000Y007500D02*
X004300Y007500D01*
X005200Y007700D02*
X005200Y007850D01*
X005250Y007900D01*
X005250Y009300D01*
X005200Y009350D01*
X005200Y009500D01*
X005202Y009517D01*
X005206Y009534D01*
X005213Y009550D01*
X005223Y009564D01*
X005236Y009577D01*
X005250Y009587D01*
X005266Y009594D01*
X005283Y009598D01*
X005300Y009600D01*
X005900Y009600D01*
X005917Y009598D01*
X005934Y009594D01*
X005950Y009587D01*
X005964Y009577D01*
X005977Y009564D01*
X005987Y009550D01*
X005994Y009534D01*
X005998Y009517D01*
X006000Y009500D01*
X006000Y009350D01*
X005950Y009300D01*
X005950Y007900D01*
X006000Y007850D01*
X006000Y007700D01*
X005998Y007683D01*
X005994Y007666D01*
X005987Y007650D01*
X005977Y007636D01*
X005964Y007623D01*
X005950Y007613D01*
X005934Y007606D01*
X005917Y007602D01*
X005900Y007600D01*
X005300Y007600D01*
X005283Y007602D01*
X005266Y007606D01*
X005250Y007613D01*
X005236Y007623D01*
X005223Y007636D01*
X005213Y007650D01*
X005206Y007666D01*
X005202Y007683D01*
X005200Y007700D01*
X007000Y008250D02*
X007000Y009950D01*
X007002Y009967D01*
X007006Y009984D01*
X007013Y010000D01*
X007023Y010014D01*
X007036Y010027D01*
X007050Y010037D01*
X007066Y010044D01*
X007083Y010048D01*
X007100Y010050D01*
X008100Y010050D01*
X008117Y010048D01*
X008134Y010044D01*
X008150Y010037D01*
X008164Y010027D01*
X008177Y010014D01*
X008187Y010000D01*
X008194Y009984D01*
X008198Y009967D01*
X008200Y009950D01*
X008200Y008250D01*
X008198Y008233D01*
X008194Y008216D01*
X008187Y008200D01*
X008177Y008186D01*
X008164Y008173D01*
X008150Y008163D01*
X008134Y008156D01*
X008117Y008152D01*
X008100Y008150D01*
X007100Y008150D01*
X007083Y008152D01*
X007066Y008156D01*
X007050Y008163D01*
X007036Y008173D01*
X007023Y008186D01*
X007013Y008200D01*
X007006Y008216D01*
X007002Y008233D01*
X007000Y008250D01*
X007600Y008950D02*
X007600Y009000D01*
X007600Y009200D02*
X007600Y009250D01*
X009750Y008700D02*
X009691Y008702D01*
X009633Y008708D01*
X009574Y008717D01*
X009517Y008731D01*
X009461Y008748D01*
X009406Y008769D01*
X009352Y008793D01*
X009300Y008821D01*
X009250Y008852D01*
X009202Y008886D01*
X009157Y008923D01*
X009114Y008964D01*
X009073Y009007D01*
X009036Y009052D01*
X009002Y009100D01*
X008971Y009150D01*
X008943Y009202D01*
X008919Y009256D01*
X008898Y009311D01*
X008881Y009367D01*
X008867Y009424D01*
X008858Y009483D01*
X008852Y009541D01*
X008850Y009600D01*
X008852Y009659D01*
X008858Y009717D01*
X008867Y009776D01*
X008881Y009833D01*
X008898Y009889D01*
X008919Y009944D01*
X008943Y009998D01*
X008971Y010050D01*
X009002Y010100D01*
X009036Y010148D01*
X009073Y010193D01*
X009114Y010236D01*
X009157Y010277D01*
X009202Y010314D01*
X009250Y010348D01*
X009300Y010379D01*
X009352Y010407D01*
X009406Y010431D01*
X009461Y010452D01*
X009517Y010469D01*
X009574Y010483D01*
X009633Y010492D01*
X009691Y010498D01*
X009750Y010500D01*
X012450Y010500D01*
X014000Y009950D02*
X014000Y008250D01*
X014002Y008233D01*
X014006Y008216D01*
X014013Y008200D01*
X014023Y008186D01*
X014036Y008173D01*
X014050Y008163D01*
X014066Y008156D01*
X014083Y008152D01*
X014100Y008150D01*
X015100Y008150D01*
X015117Y008152D01*
X015134Y008156D01*
X015150Y008163D01*
X015164Y008173D01*
X015177Y008186D01*
X015187Y008200D01*
X015194Y008216D01*
X015198Y008233D01*
X015200Y008250D01*
X015200Y009950D01*
X015198Y009967D01*
X015194Y009984D01*
X015187Y010000D01*
X015177Y010014D01*
X015164Y010027D01*
X015150Y010037D01*
X015134Y010044D01*
X015117Y010048D01*
X015100Y010050D01*
X014100Y010050D01*
X014083Y010048D01*
X014066Y010044D01*
X014050Y010037D01*
X014036Y010027D01*
X014023Y010014D01*
X014013Y010000D01*
X014006Y009984D01*
X014002Y009967D01*
X014000Y009950D01*
X012450Y010500D02*
X012509Y010498D01*
X012567Y010492D01*
X012626Y010483D01*
X012683Y010469D01*
X012739Y010452D01*
X012794Y010431D01*
X012848Y010407D01*
X012900Y010379D01*
X012950Y010348D01*
X012998Y010314D01*
X013043Y010277D01*
X013086Y010236D01*
X013127Y010193D01*
X013164Y010148D01*
X013198Y010100D01*
X013229Y010050D01*
X013257Y009998D01*
X013281Y009944D01*
X013302Y009889D01*
X013319Y009833D01*
X013333Y009776D01*
X013342Y009717D01*
X013348Y009659D01*
X013350Y009600D01*
X013348Y009541D01*
X013342Y009483D01*
X013333Y009424D01*
X013319Y009367D01*
X013302Y009311D01*
X013281Y009256D01*
X013257Y009202D01*
X013229Y009150D01*
X013198Y009100D01*
X013164Y009052D01*
X013127Y009007D01*
X013086Y008964D01*
X013043Y008923D01*
X012998Y008886D01*
X012950Y008852D01*
X012900Y008821D01*
X012848Y008793D01*
X012794Y008769D01*
X012739Y008748D01*
X012683Y008731D01*
X012626Y008717D01*
X012567Y008708D01*
X012509Y008702D01*
X012450Y008700D01*
X009750Y008700D01*
X014600Y008950D02*
X014600Y009000D01*
X014600Y009200D02*
X014600Y009250D01*
X016150Y009600D02*
X016150Y008600D01*
X016152Y008583D01*
X016156Y008566D01*
X016163Y008550D01*
X016173Y008536D01*
X016186Y008523D01*
X016200Y008513D01*
X016216Y008506D01*
X016233Y008502D01*
X016250Y008500D01*
X017950Y008500D01*
X017967Y008502D01*
X017984Y008506D01*
X018000Y008513D01*
X018014Y008523D01*
X018027Y008536D01*
X018037Y008550D01*
X018044Y008566D01*
X018048Y008583D01*
X018050Y008600D01*
X018050Y009600D01*
X018048Y009617D01*
X018044Y009634D01*
X018037Y009650D01*
X018027Y009664D01*
X018014Y009677D01*
X018000Y009687D01*
X017984Y009694D01*
X017967Y009698D01*
X017950Y009700D01*
X016250Y009700D01*
X016233Y009698D01*
X016216Y009694D01*
X016200Y009687D01*
X016186Y009677D01*
X016173Y009664D01*
X016163Y009650D01*
X016156Y009634D01*
X016152Y009617D01*
X016150Y009600D01*
X016950Y009100D02*
X017000Y009100D01*
X017200Y009100D02*
X017250Y009100D01*
X024600Y009800D02*
X024600Y010400D01*
X024602Y010417D01*
X024606Y010434D01*
X024613Y010450D01*
X024623Y010464D01*
X024636Y010477D01*
X024650Y010487D01*
X024666Y010494D01*
X024683Y010498D01*
X024700Y010500D01*
X024850Y010500D01*
X024900Y010450D01*
X026300Y010450D01*
X026350Y010500D01*
X026500Y010500D01*
X026517Y010498D01*
X026534Y010494D01*
X026550Y010487D01*
X026564Y010477D01*
X026577Y010464D01*
X026587Y010450D01*
X026594Y010434D01*
X026598Y010417D01*
X026600Y010400D01*
X026600Y009800D01*
X026598Y009783D01*
X026594Y009766D01*
X026587Y009750D01*
X026577Y009736D01*
X026564Y009723D01*
X026550Y009713D01*
X026534Y009706D01*
X026517Y009702D01*
X026500Y009700D01*
X026350Y009700D01*
X026300Y009750D01*
X024900Y009750D01*
X024850Y009700D01*
X024700Y009700D01*
X024683Y009702D01*
X024666Y009706D01*
X024650Y009713D01*
X024636Y009723D01*
X024623Y009736D01*
X024613Y009750D01*
X024606Y009766D01*
X024602Y009783D01*
X024600Y009800D01*
X028730Y007600D02*
X031033Y007100D01*
X031033Y006600D01*
X028730Y006100D01*
X028730Y005100D02*
X031033Y004600D01*
X031033Y004100D01*
X028730Y003600D01*
X004650Y002000D02*
X004600Y002000D01*
X004600Y001700D01*
X004300Y001700D01*
X004250Y002500D02*
X004150Y002600D01*
X004250Y002700D01*
X002750Y006700D02*
X002700Y006700D01*
X002700Y007500D01*
X002900Y007500D01*
X002750Y008500D02*
X004450Y008500D01*
X004467Y008502D01*
X004484Y008506D01*
X004500Y008513D01*
X004514Y008523D01*
X004527Y008536D01*
X004537Y008550D01*
X004544Y008566D01*
X004548Y008583D01*
X004550Y008600D01*
X004550Y009600D01*
X004548Y009617D01*
X004544Y009634D01*
X004537Y009650D01*
X004527Y009664D01*
X004514Y009677D01*
X004500Y009687D01*
X004484Y009694D01*
X004467Y009698D01*
X004450Y009700D01*
X002750Y009700D01*
X002733Y009698D01*
X002716Y009694D01*
X002700Y009687D01*
X002686Y009677D01*
X002673Y009664D01*
X002663Y009650D01*
X002656Y009634D01*
X002652Y009617D01*
X002650Y009600D01*
X002650Y008600D01*
X002652Y008583D01*
X002656Y008566D01*
X002663Y008550D01*
X002673Y008536D01*
X002686Y008523D01*
X002700Y008513D01*
X002716Y008506D01*
X002733Y008502D01*
X002750Y008500D01*
X003450Y009100D02*
X003500Y009100D01*
X003700Y009100D02*
X003750Y009100D01*
D12*
X004720Y008154D02*
X004778Y008213D01*
X004836Y008213D01*
X004895Y008154D01*
X004953Y008213D01*
X005012Y008213D01*
X005070Y008154D01*
X005070Y008037D01*
X005012Y007979D01*
X005070Y007854D02*
X004953Y007737D01*
X004953Y007795D02*
X004953Y007620D01*
X005070Y007620D02*
X004720Y007620D01*
X004720Y007795D01*
X004778Y007854D01*
X004895Y007854D01*
X004953Y007795D01*
X004778Y007979D02*
X004720Y008037D01*
X004720Y008154D01*
X004895Y008154D02*
X004895Y008096D01*
X011402Y001070D02*
X011577Y001070D01*
X011635Y001012D01*
X011635Y000895D01*
X011577Y000837D01*
X011402Y000837D01*
X011519Y000837D02*
X011635Y000720D01*
X011402Y000720D02*
X011402Y001070D01*
X011761Y000895D02*
X011994Y000895D01*
X011936Y000720D02*
X011936Y001070D01*
X011761Y000895D01*
X025120Y002620D02*
X025580Y002927D01*
X025503Y003080D02*
X025580Y003157D01*
X025580Y003311D01*
X025503Y003387D01*
X025427Y003387D01*
X025350Y003311D01*
X025350Y003234D01*
X025350Y003311D02*
X025273Y003387D01*
X025196Y003387D01*
X025120Y003311D01*
X025120Y003157D01*
X025196Y003080D01*
X025120Y002927D02*
X025580Y002620D01*
X025630Y007402D02*
X025630Y007577D01*
X025688Y007635D01*
X025805Y007635D01*
X025863Y007577D01*
X025863Y007402D01*
X025863Y007519D02*
X025980Y007635D01*
X025922Y007761D02*
X025980Y007819D01*
X025980Y007936D01*
X025922Y007994D01*
X025863Y007994D01*
X025805Y007936D01*
X025805Y007761D01*
X025922Y007761D01*
X025805Y007761D02*
X025688Y007878D01*
X025630Y007994D01*
X025630Y007402D02*
X025980Y007402D01*
X023480Y008402D02*
X023130Y008402D01*
X023130Y008577D01*
X023188Y008635D01*
X023305Y008635D01*
X023363Y008577D01*
X023363Y008402D01*
X023363Y008519D02*
X023480Y008635D01*
X023480Y008761D02*
X023246Y008994D01*
X023188Y008994D01*
X023130Y008936D01*
X023130Y008819D01*
X023188Y008761D01*
X023480Y008761D02*
X023480Y008994D01*
X024620Y010630D02*
X024620Y010980D01*
X024795Y010980D01*
X024854Y010922D01*
X024854Y010805D01*
X024795Y010747D01*
X024620Y010747D01*
X024737Y010747D02*
X024854Y010630D01*
X024979Y010630D02*
X025213Y010630D01*
X025096Y010630D02*
X025096Y010980D01*
X024979Y010864D01*
D13*
X024525Y010100D03*
X026675Y010100D03*
X012175Y001600D03*
X010025Y001600D03*
D14*
X022600Y007025D03*
X025100Y006025D03*
X025100Y008175D03*
X022600Y009175D03*
X005600Y009675D03*
X005600Y007525D03*
D15*
X005235Y007290D02*
X005160Y007365D01*
X005085Y007365D01*
X005010Y007290D01*
X005010Y007215D01*
X005010Y007290D02*
X004935Y007365D01*
X004860Y007365D01*
X004785Y007290D01*
X004785Y007140D01*
X004860Y007065D01*
X005160Y007065D02*
X005235Y007140D01*
X005235Y007290D01*
X005235Y006904D02*
X005235Y006604D01*
X004785Y006604D01*
X004860Y006444D02*
X004785Y006369D01*
X004785Y006219D01*
X004860Y006144D01*
X004935Y006144D01*
X005010Y006219D01*
X005010Y006369D01*
X005085Y006444D01*
X005160Y006444D01*
X005235Y006369D01*
X005235Y006219D01*
X005160Y006144D01*
X004222Y006925D02*
X003995Y006925D01*
X004108Y006925D02*
X004108Y007265D01*
X003995Y007152D01*
X004040Y007925D02*
X003890Y007925D01*
X003815Y008000D01*
X003815Y008150D02*
X003965Y008225D01*
X004040Y008225D01*
X004115Y008150D01*
X004115Y008000D01*
X004040Y007925D01*
X003654Y008000D02*
X003579Y007925D01*
X003429Y007925D01*
X003354Y008000D01*
X003354Y008300D01*
X003429Y008375D01*
X003579Y008375D01*
X003654Y008300D01*
X003815Y008375D02*
X003815Y008150D01*
X003815Y008375D02*
X004115Y008375D01*
X008325Y008929D02*
X008400Y008854D01*
X008700Y008854D01*
X008775Y008929D01*
X008775Y009079D01*
X008700Y009154D01*
X008775Y009315D02*
X008475Y009615D01*
X008400Y009615D01*
X008325Y009540D01*
X008325Y009390D01*
X008400Y009315D01*
X008400Y009154D02*
X008325Y009079D01*
X008325Y008929D01*
X008775Y009315D02*
X008775Y009615D01*
X009200Y010675D02*
X009125Y010750D01*
X009125Y011050D01*
X009200Y011125D01*
X009350Y011125D01*
X009425Y011050D01*
X009425Y010750D01*
X009350Y010675D01*
X009200Y010675D01*
X009275Y010825D02*
X009425Y010675D01*
X009585Y010675D02*
X009886Y010675D01*
X009736Y010675D02*
X009736Y011125D01*
X009585Y010975D01*
X013425Y009161D02*
X013500Y009236D01*
X013575Y009236D01*
X013650Y009161D01*
X013725Y009236D01*
X013800Y009236D01*
X013875Y009161D01*
X013875Y009010D01*
X013800Y008935D01*
X013800Y008775D02*
X013875Y008700D01*
X013875Y008550D01*
X013800Y008475D01*
X013500Y008475D01*
X013425Y008550D01*
X013425Y008700D01*
X013500Y008775D01*
X013500Y008935D02*
X013425Y009010D01*
X013425Y009161D01*
X013650Y009161D02*
X013650Y009086D01*
X016854Y008300D02*
X016854Y008000D01*
X016929Y007925D01*
X017079Y007925D01*
X017154Y008000D01*
X017315Y007925D02*
X017615Y007925D01*
X017465Y007925D02*
X017465Y008375D01*
X017315Y008225D01*
X017154Y008300D02*
X017079Y008375D01*
X016929Y008375D01*
X016854Y008300D01*
X021175Y006615D02*
X021175Y006315D01*
X021175Y006465D02*
X020725Y006465D01*
X020875Y006315D01*
X020800Y006154D02*
X020725Y006079D01*
X020725Y005929D01*
X020800Y005854D01*
X021100Y005854D01*
X021175Y005929D01*
X021175Y006079D01*
X021100Y006154D01*
X021175Y005697D02*
X021175Y005547D01*
X021175Y005622D02*
X020725Y005622D01*
X020725Y005547D02*
X020725Y005697D01*
X022625Y004765D02*
X022625Y004465D01*
X022550Y004304D02*
X022250Y004304D01*
X022175Y004229D01*
X022175Y004004D01*
X022625Y004004D01*
X022625Y004229D01*
X022550Y004304D01*
X022325Y004465D02*
X022175Y004615D01*
X022625Y004615D01*
X024175Y004690D02*
X024175Y004540D01*
X024250Y004465D01*
X024250Y004304D02*
X024175Y004229D01*
X024175Y004004D01*
X024625Y004004D01*
X024625Y004229D01*
X024550Y004304D01*
X024250Y004304D01*
X024625Y004465D02*
X024325Y004765D01*
X024250Y004765D01*
X024175Y004690D01*
X024625Y004765D02*
X024625Y004465D01*
X024625Y003844D02*
X024625Y003544D01*
X024550Y003544D01*
X024250Y003844D01*
X024175Y003844D01*
X024175Y003544D01*
X022625Y003544D02*
X022625Y003844D01*
X022550Y003544D02*
X022250Y003844D01*
X022175Y003844D01*
X022175Y003544D01*
X022550Y003544D02*
X022625Y003544D01*
X016425Y003636D02*
X016425Y003335D01*
X015975Y003335D01*
X015975Y003636D01*
X015975Y003796D02*
X015975Y004021D01*
X016050Y004096D01*
X016350Y004096D01*
X016425Y004021D01*
X016425Y003796D01*
X015975Y003796D01*
X016200Y003486D02*
X016200Y003335D01*
X016425Y003175D02*
X016425Y002875D01*
X015975Y002875D01*
X014425Y002875D02*
X014425Y003175D01*
X014425Y003335D02*
X014425Y003636D01*
X014425Y003796D02*
X014425Y004021D01*
X014350Y004096D01*
X014050Y004096D01*
X013975Y004021D01*
X013975Y003796D01*
X014425Y003796D01*
X014200Y003486D02*
X014200Y003335D01*
X013975Y003335D02*
X014425Y003335D01*
X013975Y003335D02*
X013975Y003636D01*
X014050Y004256D02*
X013975Y004331D01*
X013975Y004481D01*
X014050Y004556D01*
X014125Y004556D01*
X014425Y004256D01*
X014425Y004556D01*
X015975Y004406D02*
X016125Y004256D01*
X015975Y004406D02*
X016425Y004406D01*
X016425Y004256D02*
X016425Y004556D01*
X014425Y002875D02*
X013975Y002875D01*
D16*
X021600Y004650D03*
X023600Y004650D03*
D17*
X023600Y005300D03*
X021600Y005300D03*
X021600Y002900D03*
X023600Y002900D03*
D18*
X025982Y002687D02*
X031612Y002687D01*
X031612Y008513D01*
X025982Y008513D01*
X025982Y002687D01*
X016224Y001394D02*
X016177Y001421D01*
X016132Y001451D01*
X016089Y001484D01*
X016049Y001520D01*
X016011Y001559D01*
X015976Y001600D01*
X015943Y001643D01*
X015914Y001688D01*
X015888Y001736D01*
X015865Y001785D01*
X015845Y001835D01*
X015829Y001886D01*
X015816Y001939D01*
X015807Y001992D01*
X015802Y002046D01*
X015800Y002100D01*
X016997Y001405D02*
X017045Y001435D01*
X017090Y001468D01*
X017133Y001504D01*
X017174Y001542D01*
X017211Y001584D01*
X017246Y001628D01*
X017277Y001674D01*
X017306Y001723D01*
X017330Y001773D01*
X017351Y001825D01*
X017369Y001879D01*
X017382Y001933D01*
X017392Y001988D01*
X017398Y002044D01*
X017400Y002100D01*
X017398Y002153D01*
X017393Y002207D01*
X017384Y002259D01*
X017372Y002311D01*
X017356Y002362D01*
X017337Y002412D01*
X017314Y002461D01*
X017288Y002508D01*
X017260Y002553D01*
X017228Y002596D01*
X017194Y002636D01*
X017156Y002675D01*
X017117Y002711D01*
X016088Y002715D02*
X016048Y002679D01*
X016010Y002640D01*
X015975Y002599D01*
X015943Y002556D01*
X015913Y002511D01*
X015887Y002464D01*
X015865Y002415D01*
X015845Y002364D01*
X015829Y002313D01*
X015816Y002261D01*
X015807Y002207D01*
X015802Y002154D01*
X015800Y002100D01*
X014224Y001394D02*
X014177Y001421D01*
X014132Y001451D01*
X014089Y001484D01*
X014049Y001520D01*
X014011Y001559D01*
X013976Y001600D01*
X013943Y001643D01*
X013914Y001688D01*
X013888Y001736D01*
X013865Y001785D01*
X013845Y001835D01*
X013829Y001886D01*
X013816Y001939D01*
X013807Y001992D01*
X013802Y002046D01*
X013800Y002100D01*
X014997Y001405D02*
X015045Y001435D01*
X015090Y001468D01*
X015133Y001504D01*
X015174Y001542D01*
X015211Y001584D01*
X015246Y001628D01*
X015277Y001674D01*
X015306Y001723D01*
X015330Y001773D01*
X015351Y001825D01*
X015369Y001879D01*
X015382Y001933D01*
X015392Y001988D01*
X015398Y002044D01*
X015400Y002100D01*
X015398Y002153D01*
X015393Y002207D01*
X015384Y002259D01*
X015372Y002311D01*
X015356Y002362D01*
X015337Y002412D01*
X015314Y002461D01*
X015288Y002508D01*
X015260Y002553D01*
X015228Y002596D01*
X015194Y002636D01*
X015156Y002675D01*
X015117Y002711D01*
X014088Y002715D02*
X014048Y002679D01*
X014010Y002640D01*
X013975Y002599D01*
X013943Y002556D01*
X013913Y002511D01*
X013887Y002464D01*
X013865Y002415D01*
X013845Y002364D01*
X013829Y002313D01*
X013816Y002261D01*
X013807Y002207D01*
X013802Y002154D01*
X013800Y002100D01*
X017000Y008800D02*
X017000Y009100D01*
X017000Y009400D01*
X017200Y009400D02*
X017200Y009100D01*
X017200Y008800D01*
X014900Y009000D02*
X014600Y009000D01*
X014300Y009000D01*
X014300Y009200D02*
X014600Y009200D01*
X014900Y009200D01*
X007900Y009200D02*
X007600Y009200D01*
X007300Y009200D01*
X007300Y009000D02*
X007600Y009000D01*
X007900Y009000D01*
X003700Y009100D02*
X003700Y008800D01*
X003500Y008800D02*
X003500Y009100D01*
X003500Y009400D01*
X003700Y009400D02*
X003700Y009100D01*
D19*
X009750Y008900D02*
X012450Y008900D01*
X012501Y008902D01*
X012552Y008907D01*
X012602Y008917D01*
X012652Y008930D01*
X012700Y008946D01*
X012747Y008966D01*
X012793Y008990D01*
X012836Y009016D01*
X012878Y009046D01*
X012917Y009079D01*
X012954Y009114D01*
X012988Y009152D01*
X013019Y009193D01*
X013048Y009235D01*
X013073Y009280D01*
X013094Y009326D01*
X013113Y009374D01*
X013127Y009423D01*
X013138Y009473D01*
X013146Y009523D01*
X013150Y009574D01*
X013150Y009626D01*
X013146Y009677D01*
X013138Y009727D01*
X013127Y009777D01*
X013113Y009826D01*
X013094Y009874D01*
X013073Y009920D01*
X013048Y009965D01*
X013019Y010007D01*
X012988Y010048D01*
X012954Y010086D01*
X012917Y010121D01*
X012878Y010154D01*
X012836Y010184D01*
X012793Y010210D01*
X012747Y010234D01*
X012700Y010254D01*
X012652Y010270D01*
X012602Y010283D01*
X012552Y010293D01*
X012501Y010298D01*
X012450Y010300D01*
X009750Y010300D01*
X009699Y010298D01*
X009648Y010293D01*
X009598Y010283D01*
X009548Y010270D01*
X009500Y010254D01*
X009453Y010234D01*
X009407Y010210D01*
X009364Y010184D01*
X009322Y010154D01*
X009283Y010121D01*
X009246Y010086D01*
X009212Y010048D01*
X009181Y010007D01*
X009152Y009965D01*
X009127Y009920D01*
X009106Y009874D01*
X009087Y009826D01*
X009073Y009777D01*
X009062Y009727D01*
X009054Y009677D01*
X009050Y009626D01*
X009050Y009574D01*
X009054Y009523D01*
X009062Y009473D01*
X009073Y009423D01*
X009087Y009374D01*
X009106Y009326D01*
X009127Y009280D01*
X009152Y009235D01*
X009181Y009193D01*
X009212Y009152D01*
X009246Y009114D01*
X009283Y009079D01*
X009322Y009046D01*
X009364Y009016D01*
X009407Y008990D01*
X009453Y008966D01*
X009500Y008946D01*
X009548Y008930D01*
X009598Y008917D01*
X009648Y008907D01*
X009699Y008902D01*
X009750Y008900D01*
X027984Y007239D02*
X028001Y007182D01*
X028015Y007123D01*
X028025Y007064D01*
X028031Y007004D01*
X028033Y006944D01*
X027836Y007043D02*
X027639Y007043D01*
X027442Y007043D02*
X027444Y007016D01*
X027449Y006990D01*
X027458Y006965D01*
X027471Y006941D01*
X027486Y006919D01*
X027505Y006899D01*
X027525Y006882D01*
X027548Y006868D01*
X027573Y006857D01*
X027599Y006850D01*
X027626Y006846D01*
X027652Y006846D01*
X027679Y006850D01*
X027705Y006857D01*
X027730Y006868D01*
X027753Y006882D01*
X027773Y006899D01*
X027792Y006919D01*
X027807Y006941D01*
X027820Y006965D01*
X027829Y006990D01*
X027834Y007016D01*
X027836Y007043D01*
X027639Y007043D02*
X027639Y007240D01*
X027984Y007240D01*
X027443Y007239D02*
X027438Y007190D01*
X027436Y007141D01*
X027438Y007092D01*
X027443Y007043D01*
X027245Y006944D02*
X027247Y006905D01*
X027253Y006867D01*
X027262Y006830D01*
X027275Y006793D01*
X027292Y006758D01*
X027311Y006725D01*
X027334Y006694D01*
X027360Y006665D01*
X027389Y006639D01*
X027420Y006616D01*
X027453Y006597D01*
X027488Y006580D01*
X027525Y006567D01*
X027562Y006558D01*
X027600Y006552D01*
X027639Y006550D01*
X027678Y006552D01*
X027716Y006558D01*
X027753Y006567D01*
X027790Y006580D01*
X027825Y006597D01*
X027858Y006616D01*
X027889Y006639D01*
X027918Y006665D01*
X027944Y006694D01*
X027967Y006725D01*
X027986Y006758D01*
X028003Y006793D01*
X028016Y006830D01*
X028025Y006867D01*
X028031Y006905D01*
X028033Y006944D01*
X027246Y006945D02*
X027245Y007020D01*
X027249Y007095D01*
X027256Y007170D01*
X027267Y007244D01*
X027267Y007238D02*
X027443Y007238D01*
X028033Y006452D02*
X027738Y006256D01*
X027590Y006108D02*
X027590Y005960D01*
X027443Y005960D01*
X027443Y006108D01*
X027442Y006108D02*
X027444Y006123D01*
X027448Y006138D01*
X027456Y006151D01*
X027466Y006163D01*
X027479Y006172D01*
X027493Y006178D01*
X027508Y006182D01*
X027524Y006182D01*
X027539Y006178D01*
X027553Y006172D01*
X027566Y006163D01*
X027576Y006151D01*
X027584Y006138D01*
X027588Y006123D01*
X027590Y006108D01*
X027738Y006256D02*
X027736Y006286D01*
X027731Y006315D01*
X027722Y006343D01*
X027710Y006370D01*
X027694Y006396D01*
X027676Y006419D01*
X027655Y006440D01*
X027632Y006458D01*
X027606Y006474D01*
X027579Y006486D01*
X027551Y006495D01*
X027522Y006500D01*
X027492Y006502D01*
X027462Y006500D01*
X027433Y006495D01*
X027405Y006486D01*
X027378Y006474D01*
X027352Y006458D01*
X027329Y006440D01*
X027308Y006419D01*
X027290Y006396D01*
X027274Y006370D01*
X027262Y006343D01*
X027253Y006315D01*
X027248Y006286D01*
X027246Y006256D01*
X027246Y005714D01*
X028033Y005714D01*
X028033Y005960D01*
X027738Y005960D01*
X028033Y006157D01*
X028033Y006452D01*
X028033Y005616D02*
X027836Y005616D01*
X027836Y005173D01*
X027738Y005173D01*
X027738Y005616D01*
X027541Y005616D01*
X027541Y005173D01*
X027443Y005173D01*
X027443Y005616D01*
X027246Y005616D01*
X027246Y004927D01*
X028033Y004927D01*
X028033Y005616D01*
X028033Y004631D02*
X028033Y004336D01*
X027836Y004631D01*
X028033Y004631D02*
X028031Y004658D01*
X028026Y004684D01*
X028017Y004709D01*
X028004Y004733D01*
X027989Y004755D01*
X027970Y004775D01*
X027950Y004792D01*
X027927Y004806D01*
X027902Y004817D01*
X027876Y004824D01*
X027849Y004828D01*
X027823Y004828D01*
X027796Y004824D01*
X027770Y004817D01*
X027745Y004806D01*
X027722Y004792D01*
X027702Y004775D01*
X027683Y004755D01*
X027668Y004733D01*
X027655Y004709D01*
X027646Y004684D01*
X027641Y004658D01*
X027639Y004631D01*
X027640Y004631D02*
X027638Y004658D01*
X027633Y004684D01*
X027624Y004709D01*
X027611Y004733D01*
X027596Y004755D01*
X027577Y004775D01*
X027557Y004792D01*
X027534Y004806D01*
X027509Y004817D01*
X027483Y004824D01*
X027456Y004828D01*
X027430Y004828D01*
X027403Y004824D01*
X027377Y004817D01*
X027352Y004806D01*
X027329Y004792D01*
X027309Y004775D01*
X027290Y004755D01*
X027275Y004733D01*
X027262Y004709D01*
X027253Y004684D01*
X027248Y004658D01*
X027246Y004631D01*
X027246Y004336D01*
X027443Y004631D01*
X027639Y004336D01*
X027836Y004631D01*
X027639Y004336D02*
X027246Y004336D01*
X027246Y004090D01*
X028033Y004090D01*
X028033Y004336D01*
X027639Y004336D01*
D20*
X028248Y004400D02*
X028398Y004400D01*
X028398Y004500D01*
X028398Y004694D02*
X028248Y004694D01*
X028248Y004794D01*
X028323Y004744D02*
X028323Y004694D01*
X028398Y004694D02*
X028398Y004794D01*
X028373Y004989D02*
X028398Y005014D01*
X028398Y005064D01*
X028373Y005089D01*
X028273Y005089D02*
X028248Y005064D01*
X028248Y005014D01*
X028273Y004989D01*
X028373Y004989D01*
X028248Y005284D02*
X028248Y005384D01*
X028248Y005334D02*
X028398Y005334D01*
X028398Y005578D02*
X028248Y005578D01*
X028248Y005653D01*
X028273Y005678D01*
X028323Y005678D01*
X028348Y005653D01*
X028348Y005578D01*
X028348Y005628D02*
X028398Y005678D01*
X028373Y005873D02*
X028398Y005898D01*
X028398Y005948D01*
X028373Y005973D01*
X028273Y005973D01*
X028248Y005948D01*
X028248Y005898D01*
X028273Y005873D01*
X028373Y005873D01*
X028398Y006168D02*
X028248Y006168D01*
X028398Y006268D01*
X028248Y006268D01*
X028248Y006462D02*
X028248Y006512D01*
X028248Y006487D02*
X028398Y006487D01*
X028398Y006462D02*
X028398Y006512D01*
X028373Y006708D02*
X028398Y006733D01*
X028398Y006783D01*
X028373Y006808D01*
X028273Y006808D02*
X028248Y006783D01*
X028248Y006733D01*
X028273Y006708D01*
X028373Y006708D01*
X028373Y007002D02*
X028398Y007027D01*
X028398Y007077D01*
X028373Y007102D01*
X028348Y007102D01*
X028323Y007077D01*
X028323Y007027D01*
X028298Y007002D01*
X028273Y007002D01*
X028248Y007027D01*
X028248Y007077D01*
X028273Y007102D01*
X028248Y004205D02*
X028248Y004105D01*
X028398Y004105D01*
X028398Y004205D01*
X028323Y004155D02*
X028323Y004105D01*
M02*
