G75*
G70*
%OFA0B0*%
%FSLAX24Y24*%
%IPPOS*%
%LPD*%
%AMOC8*
5,1,8,0,0,1.08239X$1,22.5*
%
%ADD10C,0.0520*%
%ADD11OC8,0.0520*%
%ADD12OC8,0.0630*%
%ADD13C,0.0520*%
%ADD14C,0.0554*%
%ADD15C,0.0560*%
%ADD16C,0.1306*%
%ADD17C,0.0860*%
%ADD18C,0.0660*%
%ADD19C,0.0160*%
%ADD20R,0.0396X0.0396*%
D10*
X073370Y046480D02*
X073890Y046480D01*
X075870Y046480D02*
X076390Y046480D01*
X076390Y048480D02*
X075870Y048480D01*
X073890Y048480D02*
X073370Y048480D01*
X083217Y048468D02*
X083217Y047948D01*
X084217Y047948D02*
X084217Y048468D01*
X085217Y048468D02*
X085217Y047948D01*
X086217Y047948D02*
X086217Y048468D01*
X087217Y048468D02*
X087217Y047948D01*
X088217Y047948D02*
X088217Y048468D01*
X089217Y048468D02*
X089217Y047948D01*
X090217Y047948D02*
X090217Y048468D01*
X091217Y048468D02*
X091217Y047948D01*
X092217Y047948D02*
X092217Y048468D01*
X093217Y048468D02*
X093217Y047948D01*
X094217Y047948D02*
X094217Y048468D01*
X095217Y048468D02*
X095217Y047948D01*
X096217Y047948D02*
X096217Y048468D01*
X096217Y050948D02*
X096217Y051468D01*
X095217Y051468D02*
X095217Y050948D01*
X094217Y050948D02*
X094217Y051468D01*
X093217Y051468D02*
X093217Y050948D01*
X092217Y050948D02*
X092217Y051468D01*
X091217Y051468D02*
X091217Y050948D01*
X090217Y050948D02*
X090217Y051468D01*
X089217Y051468D02*
X089217Y050948D01*
X088217Y050948D02*
X088217Y051468D01*
X087217Y051468D02*
X087217Y050948D01*
X086217Y050948D02*
X086217Y051468D01*
X085217Y051468D02*
X085217Y050948D01*
X084217Y050948D02*
X084217Y051468D01*
X083217Y051468D02*
X083217Y050948D01*
X041150Y051196D02*
X041150Y051716D01*
X040150Y051716D02*
X040150Y051196D01*
X039150Y051196D02*
X039150Y051716D01*
X038150Y051716D02*
X038150Y051196D01*
X037150Y051196D02*
X037150Y051716D01*
X036150Y051716D02*
X036150Y051196D01*
X035150Y051196D02*
X035150Y051716D01*
X034150Y051716D02*
X034150Y051196D01*
X034150Y048716D02*
X034150Y048196D01*
X035150Y048196D02*
X035150Y048716D01*
X036150Y048716D02*
X036150Y048196D01*
X037150Y048196D02*
X037150Y048716D01*
X038150Y048716D02*
X038150Y048196D01*
X039150Y048196D02*
X039150Y048716D01*
X040150Y048716D02*
X040150Y048196D01*
X041150Y048196D02*
X041150Y048716D01*
X004627Y054929D02*
X004107Y054929D01*
X004107Y056429D02*
X004627Y056429D01*
X002127Y056429D02*
X001607Y056429D01*
X001607Y054929D02*
X002127Y054929D01*
D11*
X010166Y055468D03*
X013166Y055468D03*
X076182Y055484D03*
X080182Y055484D03*
X090308Y053378D03*
X091308Y053378D03*
X097371Y052421D03*
X097371Y056421D03*
D12*
X086847Y043909D03*
X086847Y042909D03*
X096296Y042547D03*
X096296Y043547D03*
D13*
X092533Y043342D03*
X090633Y043342D03*
D14*
X078237Y040980D03*
X077252Y040980D03*
X076465Y040980D03*
X075481Y040980D03*
X040026Y055767D03*
X039026Y055767D03*
X038026Y055767D03*
X037026Y055767D03*
X036526Y054767D03*
X037526Y054767D03*
X038526Y054767D03*
X039526Y054767D03*
D15*
X010371Y019535D02*
X009811Y019535D01*
X009811Y020535D02*
X010371Y020535D01*
X010371Y023259D02*
X009811Y023259D01*
X009811Y024259D02*
X010371Y024259D01*
X010371Y025259D02*
X009811Y025259D01*
X009811Y026259D02*
X010371Y026259D01*
X010371Y029771D02*
X009811Y029771D01*
X009811Y030771D02*
X010371Y030771D01*
X033433Y039295D02*
X033993Y039295D01*
X036583Y039295D02*
X037143Y039295D01*
X038945Y039295D02*
X039505Y039295D01*
X039505Y041295D02*
X038945Y041295D01*
X037143Y041295D02*
X036583Y041295D01*
X033993Y041295D02*
X033433Y041295D01*
X033433Y043295D02*
X033993Y043295D01*
X036583Y043295D02*
X037143Y043295D01*
X038945Y043295D02*
X039505Y043295D01*
X028481Y050031D02*
X027921Y050031D01*
X029496Y050819D02*
X030056Y050819D01*
X030056Y051819D02*
X029496Y051819D01*
X029496Y052819D02*
X030056Y052819D01*
X030056Y053819D02*
X029496Y053819D01*
X028481Y053031D02*
X027921Y053031D01*
X027921Y052031D02*
X028481Y052031D01*
X028481Y051031D02*
X027921Y051031D01*
X027701Y058338D02*
X027701Y058898D01*
X026701Y058898D02*
X026701Y058338D01*
X028701Y058338D02*
X028701Y058898D01*
X029701Y058898D02*
X029701Y058338D01*
X015883Y053031D02*
X015323Y053031D01*
X015323Y052031D02*
X015883Y052031D01*
X015883Y051031D02*
X015323Y051031D01*
X015323Y050031D02*
X015883Y050031D01*
X011378Y047087D02*
X011378Y046527D01*
X010378Y046527D02*
X010378Y047087D01*
X010378Y058338D02*
X010378Y058898D01*
X009378Y058898D02*
X009378Y058338D01*
X011378Y058338D02*
X011378Y058898D01*
X012378Y058898D02*
X012378Y058338D01*
X004292Y058338D02*
X004292Y058898D01*
X003292Y058898D02*
X003292Y058338D01*
X047606Y053819D02*
X048166Y053819D01*
X048166Y052819D02*
X047606Y052819D01*
X047606Y051819D02*
X048166Y051819D01*
X048166Y050819D02*
X047606Y050819D01*
X055858Y051007D02*
X056418Y051007D01*
X056418Y050295D02*
X055858Y050295D01*
X055858Y049295D02*
X056418Y049295D01*
X056418Y048295D02*
X055858Y048295D01*
X055858Y047295D02*
X056418Y047295D01*
X056418Y052007D02*
X055858Y052007D01*
X055858Y053007D02*
X056418Y053007D01*
X056418Y054007D02*
X055858Y054007D01*
X054898Y056763D02*
X054898Y057323D01*
X053898Y057323D02*
X053898Y056763D01*
X052898Y056763D02*
X052898Y057323D01*
X051898Y057323D02*
X051898Y056763D01*
D16*
X074272Y039913D03*
X079445Y039913D03*
D17*
X007733Y049664D02*
X007733Y050524D01*
X005371Y050524D02*
X005371Y049664D01*
X006122Y048204D02*
X006982Y048204D01*
D18*
X027288Y035783D03*
X027288Y034602D03*
X027288Y033421D03*
X027288Y032240D03*
X027288Y031059D03*
X050249Y042208D03*
X051430Y042208D03*
X052611Y042208D03*
X053792Y042208D03*
X054973Y042208D03*
X061508Y041972D03*
X062690Y041972D03*
X063871Y041972D03*
X065052Y041972D03*
X066233Y041972D03*
D19*
X064422Y043657D02*
X064422Y047661D01*
X062060Y049161D02*
X062060Y046019D01*
X062060Y045232D02*
X062060Y042602D01*
X058910Y042870D02*
X058910Y046019D01*
X052611Y046019D02*
X052611Y042208D01*
X051036Y042602D02*
X051036Y045232D01*
X052611Y041161D02*
X052611Y039720D01*
X043162Y053106D02*
X040012Y053106D01*
X091981Y049956D02*
X098280Y049956D01*
X094343Y041661D02*
X094343Y039720D01*
D20*
X094343Y039720D03*
X094343Y041661D03*
X091981Y049956D03*
X098280Y049956D03*
X064422Y047661D03*
X062060Y049161D03*
X062060Y046019D03*
X062060Y045232D03*
X064422Y043657D03*
X062060Y042602D03*
X058910Y042870D03*
X058910Y046019D03*
X052611Y046019D03*
X051036Y045232D03*
X051036Y042602D03*
X052611Y041161D03*
X052611Y039720D03*
X043162Y053106D03*
X040012Y053106D03*
M02*
