G75*
G70*
%OFA0B0*%
%FSLAX24Y24*%
%IPPOS*%
%LPD*%
%AMOC8*
5,1,8,0,0,1.08239X$1,22.5*
%
%ADD10C,0.0060*%
%ADD11C,0.0050*%
%ADD12R,0.0240X0.0340*%
%ADD13C,0.0100*%
%ADD14C,0.0160*%
%ADD15R,0.0340X0.0240*%
%ADD16C,0.0080*%
%ADD17C,0.0004*%
%ADD18R,0.0502X0.0450*%
%ADD19R,0.0492X0.0450*%
%ADD20C,0.0000*%
%ADD21C,0.0040*%
%ADD22C,0.0039*%
%ADD23R,0.0150X0.0400*%
%ADD24R,0.0150X0.0200*%
D10*
X009691Y019035D02*
X010491Y019035D01*
X010591Y019135D01*
X010591Y019935D01*
X010491Y020035D01*
X010591Y020135D01*
X010591Y020935D01*
X010491Y021035D01*
X009691Y021035D01*
X009591Y020935D01*
X009591Y020135D01*
X009691Y020035D01*
X009591Y019935D01*
X009591Y019135D01*
X009691Y019035D01*
X009691Y022759D02*
X009591Y022859D01*
X009591Y023659D01*
X009691Y023759D01*
X009591Y023859D01*
X009591Y024659D01*
X009691Y024759D01*
X009591Y024859D01*
X009591Y025659D01*
X009691Y025759D01*
X009591Y025859D01*
X009591Y026659D01*
X009691Y026759D01*
X010491Y026759D01*
X010591Y026659D01*
X010591Y025859D01*
X010491Y025759D01*
X010591Y025659D01*
X010591Y024859D01*
X010491Y024759D01*
X010591Y024659D01*
X010591Y023859D01*
X010491Y023759D01*
X010591Y023659D01*
X010591Y022859D01*
X010491Y022759D01*
X009691Y022759D01*
X009691Y029271D02*
X010491Y029271D01*
X010591Y029371D01*
X010591Y030171D01*
X010491Y030271D01*
X010591Y030371D01*
X010591Y031171D01*
X010491Y031271D01*
X009691Y031271D01*
X009591Y031171D01*
X009591Y030371D01*
X009691Y030271D01*
X009591Y030171D01*
X009591Y029371D01*
X009691Y029271D01*
X033213Y038895D02*
X033313Y038795D01*
X034113Y038795D01*
X034213Y038895D01*
X034213Y040695D01*
X034113Y040795D01*
X034213Y040895D01*
X034213Y041695D01*
X034113Y041795D01*
X034213Y041895D01*
X034213Y043795D01*
X033313Y043795D01*
X033213Y043695D01*
X033213Y041895D01*
X033313Y041795D01*
X033213Y041695D01*
X033213Y040895D01*
X033313Y040795D01*
X033213Y040795D01*
X033213Y038895D01*
X036363Y038895D02*
X036363Y040795D01*
X036463Y040795D01*
X036363Y040895D01*
X036363Y041695D01*
X036463Y041795D01*
X036363Y041895D01*
X036363Y043695D01*
X036463Y043795D01*
X037363Y043795D01*
X037363Y041895D01*
X037263Y041795D01*
X037363Y041695D01*
X037363Y040895D01*
X037263Y040795D01*
X037363Y040695D01*
X037363Y038895D01*
X037263Y038795D01*
X036463Y038795D01*
X036363Y038895D01*
X038725Y038895D02*
X038825Y038795D01*
X039625Y038795D01*
X039725Y038895D01*
X039725Y040695D01*
X039625Y040795D01*
X039725Y040895D01*
X039725Y041695D01*
X039625Y041795D01*
X039725Y041895D01*
X039725Y043795D01*
X038825Y043795D01*
X038725Y043695D01*
X038725Y041895D01*
X038825Y041795D01*
X038725Y041695D01*
X038725Y040895D01*
X038825Y040795D01*
X038725Y040795D01*
X038725Y038895D01*
X041650Y048806D02*
X033650Y048806D01*
X033650Y049556D01*
X033689Y049558D01*
X033728Y049564D01*
X033766Y049573D01*
X033803Y049586D01*
X033839Y049603D01*
X033872Y049623D01*
X033904Y049647D01*
X033933Y049673D01*
X033959Y049702D01*
X033983Y049734D01*
X034003Y049767D01*
X034020Y049803D01*
X034033Y049840D01*
X034042Y049878D01*
X034048Y049917D01*
X034050Y049956D01*
X034048Y049995D01*
X034042Y050034D01*
X034033Y050072D01*
X034020Y050109D01*
X034003Y050145D01*
X033983Y050178D01*
X033959Y050210D01*
X033933Y050239D01*
X033904Y050265D01*
X033872Y050289D01*
X033839Y050309D01*
X033803Y050326D01*
X033766Y050339D01*
X033728Y050348D01*
X033689Y050354D01*
X033650Y050356D01*
X033650Y051106D01*
X041650Y051106D01*
X041650Y048806D01*
X047386Y050419D02*
X047486Y050319D01*
X048286Y050319D01*
X048386Y050419D01*
X048386Y051219D01*
X048286Y051319D01*
X048386Y051419D01*
X048386Y052219D01*
X048286Y052319D01*
X048386Y052419D01*
X048386Y053219D01*
X048286Y053319D01*
X048386Y053419D01*
X048386Y054219D01*
X048286Y054319D01*
X047486Y054319D01*
X047386Y054219D01*
X047386Y053419D01*
X047486Y053319D01*
X047386Y053219D01*
X047386Y052419D01*
X047486Y052319D01*
X047386Y052219D01*
X047386Y051419D01*
X047486Y051319D01*
X047386Y051219D01*
X047386Y050419D01*
X055638Y050607D02*
X055638Y051407D01*
X055738Y051507D01*
X055638Y051607D01*
X055638Y052407D01*
X055738Y052507D01*
X055638Y052607D01*
X055638Y053407D01*
X055738Y053507D01*
X055638Y053607D01*
X055638Y054407D01*
X055738Y054507D01*
X056538Y054507D01*
X056638Y054407D01*
X056638Y053607D01*
X056538Y053507D01*
X056638Y053407D01*
X056638Y052607D01*
X056538Y052507D01*
X056638Y052407D01*
X056638Y051607D01*
X056538Y051507D01*
X056638Y051407D01*
X056638Y050607D01*
X056538Y050507D01*
X055738Y050507D01*
X055638Y050607D01*
X055638Y050695D02*
X055638Y049895D01*
X055738Y049795D01*
X055638Y049695D01*
X055638Y048895D01*
X055738Y048795D01*
X055638Y048695D01*
X055638Y047895D01*
X055738Y047795D01*
X055638Y047695D01*
X055638Y046895D01*
X055738Y046795D01*
X056538Y046795D01*
X056638Y046895D01*
X056638Y047695D01*
X056538Y047795D01*
X056638Y047895D01*
X056638Y048695D01*
X056538Y048795D01*
X056638Y048895D01*
X056638Y049695D01*
X056538Y049795D01*
X056638Y049895D01*
X056638Y050695D01*
X056538Y050795D01*
X055738Y050795D01*
X055638Y050695D01*
X055298Y056543D02*
X054498Y056543D01*
X054398Y056643D01*
X054298Y056543D01*
X053498Y056543D01*
X053398Y056643D01*
X053298Y056543D01*
X052498Y056543D01*
X052398Y056643D01*
X052298Y056543D01*
X051498Y056543D01*
X051398Y056643D01*
X051398Y057443D01*
X051498Y057543D01*
X052298Y057543D01*
X052398Y057443D01*
X052498Y057543D01*
X053298Y057543D01*
X053398Y057443D01*
X053498Y057543D01*
X054298Y057543D01*
X054398Y057443D01*
X054498Y057543D01*
X055298Y057543D01*
X055398Y057443D01*
X055398Y056643D01*
X055298Y056543D01*
X042696Y057258D02*
X042056Y057685D01*
X042269Y057903D02*
X042056Y058116D01*
X042696Y058116D01*
X042696Y057903D02*
X042696Y058330D01*
X042696Y057685D02*
X042056Y057258D01*
X030201Y058218D02*
X030101Y058118D01*
X029301Y058118D01*
X029201Y058218D01*
X029101Y058118D01*
X028301Y058118D01*
X028201Y058218D01*
X028101Y058118D01*
X027301Y058118D01*
X027201Y058218D01*
X027101Y058118D01*
X026301Y058118D01*
X026201Y058218D01*
X026201Y059018D01*
X026301Y059118D01*
X027101Y059118D01*
X027201Y059018D01*
X027301Y059118D01*
X028101Y059118D01*
X028201Y059018D01*
X028301Y059118D01*
X029101Y059118D01*
X029201Y059018D01*
X029301Y059118D01*
X030101Y059118D01*
X030201Y059018D01*
X030201Y058218D01*
X030176Y054319D02*
X029376Y054319D01*
X029276Y054219D01*
X029276Y053419D01*
X029376Y053319D01*
X029276Y053219D01*
X029276Y052419D01*
X029376Y052319D01*
X029276Y052219D01*
X029276Y051419D01*
X029376Y051319D01*
X029276Y051219D01*
X029276Y050419D01*
X029376Y050319D01*
X030176Y050319D01*
X030276Y050419D01*
X030276Y051219D01*
X030176Y051319D01*
X030276Y051419D01*
X030276Y052219D01*
X030176Y052319D01*
X030276Y052419D01*
X030276Y053219D01*
X030176Y053319D01*
X030276Y053419D01*
X030276Y054219D01*
X030176Y054319D01*
X028701Y053431D02*
X028701Y052631D01*
X028601Y052531D01*
X028701Y052431D01*
X028701Y051631D01*
X028601Y051531D01*
X028701Y051431D01*
X028701Y050631D01*
X028601Y050531D01*
X028701Y050431D01*
X028701Y049631D01*
X028601Y049531D01*
X027801Y049531D01*
X027701Y049631D01*
X027701Y050431D01*
X027801Y050531D01*
X027701Y050631D01*
X027701Y051431D01*
X027801Y051531D01*
X027701Y051631D01*
X027701Y052431D01*
X027801Y052531D01*
X027701Y052631D01*
X027701Y053431D01*
X027801Y053531D01*
X028601Y053531D01*
X028701Y053431D01*
X016103Y053431D02*
X016103Y052631D01*
X016003Y052531D01*
X016103Y052431D01*
X016103Y051631D01*
X016003Y051531D01*
X016103Y051431D01*
X016103Y050631D01*
X016003Y050531D01*
X016103Y050431D01*
X016103Y049631D01*
X016003Y049531D01*
X015203Y049531D01*
X015103Y049631D01*
X015103Y050431D01*
X015203Y050531D01*
X015103Y050631D01*
X015103Y051431D01*
X015203Y051531D01*
X015103Y051631D01*
X015103Y052431D01*
X015203Y052531D01*
X015103Y052631D01*
X015103Y053431D01*
X015203Y053531D01*
X016003Y053531D01*
X016103Y053431D01*
X012666Y055168D02*
X012666Y055768D01*
X012664Y055785D01*
X012660Y055802D01*
X012653Y055818D01*
X012643Y055832D01*
X012630Y055845D01*
X012616Y055855D01*
X012600Y055862D01*
X012583Y055866D01*
X012566Y055868D01*
X012416Y055868D01*
X012366Y055818D01*
X010966Y055818D01*
X010916Y055868D01*
X010766Y055868D01*
X010749Y055866D01*
X010732Y055862D01*
X010716Y055855D01*
X010702Y055845D01*
X010689Y055832D01*
X010679Y055818D01*
X010672Y055802D01*
X010668Y055785D01*
X010666Y055768D01*
X010666Y055168D01*
X010668Y055151D01*
X010672Y055134D01*
X010679Y055118D01*
X010689Y055104D01*
X010702Y055091D01*
X010716Y055081D01*
X010732Y055074D01*
X010749Y055070D01*
X010766Y055068D01*
X010916Y055068D01*
X010966Y055118D01*
X012366Y055118D01*
X012416Y055068D01*
X012566Y055068D01*
X012583Y055070D01*
X012600Y055074D01*
X012616Y055081D01*
X012630Y055091D01*
X012643Y055104D01*
X012653Y055118D01*
X012660Y055134D01*
X012664Y055151D01*
X012666Y055168D01*
X012778Y058118D02*
X011978Y058118D01*
X011878Y058218D01*
X011778Y058118D01*
X010978Y058118D01*
X010878Y058218D01*
X010778Y058118D01*
X009978Y058118D01*
X009878Y058218D01*
X009778Y058118D01*
X008978Y058118D01*
X008878Y058218D01*
X008878Y059018D01*
X008978Y059118D01*
X009778Y059118D01*
X009878Y059018D01*
X009978Y059118D01*
X010778Y059118D01*
X010878Y059018D01*
X010978Y059118D01*
X011778Y059118D01*
X011878Y059018D01*
X011978Y059118D01*
X012778Y059118D01*
X012878Y059018D01*
X012878Y058218D01*
X012778Y058118D01*
X004792Y058218D02*
X004792Y059018D01*
X004692Y059118D01*
X003892Y059118D01*
X003792Y059018D01*
X003692Y059118D01*
X002892Y059118D01*
X002792Y059018D01*
X002792Y058218D01*
X002892Y058118D01*
X003692Y058118D01*
X003792Y058218D01*
X003892Y058118D01*
X004692Y058118D01*
X004792Y058218D01*
X004817Y056729D02*
X003517Y056729D01*
X002217Y056729D01*
X000917Y056729D01*
X000917Y054129D01*
X002217Y054129D01*
X003517Y054129D01*
X004817Y054129D01*
X004817Y056729D01*
X003517Y056729D02*
X003517Y056529D01*
X002217Y056529D01*
X002217Y056729D01*
X002117Y056229D02*
X003617Y056229D01*
X003617Y055629D01*
X002117Y055629D01*
X002117Y056229D01*
X002117Y055229D02*
X003617Y055229D01*
X003617Y054629D01*
X002117Y054629D01*
X002117Y055229D01*
X002217Y054329D02*
X002217Y054129D01*
X002217Y054329D02*
X003517Y054329D01*
X003517Y054129D01*
X009978Y047307D02*
X009878Y047207D01*
X009878Y046407D01*
X009978Y046307D01*
X010778Y046307D01*
X010878Y046407D01*
X010978Y046307D01*
X011778Y046307D01*
X011878Y046407D01*
X011878Y047207D01*
X011778Y047307D01*
X010978Y047307D01*
X010878Y047207D01*
X010778Y047307D01*
X009978Y047307D01*
X073180Y046180D02*
X073930Y046180D01*
X074130Y046180D01*
X075680Y046180D01*
X076580Y046180D01*
X076580Y046480D01*
X076230Y046480D01*
X076230Y048480D01*
X076580Y048480D01*
X076580Y048780D01*
X073930Y048780D01*
X073180Y048780D01*
X073180Y046180D01*
X073930Y046180D02*
X073930Y046680D01*
X074130Y046430D02*
X075680Y046430D01*
X075680Y046180D01*
X075500Y045770D02*
X075500Y045410D01*
X075500Y045590D02*
X074960Y045590D01*
X075140Y045410D01*
X074130Y046180D02*
X074130Y046430D01*
X073430Y047280D02*
X073430Y047680D01*
X073930Y048280D02*
X073930Y048780D01*
X075460Y048080D02*
X075460Y047900D01*
X075550Y047810D01*
X075460Y048080D02*
X075550Y048170D01*
X075640Y048170D01*
X076000Y047810D01*
X076000Y048170D01*
X076580Y048480D02*
X076580Y046480D01*
X082717Y048558D02*
X082717Y049308D01*
X082756Y049310D01*
X082795Y049316D01*
X082833Y049325D01*
X082870Y049338D01*
X082906Y049355D01*
X082939Y049375D01*
X082971Y049399D01*
X083000Y049425D01*
X083026Y049454D01*
X083050Y049486D01*
X083070Y049519D01*
X083087Y049555D01*
X083100Y049592D01*
X083109Y049630D01*
X083115Y049669D01*
X083117Y049708D01*
X083115Y049747D01*
X083109Y049786D01*
X083100Y049824D01*
X083087Y049861D01*
X083070Y049897D01*
X083050Y049930D01*
X083026Y049962D01*
X083000Y049991D01*
X082971Y050017D01*
X082939Y050041D01*
X082906Y050061D01*
X082870Y050078D01*
X082833Y050091D01*
X082795Y050100D01*
X082756Y050106D01*
X082717Y050108D01*
X082717Y050858D01*
X096717Y050858D01*
X096717Y048558D01*
X082717Y048558D01*
X086447Y044359D02*
X087247Y044359D01*
X087264Y044357D01*
X087281Y044353D01*
X087297Y044346D01*
X087311Y044336D01*
X087324Y044323D01*
X087334Y044309D01*
X087341Y044293D01*
X087345Y044276D01*
X087347Y044259D01*
X087347Y042559D01*
X087345Y042542D01*
X087341Y042525D01*
X087334Y042509D01*
X087324Y042495D01*
X087311Y042482D01*
X087297Y042472D01*
X087281Y042465D01*
X087264Y042461D01*
X087247Y042459D01*
X086447Y042459D01*
X086430Y042461D01*
X086413Y042465D01*
X086397Y042472D01*
X086383Y042482D01*
X086370Y042495D01*
X086360Y042509D01*
X086353Y042525D01*
X086349Y042542D01*
X086347Y042559D01*
X086347Y044259D01*
X086349Y044276D01*
X086353Y044293D01*
X086360Y044309D01*
X086370Y044323D01*
X086383Y044336D01*
X086397Y044346D01*
X086413Y044353D01*
X086430Y044357D01*
X086447Y044359D01*
X086847Y043559D02*
X086847Y043509D01*
X086847Y043309D02*
X086847Y043259D01*
X090383Y042692D02*
X090333Y042694D01*
X090284Y042700D01*
X090235Y042709D01*
X090187Y042722D01*
X090140Y042739D01*
X090095Y042759D01*
X090051Y042783D01*
X090009Y042810D01*
X089969Y042841D01*
X089932Y042874D01*
X089898Y042910D01*
X089866Y042948D01*
X089837Y042989D01*
X089812Y043031D01*
X089790Y043076D01*
X089771Y043122D01*
X089756Y043170D01*
X089745Y043218D01*
X089737Y043267D01*
X089733Y043317D01*
X089733Y043367D01*
X089737Y043417D01*
X089745Y043466D01*
X089756Y043514D01*
X089771Y043562D01*
X089790Y043608D01*
X089812Y043653D01*
X089837Y043695D01*
X089866Y043736D01*
X089898Y043774D01*
X089932Y043810D01*
X089969Y043843D01*
X090009Y043874D01*
X090051Y043901D01*
X090095Y043925D01*
X090140Y043945D01*
X090187Y043962D01*
X090235Y043975D01*
X090284Y043984D01*
X090333Y043990D01*
X090383Y043992D01*
X092783Y043992D01*
X092833Y043990D01*
X092882Y043984D01*
X092931Y043975D01*
X092979Y043962D01*
X093026Y043945D01*
X093071Y043925D01*
X093115Y043901D01*
X093157Y043874D01*
X093197Y043843D01*
X093234Y043810D01*
X093268Y043774D01*
X093300Y043736D01*
X093329Y043695D01*
X093354Y043653D01*
X093376Y043608D01*
X093395Y043562D01*
X093410Y043514D01*
X093421Y043466D01*
X093429Y043417D01*
X093433Y043367D01*
X093433Y043317D01*
X093429Y043267D01*
X093421Y043218D01*
X093410Y043170D01*
X093395Y043122D01*
X093376Y043076D01*
X093354Y043031D01*
X093329Y042989D01*
X093300Y042948D01*
X093268Y042910D01*
X093234Y042874D01*
X093197Y042841D01*
X093157Y042810D01*
X093115Y042783D01*
X093071Y042759D01*
X093026Y042739D01*
X092979Y042722D01*
X092931Y042709D01*
X092882Y042700D01*
X092833Y042694D01*
X092783Y042692D01*
X090383Y042692D01*
X091083Y043342D02*
X091333Y043342D01*
X091333Y043642D01*
X091483Y043642D02*
X091683Y043642D01*
X091683Y043042D01*
X091483Y043042D01*
X091483Y043642D01*
X091333Y043342D02*
X091333Y043042D01*
X091833Y043042D02*
X091833Y043342D01*
X092083Y043342D01*
X091833Y043342D02*
X091833Y043642D01*
X095796Y043897D02*
X095796Y042197D01*
X095798Y042180D01*
X095802Y042163D01*
X095809Y042147D01*
X095819Y042133D01*
X095832Y042120D01*
X095846Y042110D01*
X095862Y042103D01*
X095879Y042099D01*
X095896Y042097D01*
X096696Y042097D01*
X096713Y042099D01*
X096730Y042103D01*
X096746Y042110D01*
X096760Y042120D01*
X096773Y042133D01*
X096783Y042147D01*
X096790Y042163D01*
X096794Y042180D01*
X096796Y042197D01*
X096796Y043897D01*
X096794Y043914D01*
X096790Y043931D01*
X096783Y043947D01*
X096773Y043961D01*
X096760Y043974D01*
X096746Y043984D01*
X096730Y043991D01*
X096713Y043995D01*
X096696Y043997D01*
X095896Y043997D01*
X095879Y043995D01*
X095862Y043991D01*
X095846Y043984D01*
X095832Y043974D01*
X095819Y043961D01*
X095809Y043947D01*
X095802Y043931D01*
X095798Y043914D01*
X095796Y043897D01*
X096296Y043197D02*
X096296Y043147D01*
X096296Y042947D02*
X096296Y042897D01*
X097021Y053171D02*
X097721Y053171D01*
X097738Y053173D01*
X097755Y053177D01*
X097771Y053184D01*
X097785Y053194D01*
X097798Y053207D01*
X097808Y053221D01*
X097815Y053237D01*
X097819Y053254D01*
X097821Y053271D01*
X097821Y053421D01*
X097771Y053471D01*
X097771Y055371D01*
X097821Y055421D01*
X097821Y055571D01*
X097819Y055588D01*
X097815Y055605D01*
X097808Y055621D01*
X097798Y055635D01*
X097785Y055648D01*
X097771Y055658D01*
X097755Y055665D01*
X097738Y055669D01*
X097721Y055671D01*
X097021Y055671D01*
X097004Y055669D01*
X096987Y055665D01*
X096971Y055658D01*
X096957Y055648D01*
X096944Y055635D01*
X096934Y055621D01*
X096927Y055605D01*
X096923Y055588D01*
X096921Y055571D01*
X096921Y055421D01*
X096971Y055371D01*
X096971Y053471D01*
X096921Y053421D01*
X096921Y053271D01*
X096923Y053254D01*
X096927Y053237D01*
X096934Y053221D01*
X096944Y053207D01*
X096957Y053194D01*
X096971Y053184D01*
X096987Y053177D01*
X097004Y053173D01*
X097021Y053171D01*
X090808Y052778D02*
X090761Y052780D01*
X090713Y052786D01*
X090667Y052795D01*
X090621Y052808D01*
X090577Y052824D01*
X090533Y052845D01*
X090492Y052868D01*
X090453Y052894D01*
X090416Y052924D01*
X090381Y052957D01*
X090349Y052992D01*
X090320Y053029D01*
X090808Y053978D02*
X090853Y053976D01*
X090899Y053971D01*
X090943Y053963D01*
X090987Y053951D01*
X091030Y053935D01*
X091072Y053917D01*
X091112Y053895D01*
X091150Y053871D01*
X091186Y053844D01*
X091221Y053814D01*
X091252Y053781D01*
X091282Y053746D01*
X090808Y053978D02*
X090763Y053976D01*
X090717Y053971D01*
X090673Y053963D01*
X090629Y053951D01*
X090586Y053935D01*
X090544Y053917D01*
X090504Y053895D01*
X090466Y053871D01*
X090430Y053844D01*
X090395Y053814D01*
X090364Y053781D01*
X090334Y053746D01*
X090808Y052778D02*
X090854Y052780D01*
X090900Y052785D01*
X090946Y052794D01*
X090991Y052806D01*
X091034Y052822D01*
X091076Y052841D01*
X091117Y052864D01*
X091156Y052889D01*
X091192Y052917D01*
X091227Y052948D01*
X091259Y052982D01*
X091288Y053018D01*
X079432Y055134D02*
X079432Y055834D01*
X079430Y055851D01*
X079426Y055868D01*
X079419Y055884D01*
X079409Y055898D01*
X079396Y055911D01*
X079382Y055921D01*
X079366Y055928D01*
X079349Y055932D01*
X079332Y055934D01*
X079182Y055934D01*
X079132Y055884D01*
X077232Y055884D01*
X077182Y055934D01*
X077032Y055934D01*
X077015Y055932D01*
X076998Y055928D01*
X076982Y055921D01*
X076968Y055911D01*
X076955Y055898D01*
X076945Y055884D01*
X076938Y055868D01*
X076934Y055851D01*
X076932Y055834D01*
X076932Y055134D01*
X076934Y055117D01*
X076938Y055100D01*
X076945Y055084D01*
X076955Y055070D01*
X076968Y055057D01*
X076982Y055047D01*
X076998Y055040D01*
X077015Y055036D01*
X077032Y055034D01*
X077182Y055034D01*
X077232Y055084D01*
X079132Y055084D01*
X079182Y055034D01*
X079332Y055034D01*
X079349Y055036D01*
X079366Y055040D01*
X079382Y055047D01*
X079396Y055057D01*
X079409Y055070D01*
X079419Y055084D01*
X079426Y055100D01*
X079430Y055117D01*
X079432Y055134D01*
D11*
X077692Y056109D02*
X077692Y056559D01*
X077467Y056334D01*
X077767Y056334D01*
X077307Y056334D02*
X077232Y056259D01*
X077007Y056259D01*
X077157Y056259D02*
X077307Y056109D01*
X077307Y056334D02*
X077307Y056484D01*
X077232Y056559D01*
X077007Y056559D01*
X077007Y056109D01*
X082142Y049501D02*
X082592Y049501D01*
X082592Y049351D02*
X082592Y049651D01*
X082292Y049351D02*
X082142Y049501D01*
X082217Y049190D02*
X082142Y049115D01*
X082142Y048965D01*
X082217Y048890D01*
X082517Y048890D01*
X082592Y048965D01*
X082592Y049115D01*
X082517Y049190D01*
X082592Y048733D02*
X082592Y048583D01*
X082592Y048658D02*
X082142Y048658D01*
X082142Y048583D02*
X082142Y048733D01*
X088241Y052753D02*
X088541Y052753D01*
X088701Y052753D02*
X089002Y052753D01*
X089162Y052753D02*
X089387Y052753D01*
X089462Y052828D01*
X089462Y053128D01*
X089387Y053203D01*
X089162Y053203D01*
X089162Y052753D01*
X088852Y052978D02*
X088701Y052978D01*
X088701Y053203D02*
X088701Y052753D01*
X088701Y053203D02*
X089002Y053203D01*
X089622Y053128D02*
X089697Y053203D01*
X089847Y053203D01*
X089922Y053128D01*
X089922Y053053D01*
X089622Y052753D01*
X089922Y052753D01*
X088241Y052753D02*
X088241Y053203D01*
X097995Y054725D02*
X097995Y054950D01*
X098070Y055025D01*
X098220Y055025D01*
X098295Y054950D01*
X098295Y054725D01*
X098295Y054875D02*
X098446Y055025D01*
X098446Y055185D02*
X098145Y055486D01*
X098070Y055486D01*
X097995Y055411D01*
X097995Y055261D01*
X098070Y055185D01*
X098446Y055185D02*
X098446Y055486D01*
X098446Y054725D02*
X097995Y054725D01*
X087922Y043924D02*
X087922Y043624D01*
X087922Y043774D02*
X087472Y043774D01*
X087622Y043624D01*
X087547Y043464D02*
X087472Y043388D01*
X087472Y043238D01*
X087547Y043163D01*
X087847Y043163D01*
X087922Y043238D01*
X087922Y043388D01*
X087847Y043464D01*
X092687Y042192D02*
X092762Y042268D01*
X092913Y042268D01*
X092988Y042192D01*
X092988Y041892D01*
X092913Y041817D01*
X092762Y041817D01*
X092687Y041892D01*
X092687Y042192D01*
X092838Y041967D02*
X092988Y041817D01*
X093148Y041817D02*
X093448Y041817D01*
X093298Y041817D02*
X093298Y042268D01*
X093148Y042117D01*
X096920Y042876D02*
X096995Y042801D01*
X097296Y042801D01*
X097371Y042876D01*
X097371Y043026D01*
X097296Y043101D01*
X097371Y043261D02*
X097071Y043562D01*
X096995Y043562D01*
X096920Y043487D01*
X096920Y043337D01*
X096995Y043261D01*
X096995Y043101D02*
X096920Y043026D01*
X096920Y042876D01*
X097371Y043261D02*
X097371Y043562D01*
X075055Y046280D02*
X074980Y046205D01*
X075055Y046280D02*
X075055Y046430D01*
X074980Y046505D01*
X074905Y046505D01*
X074830Y046430D01*
X074830Y046280D01*
X074755Y046205D01*
X074680Y046205D01*
X074605Y046280D01*
X074605Y046430D01*
X074680Y046505D01*
X074755Y046665D02*
X074605Y046815D01*
X075055Y046815D01*
X075055Y046665D02*
X075055Y046966D01*
X057263Y049514D02*
X057263Y049589D01*
X057188Y049664D01*
X056813Y049664D01*
X056813Y049589D02*
X056813Y049739D01*
X056813Y049899D02*
X056813Y050124D01*
X056888Y050199D01*
X057038Y050199D01*
X057113Y050124D01*
X057113Y049899D01*
X057263Y049899D02*
X056813Y049899D01*
X056813Y050082D02*
X057188Y050082D01*
X057263Y050157D01*
X057263Y050307D01*
X057188Y050382D01*
X056813Y050382D01*
X056813Y050510D02*
X056963Y050359D01*
X056963Y050542D02*
X057038Y050617D01*
X057038Y050768D01*
X057113Y050843D01*
X057188Y050843D01*
X057263Y050768D01*
X057263Y050617D01*
X057188Y050542D01*
X057263Y050510D02*
X056813Y050510D01*
X056888Y050542D02*
X056963Y050542D01*
X056888Y050542D02*
X056813Y050617D01*
X056813Y050768D01*
X056888Y050843D01*
X056813Y051003D02*
X056813Y051228D01*
X056888Y051303D01*
X056963Y051303D01*
X057038Y051228D01*
X057038Y051003D01*
X057038Y051228D02*
X057113Y051303D01*
X057188Y051303D01*
X057263Y051228D01*
X057263Y051003D01*
X056813Y051003D01*
X056888Y051463D02*
X056813Y051538D01*
X056813Y051688D01*
X056888Y051763D01*
X056963Y051763D01*
X057263Y051463D01*
X057263Y051763D01*
X057188Y051924D02*
X057263Y051999D01*
X057263Y052149D01*
X057188Y052224D01*
X057113Y052224D01*
X057038Y052149D01*
X057038Y051999D01*
X056963Y051924D01*
X056888Y051924D01*
X056813Y051999D01*
X056813Y052149D01*
X056888Y052224D01*
X056813Y052384D02*
X057263Y052384D01*
X057263Y052684D01*
X057263Y052844D02*
X056813Y052844D01*
X056813Y053070D01*
X056888Y053145D01*
X057038Y053145D01*
X057113Y053070D01*
X057113Y052844D01*
X057113Y052994D02*
X057263Y053145D01*
X057263Y053305D02*
X057263Y053455D01*
X057263Y053380D02*
X056813Y053380D01*
X056813Y053305D02*
X056813Y053455D01*
X056963Y053612D02*
X056813Y053762D01*
X056963Y053912D01*
X057263Y053912D01*
X057263Y054072D02*
X057263Y054372D01*
X057263Y054072D02*
X056813Y054072D01*
X057038Y053912D02*
X057038Y053612D01*
X056963Y053612D02*
X057263Y053612D01*
X056813Y052684D02*
X056813Y052384D01*
X057038Y052384D02*
X057038Y052534D01*
X055453Y052673D02*
X055226Y052900D01*
X055170Y052900D01*
X055113Y052844D01*
X055113Y052730D01*
X055170Y052673D01*
X055453Y052673D02*
X055453Y052900D01*
X055453Y053673D02*
X055453Y053900D01*
X055453Y053787D02*
X055113Y053787D01*
X055226Y053673D01*
X055226Y051900D02*
X055283Y051844D01*
X055340Y051900D01*
X055397Y051900D01*
X055453Y051844D01*
X055453Y051730D01*
X055397Y051673D01*
X055283Y051787D02*
X055283Y051844D01*
X055226Y051900D02*
X055170Y051900D01*
X055113Y051844D01*
X055113Y051730D01*
X055170Y051673D01*
X055283Y050900D02*
X055283Y050673D01*
X055113Y050844D01*
X055453Y050844D01*
X055453Y050188D02*
X055453Y049961D01*
X055453Y050074D02*
X055113Y050074D01*
X055226Y049961D01*
X055226Y049188D02*
X055170Y049188D01*
X055113Y049131D01*
X055113Y049017D01*
X055170Y048961D01*
X055226Y049188D02*
X055453Y048961D01*
X055453Y049188D01*
X055397Y048188D02*
X055453Y048131D01*
X055453Y048017D01*
X055397Y047961D01*
X055283Y048074D02*
X055283Y048131D01*
X055340Y048188D01*
X055397Y048188D01*
X055283Y048131D02*
X055226Y048188D01*
X055170Y048188D01*
X055113Y048131D01*
X055113Y048017D01*
X055170Y047961D01*
X055283Y047188D02*
X055283Y046961D01*
X055113Y047131D01*
X055453Y047131D01*
X057188Y049439D02*
X057263Y049514D01*
X057263Y050359D02*
X057263Y050660D01*
X055188Y055918D02*
X055263Y055993D01*
X055263Y056068D01*
X055188Y056143D01*
X054963Y056143D01*
X054963Y055993D01*
X055038Y055918D01*
X055188Y055918D01*
X054963Y056143D02*
X055113Y056293D01*
X055263Y056368D01*
X054803Y056293D02*
X054803Y056143D01*
X054728Y056068D01*
X054502Y056068D01*
X054502Y055918D02*
X054502Y056368D01*
X054728Y056368D01*
X054803Y056293D01*
X054342Y056368D02*
X054192Y056368D01*
X054267Y056368D02*
X054267Y055993D01*
X054192Y055918D01*
X054117Y055918D01*
X054042Y055993D01*
X053791Y057728D02*
X053564Y057728D01*
X053791Y057955D01*
X053791Y058011D01*
X053734Y058068D01*
X053621Y058068D01*
X053564Y058011D01*
X052791Y058011D02*
X052791Y057955D01*
X052734Y057898D01*
X052791Y057841D01*
X052791Y057785D01*
X052734Y057728D01*
X052621Y057728D01*
X052564Y057785D01*
X052677Y057898D02*
X052734Y057898D01*
X052791Y058011D02*
X052734Y058068D01*
X052621Y058068D01*
X052564Y058011D01*
X051791Y057898D02*
X051564Y057898D01*
X051734Y058068D01*
X051734Y057728D01*
X054564Y057728D02*
X054791Y057728D01*
X054677Y057728D02*
X054677Y058068D01*
X054564Y057955D01*
X049011Y054183D02*
X049011Y053883D01*
X048711Y054183D01*
X048636Y054183D01*
X048561Y054108D01*
X048561Y053958D01*
X048636Y053883D01*
X048636Y053723D02*
X048786Y053723D01*
X048861Y053648D01*
X048861Y053423D01*
X049011Y053423D02*
X048561Y053423D01*
X048561Y053648D01*
X048636Y053723D01*
X048561Y053263D02*
X048561Y053112D01*
X048561Y053188D02*
X048936Y053188D01*
X049011Y053112D01*
X049011Y053037D01*
X048936Y052962D01*
X047201Y052711D02*
X047201Y052484D01*
X046974Y052711D01*
X046918Y052711D01*
X046861Y052655D01*
X046861Y052541D01*
X046918Y052484D01*
X046918Y051711D02*
X046974Y051711D01*
X047031Y051655D01*
X047088Y051711D01*
X047145Y051711D01*
X047201Y051655D01*
X047201Y051541D01*
X047145Y051484D01*
X047031Y051598D02*
X047031Y051655D01*
X046918Y051711D02*
X046861Y051655D01*
X046861Y051541D01*
X046918Y051484D01*
X047031Y050711D02*
X047031Y050484D01*
X046861Y050655D01*
X047201Y050655D01*
X047201Y053484D02*
X047201Y053711D01*
X047201Y053598D02*
X046861Y053598D01*
X046974Y053484D01*
X033475Y049899D02*
X033475Y049599D01*
X033175Y049899D01*
X033100Y049899D01*
X033025Y049824D01*
X033025Y049674D01*
X033100Y049599D01*
X033100Y049438D02*
X033025Y049363D01*
X033025Y049213D01*
X033100Y049138D01*
X033400Y049138D01*
X033475Y049213D01*
X033475Y049363D01*
X033400Y049438D01*
X033475Y048981D02*
X033475Y048831D01*
X033475Y048906D02*
X033025Y048906D01*
X033025Y048831D02*
X033025Y048981D01*
X029226Y050056D02*
X029226Y050283D01*
X029226Y050170D02*
X028886Y050170D01*
X028999Y050056D01*
X028921Y050484D02*
X028751Y050655D01*
X029091Y050655D01*
X028921Y050711D02*
X028921Y050484D01*
X028943Y051056D02*
X028886Y051113D01*
X028886Y051226D01*
X028943Y051283D01*
X028999Y051283D01*
X029226Y051056D01*
X029226Y051283D01*
X029034Y051484D02*
X029091Y051541D01*
X029091Y051655D01*
X029034Y051711D01*
X028978Y051711D01*
X028921Y051655D01*
X028921Y051598D01*
X028921Y051655D02*
X028864Y051711D01*
X028808Y051711D01*
X028751Y051655D01*
X028751Y051541D01*
X028808Y051484D01*
X028943Y052056D02*
X028886Y052113D01*
X028886Y052226D01*
X028943Y052283D01*
X028999Y052283D01*
X029056Y052226D01*
X029113Y052283D01*
X029170Y052283D01*
X029226Y052226D01*
X029226Y052113D01*
X029170Y052056D01*
X029056Y052170D02*
X029056Y052226D01*
X029091Y052484D02*
X028864Y052711D01*
X028808Y052711D01*
X028751Y052655D01*
X028751Y052541D01*
X028808Y052484D01*
X029091Y052484D02*
X029091Y052711D01*
X029056Y053056D02*
X029056Y053283D01*
X028886Y053226D02*
X029056Y053056D01*
X029226Y053226D02*
X028886Y053226D01*
X028864Y053484D02*
X028751Y053598D01*
X029091Y053598D01*
X029091Y053711D02*
X029091Y053484D01*
X030451Y053423D02*
X030451Y053648D01*
X030526Y053723D01*
X030676Y053723D01*
X030751Y053648D01*
X030751Y053423D01*
X030901Y053423D02*
X030451Y053423D01*
X030451Y053263D02*
X030451Y053112D01*
X030451Y053188D02*
X030826Y053188D01*
X030901Y053112D01*
X030901Y053037D01*
X030826Y052962D01*
X030826Y053883D02*
X030901Y053958D01*
X030901Y054108D01*
X030826Y054183D01*
X030751Y054183D01*
X030676Y054108D01*
X030676Y054033D01*
X030676Y054108D02*
X030601Y054183D01*
X030526Y054183D01*
X030451Y054108D01*
X030451Y053958D01*
X030526Y053883D01*
X027526Y050702D02*
X027076Y050702D01*
X027301Y050477D01*
X027301Y050777D01*
X027301Y050317D02*
X027376Y050242D01*
X027376Y050016D01*
X027526Y050016D02*
X027076Y050016D01*
X027076Y050242D01*
X027151Y050317D01*
X027301Y050317D01*
X027076Y049856D02*
X027076Y049706D01*
X027076Y049781D02*
X027451Y049781D01*
X027526Y049706D01*
X027526Y049631D01*
X027451Y049556D01*
X034455Y042547D02*
X034511Y042547D01*
X034568Y042490D01*
X034625Y042547D01*
X034681Y042547D01*
X034738Y042490D01*
X034738Y042377D01*
X034681Y042320D01*
X034568Y042433D02*
X034568Y042490D01*
X034455Y042547D02*
X034398Y042490D01*
X034398Y042377D01*
X034455Y042320D01*
X034455Y041547D02*
X034398Y041490D01*
X034398Y041377D01*
X034455Y041320D01*
X034455Y041547D02*
X034511Y041547D01*
X034738Y041320D01*
X034738Y041547D01*
X035737Y041526D02*
X035812Y041601D01*
X036113Y041301D01*
X036188Y041376D01*
X036188Y041526D01*
X036113Y041601D01*
X035812Y041601D01*
X035737Y041526D02*
X035737Y041376D01*
X035812Y041301D01*
X036113Y041301D01*
X036188Y041141D02*
X036188Y040841D01*
X036188Y040991D02*
X035737Y040991D01*
X035887Y040841D01*
X035812Y040681D02*
X035963Y040681D01*
X036038Y040605D01*
X036038Y040380D01*
X036188Y040380D02*
X035737Y040380D01*
X035737Y040605D01*
X035812Y040681D01*
X035737Y040220D02*
X035737Y040070D01*
X035737Y040145D02*
X036113Y040145D01*
X036188Y040070D01*
X036188Y039995D01*
X036113Y039920D01*
X037547Y040433D02*
X037888Y040433D01*
X037888Y040320D02*
X037888Y040547D01*
X038100Y040605D02*
X038100Y040380D01*
X038550Y040380D01*
X038400Y040380D02*
X038400Y040605D01*
X038325Y040681D01*
X038175Y040681D01*
X038100Y040605D01*
X038175Y040841D02*
X038250Y040841D01*
X038325Y040916D01*
X038325Y041066D01*
X038400Y041141D01*
X038475Y041141D01*
X038550Y041066D01*
X038550Y040916D01*
X038475Y040841D01*
X038400Y040841D01*
X038325Y040916D01*
X038325Y041066D02*
X038250Y041141D01*
X038175Y041141D01*
X038100Y041066D01*
X038100Y040916D01*
X038175Y040841D01*
X037888Y041320D02*
X037661Y041547D01*
X037604Y041547D01*
X037547Y041490D01*
X037547Y041377D01*
X037604Y041320D01*
X037888Y041320D02*
X037888Y041547D01*
X037831Y042320D02*
X037888Y042377D01*
X037888Y042490D01*
X037831Y042547D01*
X037774Y042547D01*
X037718Y042490D01*
X037718Y042433D01*
X037718Y042490D02*
X037661Y042547D01*
X037604Y042547D01*
X037547Y042490D01*
X037547Y042377D01*
X037604Y042320D01*
X037547Y040433D02*
X037661Y040320D01*
X038100Y040220D02*
X038100Y040070D01*
X038100Y040145D02*
X038475Y040145D01*
X038550Y040070D01*
X038550Y039995D01*
X038475Y039920D01*
X039910Y040433D02*
X040250Y040433D01*
X040250Y040320D02*
X040250Y040547D01*
X040023Y040320D02*
X039910Y040433D01*
X039966Y041320D02*
X039910Y041377D01*
X039910Y041490D01*
X039966Y041547D01*
X040023Y041547D01*
X040250Y041320D01*
X040250Y041547D01*
X040193Y042320D02*
X040250Y042377D01*
X040250Y042490D01*
X040193Y042547D01*
X040137Y042547D01*
X040080Y042490D01*
X040080Y042433D01*
X040080Y042490D02*
X040023Y042547D01*
X039966Y042547D01*
X039910Y042490D01*
X039910Y042377D01*
X039966Y042320D01*
X034738Y040547D02*
X034738Y040320D01*
X034738Y040433D02*
X034398Y040433D01*
X034511Y040320D01*
X033038Y040380D02*
X032588Y040380D01*
X032588Y040605D01*
X032663Y040681D01*
X032813Y040681D01*
X032888Y040605D01*
X032888Y040380D01*
X032963Y040145D02*
X032588Y040145D01*
X032588Y040070D02*
X032588Y040220D01*
X032963Y040145D02*
X033038Y040070D01*
X033038Y039995D01*
X032963Y039920D01*
X032963Y040841D02*
X032663Y041141D01*
X032588Y041141D01*
X032588Y040841D01*
X032963Y040841D02*
X033038Y040841D01*
X016628Y050056D02*
X016628Y050283D01*
X016628Y050170D02*
X016288Y050170D01*
X016401Y050056D01*
X014928Y050092D02*
X014853Y050016D01*
X014928Y050092D02*
X014928Y050242D01*
X014853Y050317D01*
X014778Y050317D01*
X014703Y050242D01*
X014703Y050092D01*
X014628Y050016D01*
X014553Y050016D01*
X014478Y050092D01*
X014478Y050242D01*
X014553Y050317D01*
X014478Y050477D02*
X014478Y050702D01*
X014553Y050777D01*
X014628Y050777D01*
X014703Y050702D01*
X014703Y050477D01*
X014928Y050477D02*
X014478Y050477D01*
X014703Y050702D02*
X014778Y050777D01*
X014853Y050777D01*
X014928Y050702D01*
X014928Y050477D01*
X014928Y050937D02*
X014628Y051238D01*
X014553Y051238D01*
X014478Y051162D01*
X014478Y051012D01*
X014553Y050937D01*
X014928Y050937D02*
X014928Y051238D01*
X014928Y051398D02*
X014928Y051698D01*
X014928Y051858D02*
X014628Y051858D01*
X014478Y052008D01*
X014628Y052158D01*
X014928Y052158D01*
X014928Y052318D02*
X014478Y052318D01*
X014928Y052619D01*
X014478Y052619D01*
X014553Y052779D02*
X014853Y052779D01*
X014928Y052854D01*
X014928Y053004D01*
X014853Y053079D01*
X014553Y053079D01*
X014478Y053004D01*
X014478Y052854D01*
X014553Y052779D01*
X014478Y053239D02*
X014478Y053464D01*
X014553Y053539D01*
X014703Y053539D01*
X014778Y053464D01*
X014778Y053239D01*
X014928Y053239D02*
X014478Y053239D01*
X014703Y052158D02*
X014703Y051858D01*
X014478Y051398D02*
X014928Y051398D01*
X016288Y051226D02*
X016288Y051113D01*
X016344Y051056D01*
X016288Y051226D02*
X016344Y051283D01*
X016401Y051283D01*
X016628Y051056D01*
X016628Y051283D01*
X016571Y052056D02*
X016628Y052113D01*
X016628Y052226D01*
X016571Y052283D01*
X016514Y052283D01*
X016458Y052226D01*
X016458Y052170D01*
X016458Y052226D02*
X016401Y052283D01*
X016344Y052283D01*
X016288Y052226D01*
X016288Y052113D01*
X016344Y052056D01*
X016458Y053056D02*
X016458Y053283D01*
X016628Y053226D02*
X016288Y053226D01*
X016458Y053056D01*
X014853Y049856D02*
X014478Y049856D01*
X014478Y049556D02*
X014853Y049556D01*
X014928Y049631D01*
X014928Y049781D01*
X014853Y049856D01*
X011668Y046132D02*
X011518Y046132D01*
X011443Y046057D01*
X011443Y045982D01*
X011518Y045907D01*
X011743Y045907D01*
X011743Y046057D02*
X011668Y046132D01*
X011743Y046057D02*
X011743Y045757D01*
X011668Y045682D01*
X011518Y045682D01*
X011443Y045757D01*
X011283Y045907D02*
X011208Y045832D01*
X010983Y045832D01*
X010983Y045682D02*
X010983Y046132D01*
X011208Y046132D01*
X011283Y046057D01*
X011283Y045907D01*
X010823Y046132D02*
X010672Y046132D01*
X010747Y046132D02*
X010747Y045757D01*
X010672Y045682D01*
X010597Y045682D01*
X010522Y045757D01*
X000742Y054229D02*
X000667Y054154D01*
X000742Y054229D02*
X000742Y054379D01*
X000667Y054454D01*
X000592Y054454D01*
X000516Y054379D01*
X000516Y054229D01*
X000441Y054154D01*
X000366Y054154D01*
X000291Y054229D01*
X000291Y054379D01*
X000366Y054454D01*
X000291Y054614D02*
X000742Y054614D01*
X000592Y054764D01*
X000742Y054914D01*
X000291Y054914D01*
X000441Y055075D02*
X000291Y055225D01*
X000742Y055225D01*
X000742Y055075D02*
X000742Y055375D01*
X002892Y059293D02*
X002967Y059293D01*
X003042Y059368D01*
X003042Y059743D01*
X002967Y059743D02*
X003117Y059743D01*
X003277Y059743D02*
X003502Y059743D01*
X003578Y059668D01*
X003578Y059518D01*
X003502Y059443D01*
X003277Y059443D01*
X003277Y059293D02*
X003277Y059743D01*
X003738Y059743D02*
X003738Y059518D01*
X003888Y059593D01*
X003963Y059593D01*
X004038Y059518D01*
X004038Y059368D01*
X003963Y059293D01*
X003813Y059293D01*
X003738Y059368D01*
X003738Y059743D02*
X004038Y059743D01*
X002892Y059293D02*
X002817Y059368D01*
X008903Y059743D02*
X009204Y059743D01*
X009054Y059743D02*
X009054Y059293D01*
X009364Y059293D02*
X009664Y059743D01*
X009364Y059743D02*
X009664Y059293D01*
X009517Y057933D02*
X009517Y057593D01*
X009630Y057593D02*
X009403Y057593D01*
X009403Y057820D02*
X009517Y057933D01*
X010403Y057876D02*
X010460Y057933D01*
X010574Y057933D01*
X010630Y057876D01*
X010630Y057820D01*
X010403Y057593D01*
X010630Y057593D01*
X011403Y057649D02*
X011460Y057593D01*
X011574Y057593D01*
X011630Y057649D01*
X011630Y057706D01*
X011574Y057763D01*
X011517Y057763D01*
X011574Y057763D02*
X011630Y057820D01*
X011630Y057876D01*
X011574Y057933D01*
X011460Y057933D01*
X011403Y057876D01*
X012403Y057763D02*
X012630Y057763D01*
X012574Y057933D02*
X012403Y057763D01*
X012574Y057593D02*
X012574Y057933D01*
X026226Y059743D02*
X026527Y059743D01*
X026376Y059743D02*
X026376Y059293D01*
X026687Y059293D02*
X026987Y059743D01*
X027147Y059593D02*
X027297Y059743D01*
X027297Y059293D01*
X027147Y059293D02*
X027447Y059293D01*
X026987Y059293D02*
X026687Y059743D01*
X026840Y057933D02*
X026840Y057593D01*
X026953Y057593D02*
X026726Y057593D01*
X026726Y057820D02*
X026840Y057933D01*
X027726Y057876D02*
X027783Y057933D01*
X027896Y057933D01*
X027953Y057876D01*
X027953Y057820D01*
X027726Y057593D01*
X027953Y057593D01*
X028726Y057649D02*
X028783Y057593D01*
X028896Y057593D01*
X028953Y057649D01*
X028953Y057706D01*
X028896Y057763D01*
X028840Y057763D01*
X028896Y057763D02*
X028953Y057820D01*
X028953Y057876D01*
X028896Y057933D01*
X028783Y057933D01*
X028726Y057876D01*
X029726Y057763D02*
X029953Y057763D01*
X029896Y057593D02*
X029896Y057933D01*
X029726Y057763D01*
X009416Y030978D02*
X009416Y030677D01*
X009416Y030828D02*
X008966Y030828D01*
X009116Y030677D01*
X009416Y030517D02*
X009416Y030217D01*
X009416Y030367D02*
X008966Y030367D01*
X009116Y030217D01*
X009191Y030057D02*
X009266Y029982D01*
X009266Y029757D01*
X009416Y029757D02*
X008966Y029757D01*
X008966Y029982D01*
X009041Y030057D01*
X009191Y030057D01*
X008966Y029597D02*
X008966Y029446D01*
X008966Y029521D02*
X009341Y029521D01*
X009416Y029446D01*
X009416Y029371D01*
X009341Y029296D01*
X010841Y026624D02*
X010766Y026549D01*
X010766Y026399D01*
X010841Y026324D01*
X010766Y026164D02*
X011216Y025864D01*
X011216Y026164D02*
X010766Y025864D01*
X010766Y025704D02*
X010766Y025403D01*
X010766Y025553D02*
X011216Y025553D01*
X011216Y026324D02*
X010916Y026624D01*
X010841Y026624D01*
X011216Y026624D02*
X011216Y026324D01*
X009406Y026152D02*
X009406Y025925D01*
X009406Y026039D02*
X009066Y026039D01*
X009179Y025925D01*
X009179Y025152D02*
X009123Y025152D01*
X009066Y025095D01*
X009066Y024982D01*
X009123Y024925D01*
X009179Y025152D02*
X009406Y024925D01*
X009406Y025152D01*
X009349Y024152D02*
X009406Y024095D01*
X009406Y023982D01*
X009349Y023925D01*
X009236Y024039D02*
X009236Y024095D01*
X009293Y024152D01*
X009349Y024152D01*
X009236Y024095D02*
X009179Y024152D01*
X009123Y024152D01*
X009066Y024095D01*
X009066Y023982D01*
X009123Y023925D01*
X009236Y023152D02*
X009236Y022925D01*
X009066Y023095D01*
X009406Y023095D01*
X009416Y020741D02*
X009416Y020441D01*
X009116Y020741D01*
X009041Y020741D01*
X008966Y020666D01*
X008966Y020516D01*
X009041Y020441D01*
X008966Y020131D02*
X009416Y020131D01*
X009416Y019981D02*
X009416Y020281D01*
X009116Y019981D02*
X008966Y020131D01*
X009041Y019821D02*
X009191Y019821D01*
X009266Y019746D01*
X009266Y019520D01*
X009416Y019520D02*
X008966Y019520D01*
X008966Y019746D01*
X009041Y019821D01*
X008966Y019360D02*
X008966Y019210D01*
X008966Y019285D02*
X009341Y019285D01*
X009416Y019210D01*
X009416Y019135D01*
X009341Y019060D01*
D12*
X097371Y053001D03*
X097371Y055841D03*
D13*
X091503Y053775D02*
X091473Y053823D01*
X091440Y053868D01*
X091404Y053911D01*
X091366Y053952D01*
X091324Y053989D01*
X091280Y054024D01*
X091234Y054055D01*
X091185Y054084D01*
X091135Y054108D01*
X091083Y054129D01*
X091029Y054147D01*
X090975Y054160D01*
X090920Y054170D01*
X090864Y054176D01*
X090808Y054178D01*
X091514Y053002D02*
X091487Y052955D01*
X091457Y052910D01*
X091424Y052867D01*
X091388Y052827D01*
X091349Y052789D01*
X091308Y052754D01*
X091265Y052721D01*
X091220Y052692D01*
X091172Y052666D01*
X091123Y052643D01*
X091073Y052623D01*
X091022Y052607D01*
X090969Y052594D01*
X090916Y052585D01*
X090862Y052580D01*
X090808Y052578D01*
X090197Y053895D02*
X090233Y053934D01*
X090272Y053972D01*
X090312Y054006D01*
X090355Y054038D01*
X090400Y054066D01*
X090447Y054092D01*
X090496Y054115D01*
X090546Y054134D01*
X090597Y054150D01*
X090649Y054162D01*
X090701Y054171D01*
X090755Y054176D01*
X090808Y054178D01*
X090193Y052866D02*
X090229Y052826D01*
X090268Y052788D01*
X090309Y052753D01*
X090352Y052721D01*
X090397Y052691D01*
X090444Y052665D01*
X090493Y052643D01*
X090544Y052623D01*
X090595Y052607D01*
X090647Y052594D01*
X090701Y052585D01*
X090754Y052580D01*
X090808Y052578D01*
X087147Y043509D02*
X086847Y043509D01*
X086547Y043509D01*
X086547Y043309D02*
X086847Y043309D01*
X087147Y043309D01*
X095996Y043147D02*
X096296Y043147D01*
X096596Y043147D01*
X096596Y042947D02*
X096296Y042947D01*
X095996Y042947D01*
D14*
X092783Y042492D02*
X092840Y042494D01*
X092896Y042500D01*
X092952Y042509D01*
X093008Y042522D01*
X093062Y042539D01*
X093115Y042559D01*
X093166Y042583D01*
X093216Y042611D01*
X093264Y042641D01*
X093310Y042675D01*
X093353Y042712D01*
X093394Y042751D01*
X093432Y042793D01*
X093467Y042838D01*
X093499Y042885D01*
X093528Y042934D01*
X093554Y042984D01*
X093576Y043037D01*
X093595Y043090D01*
X093610Y043145D01*
X093621Y043201D01*
X093629Y043257D01*
X093633Y043314D01*
X093633Y043370D01*
X093629Y043427D01*
X093621Y043483D01*
X093610Y043539D01*
X093595Y043594D01*
X093576Y043647D01*
X093554Y043700D01*
X093528Y043750D01*
X093499Y043799D01*
X093467Y043846D01*
X093432Y043891D01*
X093394Y043933D01*
X093353Y043972D01*
X093310Y044009D01*
X093264Y044043D01*
X093216Y044073D01*
X093166Y044101D01*
X093115Y044125D01*
X093062Y044145D01*
X093008Y044162D01*
X092952Y044175D01*
X092896Y044184D01*
X092840Y044190D01*
X092783Y044192D01*
X090383Y044192D01*
X090326Y044190D01*
X090270Y044184D01*
X090214Y044175D01*
X090158Y044162D01*
X090104Y044145D01*
X090051Y044125D01*
X090000Y044101D01*
X089950Y044073D01*
X089902Y044043D01*
X089856Y044009D01*
X089813Y043972D01*
X089772Y043933D01*
X089734Y043891D01*
X089699Y043846D01*
X089667Y043799D01*
X089638Y043750D01*
X089612Y043700D01*
X089590Y043647D01*
X089571Y043594D01*
X089556Y043539D01*
X089545Y043483D01*
X089537Y043427D01*
X089533Y043370D01*
X089533Y043314D01*
X089537Y043257D01*
X089545Y043201D01*
X089556Y043145D01*
X089571Y043090D01*
X089590Y043037D01*
X089612Y042984D01*
X089638Y042934D01*
X089667Y042885D01*
X089699Y042838D01*
X089734Y042793D01*
X089772Y042751D01*
X089813Y042712D01*
X089856Y042675D01*
X089902Y042641D01*
X089950Y042611D01*
X090000Y042583D01*
X090051Y042559D01*
X090104Y042539D01*
X090158Y042522D01*
X090214Y042509D01*
X090270Y042500D01*
X090326Y042494D01*
X090383Y042492D01*
X092783Y042492D01*
D15*
X079602Y055484D03*
X076762Y055484D03*
D16*
X066981Y042053D02*
X066666Y042053D01*
X066981Y042053D02*
X066981Y038500D01*
X060760Y038500D01*
X060760Y042053D01*
X061046Y042053D01*
X061932Y041915D02*
X062276Y041915D01*
X063113Y041915D02*
X063457Y041915D01*
X064294Y041915D02*
X064638Y041915D01*
X065475Y041915D02*
X065819Y041915D01*
X067227Y040606D02*
X067227Y040409D01*
X067020Y040409D01*
X067227Y040606D02*
X067315Y040606D01*
X067601Y040439D01*
X067601Y039868D01*
X067315Y039700D01*
X067020Y039700D01*
X067375Y039759D02*
X067375Y040547D01*
X064343Y038785D02*
X064345Y038744D01*
X064350Y038704D01*
X064360Y038664D01*
X064373Y038626D01*
X064389Y038588D01*
X064409Y038553D01*
X064432Y038519D01*
X064579Y038539D02*
X064579Y039799D01*
X063162Y039799D01*
X063162Y038539D01*
X063309Y038519D02*
X063332Y038553D01*
X063352Y038588D01*
X063368Y038626D01*
X063381Y038664D01*
X063391Y038704D01*
X063396Y038744D01*
X063398Y038785D01*
X063398Y039228D01*
X063398Y039582D01*
X064343Y039582D01*
X064343Y039228D01*
X064343Y038785D01*
X064343Y039228D02*
X063398Y039228D01*
X060721Y040133D02*
X060514Y040133D01*
X060514Y039937D01*
X060426Y039937D01*
X060140Y040104D01*
X060140Y040675D01*
X060426Y040842D01*
X060721Y040842D01*
X060367Y040783D02*
X060367Y039996D01*
X056341Y040104D02*
X056056Y039937D01*
X055760Y039937D01*
X056115Y039996D02*
X056115Y040783D01*
X056056Y040842D02*
X055967Y040842D01*
X055967Y040645D01*
X055760Y040645D01*
X056056Y040842D02*
X056341Y040675D01*
X056341Y040104D01*
X055721Y038736D02*
X055721Y042289D01*
X055406Y042289D01*
X054560Y042151D02*
X054215Y042151D01*
X053378Y042151D02*
X053034Y042151D01*
X052197Y042151D02*
X051853Y042151D01*
X051016Y042151D02*
X050672Y042151D01*
X049786Y042289D02*
X049501Y042289D01*
X049501Y038736D01*
X055721Y038736D01*
X053172Y038755D02*
X053149Y038789D01*
X053129Y038824D01*
X053113Y038862D01*
X053100Y038900D01*
X053090Y038940D01*
X053085Y038980D01*
X053083Y039021D01*
X053083Y039464D01*
X053083Y039819D01*
X052138Y039819D01*
X052138Y039464D01*
X052138Y039021D01*
X051902Y038775D02*
X051902Y040035D01*
X053319Y040035D01*
X053319Y038775D01*
X053083Y039464D02*
X052138Y039464D01*
X052138Y039021D02*
X052136Y038980D01*
X052131Y038940D01*
X052121Y038900D01*
X052108Y038862D01*
X052092Y038824D01*
X052072Y038789D01*
X052049Y038755D01*
X049461Y040370D02*
X049254Y040370D01*
X049254Y040173D01*
X049166Y040173D01*
X048880Y040340D01*
X048880Y040911D01*
X049166Y041078D01*
X049461Y041078D01*
X049107Y041019D02*
X049107Y040232D01*
X030760Y036531D02*
X030760Y030311D01*
X027207Y030311D01*
X027207Y030596D01*
X028418Y030271D02*
X028418Y029976D01*
X028585Y029691D01*
X029156Y029691D01*
X029323Y029976D01*
X029323Y030065D01*
X029127Y030065D01*
X029127Y030271D01*
X029264Y029917D02*
X028477Y029917D01*
X027345Y031482D02*
X027345Y031826D01*
X027345Y032663D02*
X027345Y033007D01*
X027345Y033844D02*
X027345Y034189D01*
X027345Y035025D02*
X027345Y035370D01*
X027207Y036216D02*
X027207Y036531D01*
X030760Y036531D01*
X029560Y036570D02*
X029560Y036866D01*
X029392Y037151D01*
X028821Y037151D01*
X028654Y036866D01*
X028654Y036777D01*
X028851Y036777D01*
X028851Y036570D01*
X028713Y036925D02*
X029501Y036925D01*
X030475Y033893D02*
X030516Y033895D01*
X030556Y033900D01*
X030596Y033910D01*
X030634Y033923D01*
X030672Y033939D01*
X030707Y033959D01*
X030741Y033982D01*
X030721Y034130D02*
X029461Y034130D01*
X029461Y032712D01*
X030721Y032712D01*
X030741Y032860D02*
X030707Y032883D01*
X030672Y032903D01*
X030634Y032919D01*
X030596Y032932D01*
X030556Y032942D01*
X030516Y032947D01*
X030475Y032949D01*
X030475Y032948D02*
X030032Y032948D01*
X029678Y032948D01*
X029678Y033893D01*
X030032Y033893D01*
X030475Y033893D01*
X030032Y033893D02*
X030032Y032948D01*
X035313Y054008D02*
X035313Y061331D01*
X041240Y061331D01*
X041240Y054008D01*
X035313Y054008D01*
D17*
X034951Y060437D02*
X041601Y060437D01*
X050175Y041383D02*
X050260Y041405D01*
X050245Y041350D01*
X050166Y041350D01*
X050175Y041383D01*
X050174Y041382D02*
X050254Y041382D01*
X050254Y041384D02*
X050178Y041384D01*
X050174Y041379D02*
X050253Y041379D01*
X050252Y041377D02*
X050173Y041377D01*
X050172Y041374D02*
X050252Y041374D01*
X050251Y041372D02*
X050172Y041372D01*
X050171Y041370D02*
X050250Y041370D01*
X050250Y041367D02*
X050170Y041367D01*
X050170Y041365D02*
X050249Y041365D01*
X050248Y041362D02*
X050169Y041362D01*
X050168Y041360D02*
X050247Y041360D01*
X050247Y041357D02*
X050168Y041357D01*
X050167Y041355D02*
X050246Y041355D01*
X050245Y041353D02*
X050167Y041353D01*
X050166Y041350D02*
X050105Y041350D01*
X050093Y041311D01*
X050308Y041311D01*
X050233Y041311D01*
X050205Y041220D01*
X050205Y041213D01*
X050206Y041207D01*
X050210Y041201D01*
X050216Y041198D01*
X050223Y041196D01*
X050270Y041196D01*
X050258Y041153D01*
X050148Y041153D01*
X050138Y041155D01*
X050129Y041160D01*
X050260Y041160D01*
X050260Y041158D02*
X050133Y041158D01*
X050129Y041160D02*
X050122Y041167D01*
X050119Y041177D01*
X050265Y041177D01*
X050264Y041175D02*
X050119Y041175D01*
X050119Y041177D02*
X050118Y041187D01*
X050268Y041187D01*
X050268Y041189D02*
X050119Y041189D01*
X050118Y041187D02*
X050121Y041196D01*
X050154Y041311D01*
X050093Y041311D01*
X050094Y041314D02*
X050308Y041314D01*
X050309Y041316D02*
X050095Y041316D01*
X050095Y041318D02*
X050310Y041318D01*
X050311Y041321D02*
X050096Y041321D01*
X050097Y041323D02*
X050311Y041323D01*
X050312Y041326D02*
X050098Y041326D01*
X050098Y041328D02*
X050313Y041328D01*
X050314Y041331D02*
X050099Y041331D01*
X050100Y041333D02*
X050314Y041333D01*
X050315Y041335D02*
X050100Y041335D01*
X050101Y041338D02*
X050316Y041338D01*
X050317Y041340D02*
X050102Y041340D01*
X050103Y041343D02*
X050317Y041343D01*
X050318Y041345D02*
X050103Y041345D01*
X050104Y041348D02*
X050319Y041348D01*
X050319Y041350D02*
X050308Y041311D01*
X050340Y041301D02*
X050419Y041301D01*
X050418Y041299D02*
X050340Y041299D01*
X050339Y041296D02*
X050417Y041296D01*
X050417Y041294D02*
X050338Y041294D01*
X050337Y041292D02*
X050416Y041292D01*
X050415Y041289D02*
X050337Y041289D01*
X050336Y041287D02*
X050414Y041287D01*
X050414Y041284D02*
X050335Y041284D01*
X050334Y041282D02*
X050413Y041282D01*
X050412Y041279D02*
X050334Y041279D01*
X050333Y041277D02*
X050411Y041277D01*
X050411Y041275D02*
X050332Y041275D01*
X050331Y041272D02*
X050410Y041272D01*
X050409Y041270D02*
X050331Y041270D01*
X050330Y041267D02*
X050408Y041267D01*
X050408Y041265D02*
X050329Y041265D01*
X050329Y041262D02*
X050407Y041262D01*
X050406Y041260D02*
X050328Y041260D01*
X050327Y041257D02*
X050405Y041257D01*
X050405Y041255D02*
X050326Y041255D01*
X050326Y041253D02*
X050404Y041253D01*
X050403Y041250D02*
X050325Y041250D01*
X050324Y041248D02*
X050402Y041248D01*
X050402Y041245D02*
X050323Y041245D01*
X050323Y041243D02*
X050401Y041243D01*
X050400Y041240D02*
X050322Y041240D01*
X050321Y041238D02*
X050399Y041238D01*
X050399Y041236D02*
X050321Y041236D01*
X050320Y041233D02*
X050398Y041233D01*
X050398Y041234D02*
X050397Y041224D01*
X050399Y041215D01*
X050404Y041207D01*
X050411Y041200D01*
X050420Y041197D01*
X050430Y041196D01*
X050461Y041196D01*
X050508Y041350D01*
X050585Y041350D01*
X050501Y041072D01*
X050424Y041072D01*
X050447Y041153D01*
X050525Y041153D01*
X050526Y041155D02*
X050323Y041155D01*
X050324Y041155D02*
X050316Y041159D01*
X050310Y041166D01*
X050306Y041174D01*
X050305Y041184D01*
X050308Y041193D01*
X050355Y041350D01*
X050434Y041350D01*
X050398Y041234D01*
X050398Y041231D02*
X050319Y041231D01*
X050318Y041228D02*
X050397Y041228D01*
X050397Y041226D02*
X050318Y041226D01*
X050317Y041223D02*
X050397Y041223D01*
X050398Y041221D02*
X050316Y041221D01*
X050315Y041218D02*
X050398Y041218D01*
X050399Y041216D02*
X050315Y041216D01*
X050314Y041214D02*
X050400Y041214D01*
X050401Y041211D02*
X050313Y041211D01*
X050312Y041209D02*
X050402Y041209D01*
X050404Y041206D02*
X050312Y041206D01*
X050311Y041204D02*
X050407Y041204D01*
X050410Y041201D02*
X050310Y041201D01*
X050310Y041199D02*
X050415Y041199D01*
X050427Y041197D02*
X050309Y041197D01*
X050308Y041194D02*
X050538Y041194D01*
X050537Y041192D02*
X050307Y041192D01*
X050307Y041189D02*
X050536Y041189D01*
X050535Y041187D02*
X050306Y041187D01*
X050305Y041184D02*
X050535Y041184D01*
X050534Y041182D02*
X050305Y041182D01*
X050306Y041179D02*
X050533Y041179D01*
X050532Y041177D02*
X050306Y041177D01*
X050306Y041175D02*
X050532Y041175D01*
X050531Y041172D02*
X050307Y041172D01*
X050308Y041170D02*
X050530Y041170D01*
X050529Y041167D02*
X050309Y041167D01*
X050311Y041165D02*
X050529Y041165D01*
X050528Y041162D02*
X050313Y041162D01*
X050315Y041160D02*
X050527Y041160D01*
X050526Y041158D02*
X050319Y041158D01*
X050324Y041155D02*
X050333Y041153D01*
X050447Y041153D01*
X050447Y041150D02*
X050524Y041150D01*
X050524Y041148D02*
X050446Y041148D01*
X050445Y041145D02*
X050523Y041145D01*
X050522Y041143D02*
X050444Y041143D01*
X050444Y041141D02*
X050521Y041141D01*
X050521Y041138D02*
X050443Y041138D01*
X050442Y041136D02*
X050520Y041136D01*
X050519Y041133D02*
X050442Y041133D01*
X050441Y041131D02*
X050518Y041131D01*
X050518Y041128D02*
X050440Y041128D01*
X050439Y041126D02*
X050517Y041126D01*
X050516Y041123D02*
X050439Y041123D01*
X050438Y041121D02*
X050515Y041121D01*
X050515Y041119D02*
X050437Y041119D01*
X050437Y041116D02*
X050514Y041116D01*
X050513Y041114D02*
X050436Y041114D01*
X050435Y041111D02*
X050512Y041111D01*
X050512Y041109D02*
X050434Y041109D01*
X050434Y041106D02*
X050511Y041106D01*
X050510Y041104D02*
X050433Y041104D01*
X050432Y041102D02*
X050509Y041102D01*
X050509Y041099D02*
X050432Y041099D01*
X050431Y041097D02*
X050508Y041097D01*
X050507Y041094D02*
X050430Y041094D01*
X050429Y041092D02*
X050506Y041092D01*
X050506Y041089D02*
X050429Y041089D01*
X050428Y041087D02*
X050505Y041087D01*
X050504Y041084D02*
X050427Y041084D01*
X050427Y041082D02*
X050503Y041082D01*
X050503Y041080D02*
X050426Y041080D01*
X050425Y041077D02*
X050502Y041077D01*
X050501Y041075D02*
X050424Y041075D01*
X050461Y041197D02*
X050538Y041197D01*
X050539Y041199D02*
X050462Y041199D01*
X050463Y041201D02*
X050540Y041201D01*
X050541Y041204D02*
X050463Y041204D01*
X050464Y041206D02*
X050541Y041206D01*
X050542Y041209D02*
X050465Y041209D01*
X050466Y041211D02*
X050543Y041211D01*
X050544Y041214D02*
X050466Y041214D01*
X050467Y041216D02*
X050544Y041216D01*
X050545Y041218D02*
X050468Y041218D01*
X050469Y041221D02*
X050546Y041221D01*
X050547Y041223D02*
X050469Y041223D01*
X050470Y041226D02*
X050547Y041226D01*
X050548Y041228D02*
X050471Y041228D01*
X050472Y041231D02*
X050549Y041231D01*
X050550Y041233D02*
X050472Y041233D01*
X050473Y041236D02*
X050550Y041236D01*
X050551Y041238D02*
X050474Y041238D01*
X050475Y041240D02*
X050552Y041240D01*
X050552Y041243D02*
X050475Y041243D01*
X050476Y041245D02*
X050553Y041245D01*
X050554Y041248D02*
X050477Y041248D01*
X050478Y041250D02*
X050555Y041250D01*
X050555Y041253D02*
X050478Y041253D01*
X050479Y041255D02*
X050556Y041255D01*
X050557Y041257D02*
X050480Y041257D01*
X050481Y041260D02*
X050558Y041260D01*
X050558Y041262D02*
X050481Y041262D01*
X050482Y041265D02*
X050559Y041265D01*
X050560Y041267D02*
X050483Y041267D01*
X050484Y041270D02*
X050561Y041270D01*
X050561Y041272D02*
X050484Y041272D01*
X050485Y041275D02*
X050562Y041275D01*
X050563Y041277D02*
X050486Y041277D01*
X050487Y041279D02*
X050564Y041279D01*
X050564Y041282D02*
X050487Y041282D01*
X050488Y041284D02*
X050565Y041284D01*
X050566Y041287D02*
X050489Y041287D01*
X050490Y041289D02*
X050567Y041289D01*
X050567Y041292D02*
X050490Y041292D01*
X050491Y041294D02*
X050568Y041294D01*
X050569Y041296D02*
X050492Y041296D01*
X050493Y041299D02*
X050570Y041299D01*
X050570Y041301D02*
X050493Y041301D01*
X050494Y041304D02*
X050571Y041304D01*
X050572Y041306D02*
X050495Y041306D01*
X050496Y041309D02*
X050573Y041309D01*
X050573Y041311D02*
X050496Y041311D01*
X050497Y041314D02*
X050574Y041314D01*
X050575Y041316D02*
X050498Y041316D01*
X050499Y041318D02*
X050576Y041318D01*
X050576Y041321D02*
X050499Y041321D01*
X050500Y041323D02*
X050577Y041323D01*
X050578Y041326D02*
X050501Y041326D01*
X050502Y041328D02*
X050579Y041328D01*
X050579Y041331D02*
X050502Y041331D01*
X050503Y041333D02*
X050580Y041333D01*
X050581Y041335D02*
X050504Y041335D01*
X050505Y041338D02*
X050581Y041338D01*
X050582Y041340D02*
X050505Y041340D01*
X050506Y041343D02*
X050583Y041343D01*
X050584Y041345D02*
X050507Y041345D01*
X050508Y041348D02*
X050584Y041348D01*
X050628Y041326D02*
X050867Y041326D01*
X050866Y041328D02*
X050629Y041328D01*
X050621Y041313D01*
X050621Y041314D02*
X050870Y041314D01*
X050869Y041316D02*
X050622Y041316D01*
X050624Y041318D02*
X050869Y041318D01*
X050869Y041321D02*
X050625Y041321D01*
X050626Y041323D02*
X050868Y041323D01*
X050863Y041334D01*
X050854Y041342D01*
X050843Y041348D01*
X050831Y041350D01*
X050674Y041350D01*
X050657Y041347D01*
X050641Y041340D01*
X050629Y041328D01*
X050632Y041331D02*
X050864Y041331D01*
X050863Y041333D02*
X050634Y041333D01*
X050637Y041335D02*
X050861Y041335D01*
X050858Y041338D02*
X050639Y041338D01*
X050643Y041340D02*
X050856Y041340D01*
X050853Y041343D02*
X050647Y041343D01*
X050652Y041345D02*
X050848Y041345D01*
X050844Y041348D02*
X050659Y041348D01*
X050621Y041313D02*
X050591Y041218D01*
X050589Y041203D01*
X050591Y041188D01*
X050598Y041174D01*
X050609Y041163D01*
X050623Y041156D01*
X050638Y041153D01*
X050796Y041153D01*
X050807Y041155D01*
X050818Y041160D01*
X050826Y041168D01*
X050831Y041179D01*
X050845Y041226D01*
X050760Y041226D01*
X050845Y041226D01*
X050844Y041223D02*
X050759Y041223D01*
X050759Y041221D02*
X050844Y041221D01*
X050843Y041218D02*
X050758Y041218D01*
X050757Y041216D02*
X050842Y041216D01*
X050841Y041214D02*
X050756Y041214D01*
X050755Y041211D02*
X050841Y041211D01*
X050840Y041209D02*
X050755Y041209D01*
X050754Y041208D02*
X050752Y041203D01*
X050748Y041199D01*
X050742Y041197D01*
X050737Y041196D01*
X050699Y041196D01*
X050693Y041198D01*
X050687Y041201D01*
X050683Y041207D01*
X050681Y041213D01*
X050682Y041220D01*
X050701Y041287D01*
X050705Y041295D01*
X050712Y041302D01*
X050720Y041307D01*
X050729Y041309D01*
X050762Y041309D01*
X050769Y041307D01*
X050774Y041304D01*
X050869Y041304D01*
X050870Y041306D02*
X050771Y041306D01*
X050774Y041304D02*
X050778Y041298D01*
X050779Y041292D01*
X050866Y041292D01*
X050867Y041294D02*
X050779Y041294D01*
X050779Y041292D02*
X050778Y041285D01*
X050776Y041279D01*
X050863Y041279D01*
X050869Y041299D01*
X050778Y041299D01*
X050778Y041296D02*
X050868Y041296D01*
X050869Y041299D02*
X050870Y041311D01*
X050620Y041311D01*
X050619Y041309D02*
X050870Y041309D01*
X050870Y041311D02*
X050868Y041323D01*
X050869Y041301D02*
X050776Y041301D01*
X050779Y041289D02*
X050866Y041289D01*
X050865Y041287D02*
X050778Y041287D01*
X050778Y041284D02*
X050864Y041284D01*
X050864Y041282D02*
X050777Y041282D01*
X050776Y041279D02*
X050863Y041279D01*
X050902Y041267D02*
X050991Y041267D01*
X050991Y041265D02*
X050902Y041265D01*
X050901Y041262D02*
X050990Y041262D01*
X050989Y041260D02*
X050900Y041260D01*
X050899Y041257D02*
X050988Y041257D01*
X050988Y041255D02*
X050899Y041255D01*
X050898Y041253D02*
X050987Y041253D01*
X050986Y041250D02*
X050897Y041250D01*
X050896Y041248D02*
X050986Y041248D01*
X050985Y041245D02*
X050895Y041245D01*
X050895Y041243D02*
X050984Y041243D01*
X050983Y041240D02*
X050894Y041240D01*
X050893Y041238D02*
X050983Y041238D01*
X050982Y041236D02*
X050892Y041236D01*
X050892Y041233D02*
X050981Y041233D01*
X050981Y041231D02*
X050891Y041231D01*
X050890Y041228D02*
X050980Y041228D01*
X050979Y041226D02*
X050889Y041226D01*
X050889Y041223D02*
X050978Y041223D01*
X050978Y041221D02*
X050888Y041221D01*
X050887Y041218D02*
X050977Y041218D01*
X050997Y041285D01*
X051001Y041293D01*
X051007Y041300D01*
X051015Y041305D01*
X051024Y041307D01*
X051058Y041307D01*
X051064Y041305D01*
X051070Y041302D01*
X051073Y041296D01*
X051075Y041290D01*
X051073Y041283D01*
X051056Y041226D01*
X051142Y041226D01*
X051056Y041224D01*
X051050Y041206D01*
X051047Y041201D01*
X051043Y041197D01*
X051038Y041195D01*
X051032Y041194D01*
X050995Y041194D01*
X050988Y041196D01*
X050982Y041199D01*
X050978Y041205D01*
X050976Y041211D01*
X050886Y041211D01*
X050885Y041209D02*
X050977Y041209D01*
X050976Y041211D02*
X050977Y041218D01*
X050977Y041216D02*
X050886Y041216D01*
X050884Y041201D01*
X050887Y041186D01*
X050894Y041172D01*
X050905Y041161D01*
X050918Y041154D01*
X050934Y041151D01*
X051091Y041151D01*
X051103Y041153D01*
X051113Y041158D01*
X051121Y041166D01*
X051127Y041177D01*
X050891Y041177D01*
X050892Y041175D02*
X051125Y041175D01*
X051127Y041177D02*
X051142Y041226D01*
X051164Y041297D01*
X051166Y041309D01*
X051164Y041321D01*
X051158Y041332D01*
X051149Y041340D01*
X050942Y041340D01*
X050947Y041343D02*
X051145Y041343D01*
X051149Y041340D02*
X051139Y041346D01*
X051127Y041348D01*
X050969Y041348D01*
X050952Y041345D01*
X050937Y041338D01*
X051152Y041338D01*
X051154Y041335D02*
X050934Y041335D01*
X050932Y041333D02*
X051157Y041333D01*
X051158Y041331D02*
X050929Y041331D01*
X050927Y041328D02*
X051160Y041328D01*
X051161Y041326D02*
X050924Y041326D01*
X050916Y041311D01*
X051165Y041311D01*
X051166Y041309D02*
X050915Y041309D01*
X050916Y041311D02*
X050886Y041216D01*
X050886Y041214D02*
X050976Y041214D01*
X050978Y041206D02*
X050885Y041206D01*
X050885Y041204D02*
X050979Y041204D01*
X050981Y041201D02*
X050884Y041201D01*
X050884Y041199D02*
X050983Y041199D01*
X050987Y041197D02*
X050885Y041197D01*
X050885Y041194D02*
X051132Y041194D01*
X051131Y041192D02*
X050886Y041192D01*
X050886Y041189D02*
X051130Y041189D01*
X051130Y041187D02*
X050886Y041187D01*
X050887Y041184D02*
X051129Y041184D01*
X051128Y041182D02*
X050888Y041182D01*
X050890Y041179D02*
X051127Y041179D01*
X051124Y041172D02*
X050893Y041172D01*
X050896Y041170D02*
X051123Y041170D01*
X051122Y041167D02*
X050898Y041167D01*
X050901Y041165D02*
X051120Y041165D01*
X051117Y041162D02*
X050903Y041162D01*
X050906Y041160D02*
X051115Y041160D01*
X051112Y041158D02*
X050911Y041158D01*
X050916Y041155D02*
X051107Y041155D01*
X051101Y041153D02*
X050925Y041153D01*
X050831Y041179D02*
X050595Y041179D01*
X050597Y041177D02*
X050830Y041177D01*
X050829Y041175D02*
X050598Y041175D01*
X050600Y041172D02*
X050828Y041172D01*
X050827Y041170D02*
X050602Y041170D01*
X050605Y041167D02*
X050825Y041167D01*
X050822Y041165D02*
X050607Y041165D01*
X050610Y041162D02*
X050820Y041162D01*
X050817Y041160D02*
X050615Y041160D01*
X050619Y041158D02*
X050812Y041158D01*
X050808Y041155D02*
X050626Y041155D01*
X050594Y041182D02*
X050832Y041182D01*
X050833Y041184D02*
X050593Y041184D01*
X050592Y041187D02*
X050834Y041187D01*
X050834Y041189D02*
X050591Y041189D01*
X050591Y041192D02*
X050835Y041192D01*
X050836Y041194D02*
X050590Y041194D01*
X050590Y041197D02*
X050699Y041197D01*
X050691Y041199D02*
X050589Y041199D01*
X050589Y041201D02*
X050687Y041201D01*
X050685Y041204D02*
X050589Y041204D01*
X050589Y041206D02*
X050683Y041206D01*
X050682Y041209D02*
X050590Y041209D01*
X050590Y041211D02*
X050682Y041211D01*
X050681Y041214D02*
X050590Y041214D01*
X050591Y041216D02*
X050681Y041216D01*
X050681Y041218D02*
X050591Y041218D01*
X050592Y041221D02*
X050682Y041221D01*
X050683Y041223D02*
X050593Y041223D01*
X050593Y041226D02*
X050683Y041226D01*
X050684Y041228D02*
X050594Y041228D01*
X050595Y041231D02*
X050685Y041231D01*
X050685Y041233D02*
X050596Y041233D01*
X050597Y041236D02*
X050686Y041236D01*
X050687Y041238D02*
X050597Y041238D01*
X050598Y041240D02*
X050688Y041240D01*
X050688Y041243D02*
X050599Y041243D01*
X050600Y041245D02*
X050689Y041245D01*
X050690Y041248D02*
X050600Y041248D01*
X050601Y041250D02*
X050690Y041250D01*
X050691Y041253D02*
X050602Y041253D01*
X050603Y041255D02*
X050692Y041255D01*
X050693Y041257D02*
X050603Y041257D01*
X050604Y041260D02*
X050693Y041260D01*
X050694Y041262D02*
X050605Y041262D01*
X050606Y041265D02*
X050695Y041265D01*
X050695Y041267D02*
X050606Y041267D01*
X050607Y041270D02*
X050696Y041270D01*
X050697Y041272D02*
X050608Y041272D01*
X050609Y041275D02*
X050698Y041275D01*
X050698Y041277D02*
X050609Y041277D01*
X050610Y041279D02*
X050699Y041279D01*
X050700Y041282D02*
X050611Y041282D01*
X050612Y041284D02*
X050701Y041284D01*
X050701Y041287D02*
X050613Y041287D01*
X050613Y041289D02*
X050702Y041289D01*
X050703Y041292D02*
X050614Y041292D01*
X050615Y041294D02*
X050705Y041294D01*
X050706Y041296D02*
X050616Y041296D01*
X050616Y041299D02*
X050709Y041299D01*
X050711Y041301D02*
X050617Y041301D01*
X050618Y041304D02*
X050714Y041304D01*
X050719Y041306D02*
X050619Y041306D01*
X050738Y041197D02*
X050836Y041197D01*
X050837Y041199D02*
X050747Y041199D01*
X050750Y041201D02*
X050838Y041201D01*
X050839Y041204D02*
X050752Y041204D01*
X050753Y041206D02*
X050839Y041206D01*
X050760Y041226D02*
X050754Y041208D01*
X050903Y041270D02*
X050992Y041270D01*
X050993Y041272D02*
X050904Y041272D01*
X050905Y041275D02*
X050994Y041275D01*
X050994Y041277D02*
X050905Y041277D01*
X050906Y041279D02*
X050995Y041279D01*
X050996Y041282D02*
X050907Y041282D01*
X050908Y041284D02*
X050996Y041284D01*
X050997Y041287D02*
X050908Y041287D01*
X050909Y041289D02*
X050999Y041289D01*
X051000Y041292D02*
X050910Y041292D01*
X050911Y041294D02*
X051001Y041294D01*
X051003Y041296D02*
X050911Y041296D01*
X050912Y041299D02*
X051006Y041299D01*
X051009Y041301D02*
X050913Y041301D01*
X050914Y041304D02*
X051013Y041304D01*
X051022Y041306D02*
X050915Y041306D01*
X050917Y041314D02*
X051165Y041314D01*
X051164Y041316D02*
X050919Y041316D01*
X050920Y041318D02*
X051164Y041318D01*
X051164Y041321D02*
X050921Y041321D01*
X050923Y041323D02*
X051162Y041323D01*
X051165Y041306D02*
X051060Y041306D01*
X051067Y041304D02*
X051165Y041304D01*
X051165Y041301D02*
X051070Y041301D01*
X051072Y041299D02*
X051164Y041299D01*
X051164Y041296D02*
X051073Y041296D01*
X051074Y041294D02*
X051163Y041294D01*
X051162Y041292D02*
X051074Y041292D01*
X051075Y041289D02*
X051162Y041289D01*
X051161Y041287D02*
X051074Y041287D01*
X051074Y041284D02*
X051160Y041284D01*
X051159Y041282D02*
X051073Y041282D01*
X051072Y041279D02*
X051159Y041279D01*
X051158Y041277D02*
X051071Y041277D01*
X051071Y041275D02*
X051157Y041275D01*
X051156Y041272D02*
X051070Y041272D01*
X051069Y041270D02*
X051156Y041270D01*
X051155Y041267D02*
X051068Y041267D01*
X051068Y041265D02*
X051154Y041265D01*
X051153Y041262D02*
X051067Y041262D01*
X051066Y041260D02*
X051153Y041260D01*
X051152Y041257D02*
X051065Y041257D01*
X051065Y041255D02*
X051151Y041255D01*
X051150Y041253D02*
X051064Y041253D01*
X051063Y041250D02*
X051150Y041250D01*
X051149Y041248D02*
X051062Y041248D01*
X051062Y041245D02*
X051148Y041245D01*
X051147Y041243D02*
X051061Y041243D01*
X051060Y041240D02*
X051147Y041240D01*
X051146Y041238D02*
X051059Y041238D01*
X051059Y041236D02*
X051145Y041236D01*
X051144Y041233D02*
X051058Y041233D01*
X051057Y041231D02*
X051144Y041231D01*
X051143Y041228D02*
X051056Y041228D01*
X051055Y041223D02*
X051141Y041223D01*
X051141Y041221D02*
X051055Y041221D01*
X051054Y041218D02*
X051140Y041218D01*
X051139Y041216D02*
X051053Y041216D01*
X051052Y041214D02*
X051138Y041214D01*
X051138Y041211D02*
X051051Y041211D01*
X051051Y041209D02*
X051137Y041209D01*
X051136Y041206D02*
X051050Y041206D01*
X051048Y041204D02*
X051135Y041204D01*
X051134Y041201D02*
X051047Y041201D01*
X051045Y041199D02*
X051134Y041199D01*
X051133Y041197D02*
X051041Y041197D01*
X051134Y041226D02*
X051142Y041226D01*
X051140Y041345D02*
X050952Y041345D01*
X050967Y041348D02*
X051129Y041348D01*
X050937Y041338D02*
X050924Y041326D01*
X050433Y041348D02*
X050354Y041348D01*
X050353Y041345D02*
X050432Y041345D01*
X050431Y041343D02*
X050353Y041343D01*
X050352Y041340D02*
X050431Y041340D01*
X050430Y041338D02*
X050351Y041338D01*
X050350Y041335D02*
X050429Y041335D01*
X050428Y041333D02*
X050350Y041333D01*
X050349Y041331D02*
X050428Y041331D01*
X050427Y041328D02*
X050348Y041328D01*
X050348Y041326D02*
X050426Y041326D01*
X050425Y041323D02*
X050347Y041323D01*
X050346Y041321D02*
X050425Y041321D01*
X050424Y041318D02*
X050345Y041318D01*
X050345Y041316D02*
X050423Y041316D01*
X050422Y041314D02*
X050344Y041314D01*
X050343Y041311D02*
X050422Y041311D01*
X050421Y041309D02*
X050342Y041309D01*
X050342Y041306D02*
X050420Y041306D01*
X050420Y041304D02*
X050341Y041304D01*
X050319Y041350D02*
X050245Y041350D01*
X050255Y041387D02*
X050187Y041387D01*
X050197Y041389D02*
X050256Y041389D01*
X050256Y041392D02*
X050207Y041392D01*
X050216Y041394D02*
X050257Y041394D01*
X050258Y041396D02*
X050226Y041396D01*
X050236Y041399D02*
X050259Y041399D01*
X050259Y041401D02*
X050245Y041401D01*
X050255Y041404D02*
X050260Y041404D01*
X050232Y041309D02*
X050153Y041309D01*
X050153Y041306D02*
X050231Y041306D01*
X050231Y041304D02*
X050152Y041304D01*
X050151Y041301D02*
X050230Y041301D01*
X050229Y041299D02*
X050151Y041299D01*
X050150Y041296D02*
X050229Y041296D01*
X050228Y041294D02*
X050149Y041294D01*
X050148Y041292D02*
X050227Y041292D01*
X050226Y041289D02*
X050148Y041289D01*
X050147Y041287D02*
X050226Y041287D01*
X050225Y041284D02*
X050146Y041284D01*
X050146Y041282D02*
X050224Y041282D01*
X050223Y041279D02*
X050145Y041279D01*
X050144Y041277D02*
X050223Y041277D01*
X050222Y041275D02*
X050143Y041275D01*
X050143Y041272D02*
X050221Y041272D01*
X050220Y041270D02*
X050142Y041270D01*
X050141Y041267D02*
X050220Y041267D01*
X050219Y041265D02*
X050141Y041265D01*
X050140Y041262D02*
X050218Y041262D01*
X050217Y041260D02*
X050139Y041260D01*
X050138Y041257D02*
X050217Y041257D01*
X050216Y041255D02*
X050138Y041255D01*
X050137Y041253D02*
X050215Y041253D01*
X050214Y041250D02*
X050136Y041250D01*
X050136Y041248D02*
X050214Y041248D01*
X050213Y041245D02*
X050135Y041245D01*
X050134Y041243D02*
X050212Y041243D01*
X050211Y041240D02*
X050133Y041240D01*
X050133Y041238D02*
X050211Y041238D01*
X050210Y041236D02*
X050132Y041236D01*
X050131Y041233D02*
X050209Y041233D01*
X050208Y041231D02*
X050131Y041231D01*
X050130Y041228D02*
X050208Y041228D01*
X050207Y041226D02*
X050129Y041226D01*
X050128Y041223D02*
X050206Y041223D01*
X050206Y041221D02*
X050128Y041221D01*
X050127Y041218D02*
X050205Y041218D01*
X050205Y041216D02*
X050126Y041216D01*
X050126Y041214D02*
X050205Y041214D01*
X050205Y041211D02*
X050125Y041211D01*
X050124Y041209D02*
X050206Y041209D01*
X050207Y041206D02*
X050123Y041206D01*
X050123Y041204D02*
X050208Y041204D01*
X050210Y041201D02*
X050122Y041201D01*
X050121Y041199D02*
X050214Y041199D01*
X050222Y041197D02*
X050121Y041197D01*
X050120Y041194D02*
X050270Y041194D01*
X050269Y041192D02*
X050119Y041192D01*
X050118Y041184D02*
X050267Y041184D01*
X050266Y041182D02*
X050118Y041182D01*
X050118Y041179D02*
X050266Y041179D01*
X050264Y041172D02*
X050120Y041172D01*
X050121Y041170D02*
X050263Y041170D01*
X050262Y041167D02*
X050122Y041167D01*
X050125Y041165D02*
X050262Y041165D01*
X050261Y041162D02*
X050127Y041162D01*
X050138Y041155D02*
X050259Y041155D01*
X061353Y041074D02*
X061365Y041114D01*
X061426Y041114D01*
X061435Y041147D01*
X061520Y041169D01*
X061504Y041114D01*
X061579Y041114D01*
X061567Y041074D01*
X061493Y041074D01*
X061465Y040984D01*
X061464Y040977D01*
X061466Y040970D01*
X061470Y040965D01*
X061382Y040965D01*
X061383Y040967D02*
X061468Y040967D01*
X061470Y040965D02*
X061476Y040961D01*
X061483Y040960D01*
X061530Y040960D01*
X061380Y040960D01*
X061414Y041074D01*
X061353Y041074D01*
X061353Y041075D02*
X061568Y041075D01*
X061568Y041077D02*
X061354Y041077D01*
X061354Y041080D02*
X061569Y041080D01*
X061570Y041082D02*
X061355Y041082D01*
X061356Y041084D02*
X061570Y041084D01*
X061571Y041087D02*
X061357Y041087D01*
X061357Y041089D02*
X061572Y041089D01*
X061573Y041092D02*
X061358Y041092D01*
X061359Y041094D02*
X061573Y041094D01*
X061574Y041097D02*
X061360Y041097D01*
X061360Y041099D02*
X061575Y041099D01*
X061576Y041102D02*
X061361Y041102D01*
X061362Y041104D02*
X061576Y041104D01*
X061577Y041106D02*
X061362Y041106D01*
X061363Y041109D02*
X061578Y041109D01*
X061579Y041111D02*
X061364Y041111D01*
X061365Y041114D02*
X061579Y041114D01*
X061612Y041104D02*
X061690Y041104D01*
X061690Y041102D02*
X061611Y041102D01*
X061610Y041099D02*
X061689Y041099D01*
X061688Y041097D02*
X061610Y041097D01*
X061609Y041094D02*
X061687Y041094D01*
X061687Y041092D02*
X061608Y041092D01*
X061607Y041089D02*
X061686Y041089D01*
X061685Y041087D02*
X061607Y041087D01*
X061606Y041084D02*
X061684Y041084D01*
X061684Y041082D02*
X061605Y041082D01*
X061604Y041080D02*
X061683Y041080D01*
X061682Y041077D02*
X061604Y041077D01*
X061603Y041075D02*
X061682Y041075D01*
X061681Y041072D02*
X061602Y041072D01*
X061602Y041070D02*
X061680Y041070D01*
X061679Y041067D02*
X061601Y041067D01*
X061600Y041065D02*
X061679Y041065D01*
X061678Y041063D02*
X061599Y041063D01*
X061599Y041060D02*
X061677Y041060D01*
X061676Y041058D02*
X061598Y041058D01*
X061597Y041055D02*
X061676Y041055D01*
X061675Y041053D02*
X061596Y041053D01*
X061596Y041050D02*
X061674Y041050D01*
X061673Y041048D02*
X061595Y041048D01*
X061594Y041045D02*
X061673Y041045D01*
X061672Y041043D02*
X061593Y041043D01*
X061593Y041041D02*
X061671Y041041D01*
X061670Y041038D02*
X061592Y041038D01*
X061591Y041036D02*
X061670Y041036D01*
X061669Y041033D02*
X061591Y041033D01*
X061590Y041031D02*
X061668Y041031D01*
X061667Y041028D02*
X061589Y041028D01*
X061588Y041026D02*
X061667Y041026D01*
X061666Y041024D02*
X061588Y041024D01*
X061587Y041021D02*
X061665Y041021D01*
X061664Y041019D02*
X061586Y041019D01*
X061585Y041016D02*
X061664Y041016D01*
X061663Y041014D02*
X061585Y041014D01*
X061584Y041011D02*
X061662Y041011D01*
X061661Y041009D02*
X061583Y041009D01*
X061582Y041006D02*
X061661Y041006D01*
X061660Y041004D02*
X061582Y041004D01*
X061581Y041002D02*
X061659Y041002D01*
X061658Y040999D02*
X061580Y040999D01*
X061580Y040997D02*
X061658Y040997D01*
X061658Y040998D02*
X061657Y040988D01*
X061659Y040979D01*
X061664Y040970D01*
X061572Y040970D01*
X061572Y040972D02*
X061662Y040972D01*
X061664Y040970D02*
X061671Y040964D01*
X061680Y040961D01*
X061690Y040960D01*
X061721Y040960D01*
X061768Y041114D01*
X061845Y041114D01*
X061760Y040836D01*
X061684Y040836D01*
X061707Y040917D01*
X061593Y040917D01*
X061584Y040918D01*
X061576Y040923D01*
X061570Y040930D01*
X061566Y040938D01*
X061565Y040947D01*
X061567Y040956D01*
X061615Y041114D01*
X061693Y041114D01*
X061658Y040998D01*
X061658Y040994D02*
X061579Y040994D01*
X061578Y040992D02*
X061657Y040992D01*
X061657Y040989D02*
X061577Y040989D01*
X061577Y040987D02*
X061657Y040987D01*
X061657Y040985D02*
X061576Y040985D01*
X061575Y040982D02*
X061658Y040982D01*
X061658Y040980D02*
X061574Y040980D01*
X061574Y040977D02*
X061660Y040977D01*
X061661Y040975D02*
X061573Y040975D01*
X061571Y040967D02*
X061667Y040967D01*
X061670Y040965D02*
X061570Y040965D01*
X061569Y040963D02*
X061675Y040963D01*
X061722Y040963D02*
X061799Y040963D01*
X061800Y040965D02*
X061722Y040965D01*
X061723Y040967D02*
X061800Y040967D01*
X061801Y040970D02*
X061724Y040970D01*
X061725Y040972D02*
X061802Y040972D01*
X061803Y040975D02*
X061725Y040975D01*
X061726Y040977D02*
X061803Y040977D01*
X061804Y040980D02*
X061727Y040980D01*
X061728Y040982D02*
X061805Y040982D01*
X061806Y040985D02*
X061728Y040985D01*
X061729Y040987D02*
X061806Y040987D01*
X061807Y040989D02*
X061730Y040989D01*
X061731Y040992D02*
X061808Y040992D01*
X061809Y040994D02*
X061731Y040994D01*
X061732Y040997D02*
X061809Y040997D01*
X061810Y040999D02*
X061733Y040999D01*
X061734Y041002D02*
X061811Y041002D01*
X061812Y041004D02*
X061734Y041004D01*
X061735Y041006D02*
X061812Y041006D01*
X061813Y041009D02*
X061736Y041009D01*
X061737Y041011D02*
X061814Y041011D01*
X061815Y041014D02*
X061737Y041014D01*
X061738Y041016D02*
X061815Y041016D01*
X061816Y041019D02*
X061739Y041019D01*
X061740Y041021D02*
X061817Y041021D01*
X061817Y041024D02*
X061740Y041024D01*
X061741Y041026D02*
X061818Y041026D01*
X061819Y041028D02*
X061742Y041028D01*
X061743Y041031D02*
X061820Y041031D01*
X061820Y041033D02*
X061743Y041033D01*
X061744Y041036D02*
X061821Y041036D01*
X061822Y041038D02*
X061745Y041038D01*
X061746Y041041D02*
X061823Y041041D01*
X061823Y041043D02*
X061746Y041043D01*
X061747Y041045D02*
X061824Y041045D01*
X061825Y041048D02*
X061748Y041048D01*
X061749Y041050D02*
X061826Y041050D01*
X061826Y041053D02*
X061749Y041053D01*
X061750Y041055D02*
X061827Y041055D01*
X061828Y041058D02*
X061751Y041058D01*
X061752Y041060D02*
X061829Y041060D01*
X061829Y041063D02*
X061752Y041063D01*
X061753Y041065D02*
X061830Y041065D01*
X061831Y041067D02*
X061754Y041067D01*
X061755Y041070D02*
X061832Y041070D01*
X061832Y041072D02*
X061755Y041072D01*
X061756Y041075D02*
X061833Y041075D01*
X061834Y041077D02*
X061757Y041077D01*
X061758Y041080D02*
X061835Y041080D01*
X061835Y041082D02*
X061758Y041082D01*
X061759Y041084D02*
X061836Y041084D01*
X061837Y041087D02*
X061760Y041087D01*
X061761Y041089D02*
X061838Y041089D01*
X061838Y041092D02*
X061761Y041092D01*
X061762Y041094D02*
X061839Y041094D01*
X061840Y041097D02*
X061763Y041097D01*
X061764Y041099D02*
X061841Y041099D01*
X061841Y041102D02*
X061764Y041102D01*
X061765Y041104D02*
X061842Y041104D01*
X061843Y041106D02*
X061766Y041106D01*
X061767Y041109D02*
X061844Y041109D01*
X061844Y041111D02*
X061767Y041111D01*
X061768Y041114D02*
X061845Y041114D01*
X061889Y041092D02*
X061880Y041076D01*
X061851Y040982D01*
X061941Y040982D01*
X061941Y040984D02*
X061961Y041051D01*
X061965Y041059D01*
X061971Y041066D01*
X061980Y041071D01*
X061989Y041072D01*
X062022Y041072D01*
X062029Y041071D01*
X062034Y041067D01*
X062129Y041067D01*
X062129Y041065D02*
X062036Y041065D01*
X062038Y041063D02*
X062128Y041063D01*
X062130Y041075D01*
X061880Y041075D01*
X061881Y041077D02*
X062130Y041077D01*
X062130Y041075D02*
X062128Y041087D01*
X061886Y041087D01*
X061887Y041089D02*
X062127Y041089D01*
X062128Y041087D02*
X062122Y041097D01*
X062114Y041106D01*
X062103Y041112D01*
X062091Y041114D01*
X061934Y041114D01*
X061917Y041111D01*
X062104Y041111D01*
X062109Y041109D02*
X061912Y041109D01*
X061917Y041111D02*
X061901Y041103D01*
X061889Y041092D01*
X062125Y041092D01*
X062124Y041094D02*
X061891Y041094D01*
X061894Y041097D02*
X062123Y041097D01*
X062121Y041099D02*
X061897Y041099D01*
X061899Y041102D02*
X062118Y041102D01*
X062116Y041104D02*
X061902Y041104D01*
X061907Y041106D02*
X062113Y041106D01*
X062092Y041114D02*
X061933Y041114D01*
X061885Y041084D02*
X062128Y041084D01*
X062129Y041082D02*
X061884Y041082D01*
X061882Y041080D02*
X062129Y041080D01*
X062130Y041072D02*
X062023Y041072D01*
X062031Y041070D02*
X062129Y041070D01*
X062128Y041063D02*
X062123Y041043D01*
X062036Y041043D01*
X062038Y041049D01*
X062039Y041055D01*
X062126Y041055D01*
X062126Y041053D02*
X062039Y041053D01*
X062039Y041055D02*
X062038Y041062D01*
X062034Y041067D01*
X062038Y041060D02*
X062128Y041060D01*
X062127Y041058D02*
X062039Y041058D01*
X062038Y041050D02*
X062125Y041050D01*
X062124Y041048D02*
X062038Y041048D01*
X062037Y041045D02*
X062123Y041045D01*
X062123Y041043D02*
X062036Y041043D01*
X062020Y040990D02*
X062014Y040972D01*
X062012Y040967D01*
X062007Y040963D01*
X062002Y040961D01*
X061997Y040960D01*
X061959Y040960D01*
X061952Y040961D01*
X061947Y040965D01*
X061849Y040965D01*
X061849Y040967D02*
X061851Y040951D01*
X061858Y040938D01*
X062089Y040938D01*
X062088Y040936D02*
X061860Y040936D01*
X061858Y040938D02*
X061869Y040927D01*
X061883Y040919D01*
X061898Y040917D01*
X062056Y040917D01*
X062067Y040919D01*
X062077Y040924D01*
X062086Y040932D01*
X062091Y040943D01*
X061855Y040943D01*
X061854Y040946D02*
X062092Y040946D01*
X062093Y040948D02*
X061853Y040948D01*
X061852Y040950D02*
X062093Y040950D01*
X062094Y040953D02*
X061851Y040953D01*
X061850Y040955D02*
X062095Y040955D01*
X062096Y040958D02*
X061850Y040958D01*
X061850Y040960D02*
X062096Y040960D01*
X062097Y040963D02*
X062006Y040963D01*
X062010Y040965D02*
X062098Y040965D01*
X062098Y040967D02*
X062012Y040967D01*
X062013Y040970D02*
X062099Y040970D01*
X062100Y040972D02*
X062014Y040972D01*
X062015Y040975D02*
X062100Y040975D01*
X062101Y040977D02*
X062016Y040977D01*
X062017Y040980D02*
X062102Y040980D01*
X062103Y040982D02*
X062018Y040982D01*
X062018Y040985D02*
X062103Y040985D01*
X062104Y040987D02*
X062019Y040987D01*
X062020Y040989D02*
X062105Y040989D01*
X062105Y040990D02*
X062020Y040990D01*
X061950Y041011D02*
X061860Y041011D01*
X061859Y041009D02*
X061949Y041009D01*
X061948Y041006D02*
X061859Y041006D01*
X061858Y041004D02*
X061947Y041004D01*
X061947Y041002D02*
X061857Y041002D01*
X061856Y040999D02*
X061946Y040999D01*
X061945Y040997D02*
X061856Y040997D01*
X061855Y040994D02*
X061945Y040994D01*
X061944Y040992D02*
X061854Y040992D01*
X061853Y040989D02*
X061943Y040989D01*
X061942Y040987D02*
X061853Y040987D01*
X061852Y040985D02*
X061942Y040985D01*
X061941Y040984D02*
X061941Y040977D01*
X061943Y040971D01*
X061947Y040965D01*
X061945Y040967D02*
X061849Y040967D01*
X061851Y040982D01*
X061851Y040980D02*
X061941Y040980D01*
X061941Y040977D02*
X061850Y040977D01*
X061850Y040975D02*
X061941Y040975D01*
X061942Y040972D02*
X061849Y040972D01*
X061849Y040970D02*
X061943Y040970D01*
X061951Y040963D02*
X061849Y040963D01*
X061857Y040941D02*
X062090Y040941D01*
X062091Y040943D02*
X062105Y040990D01*
X062146Y040980D02*
X062144Y040965D01*
X062241Y040965D01*
X062242Y040963D02*
X062238Y040969D01*
X062236Y040975D01*
X062237Y040982D01*
X062147Y040982D01*
X062146Y040980D02*
X062176Y041074D01*
X062184Y041090D01*
X062196Y041102D01*
X062212Y041109D01*
X062229Y041112D01*
X062386Y041112D01*
X062398Y041110D01*
X062409Y041104D01*
X062418Y041096D01*
X062423Y041085D01*
X062425Y041073D01*
X062424Y041061D01*
X062402Y040990D01*
X062315Y040988D01*
X062310Y040970D01*
X062307Y040965D01*
X062303Y040961D01*
X062298Y040959D01*
X062292Y040958D01*
X062254Y040958D01*
X062248Y040960D01*
X062242Y040963D01*
X062243Y040963D02*
X062144Y040963D01*
X062144Y040965D02*
X062146Y040949D01*
X062153Y040936D01*
X062384Y040936D01*
X062385Y040938D02*
X062152Y040938D01*
X062153Y040936D02*
X062164Y040925D01*
X062178Y040918D01*
X062193Y040915D01*
X062351Y040915D01*
X062362Y040917D01*
X062373Y040922D01*
X062381Y040930D01*
X062386Y040941D01*
X062151Y040941D01*
X062150Y040943D02*
X062387Y040943D01*
X062386Y040941D02*
X062402Y040990D01*
X062315Y040990D01*
X062333Y041047D01*
X062335Y041053D01*
X062333Y041060D01*
X062424Y041060D01*
X062424Y041063D02*
X062331Y041063D01*
X062330Y041065D02*
X062424Y041065D01*
X062425Y041067D02*
X062327Y041067D01*
X062330Y041065D02*
X062333Y041060D01*
X062334Y041058D02*
X062423Y041058D01*
X062422Y041055D02*
X062334Y041055D01*
X062334Y041053D02*
X062421Y041053D01*
X062421Y041050D02*
X062334Y041050D01*
X062333Y041048D02*
X062420Y041048D01*
X062419Y041045D02*
X062333Y041045D01*
X062332Y041043D02*
X062418Y041043D01*
X062418Y041041D02*
X062331Y041041D01*
X062330Y041038D02*
X062417Y041038D01*
X062416Y041036D02*
X062330Y041036D01*
X062329Y041033D02*
X062415Y041033D01*
X062415Y041031D02*
X062328Y041031D01*
X062327Y041028D02*
X062414Y041028D01*
X062413Y041026D02*
X062327Y041026D01*
X062326Y041024D02*
X062412Y041024D01*
X062412Y041021D02*
X062325Y041021D01*
X062324Y041019D02*
X062411Y041019D01*
X062410Y041016D02*
X062324Y041016D01*
X062323Y041014D02*
X062409Y041014D01*
X062409Y041011D02*
X062322Y041011D01*
X062321Y041009D02*
X062408Y041009D01*
X062407Y041006D02*
X062321Y041006D01*
X062320Y041004D02*
X062406Y041004D01*
X062406Y041002D02*
X062319Y041002D01*
X062318Y040999D02*
X062405Y040999D01*
X062404Y040997D02*
X062318Y040997D01*
X062317Y040994D02*
X062403Y040994D01*
X062403Y040992D02*
X062316Y040992D01*
X062315Y040987D02*
X062401Y040987D01*
X062400Y040985D02*
X062314Y040985D01*
X062314Y040982D02*
X062400Y040982D01*
X062399Y040980D02*
X062313Y040980D01*
X062312Y040977D02*
X062398Y040977D01*
X062397Y040975D02*
X062311Y040975D01*
X062310Y040972D02*
X062397Y040972D01*
X062396Y040970D02*
X062309Y040970D01*
X062308Y040967D02*
X062395Y040967D01*
X062394Y040965D02*
X062307Y040965D01*
X062304Y040963D02*
X062393Y040963D01*
X062393Y040960D02*
X062301Y040960D01*
X062247Y040960D02*
X062145Y040960D01*
X062145Y040958D02*
X062392Y040958D01*
X062391Y040955D02*
X062145Y040955D01*
X062146Y040953D02*
X062390Y040953D01*
X062390Y040950D02*
X062146Y040950D01*
X062147Y040948D02*
X062389Y040948D01*
X062388Y040946D02*
X062148Y040946D01*
X062156Y040933D02*
X062383Y040933D01*
X062381Y040931D02*
X062158Y040931D01*
X062161Y040928D02*
X062379Y040928D01*
X062377Y040926D02*
X062163Y040926D01*
X062166Y040924D02*
X062374Y040924D01*
X062371Y040921D02*
X062171Y040921D01*
X062176Y040919D02*
X062366Y040919D01*
X062359Y040916D02*
X062186Y040916D01*
X062144Y040967D02*
X062239Y040967D01*
X062238Y040970D02*
X062145Y040970D01*
X062145Y040972D02*
X062237Y040972D01*
X062236Y040975D02*
X062145Y040975D01*
X062146Y040977D02*
X062236Y040977D01*
X062237Y040980D02*
X062146Y040980D01*
X062148Y040985D02*
X062238Y040985D01*
X062238Y040987D02*
X062148Y040987D01*
X062149Y040989D02*
X062239Y040989D01*
X062240Y040992D02*
X062150Y040992D01*
X062151Y040994D02*
X062240Y040994D01*
X062241Y040997D02*
X062151Y040997D01*
X062152Y040999D02*
X062242Y040999D01*
X062243Y041002D02*
X062153Y041002D01*
X062154Y041004D02*
X062243Y041004D01*
X062244Y041006D02*
X062154Y041006D01*
X062155Y041009D02*
X062245Y041009D01*
X062245Y041011D02*
X062156Y041011D01*
X062157Y041014D02*
X062246Y041014D01*
X062247Y041016D02*
X062158Y041016D01*
X062158Y041019D02*
X062248Y041019D01*
X062248Y041021D02*
X062159Y041021D01*
X062160Y041024D02*
X062249Y041024D01*
X062250Y041026D02*
X062161Y041026D01*
X062161Y041028D02*
X062250Y041028D01*
X062251Y041031D02*
X062162Y041031D01*
X062163Y041033D02*
X062252Y041033D01*
X062253Y041036D02*
X062164Y041036D01*
X062164Y041038D02*
X062253Y041038D01*
X062254Y041041D02*
X062165Y041041D01*
X062166Y041043D02*
X062255Y041043D01*
X062255Y041045D02*
X062167Y041045D01*
X062167Y041048D02*
X062256Y041048D01*
X062256Y041049D02*
X062260Y041057D01*
X062267Y041064D01*
X062275Y041069D01*
X062284Y041070D01*
X062317Y041070D01*
X062324Y041069D01*
X062330Y041065D01*
X062321Y041070D02*
X062425Y041070D01*
X062425Y041072D02*
X062175Y041072D01*
X062174Y041070D02*
X062281Y041070D01*
X062273Y041067D02*
X062174Y041067D01*
X062173Y041065D02*
X062268Y041065D01*
X062265Y041063D02*
X062172Y041063D01*
X062171Y041060D02*
X062263Y041060D01*
X062261Y041058D02*
X062170Y041058D01*
X062170Y041055D02*
X062259Y041055D01*
X062258Y041053D02*
X062169Y041053D01*
X062168Y041050D02*
X062257Y041050D01*
X062256Y041049D02*
X062237Y040982D01*
X062176Y041075D02*
X062425Y041075D01*
X062425Y041077D02*
X062177Y041077D01*
X062179Y041080D02*
X062424Y041080D01*
X062424Y041082D02*
X062180Y041082D01*
X062181Y041084D02*
X062423Y041084D01*
X062422Y041087D02*
X062182Y041087D01*
X062184Y041089D02*
X062421Y041089D01*
X062420Y041092D02*
X062186Y041092D01*
X062189Y041094D02*
X062418Y041094D01*
X062417Y041097D02*
X062191Y041097D01*
X062194Y041099D02*
X062414Y041099D01*
X062412Y041102D02*
X062196Y041102D01*
X062201Y041104D02*
X062409Y041104D01*
X062405Y041106D02*
X062206Y041106D01*
X062211Y041109D02*
X062400Y041109D01*
X062390Y041111D02*
X062225Y041111D01*
X062386Y040989D02*
X062402Y040989D01*
X062086Y040933D02*
X061862Y040933D01*
X061865Y040931D02*
X062084Y040931D01*
X062082Y040928D02*
X061867Y040928D01*
X061870Y040926D02*
X062080Y040926D01*
X062077Y040924D02*
X061875Y040924D01*
X061880Y040921D02*
X062072Y040921D01*
X062067Y040919D02*
X061887Y040919D01*
X061794Y040948D02*
X061565Y040948D01*
X061565Y040946D02*
X061794Y040946D01*
X061793Y040943D02*
X061565Y040943D01*
X061566Y040941D02*
X061792Y040941D01*
X061791Y040938D02*
X061566Y040938D01*
X061567Y040936D02*
X061791Y040936D01*
X061790Y040933D02*
X061568Y040933D01*
X061569Y040931D02*
X061789Y040931D01*
X061788Y040928D02*
X061571Y040928D01*
X061573Y040926D02*
X061788Y040926D01*
X061787Y040924D02*
X061575Y040924D01*
X061579Y040921D02*
X061786Y040921D01*
X061786Y040919D02*
X061583Y040919D01*
X061566Y040950D02*
X061795Y040950D01*
X061796Y040953D02*
X061567Y040953D01*
X061567Y040955D02*
X061797Y040955D01*
X061797Y040958D02*
X061568Y040958D01*
X061569Y040960D02*
X061798Y040960D01*
X061785Y040916D02*
X061707Y040916D01*
X061706Y040914D02*
X061784Y040914D01*
X061783Y040911D02*
X061706Y040911D01*
X061705Y040909D02*
X061783Y040909D01*
X061782Y040907D02*
X061704Y040907D01*
X061703Y040904D02*
X061781Y040904D01*
X061780Y040902D02*
X061703Y040902D01*
X061702Y040899D02*
X061780Y040899D01*
X061779Y040897D02*
X061701Y040897D01*
X061701Y040894D02*
X061778Y040894D01*
X061777Y040892D02*
X061700Y040892D01*
X061699Y040889D02*
X061777Y040889D01*
X061776Y040887D02*
X061698Y040887D01*
X061698Y040885D02*
X061775Y040885D01*
X061774Y040882D02*
X061697Y040882D01*
X061696Y040880D02*
X061774Y040880D01*
X061773Y040877D02*
X061696Y040877D01*
X061695Y040875D02*
X061772Y040875D01*
X061771Y040872D02*
X061694Y040872D01*
X061693Y040870D02*
X061771Y040870D01*
X061770Y040868D02*
X061693Y040868D01*
X061692Y040865D02*
X061769Y040865D01*
X061768Y040863D02*
X061691Y040863D01*
X061691Y040860D02*
X061768Y040860D01*
X061767Y040858D02*
X061690Y040858D01*
X061689Y040855D02*
X061766Y040855D01*
X061765Y040853D02*
X061688Y040853D01*
X061688Y040850D02*
X061765Y040850D01*
X061764Y040848D02*
X061687Y040848D01*
X061686Y040846D02*
X061763Y040846D01*
X061762Y040843D02*
X061686Y040843D01*
X061685Y040841D02*
X061762Y040841D01*
X061761Y040838D02*
X061684Y040838D01*
X061518Y040917D02*
X061408Y040917D01*
X061398Y040919D01*
X061519Y040919D01*
X061519Y040921D02*
X061393Y040921D01*
X061389Y040923D02*
X061382Y040931D01*
X061378Y040940D01*
X061378Y040950D01*
X061527Y040950D01*
X061527Y040948D02*
X061378Y040948D01*
X061378Y040946D02*
X061526Y040946D01*
X061525Y040943D02*
X061378Y040943D01*
X061378Y040941D02*
X061525Y040941D01*
X061524Y040938D02*
X061379Y040938D01*
X061380Y040936D02*
X061523Y040936D01*
X061523Y040933D02*
X061381Y040933D01*
X061382Y040931D02*
X061522Y040931D01*
X061521Y040928D02*
X061385Y040928D01*
X061387Y040926D02*
X061521Y040926D01*
X061520Y040924D02*
X061389Y040924D01*
X061389Y040923D02*
X061398Y040919D01*
X061378Y040950D02*
X061380Y040960D01*
X061380Y040958D02*
X061529Y040958D01*
X061530Y040960D02*
X061518Y040917D01*
X061528Y040953D02*
X061378Y040953D01*
X061379Y040955D02*
X061529Y040955D01*
X061474Y040963D02*
X061381Y040963D01*
X061383Y040970D02*
X061467Y040970D01*
X061466Y040972D02*
X061384Y040972D01*
X061385Y040975D02*
X061465Y040975D01*
X061464Y040977D02*
X061385Y040977D01*
X061386Y040980D02*
X061465Y040980D01*
X061465Y040982D02*
X061387Y040982D01*
X061388Y040985D02*
X061465Y040985D01*
X061466Y040987D02*
X061388Y040987D01*
X061389Y040989D02*
X061467Y040989D01*
X061468Y040992D02*
X061390Y040992D01*
X061390Y040994D02*
X061468Y040994D01*
X061469Y040997D02*
X061391Y040997D01*
X061392Y040999D02*
X061470Y040999D01*
X061470Y041002D02*
X061393Y041002D01*
X061393Y041004D02*
X061471Y041004D01*
X061472Y041006D02*
X061394Y041006D01*
X061395Y041009D02*
X061473Y041009D01*
X061473Y041011D02*
X061395Y041011D01*
X061396Y041014D02*
X061474Y041014D01*
X061475Y041016D02*
X061397Y041016D01*
X061398Y041019D02*
X061476Y041019D01*
X061476Y041021D02*
X061398Y041021D01*
X061399Y041024D02*
X061477Y041024D01*
X061478Y041026D02*
X061400Y041026D01*
X061400Y041028D02*
X061479Y041028D01*
X061479Y041031D02*
X061401Y041031D01*
X061402Y041033D02*
X061480Y041033D01*
X061481Y041036D02*
X061403Y041036D01*
X061403Y041038D02*
X061482Y041038D01*
X061482Y041041D02*
X061404Y041041D01*
X061405Y041043D02*
X061483Y041043D01*
X061484Y041045D02*
X061405Y041045D01*
X061406Y041048D02*
X061485Y041048D01*
X061485Y041050D02*
X061407Y041050D01*
X061408Y041053D02*
X061486Y041053D01*
X061487Y041055D02*
X061408Y041055D01*
X061409Y041058D02*
X061488Y041058D01*
X061488Y041060D02*
X061410Y041060D01*
X061410Y041063D02*
X061489Y041063D01*
X061490Y041065D02*
X061411Y041065D01*
X061412Y041067D02*
X061491Y041067D01*
X061491Y041070D02*
X061413Y041070D01*
X061413Y041072D02*
X061492Y041072D01*
X061505Y041116D02*
X061426Y041116D01*
X061427Y041119D02*
X061506Y041119D01*
X061507Y041121D02*
X061428Y041121D01*
X061428Y041123D02*
X061507Y041123D01*
X061508Y041126D02*
X061429Y041126D01*
X061430Y041128D02*
X061509Y041128D01*
X061509Y041131D02*
X061430Y041131D01*
X061431Y041133D02*
X061510Y041133D01*
X061511Y041136D02*
X061432Y041136D01*
X061432Y041138D02*
X061511Y041138D01*
X061512Y041141D02*
X061433Y041141D01*
X061433Y041143D02*
X061513Y041143D01*
X061513Y041145D02*
X061434Y041145D01*
X061437Y041148D02*
X061514Y041148D01*
X061515Y041150D02*
X061446Y041150D01*
X061456Y041153D02*
X061516Y041153D01*
X061516Y041155D02*
X061466Y041155D01*
X061475Y041158D02*
X061517Y041158D01*
X061518Y041160D02*
X061485Y041160D01*
X061495Y041162D02*
X061518Y041162D01*
X061519Y041165D02*
X061504Y041165D01*
X061514Y041167D02*
X061520Y041167D01*
X061615Y041114D02*
X061693Y041114D01*
X061693Y041111D02*
X061614Y041111D01*
X061613Y041109D02*
X061692Y041109D01*
X061691Y041106D02*
X061612Y041106D01*
X061865Y041026D02*
X061954Y041026D01*
X061955Y041028D02*
X061865Y041028D01*
X061866Y041031D02*
X061955Y041031D01*
X061956Y041033D02*
X061867Y041033D01*
X061868Y041036D02*
X061957Y041036D01*
X061957Y041038D02*
X061868Y041038D01*
X061869Y041041D02*
X061958Y041041D01*
X061959Y041043D02*
X061870Y041043D01*
X061871Y041045D02*
X061960Y041045D01*
X061960Y041048D02*
X061872Y041048D01*
X061872Y041050D02*
X061961Y041050D01*
X061962Y041053D02*
X061873Y041053D01*
X061874Y041055D02*
X061963Y041055D01*
X061964Y041058D02*
X061875Y041058D01*
X061875Y041060D02*
X061966Y041060D01*
X061968Y041063D02*
X061876Y041063D01*
X061877Y041065D02*
X061970Y041065D01*
X061974Y041067D02*
X061878Y041067D01*
X061878Y041070D02*
X061978Y041070D01*
X061988Y041072D02*
X061879Y041072D01*
X061864Y041024D02*
X061953Y041024D01*
X061952Y041021D02*
X061863Y041021D01*
X061862Y041019D02*
X061952Y041019D01*
X061951Y041016D02*
X061862Y041016D01*
X061861Y041014D02*
X061950Y041014D01*
X028343Y031913D02*
X028338Y031923D01*
X028330Y031931D01*
X028319Y031937D01*
X028270Y031952D01*
X028152Y031952D01*
X028151Y031950D02*
X028270Y031950D01*
X028279Y031950D01*
X028286Y031947D02*
X028270Y031947D01*
X028150Y031947D01*
X028150Y031949D02*
X028148Y031937D01*
X028148Y031779D01*
X028345Y031779D01*
X028345Y031777D02*
X028149Y031777D01*
X028148Y031779D02*
X028151Y031762D01*
X028345Y031762D01*
X028345Y031764D02*
X028150Y031764D01*
X028151Y031762D02*
X028158Y031747D01*
X028345Y031747D01*
X028345Y031745D02*
X028160Y031745D01*
X028158Y031747D02*
X028170Y031734D01*
X028186Y031726D01*
X028280Y031696D01*
X028295Y031694D01*
X028311Y031697D01*
X028324Y031704D01*
X028335Y031715D01*
X028342Y031728D01*
X028182Y031728D01*
X028178Y031730D02*
X028343Y031730D01*
X028342Y031728D02*
X028345Y031744D01*
X028345Y031901D01*
X028271Y031901D01*
X028270Y031901D02*
X028148Y031901D01*
X028148Y031903D02*
X028270Y031903D01*
X028271Y031903D02*
X028345Y031903D01*
X028345Y031901D02*
X028343Y031913D01*
X028271Y031913D01*
X028270Y031913D02*
X028148Y031913D01*
X028148Y031911D02*
X028270Y031911D01*
X028271Y031911D02*
X028344Y031911D01*
X028344Y031908D02*
X028271Y031908D01*
X028270Y031908D02*
X028148Y031908D01*
X028148Y031906D02*
X028270Y031906D01*
X028271Y031906D02*
X028344Y031906D01*
X028345Y031898D02*
X028271Y031898D01*
X028270Y031898D02*
X028148Y031898D01*
X028148Y031896D02*
X028270Y031896D01*
X028271Y031896D02*
X028345Y031896D01*
X028345Y031894D02*
X028272Y031894D01*
X028270Y031894D02*
X028148Y031894D01*
X028148Y031891D02*
X028270Y031891D01*
X028272Y031891D02*
X028345Y031891D01*
X028345Y031889D02*
X028272Y031889D01*
X028270Y031889D02*
X028148Y031889D01*
X028148Y031886D02*
X028270Y031886D01*
X028272Y031886D02*
X028345Y031886D01*
X028345Y031884D02*
X028272Y031884D01*
X028270Y031884D02*
X028211Y031884D01*
X028213Y031883D02*
X028270Y031866D01*
X028270Y031952D01*
X028271Y031952D01*
X028270Y031952D02*
X028272Y031866D01*
X028290Y031860D01*
X028295Y031857D01*
X028345Y031857D01*
X028345Y031855D02*
X028297Y031855D01*
X028299Y031853D02*
X028301Y031848D01*
X028302Y031842D01*
X028302Y031805D01*
X028300Y031798D01*
X028297Y031792D01*
X028291Y031788D01*
X028285Y031786D01*
X028278Y031787D01*
X028211Y031807D01*
X028203Y031811D01*
X028148Y031811D01*
X028148Y031813D02*
X028200Y031813D01*
X028203Y031811D02*
X028196Y031817D01*
X028191Y031825D01*
X028190Y031834D01*
X028190Y031868D01*
X028191Y031874D01*
X028148Y031874D01*
X028148Y031872D02*
X028190Y031872D01*
X028191Y031874D02*
X028195Y031880D01*
X028200Y031883D01*
X028207Y031885D01*
X028213Y031883D01*
X028220Y031881D02*
X028270Y031881D01*
X028272Y031881D02*
X028345Y031881D01*
X028345Y031879D02*
X028272Y031879D01*
X028270Y031879D02*
X028228Y031879D01*
X028236Y031876D02*
X028270Y031876D01*
X028270Y031874D02*
X028243Y031874D01*
X028251Y031872D02*
X028270Y031872D01*
X028272Y031872D02*
X028345Y031872D01*
X028345Y031874D02*
X028272Y031874D01*
X028272Y031876D02*
X028345Y031876D01*
X028345Y031869D02*
X028272Y031869D01*
X028270Y031869D02*
X028259Y031869D01*
X028267Y031867D02*
X028270Y031867D01*
X028272Y031867D02*
X028345Y031867D01*
X028345Y031864D02*
X028276Y031864D01*
X028284Y031862D02*
X028345Y031862D01*
X028345Y031859D02*
X028291Y031859D01*
X028295Y031857D02*
X028299Y031853D01*
X028299Y031852D02*
X028345Y031852D01*
X028345Y031850D02*
X028300Y031850D01*
X028301Y031847D02*
X028345Y031847D01*
X028345Y031845D02*
X028301Y031845D01*
X028302Y031842D02*
X028345Y031842D01*
X028345Y031840D02*
X028302Y031840D01*
X028302Y031838D02*
X028345Y031838D01*
X028345Y031835D02*
X028302Y031835D01*
X028302Y031833D02*
X028345Y031833D01*
X028345Y031830D02*
X028302Y031830D01*
X028302Y031828D02*
X028345Y031828D01*
X028345Y031825D02*
X028302Y031825D01*
X028302Y031823D02*
X028345Y031823D01*
X028345Y031820D02*
X028302Y031820D01*
X028302Y031818D02*
X028345Y031818D01*
X028345Y031816D02*
X028302Y031816D01*
X028302Y031813D02*
X028345Y031813D01*
X028345Y031811D02*
X028302Y031811D01*
X028302Y031808D02*
X028345Y031808D01*
X028345Y031806D02*
X028302Y031806D01*
X028301Y031803D02*
X028345Y031803D01*
X028345Y031801D02*
X028301Y031801D01*
X028301Y031799D02*
X028345Y031799D01*
X028345Y031796D02*
X028299Y031796D01*
X028298Y031794D02*
X028345Y031794D01*
X028345Y031791D02*
X028295Y031791D01*
X028292Y031789D02*
X028345Y031789D01*
X028345Y031786D02*
X028148Y031786D01*
X028148Y031784D02*
X028345Y031784D01*
X028345Y031781D02*
X028148Y031781D01*
X028149Y031774D02*
X028345Y031774D01*
X028345Y031772D02*
X028149Y031772D01*
X028150Y031769D02*
X028345Y031769D01*
X028345Y031767D02*
X028150Y031767D01*
X028152Y031760D02*
X028345Y031760D01*
X028345Y031757D02*
X028153Y031757D01*
X028154Y031755D02*
X028345Y031755D01*
X028345Y031752D02*
X028156Y031752D01*
X028157Y031750D02*
X028345Y031750D01*
X028345Y031742D02*
X028162Y031742D01*
X028165Y031740D02*
X028344Y031740D01*
X028344Y031738D02*
X028167Y031738D01*
X028170Y031735D02*
X028344Y031735D01*
X028343Y031733D02*
X028173Y031733D01*
X028187Y031725D02*
X028341Y031725D01*
X028340Y031723D02*
X028195Y031723D01*
X028203Y031721D02*
X028338Y031721D01*
X028337Y031718D02*
X028211Y031718D01*
X028219Y031716D02*
X028336Y031716D01*
X028334Y031713D02*
X028226Y031713D01*
X028234Y031711D02*
X028331Y031711D01*
X028329Y031708D02*
X028242Y031708D01*
X028250Y031706D02*
X028327Y031706D01*
X028324Y031703D02*
X028258Y031703D01*
X028265Y031701D02*
X028319Y031701D01*
X028314Y031699D02*
X028273Y031699D01*
X028282Y031696D02*
X028307Y031696D01*
X028297Y031647D02*
X028270Y031647D01*
X028270Y031645D02*
X028305Y031645D01*
X028313Y031643D02*
X028270Y031643D01*
X028270Y031640D02*
X028320Y031640D01*
X028317Y031641D02*
X028270Y031655D01*
X028270Y031570D01*
X028288Y031565D01*
X028293Y031562D01*
X028297Y031558D01*
X028299Y031553D01*
X028300Y031547D01*
X028300Y031509D01*
X028298Y031503D01*
X028295Y031497D01*
X028289Y031493D01*
X028283Y031491D01*
X028276Y031492D01*
X028209Y031511D01*
X028201Y031515D01*
X028194Y031522D01*
X028189Y031530D01*
X028188Y031539D01*
X028188Y031572D01*
X028146Y031572D01*
X028146Y031574D02*
X028188Y031574D01*
X028188Y031572D02*
X028189Y031579D01*
X028146Y031579D01*
X028146Y031577D02*
X028188Y031577D01*
X028189Y031579D02*
X028193Y031585D01*
X028198Y031588D01*
X028205Y031590D01*
X028211Y031588D01*
X028217Y031586D01*
X028217Y031673D01*
X028197Y031679D01*
X028185Y031680D01*
X028173Y031678D01*
X028162Y031673D01*
X028154Y031664D01*
X028148Y031653D01*
X028146Y031641D01*
X028146Y031484D01*
X028343Y031484D01*
X028343Y031482D02*
X028147Y031482D01*
X028146Y031484D02*
X028149Y031467D01*
X028343Y031467D01*
X028343Y031465D02*
X028150Y031465D01*
X028149Y031467D02*
X028156Y031451D01*
X028168Y031439D01*
X028184Y031431D01*
X028278Y031401D01*
X028293Y031399D01*
X028309Y031401D01*
X028322Y031408D01*
X028333Y031419D01*
X028340Y031433D01*
X028180Y031433D01*
X028184Y031430D02*
X028339Y031430D01*
X028338Y031428D02*
X028192Y031428D01*
X028200Y031426D02*
X028337Y031426D01*
X028335Y031423D02*
X028208Y031423D01*
X028216Y031421D02*
X028334Y031421D01*
X028332Y031418D02*
X028223Y031418D01*
X028231Y031416D02*
X028330Y031416D01*
X028327Y031413D02*
X028239Y031413D01*
X028247Y031411D02*
X028325Y031411D01*
X028323Y031409D02*
X028255Y031409D01*
X028262Y031406D02*
X028318Y031406D01*
X028313Y031404D02*
X028270Y031404D01*
X028278Y031401D02*
X028308Y031401D01*
X028340Y031433D02*
X028343Y031448D01*
X028343Y031606D01*
X028270Y031606D01*
X028270Y031608D02*
X028343Y031608D01*
X028343Y031606D02*
X028341Y031617D01*
X028336Y031628D01*
X028270Y031628D01*
X028270Y031630D02*
X028333Y031630D01*
X028331Y031633D02*
X028270Y031633D01*
X028270Y031635D02*
X028329Y031635D01*
X028328Y031636D02*
X028317Y031641D01*
X028325Y031638D02*
X028270Y031638D01*
X028270Y031650D02*
X028288Y031650D01*
X028280Y031652D02*
X028270Y031652D01*
X028270Y031655D02*
X028272Y031655D01*
X028270Y031625D02*
X028337Y031625D01*
X028338Y031623D02*
X028270Y031623D01*
X028270Y031621D02*
X028340Y031621D01*
X028341Y031618D02*
X028270Y031618D01*
X028270Y031616D02*
X028341Y031616D01*
X028342Y031613D02*
X028270Y031613D01*
X028270Y031611D02*
X028342Y031611D01*
X028343Y031604D02*
X028270Y031604D01*
X028270Y031601D02*
X028343Y031601D01*
X028343Y031599D02*
X028270Y031599D01*
X028270Y031596D02*
X028343Y031596D01*
X028343Y031594D02*
X028270Y031594D01*
X028270Y031591D02*
X028343Y031591D01*
X028343Y031589D02*
X028270Y031589D01*
X028270Y031586D02*
X028343Y031586D01*
X028343Y031584D02*
X028270Y031584D01*
X028270Y031582D02*
X028343Y031582D01*
X028343Y031579D02*
X028270Y031579D01*
X028270Y031577D02*
X028343Y031577D01*
X028343Y031574D02*
X028270Y031574D01*
X028270Y031572D02*
X028343Y031572D01*
X028343Y031569D02*
X028273Y031569D01*
X028281Y031567D02*
X028343Y031567D01*
X028343Y031565D02*
X028288Y031565D01*
X028293Y031562D02*
X028343Y031562D01*
X028343Y031560D02*
X028295Y031560D01*
X028297Y031557D02*
X028343Y031557D01*
X028343Y031555D02*
X028298Y031555D01*
X028299Y031552D02*
X028343Y031552D01*
X028343Y031550D02*
X028299Y031550D01*
X028300Y031547D02*
X028343Y031547D01*
X028343Y031545D02*
X028300Y031545D01*
X028300Y031543D02*
X028343Y031543D01*
X028343Y031540D02*
X028300Y031540D01*
X028300Y031538D02*
X028343Y031538D01*
X028343Y031535D02*
X028300Y031535D01*
X028300Y031533D02*
X028343Y031533D01*
X028343Y031530D02*
X028300Y031530D01*
X028300Y031528D02*
X028343Y031528D01*
X028343Y031526D02*
X028300Y031526D01*
X028300Y031523D02*
X028343Y031523D01*
X028343Y031521D02*
X028300Y031521D01*
X028300Y031518D02*
X028343Y031518D01*
X028343Y031516D02*
X028300Y031516D01*
X028300Y031513D02*
X028343Y031513D01*
X028343Y031511D02*
X028300Y031511D01*
X028300Y031508D02*
X028343Y031508D01*
X028343Y031506D02*
X028299Y031506D01*
X028299Y031504D02*
X028343Y031504D01*
X028343Y031501D02*
X028297Y031501D01*
X028296Y031499D02*
X028343Y031499D01*
X028343Y031496D02*
X028294Y031496D01*
X028291Y031494D02*
X028343Y031494D01*
X028343Y031491D02*
X028284Y031491D01*
X028279Y031491D02*
X028146Y031491D01*
X028146Y031489D02*
X028343Y031489D01*
X028343Y031487D02*
X028146Y031487D01*
X028146Y031494D02*
X028269Y031494D01*
X028261Y031496D02*
X028146Y031496D01*
X028146Y031499D02*
X028252Y031499D01*
X028244Y031501D02*
X028146Y031501D01*
X028146Y031504D02*
X028236Y031504D01*
X028227Y031506D02*
X028146Y031506D01*
X028146Y031508D02*
X028219Y031508D01*
X028211Y031511D02*
X028146Y031511D01*
X028146Y031513D02*
X028205Y031513D01*
X028200Y031516D02*
X028146Y031516D01*
X028146Y031518D02*
X028198Y031518D01*
X028195Y031521D02*
X028146Y031521D01*
X028146Y031523D02*
X028193Y031523D01*
X028192Y031526D02*
X028146Y031526D01*
X028146Y031528D02*
X028190Y031528D01*
X028189Y031530D02*
X028146Y031530D01*
X028146Y031533D02*
X028189Y031533D01*
X028188Y031535D02*
X028146Y031535D01*
X028146Y031538D02*
X028188Y031538D01*
X028188Y031540D02*
X028146Y031540D01*
X028146Y031543D02*
X028188Y031543D01*
X028188Y031545D02*
X028146Y031545D01*
X028146Y031547D02*
X028188Y031547D01*
X028188Y031550D02*
X028146Y031550D01*
X028146Y031552D02*
X028188Y031552D01*
X028188Y031555D02*
X028146Y031555D01*
X028146Y031557D02*
X028188Y031557D01*
X028188Y031560D02*
X028146Y031560D01*
X028146Y031562D02*
X028188Y031562D01*
X028188Y031565D02*
X028146Y031565D01*
X028146Y031567D02*
X028188Y031567D01*
X028188Y031569D02*
X028146Y031569D01*
X028146Y031582D02*
X028191Y031582D01*
X028192Y031584D02*
X028146Y031584D01*
X028146Y031586D02*
X028195Y031586D01*
X028202Y031589D02*
X028146Y031589D01*
X028146Y031591D02*
X028217Y031591D01*
X028217Y031589D02*
X028208Y031589D01*
X028216Y031586D02*
X028217Y031586D01*
X028217Y031594D02*
X028146Y031594D01*
X028146Y031596D02*
X028217Y031596D01*
X028217Y031599D02*
X028146Y031599D01*
X028146Y031601D02*
X028217Y031601D01*
X028217Y031604D02*
X028146Y031604D01*
X028146Y031606D02*
X028217Y031606D01*
X028217Y031608D02*
X028146Y031608D01*
X028146Y031611D02*
X028217Y031611D01*
X028217Y031613D02*
X028146Y031613D01*
X028146Y031616D02*
X028217Y031616D01*
X028217Y031618D02*
X028146Y031618D01*
X028146Y031621D02*
X028217Y031621D01*
X028217Y031623D02*
X028146Y031623D01*
X028146Y031625D02*
X028217Y031625D01*
X028217Y031628D02*
X028146Y031628D01*
X028146Y031630D02*
X028217Y031630D01*
X028217Y031633D02*
X028146Y031633D01*
X028146Y031635D02*
X028217Y031635D01*
X028217Y031638D02*
X028146Y031638D01*
X028146Y031640D02*
X028217Y031640D01*
X028217Y031643D02*
X028146Y031643D01*
X028147Y031645D02*
X028217Y031645D01*
X028217Y031647D02*
X028147Y031647D01*
X028148Y031650D02*
X028217Y031650D01*
X028217Y031652D02*
X028148Y031652D01*
X028149Y031655D02*
X028217Y031655D01*
X028217Y031657D02*
X028150Y031657D01*
X028152Y031660D02*
X028217Y031660D01*
X028217Y031662D02*
X028153Y031662D01*
X028154Y031664D02*
X028217Y031664D01*
X028217Y031667D02*
X028157Y031667D01*
X028159Y031669D02*
X028217Y031669D01*
X028217Y031672D02*
X028162Y031672D01*
X028165Y031674D02*
X028212Y031674D01*
X028204Y031677D02*
X028170Y031677D01*
X028178Y031679D02*
X028195Y031679D01*
X028148Y031789D02*
X028272Y031789D01*
X028264Y031791D02*
X028148Y031791D01*
X028148Y031794D02*
X028256Y031794D01*
X028247Y031796D02*
X028148Y031796D01*
X028148Y031799D02*
X028239Y031799D01*
X028231Y031801D02*
X028148Y031801D01*
X028148Y031803D02*
X028222Y031803D01*
X028214Y031806D02*
X028148Y031806D01*
X028148Y031808D02*
X028208Y031808D01*
X028197Y031816D02*
X028148Y031816D01*
X028148Y031818D02*
X028195Y031818D01*
X028194Y031820D02*
X028148Y031820D01*
X028148Y031823D02*
X028193Y031823D01*
X028191Y031825D02*
X028148Y031825D01*
X028148Y031828D02*
X028191Y031828D01*
X028190Y031830D02*
X028148Y031830D01*
X028148Y031833D02*
X028190Y031833D01*
X028190Y031835D02*
X028148Y031835D01*
X028148Y031838D02*
X028190Y031838D01*
X028190Y031840D02*
X028148Y031840D01*
X028148Y031842D02*
X028190Y031842D01*
X028190Y031845D02*
X028148Y031845D01*
X028148Y031847D02*
X028190Y031847D01*
X028190Y031850D02*
X028148Y031850D01*
X028148Y031852D02*
X028190Y031852D01*
X028190Y031855D02*
X028148Y031855D01*
X028148Y031857D02*
X028190Y031857D01*
X028190Y031859D02*
X028148Y031859D01*
X028148Y031862D02*
X028190Y031862D01*
X028190Y031864D02*
X028148Y031864D01*
X028148Y031867D02*
X028190Y031867D01*
X028190Y031869D02*
X028148Y031869D01*
X028148Y031876D02*
X028192Y031876D01*
X028194Y031879D02*
X028148Y031879D01*
X028148Y031881D02*
X028197Y031881D01*
X028202Y031884D02*
X028148Y031884D01*
X028148Y031915D02*
X028270Y031915D01*
X028271Y031915D02*
X028342Y031915D01*
X028341Y031918D02*
X028271Y031918D01*
X028270Y031918D02*
X028148Y031918D01*
X028148Y031920D02*
X028270Y031920D01*
X028271Y031920D02*
X028339Y031920D01*
X028338Y031923D02*
X028271Y031923D01*
X028270Y031923D02*
X028148Y031923D01*
X028148Y031925D02*
X028270Y031925D01*
X028271Y031925D02*
X028336Y031925D01*
X028333Y031928D02*
X028271Y031928D01*
X028270Y031928D02*
X028148Y031928D01*
X028148Y031930D02*
X028270Y031930D01*
X028271Y031930D02*
X028331Y031930D01*
X028327Y031933D02*
X028271Y031933D01*
X028270Y031933D02*
X028148Y031933D01*
X028148Y031935D02*
X028270Y031935D01*
X028271Y031935D02*
X028323Y031935D01*
X028317Y031937D02*
X028271Y031937D01*
X028270Y031937D02*
X028148Y031937D01*
X028149Y031940D02*
X028270Y031940D01*
X028309Y031940D01*
X028302Y031942D02*
X028270Y031942D01*
X028149Y031942D01*
X028150Y031945D02*
X028270Y031945D01*
X028294Y031945D01*
X028270Y031952D02*
X028199Y031974D01*
X028187Y031976D01*
X028175Y031974D01*
X028164Y031968D01*
X028156Y031959D01*
X028247Y031959D01*
X028239Y031962D02*
X028158Y031962D01*
X028156Y031959D02*
X028150Y031949D01*
X028153Y031954D02*
X028263Y031954D01*
X028255Y031957D02*
X028155Y031957D01*
X028161Y031964D02*
X028231Y031964D01*
X028223Y031967D02*
X028163Y031967D01*
X028167Y031969D02*
X028215Y031969D01*
X028207Y031972D02*
X028171Y031972D01*
X028177Y031974D02*
X028199Y031974D01*
X028328Y031636D02*
X028336Y031628D01*
X028343Y031479D02*
X028147Y031479D01*
X028147Y031477D02*
X028343Y031477D01*
X028343Y031474D02*
X028148Y031474D01*
X028148Y031472D02*
X028343Y031472D01*
X028343Y031469D02*
X028148Y031469D01*
X028151Y031462D02*
X028343Y031462D01*
X028343Y031460D02*
X028152Y031460D01*
X028154Y031457D02*
X028343Y031457D01*
X028343Y031455D02*
X028155Y031455D01*
X028156Y031452D02*
X028343Y031452D01*
X028343Y031450D02*
X028158Y031450D01*
X028160Y031448D02*
X028343Y031448D01*
X028342Y031445D02*
X028163Y031445D01*
X028165Y031443D02*
X028342Y031443D01*
X028342Y031440D02*
X028167Y031440D01*
X028171Y031438D02*
X028341Y031438D01*
X028341Y031435D02*
X028175Y031435D01*
X028159Y031391D02*
X028146Y031391D01*
X028146Y031389D02*
X028167Y031389D01*
X028175Y031387D02*
X028146Y031387D01*
X028146Y031384D02*
X028183Y031384D01*
X028191Y031382D02*
X028146Y031382D01*
X028146Y031379D02*
X028199Y031379D01*
X028207Y031377D02*
X028146Y031377D01*
X028146Y031374D02*
X028215Y031374D01*
X028223Y031372D02*
X028146Y031372D01*
X028146Y031370D02*
X028231Y031370D01*
X028239Y031367D02*
X028146Y031367D01*
X028146Y031365D02*
X028247Y031365D01*
X028255Y031362D02*
X028146Y031362D01*
X028146Y031360D02*
X028263Y031360D01*
X028271Y031357D02*
X028146Y031357D01*
X028146Y031355D02*
X028278Y031355D01*
X028286Y031352D02*
X028146Y031352D01*
X028146Y031350D02*
X028294Y031350D01*
X028302Y031348D02*
X028146Y031348D01*
X028146Y031345D02*
X028310Y031345D01*
X028318Y031343D02*
X028146Y031343D01*
X028146Y031340D02*
X028326Y031340D01*
X028334Y031338D02*
X028146Y031338D01*
X028146Y031335D02*
X028342Y031335D01*
X028350Y031333D02*
X028146Y031333D01*
X028146Y031331D02*
X028358Y031331D01*
X028366Y031328D02*
X028146Y031328D01*
X028146Y031326D02*
X028374Y031326D01*
X028382Y031323D02*
X028146Y031323D01*
X028146Y031321D02*
X028390Y031321D01*
X028398Y031318D02*
X028147Y031318D01*
X028146Y031319D02*
X028146Y031395D01*
X028424Y031311D01*
X028424Y031234D01*
X028343Y031257D01*
X028300Y031257D01*
X028300Y031255D02*
X028343Y031255D01*
X028343Y031253D02*
X028300Y031253D01*
X028300Y031250D02*
X028343Y031250D01*
X028343Y031248D02*
X028300Y031248D01*
X028300Y031245D02*
X028343Y031245D01*
X028343Y031243D02*
X028300Y031243D01*
X028300Y031240D02*
X028343Y031240D01*
X028343Y031238D02*
X028300Y031238D01*
X028300Y031240D02*
X028300Y031271D01*
X028146Y031319D01*
X028155Y031316D02*
X028406Y031316D01*
X028414Y031313D02*
X028162Y031313D01*
X028170Y031311D02*
X028422Y031311D01*
X028424Y031309D02*
X028178Y031309D01*
X028186Y031306D02*
X028424Y031306D01*
X028424Y031304D02*
X028194Y031304D01*
X028202Y031301D02*
X028424Y031301D01*
X028424Y031299D02*
X028210Y031299D01*
X028218Y031296D02*
X028424Y031296D01*
X028424Y031294D02*
X028226Y031294D01*
X028234Y031292D02*
X028424Y031292D01*
X028424Y031289D02*
X028242Y031289D01*
X028250Y031287D02*
X028424Y031287D01*
X028424Y031284D02*
X028258Y031284D01*
X028265Y031282D02*
X028424Y031282D01*
X028424Y031279D02*
X028273Y031279D01*
X028281Y031277D02*
X028424Y031277D01*
X028424Y031274D02*
X028289Y031274D01*
X028297Y031272D02*
X028424Y031272D01*
X028424Y031270D02*
X028300Y031270D01*
X028300Y031267D02*
X028424Y031267D01*
X028424Y031265D02*
X028300Y031265D01*
X028300Y031262D02*
X028424Y031262D01*
X028424Y031260D02*
X028300Y031260D01*
X028300Y031240D02*
X028299Y031230D01*
X028296Y031221D01*
X028290Y031214D01*
X028281Y031209D01*
X028272Y031207D01*
X028262Y031208D01*
X028146Y031244D01*
X028146Y031165D01*
X028304Y031118D01*
X028313Y031115D01*
X028322Y031116D01*
X028330Y031120D01*
X028337Y031126D01*
X028342Y031134D01*
X028343Y031143D01*
X028220Y031143D01*
X028228Y031140D02*
X028343Y031140D01*
X028342Y031138D02*
X028236Y031138D01*
X028244Y031136D02*
X028342Y031136D01*
X028341Y031133D02*
X028252Y031133D01*
X028260Y031131D02*
X028340Y031131D01*
X028338Y031128D02*
X028269Y031128D01*
X028277Y031126D02*
X028337Y031126D01*
X028334Y031123D02*
X028285Y031123D01*
X028293Y031121D02*
X028332Y031121D01*
X028327Y031119D02*
X028301Y031119D01*
X028310Y031116D02*
X028321Y031116D01*
X028343Y031143D02*
X028343Y031257D01*
X028424Y031257D01*
X028424Y031255D02*
X028352Y031255D01*
X028360Y031253D02*
X028424Y031253D01*
X028424Y031250D02*
X028368Y031250D01*
X028377Y031248D02*
X028424Y031248D01*
X028424Y031245D02*
X028385Y031245D01*
X028393Y031243D02*
X028424Y031243D01*
X028424Y031240D02*
X028401Y031240D01*
X028410Y031238D02*
X028424Y031238D01*
X028424Y031236D02*
X028418Y031236D01*
X028343Y031236D02*
X028300Y031236D01*
X028299Y031233D02*
X028343Y031233D01*
X028343Y031231D02*
X028299Y031231D01*
X028299Y031228D02*
X028343Y031228D01*
X028343Y031226D02*
X028298Y031226D01*
X028297Y031223D02*
X028343Y031223D01*
X028343Y031221D02*
X028296Y031221D01*
X028294Y031218D02*
X028343Y031218D01*
X028343Y031216D02*
X028291Y031216D01*
X028289Y031214D02*
X028343Y031214D01*
X028343Y031211D02*
X028285Y031211D01*
X028280Y031209D02*
X028343Y031209D01*
X028343Y031206D02*
X028146Y031206D01*
X028146Y031204D02*
X028343Y031204D01*
X028343Y031201D02*
X028146Y031201D01*
X028146Y031199D02*
X028343Y031199D01*
X028343Y031197D02*
X028146Y031197D01*
X028146Y031194D02*
X028343Y031194D01*
X028343Y031192D02*
X028146Y031192D01*
X028146Y031189D02*
X028343Y031189D01*
X028343Y031187D02*
X028146Y031187D01*
X028146Y031184D02*
X028343Y031184D01*
X028343Y031182D02*
X028146Y031182D01*
X028146Y031179D02*
X028343Y031179D01*
X028343Y031177D02*
X028146Y031177D01*
X028146Y031175D02*
X028343Y031175D01*
X028343Y031172D02*
X028146Y031172D01*
X028146Y031170D02*
X028343Y031170D01*
X028343Y031167D02*
X028146Y031167D01*
X028147Y031165D02*
X028343Y031165D01*
X028343Y031162D02*
X028155Y031162D01*
X028163Y031160D02*
X028343Y031160D01*
X028343Y031158D02*
X028171Y031158D01*
X028179Y031155D02*
X028343Y031155D01*
X028343Y031153D02*
X028187Y031153D01*
X028195Y031150D02*
X028343Y031150D01*
X028343Y031148D02*
X028204Y031148D01*
X028212Y031145D02*
X028343Y031145D01*
X028321Y031075D02*
X028300Y031075D01*
X028300Y031077D02*
X028312Y031077D01*
X028303Y031080D02*
X028300Y031080D01*
X028343Y031069D01*
X028343Y030958D01*
X028341Y030948D01*
X028241Y030948D01*
X028233Y030950D02*
X028342Y030950D01*
X028341Y030948D02*
X028336Y030939D01*
X028329Y030933D01*
X028320Y030929D01*
X028310Y030928D01*
X028300Y030931D01*
X028186Y030964D01*
X028186Y030903D01*
X028146Y030915D01*
X028146Y030976D01*
X028113Y030985D01*
X028091Y031070D01*
X028094Y031070D01*
X028091Y031070D02*
X028146Y031055D01*
X028186Y031055D01*
X028186Y031053D02*
X028096Y031053D01*
X028095Y031055D02*
X028145Y031055D01*
X028146Y031055D02*
X028146Y031130D01*
X028186Y031118D01*
X028186Y031043D01*
X028098Y031043D01*
X028097Y031045D02*
X028186Y031045D01*
X028186Y031043D02*
X028276Y031015D01*
X028283Y031015D01*
X028289Y031016D01*
X028288Y031016D02*
X028343Y031016D01*
X028343Y031014D02*
X028105Y031014D01*
X028105Y031016D02*
X028274Y031016D01*
X028265Y031019D02*
X028104Y031019D01*
X028104Y031021D02*
X028257Y031021D01*
X028249Y031023D02*
X028103Y031023D01*
X028102Y031026D02*
X028241Y031026D01*
X028233Y031028D02*
X028102Y031028D01*
X028101Y031031D02*
X028225Y031031D01*
X028217Y031033D02*
X028100Y031033D01*
X028100Y031036D02*
X028209Y031036D01*
X028201Y031038D02*
X028099Y031038D01*
X028099Y031041D02*
X028193Y031041D01*
X028186Y031048D02*
X028097Y031048D01*
X028096Y031050D02*
X028186Y031050D01*
X028186Y031058D02*
X028146Y031058D01*
X028146Y031060D02*
X028186Y031060D01*
X028186Y031062D02*
X028146Y031062D01*
X028146Y031065D02*
X028186Y031065D01*
X028186Y031067D02*
X028146Y031067D01*
X028146Y031070D02*
X028186Y031070D01*
X028186Y031072D02*
X028146Y031072D01*
X028146Y031075D02*
X028186Y031075D01*
X028186Y031077D02*
X028146Y031077D01*
X028146Y031080D02*
X028186Y031080D01*
X028186Y031082D02*
X028146Y031082D01*
X028146Y031084D02*
X028186Y031084D01*
X028186Y031087D02*
X028146Y031087D01*
X028146Y031089D02*
X028186Y031089D01*
X028186Y031092D02*
X028146Y031092D01*
X028146Y031094D02*
X028186Y031094D01*
X028186Y031097D02*
X028146Y031097D01*
X028146Y031099D02*
X028186Y031099D01*
X028186Y031101D02*
X028146Y031101D01*
X028146Y031104D02*
X028186Y031104D01*
X028186Y031106D02*
X028146Y031106D01*
X028146Y031109D02*
X028186Y031109D01*
X028186Y031111D02*
X028146Y031111D01*
X028146Y031114D02*
X028186Y031114D01*
X028186Y031116D02*
X028146Y031116D01*
X028146Y031119D02*
X028183Y031119D01*
X028175Y031121D02*
X028146Y031121D01*
X028146Y031123D02*
X028167Y031123D01*
X028159Y031126D02*
X028146Y031126D01*
X028146Y031128D02*
X028150Y031128D01*
X028128Y031060D02*
X028094Y031060D01*
X028094Y031058D02*
X028136Y031058D01*
X028119Y031062D02*
X028093Y031062D01*
X028092Y031065D02*
X028111Y031065D01*
X028102Y031067D02*
X028092Y031067D01*
X028106Y031011D02*
X028343Y031011D01*
X028343Y031009D02*
X028107Y031009D01*
X028107Y031006D02*
X028343Y031006D01*
X028343Y031004D02*
X028108Y031004D01*
X028109Y031002D02*
X028343Y031002D01*
X028343Y030999D02*
X028109Y030999D01*
X028110Y030997D02*
X028343Y030997D01*
X028343Y030994D02*
X028110Y030994D01*
X028111Y030992D02*
X028343Y030992D01*
X028343Y030989D02*
X028112Y030989D01*
X028112Y030987D02*
X028343Y030987D01*
X028343Y030984D02*
X028114Y030984D01*
X028123Y030982D02*
X028343Y030982D01*
X028343Y030980D02*
X028133Y030980D01*
X028142Y030977D02*
X028343Y030977D01*
X028343Y030975D02*
X028146Y030975D01*
X028146Y030972D02*
X028343Y030972D01*
X028343Y030970D02*
X028146Y030970D01*
X028146Y030967D02*
X028343Y030967D01*
X028343Y030965D02*
X028146Y030965D01*
X028146Y030963D02*
X028186Y030963D01*
X028186Y030960D02*
X028146Y030960D01*
X028146Y030958D02*
X028186Y030958D01*
X028186Y030955D02*
X028146Y030955D01*
X028146Y030953D02*
X028186Y030953D01*
X028186Y030950D02*
X028146Y030950D01*
X028146Y030948D02*
X028186Y030948D01*
X028186Y030945D02*
X028146Y030945D01*
X028146Y030943D02*
X028186Y030943D01*
X028186Y030941D02*
X028146Y030941D01*
X028146Y030938D02*
X028186Y030938D01*
X028186Y030936D02*
X028146Y030936D01*
X028146Y030933D02*
X028186Y030933D01*
X028186Y030931D02*
X028146Y030931D01*
X028146Y030928D02*
X028186Y030928D01*
X028186Y030926D02*
X028146Y030926D01*
X028146Y030924D02*
X028186Y030924D01*
X028186Y030921D02*
X028146Y030921D01*
X028146Y030919D02*
X028186Y030919D01*
X028186Y030916D02*
X028146Y030916D01*
X028150Y030914D02*
X028186Y030914D01*
X028186Y030911D02*
X028158Y030911D01*
X028166Y030909D02*
X028186Y030909D01*
X028186Y030906D02*
X028174Y030906D01*
X028183Y030904D02*
X028186Y030904D01*
X028199Y030960D02*
X028343Y030960D01*
X028343Y030958D02*
X028208Y030958D01*
X028216Y030955D02*
X028343Y030955D01*
X028342Y030953D02*
X028224Y030953D01*
X028249Y030945D02*
X028340Y030945D01*
X028338Y030943D02*
X028258Y030943D01*
X028266Y030941D02*
X028337Y030941D01*
X028335Y030938D02*
X028274Y030938D01*
X028283Y030936D02*
X028332Y030936D01*
X028330Y030933D02*
X028291Y030933D01*
X028299Y030931D02*
X028325Y030931D01*
X028316Y030928D02*
X028308Y030928D01*
X028343Y030963D02*
X028191Y030963D01*
X028289Y031016D02*
X028295Y031021D01*
X028343Y031021D01*
X028343Y031019D02*
X028292Y031019D01*
X028295Y031021D02*
X028299Y031026D01*
X028300Y031033D01*
X028300Y031080D01*
X028300Y031072D02*
X028329Y031072D01*
X028338Y031070D02*
X028300Y031070D01*
X028300Y031067D02*
X028343Y031067D01*
X028343Y031065D02*
X028300Y031065D01*
X028300Y031062D02*
X028343Y031062D01*
X028343Y031060D02*
X028300Y031060D01*
X028300Y031058D02*
X028343Y031058D01*
X028343Y031055D02*
X028300Y031055D01*
X028300Y031053D02*
X028343Y031053D01*
X028343Y031050D02*
X028300Y031050D01*
X028300Y031048D02*
X028343Y031048D01*
X028343Y031045D02*
X028300Y031045D01*
X028300Y031043D02*
X028343Y031043D01*
X028343Y031041D02*
X028300Y031041D01*
X028300Y031038D02*
X028343Y031038D01*
X028343Y031036D02*
X028300Y031036D01*
X028300Y031033D02*
X028343Y031033D01*
X028343Y031031D02*
X028299Y031031D01*
X028299Y031028D02*
X028343Y031028D01*
X028343Y031026D02*
X028298Y031026D01*
X028297Y031023D02*
X028343Y031023D01*
X028261Y031209D02*
X028146Y031209D01*
X028146Y031211D02*
X028253Y031211D01*
X028245Y031214D02*
X028146Y031214D01*
X028146Y031216D02*
X028237Y031216D01*
X028229Y031218D02*
X028146Y031218D01*
X028146Y031221D02*
X028221Y031221D01*
X028213Y031223D02*
X028146Y031223D01*
X028146Y031226D02*
X028205Y031226D01*
X028197Y031228D02*
X028146Y031228D01*
X028146Y031231D02*
X028189Y031231D01*
X028181Y031233D02*
X028146Y031233D01*
X028146Y031236D02*
X028173Y031236D01*
X028165Y031238D02*
X028146Y031238D01*
X028146Y031240D02*
X028157Y031240D01*
X028149Y031243D02*
X028146Y031243D01*
X028146Y031394D02*
X028151Y031394D01*
D18*
X035033Y060202D03*
D19*
X041524Y060202D03*
D20*
X039886Y058267D02*
X039888Y058317D01*
X039894Y058367D01*
X039904Y058416D01*
X039917Y058465D01*
X039935Y058512D01*
X039956Y058558D01*
X039980Y058601D01*
X040008Y058643D01*
X040039Y058683D01*
X040073Y058720D01*
X040110Y058754D01*
X040150Y058785D01*
X040192Y058813D01*
X040235Y058837D01*
X040281Y058858D01*
X040328Y058876D01*
X040377Y058889D01*
X040426Y058899D01*
X040476Y058905D01*
X040526Y058907D01*
X040576Y058905D01*
X040626Y058899D01*
X040675Y058889D01*
X040724Y058876D01*
X040771Y058858D01*
X040817Y058837D01*
X040860Y058813D01*
X040902Y058785D01*
X040942Y058754D01*
X040979Y058720D01*
X041013Y058683D01*
X041044Y058643D01*
X041072Y058601D01*
X041096Y058558D01*
X041117Y058512D01*
X041135Y058465D01*
X041148Y058416D01*
X041158Y058367D01*
X041164Y058317D01*
X041166Y058267D01*
X041164Y058217D01*
X041158Y058167D01*
X041148Y058118D01*
X041135Y058069D01*
X041117Y058022D01*
X041096Y057976D01*
X041072Y057933D01*
X041044Y057891D01*
X041013Y057851D01*
X040979Y057814D01*
X040942Y057780D01*
X040902Y057749D01*
X040860Y057721D01*
X040817Y057697D01*
X040771Y057676D01*
X040724Y057658D01*
X040675Y057645D01*
X040626Y057635D01*
X040576Y057629D01*
X040526Y057627D01*
X040476Y057629D01*
X040426Y057635D01*
X040377Y057645D01*
X040328Y057658D01*
X040281Y057676D01*
X040235Y057697D01*
X040192Y057721D01*
X040150Y057749D01*
X040110Y057780D01*
X040073Y057814D01*
X040039Y057851D01*
X040008Y057891D01*
X039980Y057933D01*
X039956Y057976D01*
X039935Y058022D01*
X039917Y058069D01*
X039904Y058118D01*
X039894Y058167D01*
X039888Y058217D01*
X039886Y058267D01*
X035386Y058267D02*
X035388Y058317D01*
X035394Y058367D01*
X035404Y058416D01*
X035417Y058465D01*
X035435Y058512D01*
X035456Y058558D01*
X035480Y058601D01*
X035508Y058643D01*
X035539Y058683D01*
X035573Y058720D01*
X035610Y058754D01*
X035650Y058785D01*
X035692Y058813D01*
X035735Y058837D01*
X035781Y058858D01*
X035828Y058876D01*
X035877Y058889D01*
X035926Y058899D01*
X035976Y058905D01*
X036026Y058907D01*
X036076Y058905D01*
X036126Y058899D01*
X036175Y058889D01*
X036224Y058876D01*
X036271Y058858D01*
X036317Y058837D01*
X036360Y058813D01*
X036402Y058785D01*
X036442Y058754D01*
X036479Y058720D01*
X036513Y058683D01*
X036544Y058643D01*
X036572Y058601D01*
X036596Y058558D01*
X036617Y058512D01*
X036635Y058465D01*
X036648Y058416D01*
X036658Y058367D01*
X036664Y058317D01*
X036666Y058267D01*
X036664Y058217D01*
X036658Y058167D01*
X036648Y058118D01*
X036635Y058069D01*
X036617Y058022D01*
X036596Y057976D01*
X036572Y057933D01*
X036544Y057891D01*
X036513Y057851D01*
X036479Y057814D01*
X036442Y057780D01*
X036402Y057749D01*
X036360Y057721D01*
X036317Y057697D01*
X036271Y057676D01*
X036224Y057658D01*
X036175Y057645D01*
X036126Y057635D01*
X036076Y057629D01*
X036026Y057627D01*
X035976Y057629D01*
X035926Y057635D01*
X035877Y057645D01*
X035828Y057658D01*
X035781Y057676D01*
X035735Y057697D01*
X035692Y057721D01*
X035650Y057749D01*
X035610Y057780D01*
X035573Y057814D01*
X035539Y057851D01*
X035508Y057891D01*
X035480Y057933D01*
X035456Y057976D01*
X035435Y058022D01*
X035417Y058069D01*
X035404Y058118D01*
X035394Y058167D01*
X035388Y058217D01*
X035386Y058267D01*
X050504Y040507D02*
X050506Y040555D01*
X050512Y040603D01*
X050522Y040650D01*
X050535Y040696D01*
X050553Y040741D01*
X050573Y040785D01*
X050598Y040827D01*
X050626Y040866D01*
X050656Y040903D01*
X050690Y040937D01*
X050727Y040969D01*
X050765Y040998D01*
X050806Y041023D01*
X050849Y041045D01*
X050894Y041063D01*
X050940Y041077D01*
X050987Y041088D01*
X051035Y041095D01*
X051083Y041098D01*
X051131Y041097D01*
X051179Y041092D01*
X051227Y041083D01*
X051273Y041071D01*
X051318Y041054D01*
X051362Y041034D01*
X051404Y041011D01*
X051444Y040984D01*
X051482Y040954D01*
X051517Y040921D01*
X051549Y040885D01*
X051579Y040847D01*
X051605Y040806D01*
X051627Y040763D01*
X051647Y040719D01*
X051662Y040674D01*
X051674Y040627D01*
X051682Y040579D01*
X051686Y040531D01*
X051686Y040483D01*
X051682Y040435D01*
X051674Y040387D01*
X051662Y040340D01*
X051647Y040295D01*
X051627Y040251D01*
X051605Y040208D01*
X051579Y040167D01*
X051549Y040129D01*
X051517Y040093D01*
X051482Y040060D01*
X051444Y040030D01*
X051404Y040003D01*
X051362Y039980D01*
X051318Y039960D01*
X051273Y039943D01*
X051227Y039931D01*
X051179Y039922D01*
X051131Y039917D01*
X051083Y039916D01*
X051035Y039919D01*
X050987Y039926D01*
X050940Y039937D01*
X050894Y039951D01*
X050849Y039969D01*
X050806Y039991D01*
X050765Y040016D01*
X050727Y040045D01*
X050690Y040077D01*
X050656Y040111D01*
X050626Y040148D01*
X050598Y040187D01*
X050573Y040229D01*
X050553Y040273D01*
X050535Y040318D01*
X050522Y040364D01*
X050512Y040411D01*
X050506Y040459D01*
X050504Y040507D01*
X053536Y040507D02*
X053538Y040555D01*
X053544Y040603D01*
X053554Y040650D01*
X053567Y040696D01*
X053585Y040741D01*
X053605Y040785D01*
X053630Y040827D01*
X053658Y040866D01*
X053688Y040903D01*
X053722Y040937D01*
X053759Y040969D01*
X053797Y040998D01*
X053838Y041023D01*
X053881Y041045D01*
X053926Y041063D01*
X053972Y041077D01*
X054019Y041088D01*
X054067Y041095D01*
X054115Y041098D01*
X054163Y041097D01*
X054211Y041092D01*
X054259Y041083D01*
X054305Y041071D01*
X054350Y041054D01*
X054394Y041034D01*
X054436Y041011D01*
X054476Y040984D01*
X054514Y040954D01*
X054549Y040921D01*
X054581Y040885D01*
X054611Y040847D01*
X054637Y040806D01*
X054659Y040763D01*
X054679Y040719D01*
X054694Y040674D01*
X054706Y040627D01*
X054714Y040579D01*
X054718Y040531D01*
X054718Y040483D01*
X054714Y040435D01*
X054706Y040387D01*
X054694Y040340D01*
X054679Y040295D01*
X054659Y040251D01*
X054637Y040208D01*
X054611Y040167D01*
X054581Y040129D01*
X054549Y040093D01*
X054514Y040060D01*
X054476Y040030D01*
X054436Y040003D01*
X054394Y039980D01*
X054350Y039960D01*
X054305Y039943D01*
X054259Y039931D01*
X054211Y039922D01*
X054163Y039917D01*
X054115Y039916D01*
X054067Y039919D01*
X054019Y039926D01*
X053972Y039937D01*
X053926Y039951D01*
X053881Y039969D01*
X053838Y039991D01*
X053797Y040016D01*
X053759Y040045D01*
X053722Y040077D01*
X053688Y040111D01*
X053658Y040148D01*
X053630Y040187D01*
X053605Y040229D01*
X053585Y040273D01*
X053567Y040318D01*
X053554Y040364D01*
X053544Y040411D01*
X053538Y040459D01*
X053536Y040507D01*
X061764Y040271D02*
X061766Y040319D01*
X061772Y040367D01*
X061782Y040414D01*
X061795Y040460D01*
X061813Y040505D01*
X061833Y040549D01*
X061858Y040591D01*
X061886Y040630D01*
X061916Y040667D01*
X061950Y040701D01*
X061987Y040733D01*
X062025Y040762D01*
X062066Y040787D01*
X062109Y040809D01*
X062154Y040827D01*
X062200Y040841D01*
X062247Y040852D01*
X062295Y040859D01*
X062343Y040862D01*
X062391Y040861D01*
X062439Y040856D01*
X062487Y040847D01*
X062533Y040835D01*
X062578Y040818D01*
X062622Y040798D01*
X062664Y040775D01*
X062704Y040748D01*
X062742Y040718D01*
X062777Y040685D01*
X062809Y040649D01*
X062839Y040611D01*
X062865Y040570D01*
X062887Y040527D01*
X062907Y040483D01*
X062922Y040438D01*
X062934Y040391D01*
X062942Y040343D01*
X062946Y040295D01*
X062946Y040247D01*
X062942Y040199D01*
X062934Y040151D01*
X062922Y040104D01*
X062907Y040059D01*
X062887Y040015D01*
X062865Y039972D01*
X062839Y039931D01*
X062809Y039893D01*
X062777Y039857D01*
X062742Y039824D01*
X062704Y039794D01*
X062664Y039767D01*
X062622Y039744D01*
X062578Y039724D01*
X062533Y039707D01*
X062487Y039695D01*
X062439Y039686D01*
X062391Y039681D01*
X062343Y039680D01*
X062295Y039683D01*
X062247Y039690D01*
X062200Y039701D01*
X062154Y039715D01*
X062109Y039733D01*
X062066Y039755D01*
X062025Y039780D01*
X061987Y039809D01*
X061950Y039841D01*
X061916Y039875D01*
X061886Y039912D01*
X061858Y039951D01*
X061833Y039993D01*
X061813Y040037D01*
X061795Y040082D01*
X061782Y040128D01*
X061772Y040175D01*
X061766Y040223D01*
X061764Y040271D01*
X064795Y040271D02*
X064797Y040319D01*
X064803Y040367D01*
X064813Y040414D01*
X064826Y040460D01*
X064844Y040505D01*
X064864Y040549D01*
X064889Y040591D01*
X064917Y040630D01*
X064947Y040667D01*
X064981Y040701D01*
X065018Y040733D01*
X065056Y040762D01*
X065097Y040787D01*
X065140Y040809D01*
X065185Y040827D01*
X065231Y040841D01*
X065278Y040852D01*
X065326Y040859D01*
X065374Y040862D01*
X065422Y040861D01*
X065470Y040856D01*
X065518Y040847D01*
X065564Y040835D01*
X065609Y040818D01*
X065653Y040798D01*
X065695Y040775D01*
X065735Y040748D01*
X065773Y040718D01*
X065808Y040685D01*
X065840Y040649D01*
X065870Y040611D01*
X065896Y040570D01*
X065918Y040527D01*
X065938Y040483D01*
X065953Y040438D01*
X065965Y040391D01*
X065973Y040343D01*
X065977Y040295D01*
X065977Y040247D01*
X065973Y040199D01*
X065965Y040151D01*
X065953Y040104D01*
X065938Y040059D01*
X065918Y040015D01*
X065896Y039972D01*
X065870Y039931D01*
X065840Y039893D01*
X065808Y039857D01*
X065773Y039824D01*
X065735Y039794D01*
X065695Y039767D01*
X065653Y039744D01*
X065609Y039724D01*
X065564Y039707D01*
X065518Y039695D01*
X065470Y039686D01*
X065422Y039681D01*
X065374Y039680D01*
X065326Y039683D01*
X065278Y039690D01*
X065231Y039701D01*
X065185Y039715D01*
X065140Y039733D01*
X065097Y039755D01*
X065056Y039780D01*
X065018Y039809D01*
X064981Y039841D01*
X064947Y039875D01*
X064917Y039912D01*
X064889Y039951D01*
X064864Y039993D01*
X064844Y040037D01*
X064826Y040082D01*
X064813Y040128D01*
X064803Y040175D01*
X064797Y040223D01*
X064795Y040271D01*
X028398Y034937D02*
X028400Y034985D01*
X028406Y035033D01*
X028416Y035080D01*
X028429Y035126D01*
X028447Y035171D01*
X028467Y035215D01*
X028492Y035257D01*
X028520Y035296D01*
X028550Y035333D01*
X028584Y035367D01*
X028621Y035399D01*
X028659Y035428D01*
X028700Y035453D01*
X028743Y035475D01*
X028788Y035493D01*
X028834Y035507D01*
X028881Y035518D01*
X028929Y035525D01*
X028977Y035528D01*
X029025Y035527D01*
X029073Y035522D01*
X029121Y035513D01*
X029167Y035501D01*
X029212Y035484D01*
X029256Y035464D01*
X029298Y035441D01*
X029338Y035414D01*
X029376Y035384D01*
X029411Y035351D01*
X029443Y035315D01*
X029473Y035277D01*
X029499Y035236D01*
X029521Y035193D01*
X029541Y035149D01*
X029556Y035104D01*
X029568Y035057D01*
X029576Y035009D01*
X029580Y034961D01*
X029580Y034913D01*
X029576Y034865D01*
X029568Y034817D01*
X029556Y034770D01*
X029541Y034725D01*
X029521Y034681D01*
X029499Y034638D01*
X029473Y034597D01*
X029443Y034559D01*
X029411Y034523D01*
X029376Y034490D01*
X029338Y034460D01*
X029298Y034433D01*
X029256Y034410D01*
X029212Y034390D01*
X029167Y034373D01*
X029121Y034361D01*
X029073Y034352D01*
X029025Y034347D01*
X028977Y034346D01*
X028929Y034349D01*
X028881Y034356D01*
X028834Y034367D01*
X028788Y034381D01*
X028743Y034399D01*
X028700Y034421D01*
X028659Y034446D01*
X028621Y034475D01*
X028584Y034507D01*
X028550Y034541D01*
X028520Y034578D01*
X028492Y034617D01*
X028467Y034659D01*
X028447Y034703D01*
X028429Y034748D01*
X028416Y034794D01*
X028406Y034841D01*
X028400Y034889D01*
X028398Y034937D01*
X028398Y031905D02*
X028400Y031953D01*
X028406Y032001D01*
X028416Y032048D01*
X028429Y032094D01*
X028447Y032139D01*
X028467Y032183D01*
X028492Y032225D01*
X028520Y032264D01*
X028550Y032301D01*
X028584Y032335D01*
X028621Y032367D01*
X028659Y032396D01*
X028700Y032421D01*
X028743Y032443D01*
X028788Y032461D01*
X028834Y032475D01*
X028881Y032486D01*
X028929Y032493D01*
X028977Y032496D01*
X029025Y032495D01*
X029073Y032490D01*
X029121Y032481D01*
X029167Y032469D01*
X029212Y032452D01*
X029256Y032432D01*
X029298Y032409D01*
X029338Y032382D01*
X029376Y032352D01*
X029411Y032319D01*
X029443Y032283D01*
X029473Y032245D01*
X029499Y032204D01*
X029521Y032161D01*
X029541Y032117D01*
X029556Y032072D01*
X029568Y032025D01*
X029576Y031977D01*
X029580Y031929D01*
X029580Y031881D01*
X029576Y031833D01*
X029568Y031785D01*
X029556Y031738D01*
X029541Y031693D01*
X029521Y031649D01*
X029499Y031606D01*
X029473Y031565D01*
X029443Y031527D01*
X029411Y031491D01*
X029376Y031458D01*
X029338Y031428D01*
X029298Y031401D01*
X029256Y031378D01*
X029212Y031358D01*
X029167Y031341D01*
X029121Y031329D01*
X029073Y031320D01*
X029025Y031315D01*
X028977Y031314D01*
X028929Y031317D01*
X028881Y031324D01*
X028834Y031335D01*
X028788Y031349D01*
X028743Y031367D01*
X028700Y031389D01*
X028659Y031414D01*
X028621Y031443D01*
X028584Y031475D01*
X028550Y031509D01*
X028520Y031546D01*
X028492Y031585D01*
X028467Y031627D01*
X028447Y031671D01*
X028429Y031716D01*
X028416Y031762D01*
X028406Y031809D01*
X028400Y031857D01*
X028398Y031905D01*
D21*
X026711Y035213D02*
X026788Y035289D01*
X026788Y035366D01*
X026711Y035443D01*
X026327Y035443D01*
X026327Y035519D02*
X026327Y035366D01*
X026557Y035673D02*
X026557Y035980D01*
X026327Y035903D02*
X026557Y035673D01*
X026788Y035903D02*
X026327Y035903D01*
X003339Y052114D02*
X003032Y052114D01*
X003186Y052114D02*
X003186Y052574D01*
X003032Y052421D01*
X002879Y052574D02*
X002725Y052574D01*
X002802Y052574D02*
X002802Y052191D01*
X002725Y052114D01*
X002648Y052114D01*
X002572Y052191D01*
X011968Y054588D02*
X011968Y054938D01*
X012143Y054938D01*
X012201Y054880D01*
X012201Y054763D01*
X012143Y054705D01*
X011968Y054705D01*
X012084Y054705D02*
X012201Y054588D01*
X012327Y054588D02*
X012560Y054588D01*
X012444Y054588D02*
X012444Y054938D01*
X012327Y054822D01*
X054402Y042785D02*
X054479Y042709D01*
X054556Y042709D01*
X054633Y042785D01*
X054633Y043169D01*
X054709Y043169D02*
X054556Y043169D01*
X054863Y043092D02*
X054940Y043169D01*
X055093Y043169D01*
X055170Y043092D01*
X055170Y043016D01*
X055093Y042939D01*
X055170Y042862D01*
X055170Y042785D01*
X055093Y042709D01*
X054940Y042709D01*
X054863Y042785D01*
X055016Y042939D02*
X055093Y042939D01*
X065662Y042549D02*
X065739Y042472D01*
X065816Y042472D01*
X065892Y042549D01*
X065892Y042933D01*
X065816Y042933D02*
X065969Y042933D01*
X066123Y042856D02*
X066199Y042933D01*
X066353Y042933D01*
X066430Y042856D01*
X066430Y042779D01*
X066123Y042472D01*
X066430Y042472D01*
X074127Y041258D02*
X074413Y041258D01*
X074253Y041267D02*
X074253Y041477D01*
X074255Y041502D01*
X074260Y041527D01*
X074269Y041551D01*
X074281Y041573D01*
X074296Y041593D01*
X074314Y041611D01*
X074334Y041626D01*
X074356Y041638D01*
X074380Y041647D01*
X074405Y041652D01*
X074430Y041654D01*
X074666Y041654D01*
X074666Y041798D01*
X074667Y041798D02*
X074669Y041814D01*
X074673Y041830D01*
X074681Y041845D01*
X074692Y041857D01*
X074704Y041868D01*
X074719Y041876D01*
X074735Y041880D01*
X074751Y041882D01*
X076311Y041882D01*
X076326Y041881D01*
X076340Y041876D01*
X076353Y041869D01*
X076365Y041860D01*
X076374Y041848D01*
X076381Y041835D01*
X076386Y041821D01*
X076387Y041806D01*
X076387Y041654D01*
X077314Y041654D01*
X077323Y041781D02*
X077323Y041494D01*
X076091Y041494D01*
X076058Y041528D01*
X076058Y041705D01*
X075341Y041705D01*
X075341Y041545D01*
X075442Y041359D01*
X075434Y041351D02*
X075518Y041579D01*
X075889Y041579D01*
X075940Y041351D01*
X076049Y041553D01*
X076091Y041494D02*
X075957Y041334D01*
X075425Y041334D01*
X075290Y041494D01*
X074666Y041494D01*
X074666Y041654D01*
X074666Y041494D02*
X074489Y041494D01*
X074474Y041492D01*
X074460Y041487D01*
X074447Y041479D01*
X074437Y041469D01*
X074429Y041456D01*
X074424Y041442D01*
X074422Y041427D01*
X074127Y041259D02*
X074108Y041257D01*
X074089Y041252D01*
X074072Y041244D01*
X074056Y041233D01*
X074043Y041220D01*
X074032Y041204D01*
X074024Y041187D01*
X074019Y041168D01*
X074017Y041149D01*
X074430Y040811D02*
X074531Y040702D01*
X074692Y040499D02*
X074692Y041005D01*
X074751Y041132D02*
X074886Y041014D01*
X074886Y040651D01*
X074700Y040499D01*
X074692Y040499D01*
X074700Y040499D02*
X079034Y040499D01*
X078824Y040651D01*
X074886Y040651D01*
X074691Y041005D02*
X074693Y041033D01*
X074698Y041060D01*
X074707Y041086D01*
X074719Y041111D01*
X074735Y041133D01*
X074753Y041154D01*
X074774Y041172D01*
X074796Y041188D01*
X074821Y041200D01*
X074847Y041209D01*
X074874Y041214D01*
X074902Y041216D01*
X075290Y041494D02*
X075341Y041545D01*
X076387Y041494D02*
X076387Y041654D01*
X077323Y041494D02*
X077626Y041494D01*
X077668Y041553D01*
X077769Y041376D01*
X077837Y041595D01*
X078200Y041595D01*
X078275Y041351D01*
X078284Y041343D02*
X077761Y041343D01*
X077626Y041494D01*
X077668Y041553D02*
X077668Y041697D01*
X077669Y041704D01*
X077673Y041709D01*
X077678Y041713D01*
X077685Y041714D01*
X078326Y041714D01*
X078326Y041713D02*
X078339Y041712D01*
X078352Y041707D01*
X078363Y041700D01*
X078372Y041691D01*
X078379Y041680D01*
X078384Y041667D01*
X078385Y041654D01*
X078385Y041553D01*
X078419Y041494D01*
X078419Y041494D01*
X079220Y041494D01*
X079279Y041655D02*
X079305Y041653D01*
X079331Y041647D01*
X079356Y041638D01*
X079380Y041625D01*
X079401Y041610D01*
X079420Y041591D01*
X079435Y041570D01*
X079448Y041546D01*
X079457Y041521D01*
X079463Y041495D01*
X079465Y041469D01*
X079464Y041469D02*
X079464Y041267D01*
X079599Y041258D02*
X079304Y041258D01*
X079304Y041410D01*
X079302Y041426D01*
X079298Y041442D01*
X079290Y041457D01*
X079279Y041469D01*
X079267Y041480D01*
X079252Y041488D01*
X079236Y041492D01*
X079220Y041494D01*
X079279Y041654D02*
X079043Y041654D01*
X079043Y041494D01*
X079043Y041654D02*
X079043Y041815D01*
X079042Y041815D02*
X079040Y041830D01*
X079035Y041844D01*
X079027Y041857D01*
X079017Y041867D01*
X079004Y041875D01*
X078990Y041880D01*
X078975Y041882D01*
X077424Y041882D01*
X077406Y041880D01*
X077389Y041876D01*
X077374Y041868D01*
X077359Y041858D01*
X077347Y041846D01*
X077337Y041832D01*
X077329Y041816D01*
X077325Y041799D01*
X077323Y041781D01*
X078275Y041393D02*
X078377Y041570D01*
X078419Y041486D02*
X078284Y041343D01*
X078781Y041216D02*
X078811Y041214D01*
X078842Y041209D01*
X078871Y041200D01*
X078899Y041187D01*
X078925Y041171D01*
X078949Y041152D01*
X078970Y041131D01*
X078989Y041107D01*
X079005Y041081D01*
X079018Y041053D01*
X079027Y041024D01*
X079032Y040993D01*
X079034Y040963D01*
X079034Y040499D01*
X078824Y040651D02*
X078832Y041014D01*
X078958Y041123D01*
X079296Y040820D02*
X079186Y040719D01*
X079683Y041174D02*
X079681Y041190D01*
X079677Y041206D01*
X079669Y041221D01*
X079658Y041233D01*
X079646Y041244D01*
X079631Y041252D01*
X079615Y041256D01*
X079599Y041258D01*
X078486Y040482D02*
X078486Y039985D01*
X077963Y039985D01*
X077963Y040482D01*
X077517Y040491D02*
X077508Y040491D01*
X077508Y039985D01*
X076994Y039985D01*
X076994Y040474D01*
X076724Y040482D02*
X076724Y039985D01*
X076210Y039985D01*
X076210Y040491D01*
X075746Y040491D02*
X075746Y039985D01*
X075231Y039985D01*
X075231Y040491D01*
X075434Y039664D02*
X075299Y039496D01*
X075307Y039487D02*
X075341Y039445D01*
X075341Y039327D01*
X075343Y039314D01*
X075348Y039301D01*
X075356Y039291D01*
X075367Y039283D01*
X075379Y039278D01*
X075392Y039276D01*
X075392Y039277D02*
X075999Y039277D01*
X076012Y039278D01*
X076025Y039283D01*
X076036Y039290D01*
X076045Y039299D01*
X076052Y039310D01*
X076057Y039323D01*
X076058Y039336D01*
X076058Y039462D01*
X076091Y039496D01*
X075948Y039664D01*
X075434Y039664D01*
X075307Y039487D02*
X074666Y039487D01*
X074666Y039175D01*
X074667Y039175D02*
X074669Y039160D01*
X074674Y039146D01*
X074682Y039133D01*
X074692Y039123D01*
X074705Y039115D01*
X074719Y039110D01*
X074734Y039108D01*
X076311Y039108D01*
X076326Y039109D01*
X076340Y039114D01*
X076353Y039121D01*
X076365Y039130D01*
X076374Y039142D01*
X076381Y039155D01*
X076386Y039169D01*
X076387Y039184D01*
X076387Y039336D01*
X076387Y039496D01*
X077323Y039496D01*
X077618Y039496D01*
X077651Y039462D01*
X077651Y039336D01*
X077652Y039323D01*
X077657Y039310D01*
X077664Y039299D01*
X077673Y039290D01*
X077684Y039283D01*
X077697Y039278D01*
X077710Y039277D01*
X078318Y039277D01*
X078318Y039276D02*
X078331Y039278D01*
X078343Y039283D01*
X078354Y039291D01*
X078362Y039301D01*
X078367Y039314D01*
X078369Y039327D01*
X078368Y039327D02*
X078368Y039445D01*
X078402Y039487D01*
X079043Y039487D01*
X079043Y039496D02*
X079043Y039175D01*
X079042Y039175D02*
X079040Y039160D01*
X079035Y039146D01*
X079027Y039133D01*
X079017Y039123D01*
X079004Y039115D01*
X078990Y039110D01*
X078975Y039108D01*
X077390Y039108D01*
X077375Y039110D01*
X077361Y039115D01*
X077348Y039123D01*
X077338Y039133D01*
X077330Y039146D01*
X077325Y039160D01*
X077323Y039175D01*
X077323Y039496D01*
X077314Y039336D02*
X076387Y039336D01*
X076387Y039496D02*
X076091Y039496D01*
X077618Y039496D02*
X077761Y039664D01*
X078275Y039664D01*
X078410Y039496D01*
X079143Y039016D02*
X079450Y038555D01*
X079603Y038555D02*
X079910Y038862D01*
X079910Y038939D01*
X079833Y039016D01*
X079680Y039016D01*
X079603Y038939D01*
X079450Y039016D02*
X079143Y038555D01*
X079603Y038555D02*
X079910Y038555D01*
D22*
X007831Y048519D02*
X007831Y049169D01*
X007634Y049169D02*
X007634Y048519D01*
X007831Y048519D01*
X007044Y049019D02*
X007044Y051669D01*
X007634Y051669D01*
X007634Y051019D01*
X007831Y051019D02*
X007831Y051669D01*
X007634Y051669D01*
X007044Y051669D02*
X007044Y051866D01*
X002319Y051866D01*
X002319Y051354D01*
X002713Y051354D01*
X002319Y051354D02*
X002319Y048834D01*
X002713Y048834D01*
X002319Y048834D02*
X002319Y048322D01*
X005544Y048322D01*
X005469Y048834D02*
X005863Y048834D01*
X005863Y049070D01*
X005863Y049464D02*
X005863Y049700D01*
X005863Y050488D01*
X005863Y050724D01*
X005863Y051118D02*
X005863Y051354D01*
X005469Y051354D01*
X005075Y051354D02*
X004682Y051354D01*
X004288Y051354D02*
X003894Y051354D01*
X003697Y051669D02*
X007044Y051669D01*
X003697Y051669D02*
X003697Y051866D01*
X003697Y051669D02*
X003697Y048322D01*
X003501Y048834D02*
X003107Y048834D01*
X003894Y048834D02*
X004288Y048834D01*
X004682Y048834D02*
X005075Y048834D01*
X003107Y049700D02*
X003068Y049702D01*
X003030Y049708D01*
X002993Y049717D01*
X002956Y049730D01*
X002921Y049747D01*
X002888Y049766D01*
X002857Y049789D01*
X002828Y049815D01*
X002802Y049844D01*
X002779Y049875D01*
X002760Y049908D01*
X002743Y049943D01*
X002730Y049980D01*
X002721Y050017D01*
X002715Y050055D01*
X002713Y050094D01*
X002715Y050133D01*
X002721Y050171D01*
X002730Y050208D01*
X002743Y050245D01*
X002760Y050280D01*
X002779Y050313D01*
X002802Y050344D01*
X002828Y050373D01*
X002857Y050399D01*
X002888Y050422D01*
X002921Y050441D01*
X002956Y050458D01*
X002993Y050471D01*
X003030Y050480D01*
X003068Y050486D01*
X003107Y050488D01*
X003107Y051354D02*
X003501Y051354D01*
D23*
X003442Y054929D03*
X003192Y054929D03*
X002942Y054929D03*
X002942Y055929D03*
X003192Y055929D03*
X003442Y055929D03*
D24*
X010591Y055468D03*
X012741Y055468D03*
M02*
