G75*
G70*
%OFA0B0*%
%FSLAX24Y24*%
%IPPOS*%
%LPD*%
%AMOC8*
5,1,8,0,0,1.08239X$1,22.5*
%
%ADD10C,0.0051*%
%ADD11C,0.0110*%
%ADD12C,0.0520*%
%ADD13OC8,0.0520*%
%ADD14OC8,0.0630*%
%ADD15C,0.0520*%
%ADD16C,0.0554*%
%ADD17C,0.0560*%
%ADD18C,0.1306*%
%ADD19C,0.0860*%
%ADD20C,0.0660*%
%ADD21C,0.0320*%
%ADD22C,0.0300*%
%ADD23C,0.0400*%
%ADD24R,0.0396X0.0396*%
%ADD25C,0.0160*%
%ADD26C,0.0500*%
D10*
X059552Y-079615D02*
X060576Y-079717D01*
X060576Y-079741D02*
X059552Y-079615D01*
X060576Y-079513D01*
X060576Y-079489D02*
X060576Y-079741D01*
X060576Y-079666D02*
X059552Y-079615D01*
X060576Y-079564D01*
X060576Y-079489D02*
X059552Y-079615D01*
X065851Y-079615D01*
X065954Y-078591D01*
X065977Y-078591D02*
X065851Y-079615D01*
X065749Y-078591D01*
X065726Y-078591D02*
X065977Y-078591D01*
X065903Y-078591D02*
X065851Y-079615D01*
X065800Y-078591D01*
X065726Y-078591D02*
X065851Y-079615D01*
X065851Y-042607D01*
X064828Y-042709D01*
X064828Y-042733D02*
X065851Y-042607D01*
X064828Y-042505D01*
X064828Y-042481D02*
X064828Y-042733D01*
X064828Y-042658D02*
X065851Y-042607D01*
X064828Y-042556D01*
X064828Y-042481D02*
X065851Y-042607D01*
X059552Y-042607D01*
X060576Y-042709D01*
X060576Y-042733D02*
X059552Y-042607D01*
X060576Y-042505D01*
X060576Y-042481D02*
X060576Y-042733D01*
X060576Y-042658D02*
X059552Y-042607D01*
X060576Y-042556D01*
X060576Y-042481D02*
X059552Y-042607D01*
X059552Y-042607D01*
X059552Y-079615D02*
X059552Y-079615D01*
X064828Y-079666D02*
X065851Y-079615D01*
X065851Y-079615D01*
X064828Y-079717D01*
X064828Y-079741D02*
X065851Y-079615D01*
X064828Y-079513D01*
X064828Y-079489D02*
X064828Y-079741D01*
X064828Y-079564D02*
X065851Y-079615D01*
X064828Y-079489D01*
X065851Y-079615D02*
X065851Y-079615D01*
X065800Y-043631D02*
X065851Y-042607D01*
X065851Y-042607D01*
X065954Y-043631D01*
X065977Y-043631D02*
X065851Y-042607D01*
X065749Y-043631D01*
X065726Y-043631D02*
X065977Y-043631D01*
X065903Y-043631D02*
X065851Y-042607D01*
X065726Y-043631D01*
X065851Y-042607D02*
X065851Y-042607D01*
D11*
X064768Y-060038D02*
X064768Y-060884D01*
X064134Y-060249D01*
X065403Y-060249D01*
X065191Y-061306D02*
X064345Y-061306D01*
X064134Y-061518D01*
X064134Y-061941D01*
X064345Y-062152D01*
X064557Y-062152D01*
X064768Y-061941D01*
X064768Y-061306D01*
X065191Y-061306D02*
X065403Y-061518D01*
X065403Y-061941D01*
X065191Y-062152D01*
X063775Y-077897D02*
X063352Y-078109D01*
X062929Y-078532D01*
X063564Y-078532D01*
X063775Y-078743D01*
X063775Y-078955D01*
X063564Y-079166D01*
X063141Y-079166D01*
X062929Y-078955D01*
X062929Y-078532D01*
X062506Y-079166D02*
X061660Y-079166D01*
X062083Y-079166D02*
X062083Y-077897D01*
X061660Y-078320D01*
X061660Y-042158D02*
X062506Y-042158D01*
X062083Y-042158D02*
X062083Y-040889D01*
X061660Y-041312D01*
X062929Y-041524D02*
X063564Y-041524D01*
X063775Y-041735D01*
X063775Y-041947D01*
X063564Y-042158D01*
X063141Y-042158D01*
X062929Y-041947D01*
X062929Y-041524D01*
X063352Y-041101D01*
X063775Y-040889D01*
D12*
X073370Y046480D02*
X073890Y046480D01*
X075870Y046480D02*
X076390Y046480D01*
X076390Y048480D02*
X075870Y048480D01*
X073890Y048480D02*
X073370Y048480D01*
X083217Y048468D02*
X083217Y047948D01*
X084217Y047948D02*
X084217Y048468D01*
X085217Y048468D02*
X085217Y047948D01*
X086217Y047948D02*
X086217Y048468D01*
X087217Y048468D02*
X087217Y047948D01*
X088217Y047948D02*
X088217Y048468D01*
X089217Y048468D02*
X089217Y047948D01*
X090217Y047948D02*
X090217Y048468D01*
X091217Y048468D02*
X091217Y047948D01*
X092217Y047948D02*
X092217Y048468D01*
X093217Y048468D02*
X093217Y047948D01*
X094217Y047948D02*
X094217Y048468D01*
X095217Y048468D02*
X095217Y047948D01*
X096217Y047948D02*
X096217Y048468D01*
X096217Y050948D02*
X096217Y051468D01*
X095217Y051468D02*
X095217Y050948D01*
X094217Y050948D02*
X094217Y051468D01*
X093217Y051468D02*
X093217Y050948D01*
X092217Y050948D02*
X092217Y051468D01*
X091217Y051468D02*
X091217Y050948D01*
X090217Y050948D02*
X090217Y051468D01*
X089217Y051468D02*
X089217Y050948D01*
X088217Y050948D02*
X088217Y051468D01*
X087217Y051468D02*
X087217Y050948D01*
X086217Y050948D02*
X086217Y051468D01*
X085217Y051468D02*
X085217Y050948D01*
X084217Y050948D02*
X084217Y051468D01*
X083217Y051468D02*
X083217Y050948D01*
X041150Y051196D02*
X041150Y051716D01*
X040150Y051716D02*
X040150Y051196D01*
X039150Y051196D02*
X039150Y051716D01*
X038150Y051716D02*
X038150Y051196D01*
X037150Y051196D02*
X037150Y051716D01*
X036150Y051716D02*
X036150Y051196D01*
X035150Y051196D02*
X035150Y051716D01*
X034150Y051716D02*
X034150Y051196D01*
X034150Y048716D02*
X034150Y048196D01*
X035150Y048196D02*
X035150Y048716D01*
X036150Y048716D02*
X036150Y048196D01*
X037150Y048196D02*
X037150Y048716D01*
X038150Y048716D02*
X038150Y048196D01*
X039150Y048196D02*
X039150Y048716D01*
X040150Y048716D02*
X040150Y048196D01*
X041150Y048196D02*
X041150Y048716D01*
X004627Y054929D02*
X004107Y054929D01*
X004107Y056429D02*
X004627Y056429D01*
X002127Y056429D02*
X001607Y056429D01*
X001607Y054929D02*
X002127Y054929D01*
D13*
X010166Y055468D03*
X013166Y055468D03*
X076182Y055484D03*
X080182Y055484D03*
X090308Y053378D03*
X091308Y053378D03*
X097371Y052421D03*
X097371Y056421D03*
D14*
X086847Y043909D03*
X086847Y042909D03*
X096296Y042547D03*
X096296Y043547D03*
D15*
X092533Y043342D03*
X090633Y043342D03*
D16*
X078237Y040980D03*
X077252Y040980D03*
X076465Y040980D03*
X075481Y040980D03*
X040026Y055767D03*
X039026Y055767D03*
X038026Y055767D03*
X037026Y055767D03*
X036526Y054767D03*
X037526Y054767D03*
X038526Y054767D03*
X039526Y054767D03*
D17*
X047606Y053819D02*
X048166Y053819D01*
X048166Y052819D02*
X047606Y052819D01*
X047606Y051819D02*
X048166Y051819D01*
X048166Y050819D02*
X047606Y050819D01*
X055858Y051007D02*
X056418Y051007D01*
X056418Y050295D02*
X055858Y050295D01*
X055858Y049295D02*
X056418Y049295D01*
X056418Y048295D02*
X055858Y048295D01*
X055858Y047295D02*
X056418Y047295D01*
X056418Y052007D02*
X055858Y052007D01*
X055858Y053007D02*
X056418Y053007D01*
X056418Y054007D02*
X055858Y054007D01*
X054898Y056763D02*
X054898Y057323D01*
X053898Y057323D02*
X053898Y056763D01*
X052898Y056763D02*
X052898Y057323D01*
X051898Y057323D02*
X051898Y056763D01*
X039505Y043295D02*
X038945Y043295D01*
X037143Y043295D02*
X036583Y043295D01*
X033993Y043295D02*
X033433Y043295D01*
X033433Y041295D02*
X033993Y041295D01*
X036583Y041295D02*
X037143Y041295D01*
X038945Y041295D02*
X039505Y041295D01*
X039505Y039295D02*
X038945Y039295D01*
X037143Y039295D02*
X036583Y039295D01*
X033993Y039295D02*
X033433Y039295D01*
X028481Y050031D02*
X027921Y050031D01*
X029496Y050819D02*
X030056Y050819D01*
X030056Y051819D02*
X029496Y051819D01*
X029496Y052819D02*
X030056Y052819D01*
X030056Y053819D02*
X029496Y053819D01*
X028481Y053031D02*
X027921Y053031D01*
X027921Y052031D02*
X028481Y052031D01*
X028481Y051031D02*
X027921Y051031D01*
X027701Y058338D02*
X027701Y058898D01*
X026701Y058898D02*
X026701Y058338D01*
X028701Y058338D02*
X028701Y058898D01*
X029701Y058898D02*
X029701Y058338D01*
X015883Y053031D02*
X015323Y053031D01*
X015323Y052031D02*
X015883Y052031D01*
X015883Y051031D02*
X015323Y051031D01*
X015323Y050031D02*
X015883Y050031D01*
X011378Y047087D02*
X011378Y046527D01*
X010378Y046527D02*
X010378Y047087D01*
X010378Y058338D02*
X010378Y058898D01*
X009378Y058898D02*
X009378Y058338D01*
X011378Y058338D02*
X011378Y058898D01*
X012378Y058898D02*
X012378Y058338D01*
X004292Y058338D02*
X004292Y058898D01*
X003292Y058898D02*
X003292Y058338D01*
X009811Y030771D02*
X010371Y030771D01*
X010371Y029771D02*
X009811Y029771D01*
X009811Y026259D02*
X010371Y026259D01*
X010371Y025259D02*
X009811Y025259D01*
X009811Y024259D02*
X010371Y024259D01*
X010371Y023259D02*
X009811Y023259D01*
X009811Y020535D02*
X010371Y020535D01*
X010371Y019535D02*
X009811Y019535D01*
D18*
X074272Y039913D03*
X079445Y039913D03*
D19*
X007733Y049664D02*
X007733Y050524D01*
X005371Y050524D02*
X005371Y049664D01*
X006122Y048204D02*
X006982Y048204D01*
D20*
X027288Y035783D03*
X027288Y034602D03*
X027288Y033421D03*
X027288Y032240D03*
X027288Y031059D03*
X050249Y042208D03*
X051430Y042208D03*
X052611Y042208D03*
X053792Y042208D03*
X054973Y042208D03*
X061508Y041972D03*
X062690Y041972D03*
X063871Y041972D03*
X065052Y041972D03*
X066233Y041972D03*
D21*
X063871Y041972D02*
X063634Y042082D01*
X063634Y042870D01*
X062847Y042870D01*
X062847Y043657D01*
X062060Y042602D02*
X062690Y041972D01*
X061272Y042870D02*
X058910Y042870D01*
X061272Y042870D02*
X061272Y043657D01*
X061548Y047161D02*
X056548Y052161D01*
X056048Y052161D02*
X049548Y052161D01*
X048048Y053661D01*
X044737Y053661D02*
X044686Y053661D01*
X043162Y053106D02*
X043162Y059405D01*
X034501Y059405D01*
X034501Y058618D01*
X029701Y058618D01*
X029048Y057661D02*
X031048Y057661D01*
X031048Y053161D01*
X033548Y050661D01*
X034548Y050661D01*
X034548Y050161D02*
X032548Y050161D01*
X030048Y052661D01*
X029548Y053661D02*
X026048Y053661D01*
X026048Y049161D01*
X028048Y047161D01*
X040048Y047161D01*
X041048Y048161D01*
X042048Y051161D02*
X042048Y056661D01*
X040048Y056661D01*
X039048Y055661D01*
X040048Y055661D02*
X041048Y055661D01*
X041048Y051661D01*
X039048Y051661D02*
X039048Y054661D01*
X037548Y054661D02*
X037048Y054161D01*
X034548Y050161D02*
X036048Y048661D01*
X033548Y049161D02*
X028048Y049161D01*
X027048Y050161D01*
X027048Y051161D02*
X028048Y051161D01*
X034048Y043161D02*
X036548Y043161D01*
X036863Y043295D02*
X037048Y043161D01*
X039048Y043161D01*
X039650Y039720D02*
X039225Y039295D01*
X051036Y042602D02*
X051430Y042208D01*
X061548Y047161D02*
X073048Y047161D01*
X073548Y046661D01*
X074048Y046661D02*
X074048Y042661D01*
X075548Y041161D01*
X076548Y041161D02*
X076548Y045661D01*
X076048Y047161D02*
X083048Y047161D01*
X077048Y041161D01*
X078048Y041161D02*
X083548Y046661D01*
X088048Y046661D01*
X089048Y047661D01*
X089048Y048161D01*
X089048Y048661D02*
X090048Y049661D01*
X091048Y050661D01*
X089548Y052161D02*
X083548Y058161D01*
X052772Y058161D01*
X051772Y057161D01*
X051823Y057043D02*
X051772Y056661D01*
X052772Y056661D02*
X053772Y055661D01*
X053772Y056661D02*
X053898Y057043D01*
X054772Y057161D02*
X055272Y057661D01*
X054973Y054681D02*
X060485Y054681D01*
X061272Y056161D02*
X077048Y056161D01*
X077048Y053661D01*
X081548Y049161D01*
X083048Y048661D02*
X076548Y048661D01*
X076048Y048661D02*
X076048Y055661D01*
X074048Y049161D02*
X076048Y047161D01*
X074548Y047661D02*
X064422Y047661D01*
X062048Y047661D02*
X056548Y053161D01*
X056138Y053007D01*
X055048Y053161D02*
X055048Y054161D01*
X056548Y054161D02*
X061548Y049161D01*
X062060Y049161D02*
X074048Y049161D01*
X083048Y047161D02*
X085048Y047161D01*
X085048Y048161D01*
X088170Y045232D02*
X089619Y045232D01*
X090406Y046019D01*
X090406Y048381D01*
X090048Y048161D02*
X094548Y043661D01*
X095548Y044661D02*
X097548Y044661D01*
X097548Y041161D01*
X091548Y041161D01*
X090048Y042661D01*
X090048Y044161D01*
X091548Y044161D01*
X092548Y043161D01*
X092048Y041661D02*
X090548Y043161D01*
X092048Y041661D02*
X094343Y041661D01*
X096548Y041661D01*
X097048Y042161D02*
X097048Y044161D01*
X094343Y039720D02*
X088044Y039720D01*
X087256Y040507D01*
X087256Y042500D01*
X078048Y040161D02*
X075548Y040161D01*
X027048Y042161D02*
X027048Y035661D01*
X026548Y034661D02*
X026548Y041661D01*
X025839Y041295D02*
X025839Y034208D01*
X026627Y033421D01*
X027414Y033421D01*
X011548Y045661D02*
X010548Y045661D01*
X011548Y055661D02*
X013048Y055661D01*
D22*
X013166Y055468D01*
X010166Y055468D02*
X010048Y055661D01*
X010548Y058161D02*
X010378Y058618D01*
X011378Y058618D02*
X011548Y058161D01*
X012378Y058618D02*
X012548Y058161D01*
X004548Y058661D02*
X004292Y058618D01*
X004548Y056661D02*
X004367Y056429D01*
X004548Y055161D02*
X004367Y054929D01*
X004548Y050161D02*
X005048Y050161D01*
X005548Y049661D02*
X006548Y049661D01*
X007548Y048661D01*
X008048Y049661D02*
X009048Y049661D01*
X007733Y050094D02*
X007548Y050161D01*
X010548Y047161D02*
X010378Y046807D01*
X010548Y046661D01*
X026548Y049661D02*
X026548Y053161D01*
X028048Y053161D01*
X028201Y053031D01*
X029548Y053661D02*
X029776Y053819D01*
X029776Y052819D02*
X030048Y052661D01*
X028201Y051031D02*
X028048Y051161D01*
X027048Y051161D02*
X027048Y050161D01*
X026548Y049661D02*
X028548Y047661D01*
X038548Y047661D01*
X039048Y048161D01*
X041548Y050661D02*
X036548Y050661D01*
X036048Y051161D01*
X036150Y051456D01*
X035048Y051161D02*
X034548Y050661D01*
X033548Y049161D02*
X034048Y048661D01*
X041548Y050661D02*
X042048Y051161D01*
X044686Y053661D02*
X047548Y053661D01*
X047886Y053819D01*
X048048Y053661D01*
X047886Y050819D02*
X048048Y050661D01*
X048548Y050161D01*
X052048Y050161D01*
X051823Y049956D01*
X051823Y049169D01*
X050249Y049169D01*
X050249Y044448D01*
X052048Y044448D01*
X065335Y044448D01*
X065997Y044444D01*
X065997Y042161D01*
X066048Y042161D01*
X066233Y041972D01*
X066048Y042161D02*
X073548Y042161D01*
X075548Y040161D01*
X075481Y040980D02*
X075548Y041161D01*
X076465Y040980D02*
X076548Y041161D01*
X077048Y041161D02*
X077252Y040980D01*
X078048Y041161D02*
X078048Y040161D01*
X078237Y040980D02*
X078048Y041161D01*
X076548Y045661D02*
X075548Y045661D01*
X074548Y046661D01*
X074548Y047661D01*
X074048Y046661D02*
X073630Y046480D01*
X073548Y046661D01*
X076130Y048480D02*
X076048Y048661D01*
X076130Y048480D02*
X076548Y048661D01*
X080048Y051661D02*
X080548Y051661D01*
X082548Y049661D01*
X090048Y049661D01*
X090548Y049161D02*
X090048Y048661D01*
X090217Y048208D01*
X090048Y048161D01*
X089217Y048208D02*
X089048Y048661D01*
X089217Y048208D02*
X089048Y048161D01*
X090548Y049161D02*
X093048Y049161D01*
X093048Y051161D01*
X093217Y051208D01*
X093048Y051661D01*
X091217Y051208D02*
X091048Y051161D01*
X089548Y052161D02*
X089048Y051661D01*
X089217Y051208D01*
X091048Y048161D02*
X091217Y048208D01*
X092048Y048161D02*
X092217Y048208D01*
X095048Y044161D02*
X097048Y044161D01*
X096296Y043547D02*
X096048Y043661D01*
X094548Y043661D01*
X096048Y042661D02*
X096296Y042547D01*
X097048Y042161D02*
X096548Y041661D01*
X093048Y042661D02*
X092548Y043161D01*
X092533Y043342D01*
X090633Y043342D02*
X090548Y043161D01*
X085217Y048208D02*
X085048Y048161D01*
X084217Y048208D02*
X084048Y048661D01*
X083548Y049161D01*
X081548Y049161D01*
X083048Y048661D02*
X083217Y048208D01*
X083048Y050161D02*
X081048Y052161D01*
X081048Y057161D01*
X056272Y057161D01*
X055272Y056161D01*
X054272Y056161D01*
X053772Y056661D01*
X052898Y057043D02*
X052772Y056661D01*
X051898Y057043D02*
X051772Y057161D01*
X051898Y057043D02*
X051772Y056661D01*
X053772Y055661D02*
X056548Y055661D01*
X056548Y056256D01*
X060485Y056256D01*
X061272Y056661D01*
X079048Y056661D01*
X080048Y055661D01*
X080182Y055484D01*
X080048Y055661D02*
X080048Y051661D01*
X083048Y051661D02*
X083217Y051208D01*
X084048Y051161D02*
X084217Y051208D01*
X084048Y051161D02*
X084048Y050161D01*
X083048Y050161D01*
X076182Y055484D02*
X076048Y055661D01*
X083048Y057661D02*
X055272Y057661D01*
X054772Y057161D02*
X054898Y057043D01*
X054973Y054681D02*
X055048Y054161D01*
X056138Y054007D02*
X056548Y054161D01*
X056048Y053161D02*
X055048Y053161D01*
X056048Y053161D02*
X056138Y053007D01*
X056048Y052161D02*
X056138Y052007D01*
X056548Y052161D01*
X056138Y050295D02*
X056048Y050161D01*
X052048Y050161D01*
X060485Y054681D02*
X061272Y054948D01*
X061272Y056161D01*
X061548Y049161D02*
X062060Y049161D01*
X062048Y047661D02*
X064422Y047661D01*
X064048Y043948D02*
X065048Y042161D01*
X065052Y041972D01*
X064048Y043948D02*
X055048Y043948D01*
X054048Y042161D01*
X053792Y042208D01*
X054048Y041161D02*
X055048Y042161D01*
X054973Y042208D01*
X054048Y041161D02*
X052611Y041161D01*
X052548Y041161D01*
X052048Y041661D01*
X052048Y044448D01*
X050548Y042161D02*
X050249Y042208D01*
X050048Y042161D01*
X050548Y042161D02*
X052048Y040661D01*
X060548Y040661D01*
X061548Y041661D01*
X061508Y041972D01*
X039548Y041161D02*
X039225Y041295D01*
X039048Y041161D01*
X037048Y041161D02*
X036863Y041295D01*
X036548Y041161D01*
X034048Y041161D02*
X033713Y041295D01*
X033548Y041161D01*
X034048Y043161D02*
X033713Y043295D01*
X039048Y043161D02*
X039225Y043295D01*
X027048Y034661D02*
X026548Y034661D01*
X027048Y031161D02*
X027288Y031059D01*
X010548Y030661D02*
X010091Y030771D01*
X010091Y024259D02*
X010548Y024161D01*
X036548Y054161D02*
X037048Y054161D01*
X037548Y054661D02*
X037526Y054767D01*
X039048Y054661D02*
X039548Y054661D01*
X039526Y054767D01*
X039048Y055661D02*
X039026Y055767D01*
X040026Y055767D02*
X040048Y055661D01*
X029048Y057661D02*
X028548Y058161D01*
X028701Y058618D01*
D23*
X034048Y051661D02*
X036548Y054161D01*
X044686Y053661D02*
X044686Y041161D01*
X049048Y041161D01*
X050048Y042161D01*
X052611Y039720D02*
X039650Y039720D01*
X039225Y039295D02*
X036863Y039295D01*
X036863Y040507D01*
X034926Y040507D01*
X033713Y039295D01*
X033548Y041161D02*
X041453Y041161D01*
X042375Y042082D01*
X042375Y045232D01*
X041587Y046019D01*
X027414Y046019D01*
X017737Y056122D01*
X014548Y056161D01*
X014548Y048661D01*
X011548Y045661D01*
X010548Y045661D02*
X010548Y046661D01*
X010548Y047161D02*
X009048Y048661D01*
X007548Y048661D01*
X007548Y050161D02*
X010878Y050161D01*
X010878Y052319D01*
X013241Y052319D01*
X013241Y054681D01*
X013048Y055661D01*
X014548Y056161D02*
X012548Y058161D01*
X011548Y058161D02*
X011548Y055661D01*
X010048Y055661D02*
X010048Y058161D01*
X010548Y058161D01*
X004548Y058661D02*
X004548Y056661D01*
X004548Y055161D02*
X004548Y050161D01*
X005048Y050161D02*
X005371Y050094D01*
X005548Y049661D01*
X009048Y049661D02*
X011548Y047161D01*
X016048Y050161D02*
X016048Y031161D01*
X027048Y031161D01*
X034048Y041161D02*
X036548Y041161D01*
X037048Y041161D02*
X039048Y041161D01*
X039548Y041161D02*
X044686Y041161D01*
X051036Y045232D02*
X062060Y045232D01*
X062060Y046019D02*
X058910Y046019D01*
X052611Y046019D01*
X044737Y053661D02*
X044737Y057043D01*
X051823Y057043D01*
X036863Y043295D02*
X036548Y043161D01*
X027048Y042161D02*
X016048Y053161D01*
X016048Y052161D02*
X026548Y041661D01*
X025839Y041295D02*
X016390Y050744D01*
X011048Y030661D02*
X010548Y030661D01*
X011048Y030661D02*
X011048Y029661D01*
X011335Y029161D01*
X011335Y026161D01*
X010091Y026259D01*
X010548Y024161D02*
X011048Y024161D01*
X011048Y023161D01*
X011335Y022661D01*
X011335Y020661D01*
X010091Y020535D01*
X083048Y051661D02*
X083048Y057661D01*
X089619Y052689D02*
X090308Y053378D01*
X089619Y052689D02*
X089619Y052319D01*
X089548Y052161D02*
X092548Y052161D01*
X093048Y051661D01*
X092217Y051208D02*
X091981Y050972D01*
X091981Y049956D01*
X091048Y050661D02*
X091048Y051161D01*
X091308Y053378D02*
X091981Y054051D01*
X091981Y056256D01*
X092146Y056421D02*
X097371Y056421D01*
X097493Y052319D02*
X098280Y051531D01*
X098280Y049956D01*
X095548Y044661D02*
X092048Y048161D01*
X091048Y048161D02*
X095048Y044161D01*
X096048Y042661D02*
X093048Y042661D01*
X088170Y045232D02*
X086847Y043909D01*
X086847Y042909D02*
X087256Y042500D01*
D24*
X094343Y041661D03*
X094343Y039720D03*
X091981Y049956D03*
X098280Y049956D03*
X064422Y047661D03*
X062060Y049161D03*
X062060Y046019D03*
X062060Y045232D03*
X064422Y043657D03*
X062060Y042602D03*
X058910Y042870D03*
X058910Y046019D03*
X052611Y046019D03*
X051036Y045232D03*
X051036Y042602D03*
X052611Y041161D03*
X052611Y039720D03*
X043162Y053106D03*
X040012Y053106D03*
D25*
X040012Y051594D02*
X040150Y051456D01*
X061272Y043657D02*
X062847Y043657D01*
X064048Y043948D02*
X064339Y043657D01*
X064422Y043657D01*
X091981Y056256D02*
X092146Y056421D01*
D26*
X029244Y001393D02*
X002749Y001393D01*
X002251Y001891D02*
X029742Y001891D01*
X029776Y001925D02*
X028201Y000350D01*
X003792Y000350D01*
X002217Y001925D01*
X002217Y054099D01*
X002292Y054099D01*
X002597Y054225D01*
X002830Y054459D01*
X002957Y054764D01*
X002957Y055094D01*
X002830Y055399D01*
X002597Y055632D01*
X002485Y055679D01*
X002597Y055725D01*
X002830Y055959D01*
X002957Y056264D01*
X002957Y056594D01*
X002830Y056899D01*
X002597Y057132D01*
X002292Y057259D01*
X002217Y057259D01*
X002217Y059405D01*
X002591Y059399D01*
X002571Y059379D01*
X002442Y059067D01*
X002442Y058169D01*
X002571Y057856D01*
X002810Y057617D01*
X003123Y057488D01*
X003461Y057488D01*
X003773Y057617D01*
X003778Y057622D01*
X003778Y057191D01*
X003637Y057132D01*
X003403Y056899D01*
X003277Y056594D01*
X003277Y056264D01*
X003403Y055959D01*
X003637Y055725D01*
X003748Y055679D01*
X003637Y055632D01*
X003403Y055399D01*
X003277Y055094D01*
X003277Y054764D01*
X003403Y054459D01*
X003637Y054225D01*
X003778Y054167D01*
X003778Y050008D01*
X003895Y049725D01*
X004112Y049508D01*
X004395Y049391D01*
X004401Y049391D01*
X004523Y049098D01*
X004804Y048816D01*
X005172Y048664D01*
X005230Y048664D01*
X005122Y048403D01*
X005122Y048005D01*
X005274Y047638D01*
X005555Y047357D01*
X005923Y047204D01*
X007181Y047204D01*
X007548Y047357D01*
X007829Y047638D01*
X007934Y047891D01*
X008729Y047891D01*
X009528Y047091D01*
X009528Y046358D01*
X009658Y046045D01*
X009778Y045925D01*
X009778Y045508D01*
X009895Y045225D01*
X010112Y045008D01*
X010395Y044891D01*
X010701Y044891D01*
X010797Y044931D01*
X011298Y044931D01*
X011395Y044891D01*
X011701Y044891D01*
X011984Y045008D01*
X014984Y048008D01*
X015201Y048225D01*
X015278Y048411D01*
X015278Y031008D01*
X015395Y030725D01*
X015612Y030508D01*
X015895Y030391D01*
X026683Y030391D01*
X026778Y030296D01*
X027109Y030159D01*
X027467Y030159D01*
X027798Y030296D01*
X028051Y030549D01*
X028188Y030880D01*
X028188Y030952D01*
X028227Y030912D01*
X028510Y030749D01*
X028825Y030665D01*
X029152Y030665D01*
X029468Y030749D01*
X029750Y030912D01*
X029776Y030938D01*
X029776Y001925D01*
X029776Y002390D02*
X002217Y002390D01*
X002217Y002888D02*
X029776Y002888D01*
X029776Y003387D02*
X002217Y003387D01*
X002217Y003885D02*
X029776Y003885D01*
X029776Y004384D02*
X002217Y004384D01*
X002217Y004882D02*
X029776Y004882D01*
X029776Y005381D02*
X002217Y005381D01*
X002217Y005879D02*
X029776Y005879D01*
X029776Y006378D02*
X002217Y006378D01*
X002217Y006876D02*
X029776Y006876D01*
X029776Y007375D02*
X002217Y007375D01*
X002217Y007873D02*
X029776Y007873D01*
X029776Y008372D02*
X002217Y008372D01*
X002217Y008870D02*
X029776Y008870D01*
X029776Y009369D02*
X002217Y009369D01*
X002217Y009867D02*
X029776Y009867D01*
X029776Y010366D02*
X002217Y010366D01*
X002217Y010864D02*
X029776Y010864D01*
X029776Y011363D02*
X002217Y011363D01*
X002217Y011861D02*
X029776Y011861D01*
X029776Y012360D02*
X002217Y012360D01*
X002217Y012858D02*
X029776Y012858D01*
X029776Y013357D02*
X002217Y013357D01*
X002217Y013855D02*
X029776Y013855D01*
X029776Y014354D02*
X002217Y014354D01*
X002217Y014852D02*
X029776Y014852D01*
X029776Y015351D02*
X002217Y015351D01*
X002217Y015849D02*
X029776Y015849D01*
X029776Y016348D02*
X002217Y016348D01*
X002217Y016846D02*
X029776Y016846D01*
X029776Y017345D02*
X002217Y017345D01*
X002217Y017843D02*
X029776Y017843D01*
X029776Y018342D02*
X002217Y018342D01*
X002217Y018840D02*
X009304Y018840D01*
X009330Y018814D02*
X009642Y018685D01*
X010540Y018685D01*
X010853Y018814D01*
X011092Y019054D01*
X011221Y019366D01*
X011221Y019704D01*
X011153Y019869D01*
X011374Y019891D01*
X011488Y019891D01*
X011525Y019906D01*
X011565Y019910D01*
X011666Y019965D01*
X011771Y020008D01*
X011800Y020037D01*
X011835Y020056D01*
X011907Y020144D01*
X011988Y020225D01*
X012003Y020262D01*
X012029Y020293D01*
X012061Y020402D01*
X012105Y020508D01*
X012105Y020548D01*
X012117Y020586D01*
X012105Y020700D01*
X012105Y022559D01*
X012118Y022608D01*
X012105Y022711D01*
X012105Y022814D01*
X012086Y022861D01*
X012079Y022912D01*
X012028Y023002D01*
X011988Y023097D01*
X011952Y023133D01*
X011818Y023367D01*
X011818Y024314D01*
X011701Y024597D01*
X011484Y024814D01*
X011201Y024931D01*
X011155Y024931D01*
X011221Y025090D01*
X011221Y025391D01*
X011305Y025391D01*
X011427Y025381D01*
X011457Y025391D01*
X011488Y025391D01*
X011602Y025438D01*
X011718Y025476D01*
X011742Y025496D01*
X011771Y025508D01*
X011858Y025595D01*
X011952Y025675D01*
X011966Y025703D01*
X011988Y025725D01*
X012035Y025838D01*
X012091Y025948D01*
X012093Y025979D01*
X012105Y026008D01*
X012105Y026131D01*
X012115Y026253D01*
X012105Y026283D01*
X012105Y029059D01*
X012118Y029108D01*
X012105Y029211D01*
X012105Y029314D01*
X012086Y029361D01*
X012079Y029412D01*
X012028Y029502D01*
X011988Y029597D01*
X011952Y029633D01*
X011818Y029867D01*
X011818Y030814D01*
X011701Y031097D01*
X011484Y031314D01*
X011201Y031431D01*
X010913Y031431D01*
X010853Y031492D01*
X010540Y031621D01*
X009642Y031621D01*
X009330Y031492D01*
X009090Y031253D01*
X008961Y030940D01*
X008961Y030602D01*
X009090Y030290D01*
X009109Y030271D01*
X009090Y030253D01*
X008961Y029940D01*
X008961Y029602D01*
X009090Y029290D01*
X009330Y029051D01*
X009642Y028921D01*
X010540Y028921D01*
X010565Y028932D01*
X010565Y027099D01*
X010540Y027109D01*
X009642Y027109D01*
X009330Y026980D01*
X009090Y026741D01*
X008961Y026429D01*
X008961Y026090D01*
X009090Y025778D01*
X009109Y025759D01*
X009090Y025741D01*
X008961Y025429D01*
X008961Y025090D01*
X009090Y024778D01*
X009109Y024759D01*
X009090Y024741D01*
X008961Y024429D01*
X008961Y024090D01*
X009090Y023778D01*
X009109Y023759D01*
X009090Y023741D01*
X008961Y023429D01*
X008961Y023090D01*
X009090Y022778D01*
X009330Y022539D01*
X009642Y022409D01*
X010540Y022409D01*
X010565Y022420D01*
X010565Y021375D01*
X010540Y021385D01*
X009642Y021385D01*
X009330Y021256D01*
X009090Y021017D01*
X008961Y020704D01*
X008961Y020366D01*
X009090Y020054D01*
X009109Y020035D01*
X009090Y020017D01*
X008961Y019704D01*
X008961Y019366D01*
X009090Y019054D01*
X009330Y018814D01*
X008972Y019339D02*
X002217Y019339D01*
X002217Y019837D02*
X009016Y019837D01*
X008974Y020336D02*
X002217Y020336D01*
X002217Y020834D02*
X009015Y020834D01*
X009515Y021333D02*
X002217Y021333D01*
X002217Y021831D02*
X010565Y021831D01*
X010565Y022330D02*
X002217Y022330D01*
X002217Y022828D02*
X009070Y022828D01*
X008961Y023327D02*
X002217Y023327D01*
X002217Y023825D02*
X009071Y023825D01*
X008961Y024324D02*
X002217Y024324D01*
X002217Y024822D02*
X009072Y024822D01*
X008961Y025321D02*
X002217Y025321D01*
X002217Y025819D02*
X009073Y025819D01*
X008961Y026318D02*
X002217Y026318D01*
X002217Y026816D02*
X009166Y026816D01*
X010565Y027315D02*
X002217Y027315D01*
X002217Y027813D02*
X010565Y027813D01*
X010565Y028312D02*
X002217Y028312D01*
X002217Y028810D02*
X010565Y028810D01*
X009083Y029309D02*
X002217Y029309D01*
X002217Y029807D02*
X008961Y029807D01*
X009084Y030306D02*
X002217Y030306D01*
X002217Y030804D02*
X008961Y030804D01*
X009140Y031303D02*
X002217Y031303D01*
X002217Y031801D02*
X015278Y031801D01*
X015278Y031303D02*
X011495Y031303D01*
X011818Y030804D02*
X015362Y030804D01*
X016818Y031931D02*
X016818Y049227D01*
X025109Y040936D01*
X025109Y034063D01*
X025220Y033795D01*
X016818Y033795D01*
X016818Y033297D02*
X025718Y033297D01*
X026008Y033007D02*
X025220Y033795D01*
X025109Y034294D02*
X016818Y034294D01*
X016818Y034792D02*
X025109Y034792D01*
X025109Y035291D02*
X016818Y035291D01*
X016818Y035789D02*
X025109Y035789D01*
X025109Y036288D02*
X016818Y036288D01*
X016818Y036786D02*
X025109Y036786D01*
X025109Y037285D02*
X016818Y037285D01*
X016818Y037783D02*
X025109Y037783D01*
X025109Y038282D02*
X016818Y038282D01*
X016818Y038780D02*
X025109Y038780D01*
X025109Y039279D02*
X016818Y039279D01*
X016818Y039777D02*
X025109Y039777D01*
X025109Y040276D02*
X016818Y040276D01*
X016818Y040774D02*
X025109Y040774D01*
X024772Y041273D02*
X016818Y041273D01*
X016818Y041771D02*
X024274Y041771D01*
X023775Y042270D02*
X016818Y042270D01*
X016818Y042768D02*
X023277Y042768D01*
X022778Y043267D02*
X016818Y043267D01*
X016818Y043765D02*
X022280Y043765D01*
X021781Y044264D02*
X016818Y044264D01*
X016818Y044762D02*
X021283Y044762D01*
X020784Y045261D02*
X016818Y045261D01*
X016818Y045759D02*
X020286Y045759D01*
X019787Y046258D02*
X016818Y046258D01*
X016818Y046756D02*
X019289Y046756D01*
X018790Y047255D02*
X016818Y047255D01*
X016818Y047753D02*
X018292Y047753D01*
X017793Y048252D02*
X016818Y048252D01*
X016818Y048750D02*
X017295Y048750D01*
X016048Y050161D02*
X015603Y050031D01*
X015890Y050744D02*
X016390Y050744D01*
X015890Y050744D02*
X015603Y051031D01*
X015603Y052031D02*
X016048Y052161D01*
X017560Y052738D02*
X019912Y052738D01*
X020389Y052240D02*
X018058Y052240D01*
X018557Y051741D02*
X020867Y051741D01*
X021344Y051243D02*
X019055Y051243D01*
X019554Y050744D02*
X021822Y050744D01*
X022299Y050246D02*
X020052Y050246D01*
X020551Y049747D02*
X022777Y049747D01*
X023254Y049249D02*
X021049Y049249D01*
X021548Y048750D02*
X023732Y048750D01*
X024209Y048252D02*
X022046Y048252D01*
X022545Y047753D02*
X024687Y047753D01*
X025164Y047255D02*
X023043Y047255D01*
X023542Y046756D02*
X025642Y046756D01*
X026119Y046258D02*
X024040Y046258D01*
X024539Y045759D02*
X026597Y045759D01*
X026758Y045591D02*
X026761Y045583D01*
X026864Y045481D01*
X026964Y045376D01*
X026972Y045373D01*
X026978Y045367D01*
X027112Y045311D01*
X027244Y045253D01*
X027253Y045253D01*
X027261Y045249D01*
X027406Y045249D01*
X027550Y045246D01*
X027558Y045249D01*
X041268Y045249D01*
X041605Y044913D01*
X041605Y042401D01*
X041134Y041931D01*
X040071Y041931D01*
X039986Y042015D01*
X039674Y042145D01*
X038776Y042145D01*
X038463Y042015D01*
X038379Y041931D01*
X037709Y041931D01*
X037624Y042015D01*
X037312Y042145D01*
X036414Y042145D01*
X036101Y042015D01*
X036017Y041931D01*
X034559Y041931D01*
X034475Y042015D01*
X034162Y042145D01*
X033264Y042145D01*
X032952Y042015D01*
X032926Y041990D01*
X032926Y042600D01*
X032952Y042574D01*
X033264Y042445D01*
X033869Y042445D01*
X033903Y042431D01*
X036299Y042431D01*
X036402Y042390D01*
X036708Y042392D01*
X036831Y042445D01*
X036869Y042445D01*
X036903Y042431D01*
X036962Y042431D01*
X037020Y042417D01*
X037106Y042431D01*
X039070Y042431D01*
X039090Y042428D01*
X039101Y042431D01*
X039193Y042431D01*
X039226Y042445D01*
X039674Y042445D01*
X039986Y042574D01*
X040226Y042813D01*
X040355Y043126D01*
X040355Y043464D01*
X040226Y043776D01*
X039986Y044015D01*
X039674Y044145D01*
X038776Y044145D01*
X038463Y044015D01*
X038339Y043891D01*
X037749Y043891D01*
X037624Y044015D01*
X037312Y044145D01*
X036414Y044145D01*
X036101Y044015D01*
X035977Y043891D01*
X034599Y043891D01*
X034475Y044015D01*
X034162Y044145D01*
X033264Y044145D01*
X032952Y044015D01*
X032926Y043990D01*
X032926Y044444D01*
X029776Y044444D01*
X029776Y035904D01*
X029750Y035929D01*
X029468Y036093D01*
X029152Y036177D01*
X028825Y036177D01*
X028510Y036093D01*
X028227Y035929D01*
X028188Y035890D01*
X028188Y035962D01*
X028051Y036293D01*
X027798Y036546D01*
X027778Y036554D01*
X027778Y041911D01*
X027818Y042008D01*
X027818Y042314D01*
X027701Y042597D01*
X016805Y053493D01*
X016789Y053547D01*
X016585Y053802D01*
X016299Y053959D01*
X015974Y053994D01*
X015588Y053881D01*
X015318Y053881D01*
X015318Y055381D01*
X017404Y055356D01*
X026758Y045591D01*
X027226Y045261D02*
X025037Y045261D01*
X025536Y044762D02*
X041605Y044762D01*
X041605Y044264D02*
X032926Y044264D01*
X032926Y042270D02*
X041473Y042270D01*
X041605Y042768D02*
X040180Y042768D01*
X040355Y043267D02*
X041605Y043267D01*
X041605Y043765D02*
X040230Y043765D01*
X043145Y043765D02*
X043916Y043765D01*
X043916Y043267D02*
X043145Y043267D01*
X043145Y042768D02*
X043916Y042768D01*
X043916Y042270D02*
X043145Y042270D01*
X043145Y041931D02*
X043145Y045385D01*
X043027Y045668D01*
X042240Y046455D01*
X042023Y046672D01*
X041740Y046789D01*
X040708Y046789D01*
X041283Y047364D01*
X041288Y047366D01*
X041315Y047366D01*
X041620Y047493D01*
X041854Y047726D01*
X041980Y048031D01*
X041980Y048881D01*
X041854Y049186D01*
X041620Y049420D01*
X041315Y049546D01*
X040985Y049546D01*
X040680Y049420D01*
X040650Y049390D01*
X040620Y049420D01*
X040315Y049546D01*
X039985Y049546D01*
X039680Y049420D01*
X039650Y049390D01*
X039620Y049420D01*
X039315Y049546D01*
X038985Y049546D01*
X038680Y049420D01*
X038650Y049390D01*
X038620Y049420D01*
X038315Y049546D01*
X037985Y049546D01*
X037680Y049420D01*
X037650Y049390D01*
X037620Y049420D01*
X037315Y049546D01*
X036985Y049546D01*
X036680Y049420D01*
X036650Y049390D01*
X036620Y049420D01*
X036315Y049546D01*
X036195Y049546D01*
X035357Y050384D01*
X035620Y050493D01*
X035650Y050523D01*
X035680Y050493D01*
X035711Y050480D01*
X035937Y050253D01*
X036140Y050051D01*
X036405Y049941D01*
X041691Y049941D01*
X041956Y050051D01*
X042437Y050532D01*
X042461Y050542D01*
X042667Y050748D01*
X042778Y051016D01*
X042778Y052368D01*
X042850Y052338D01*
X043473Y052338D01*
X043683Y052425D01*
X043843Y052585D01*
X043916Y052759D01*
X043916Y041931D01*
X043145Y041931D01*
X045456Y041931D02*
X045456Y052941D01*
X046756Y052941D01*
X046756Y052649D01*
X046886Y052337D01*
X046904Y052319D01*
X046886Y052300D01*
X046756Y051988D01*
X046756Y051649D01*
X046886Y051337D01*
X046904Y051319D01*
X046886Y051300D01*
X046756Y050988D01*
X046756Y050649D01*
X046886Y050337D01*
X047125Y050098D01*
X047437Y049969D01*
X047722Y049969D01*
X047937Y049753D01*
X048140Y049551D01*
X048405Y049441D01*
X049582Y049441D01*
X049529Y049312D01*
X049529Y044305D01*
X049638Y044041D01*
X049841Y043838D01*
X050105Y043728D01*
X051328Y043728D01*
X051328Y043370D01*
X050724Y043370D01*
X050515Y043283D01*
X050355Y043123D01*
X050349Y043108D01*
X050070Y043108D01*
X049739Y042971D01*
X049486Y042718D01*
X049464Y042666D01*
X048729Y041931D01*
X045456Y041931D01*
X045456Y042270D02*
X049067Y042270D01*
X049536Y042768D02*
X045456Y042768D01*
X045456Y043267D02*
X050498Y043267D01*
X050017Y043765D02*
X045456Y043765D01*
X045456Y044264D02*
X049546Y044264D01*
X049529Y044762D02*
X045456Y044762D01*
X045456Y045261D02*
X049529Y045261D01*
X049529Y045759D02*
X045456Y045759D01*
X045456Y046258D02*
X049529Y046258D01*
X049529Y046756D02*
X045456Y046756D01*
X045456Y047255D02*
X049529Y047255D01*
X049529Y047753D02*
X045456Y047753D01*
X045456Y048252D02*
X049529Y048252D01*
X049529Y048750D02*
X045456Y048750D01*
X045456Y049249D02*
X049529Y049249D01*
X047943Y049747D02*
X045456Y049747D01*
X045456Y050246D02*
X046977Y050246D01*
X046756Y050744D02*
X045456Y050744D01*
X045456Y051243D02*
X046862Y051243D01*
X046756Y051741D02*
X045456Y051741D01*
X045456Y052240D02*
X046861Y052240D01*
X046756Y052738D02*
X045456Y052738D01*
X043916Y052738D02*
X043907Y052738D01*
X043916Y052240D02*
X042778Y052240D01*
X042778Y051741D02*
X043916Y051741D01*
X043916Y051243D02*
X042778Y051243D01*
X042663Y050744D02*
X043916Y050744D01*
X043916Y050246D02*
X042151Y050246D01*
X041792Y049249D02*
X043916Y049249D01*
X043916Y049747D02*
X035994Y049747D01*
X035945Y050246D02*
X035496Y050246D01*
X035048Y051161D02*
X035150Y051456D01*
X034150Y051456D02*
X034048Y051661D01*
X033283Y051959D02*
X031778Y053463D01*
X031778Y057806D01*
X031744Y057888D01*
X034646Y057888D01*
X034778Y057942D01*
X034824Y057769D01*
X034994Y057475D01*
X035234Y057235D01*
X035528Y057065D01*
X035856Y056977D01*
X036196Y056977D01*
X036524Y057065D01*
X036818Y057235D01*
X037058Y057475D01*
X037228Y057769D01*
X037316Y058097D01*
X037316Y058437D01*
X037252Y058675D01*
X039300Y058675D01*
X039236Y058437D01*
X039236Y058097D01*
X039324Y057769D01*
X039494Y057475D01*
X039673Y057296D01*
X039634Y057280D01*
X038969Y056614D01*
X038858Y056614D01*
X038546Y056486D01*
X038526Y056465D01*
X038506Y056486D01*
X038195Y056614D01*
X037858Y056614D01*
X037546Y056486D01*
X037526Y056465D01*
X037506Y056486D01*
X037195Y056614D01*
X036858Y056614D01*
X036546Y056486D01*
X036308Y056247D01*
X036179Y055936D01*
X036179Y055599D01*
X036200Y055549D01*
X036046Y055486D01*
X035808Y055247D01*
X035679Y054936D01*
X035679Y054599D01*
X035743Y054445D01*
X033744Y052447D01*
X033680Y052420D01*
X033628Y052368D01*
X033535Y052322D01*
X033321Y052075D01*
X033283Y051959D01*
X033464Y052240D02*
X033002Y052240D01*
X032503Y052738D02*
X034036Y052738D01*
X034534Y053237D02*
X032005Y053237D01*
X031778Y053735D02*
X035033Y053735D01*
X035531Y054234D02*
X031778Y054234D01*
X031778Y054732D02*
X035679Y054732D01*
X035801Y055231D02*
X031778Y055231D01*
X031778Y055729D02*
X036179Y055729D01*
X036300Y056228D02*
X031778Y056228D01*
X031778Y056726D02*
X039080Y056726D01*
X039579Y057225D02*
X036800Y057225D01*
X037201Y057723D02*
X039351Y057723D01*
X039236Y058222D02*
X037316Y058222D01*
X035252Y057225D02*
X031778Y057225D01*
X031778Y057723D02*
X034851Y057723D01*
X030318Y056931D02*
X030318Y054630D01*
X030225Y054669D01*
X029327Y054669D01*
X029015Y054539D01*
X028867Y054391D01*
X025903Y054391D01*
X025634Y054280D01*
X025429Y054075D01*
X025318Y053806D01*
X025318Y049321D01*
X018396Y056546D01*
X018395Y056550D01*
X018290Y056657D01*
X018187Y056765D01*
X018183Y056766D01*
X018181Y056769D01*
X018043Y056828D01*
X017906Y056888D01*
X017903Y056888D01*
X017899Y056890D01*
X017750Y056892D01*
X017600Y056895D01*
X017597Y056893D01*
X014871Y056927D01*
X013228Y058569D01*
X013228Y059067D01*
X013162Y059227D01*
X025851Y059021D01*
X025851Y058169D01*
X025981Y057856D01*
X026220Y057617D01*
X026532Y057488D01*
X026870Y057488D01*
X027183Y057617D01*
X027201Y057636D01*
X027220Y057617D01*
X027532Y057488D01*
X027870Y057488D01*
X028105Y057585D01*
X028419Y057272D01*
X028429Y057248D01*
X028634Y057042D01*
X028903Y056931D01*
X030318Y056931D01*
X030318Y056726D02*
X018224Y056726D01*
X018702Y056228D02*
X030318Y056228D01*
X030318Y055729D02*
X019179Y055729D01*
X019657Y055231D02*
X030318Y055231D01*
X030318Y054732D02*
X020134Y054732D01*
X020612Y054234D02*
X025588Y054234D01*
X025318Y053735D02*
X021089Y053735D01*
X021567Y053237D02*
X025318Y053237D01*
X025318Y052738D02*
X022044Y052738D01*
X022522Y052240D02*
X025318Y052240D01*
X025318Y051741D02*
X022999Y051741D01*
X023477Y051243D02*
X025318Y051243D01*
X025318Y050744D02*
X023954Y050744D01*
X024432Y050246D02*
X025318Y050246D01*
X025318Y049747D02*
X024909Y049747D01*
X028796Y048431D02*
X033246Y048431D01*
X033271Y048381D01*
X028846Y048381D01*
X028796Y048431D01*
X029331Y049891D02*
X029331Y049969D01*
X030225Y049969D01*
X030538Y050098D01*
X030777Y050337D01*
X030906Y050649D01*
X030906Y050770D01*
X031785Y049891D01*
X029331Y049891D01*
X030685Y050246D02*
X031431Y050246D01*
X030932Y050744D02*
X030906Y050744D01*
X034048Y048661D02*
X034150Y048456D01*
X036048Y048661D02*
X036150Y048456D01*
X039048Y048161D02*
X039150Y048456D01*
X041048Y048161D02*
X041150Y048456D01*
X041980Y048252D02*
X043916Y048252D01*
X043916Y048750D02*
X041980Y048750D01*
X041865Y047753D02*
X043916Y047753D01*
X043916Y047255D02*
X041174Y047255D01*
X041820Y046756D02*
X043916Y046756D01*
X043916Y046258D02*
X042438Y046258D01*
X042936Y045759D02*
X043916Y045759D01*
X043916Y045261D02*
X043145Y045261D01*
X043145Y044762D02*
X043916Y044762D01*
X043916Y044264D02*
X043145Y044264D01*
X049484Y040508D02*
X049701Y040725D01*
X049931Y040955D01*
X049854Y040671D01*
X049854Y040490D01*
X049440Y040490D01*
X049484Y040508D01*
X049750Y040774D02*
X049882Y040774D01*
X052764Y038950D02*
X052768Y038952D01*
X052922Y038952D01*
X053132Y039039D01*
X053292Y039199D01*
X053379Y039409D01*
X053379Y039507D01*
X053648Y039351D01*
X053963Y039267D01*
X054290Y039267D01*
X054605Y039351D01*
X054888Y039515D01*
X055119Y039746D01*
X055232Y039941D01*
X060691Y039941D01*
X060956Y040051D01*
X061114Y040209D01*
X061114Y040108D01*
X061199Y039792D01*
X061362Y039510D01*
X061593Y039279D01*
X054333Y039279D01*
X053920Y039279D02*
X053325Y039279D01*
X052764Y038950D02*
X040282Y038950D01*
X040239Y038846D01*
X099067Y038145D01*
X099067Y057830D01*
X084677Y058064D01*
X089291Y053450D01*
X089478Y053637D01*
X089478Y053721D01*
X089964Y054208D01*
X090651Y054208D01*
X090808Y054051D01*
X090964Y054208D01*
X091049Y054208D01*
X091211Y054370D01*
X091211Y056409D01*
X091328Y056692D01*
X091493Y056857D01*
X091493Y056857D01*
X091710Y057074D01*
X091993Y057191D01*
X096967Y057191D01*
X097027Y057251D01*
X097714Y057251D01*
X098201Y056765D01*
X098201Y056077D01*
X097714Y055591D01*
X097027Y055591D01*
X096967Y055651D01*
X092751Y055651D01*
X092751Y053898D01*
X092634Y053615D01*
X092138Y053119D01*
X092138Y053034D01*
X092035Y052931D01*
X092701Y052931D01*
X092984Y052814D01*
X093582Y052215D01*
X093687Y052172D01*
X093717Y052142D01*
X093747Y052172D01*
X094052Y052298D01*
X094382Y052298D01*
X094687Y052172D01*
X094717Y052142D01*
X094747Y052172D01*
X095052Y052298D01*
X095382Y052298D01*
X095687Y052172D01*
X095717Y052142D01*
X095747Y052172D01*
X096052Y052298D01*
X096382Y052298D01*
X096541Y052233D01*
X096541Y052765D01*
X097027Y053251D01*
X097714Y053251D01*
X098201Y052765D01*
X098201Y052699D01*
X098933Y051967D01*
X099050Y051684D01*
X099050Y049803D01*
X099048Y049799D01*
X099048Y049645D01*
X098961Y049435D01*
X098801Y049275D01*
X098592Y049188D01*
X098438Y049188D01*
X098433Y049186D01*
X098127Y049186D01*
X098122Y049188D01*
X097969Y049188D01*
X097759Y049275D01*
X097599Y049435D01*
X097512Y049645D01*
X097512Y049799D01*
X097510Y049803D01*
X097510Y051212D01*
X097131Y051591D01*
X097047Y051591D01*
X097047Y050783D01*
X096921Y050478D01*
X096687Y050245D01*
X096382Y050118D01*
X096052Y050118D01*
X095747Y050245D01*
X095717Y050274D01*
X095687Y050245D01*
X095382Y050118D01*
X095052Y050118D01*
X094747Y050245D01*
X094717Y050274D01*
X094687Y050245D01*
X094382Y050118D01*
X094052Y050118D01*
X093768Y050236D01*
X093768Y049181D01*
X094052Y049298D01*
X094382Y049298D01*
X094687Y049172D01*
X094717Y049142D01*
X094747Y049172D01*
X095052Y049298D01*
X095382Y049298D01*
X095687Y049172D01*
X095717Y049142D01*
X095747Y049172D01*
X096052Y049298D01*
X096382Y049298D01*
X096687Y049172D01*
X096921Y048938D01*
X097047Y048633D01*
X097047Y047783D01*
X096921Y047478D01*
X096687Y047245D01*
X096382Y047118D01*
X096052Y047118D01*
X095747Y047245D01*
X095717Y047274D01*
X095687Y047245D01*
X095382Y047118D01*
X095052Y047118D01*
X094747Y047245D01*
X094717Y047274D01*
X094687Y047245D01*
X094382Y047118D01*
X094179Y047118D01*
X095907Y045391D01*
X097693Y045391D01*
X097961Y045280D01*
X098167Y045075D01*
X098278Y044806D01*
X098278Y041016D01*
X098167Y040748D01*
X097961Y040542D01*
X097693Y040431D01*
X094793Y040431D01*
X094864Y040401D01*
X095024Y040241D01*
X095111Y040032D01*
X095111Y039409D01*
X095024Y039199D01*
X094864Y039039D01*
X094655Y038952D01*
X094032Y038952D01*
X093940Y038990D01*
X087899Y038990D01*
X087630Y039101D01*
X087425Y039307D01*
X086638Y040094D01*
X086526Y040362D01*
X086526Y042024D01*
X086480Y042024D01*
X085962Y042542D01*
X085962Y043276D01*
X086095Y043409D01*
X085962Y043542D01*
X085962Y044276D01*
X086480Y044794D01*
X086643Y044794D01*
X087734Y045885D01*
X087846Y045931D01*
X083850Y045931D01*
X079079Y041160D01*
X079084Y041148D01*
X079084Y041082D01*
X079284Y041136D01*
X079606Y041136D01*
X079917Y041052D01*
X080196Y040891D01*
X080424Y040664D01*
X080585Y040385D01*
X080668Y040074D01*
X080668Y039752D01*
X080585Y039441D01*
X080424Y039162D01*
X080196Y038935D01*
X079917Y038774D01*
X079606Y038690D01*
X079284Y038690D01*
X078973Y038774D01*
X078695Y038935D01*
X078467Y039162D01*
X078306Y039441D01*
X078297Y039474D01*
X078193Y039431D01*
X075406Y039431D01*
X075251Y039162D01*
X075023Y038935D01*
X074744Y038774D01*
X074433Y038690D01*
X074111Y038690D01*
X073800Y038774D01*
X073521Y038935D01*
X073294Y039162D01*
X073133Y039441D01*
X073049Y039752D01*
X073049Y040074D01*
X073133Y040385D01*
X073294Y040664D01*
X073521Y040891D01*
X073697Y040993D01*
X073250Y041441D01*
X066975Y041441D01*
X066743Y041209D01*
X066412Y041072D01*
X066340Y041072D01*
X066379Y041033D01*
X066542Y040750D01*
X066627Y040435D01*
X066627Y040108D01*
X066542Y039792D01*
X066379Y039510D01*
X066148Y039279D01*
X073227Y039279D01*
X073049Y039777D02*
X066534Y039777D01*
X066627Y040276D02*
X073103Y040276D01*
X073404Y040774D02*
X066529Y040774D01*
X066806Y041273D02*
X073418Y041273D01*
X073318Y042881D02*
X066717Y042881D01*
X066717Y044442D01*
X066717Y044583D01*
X066717Y044585D01*
X066717Y044588D01*
X066663Y044718D01*
X066609Y044849D01*
X066608Y044850D01*
X066607Y044852D01*
X066507Y044952D01*
X066408Y045052D01*
X066406Y045053D01*
X066404Y045055D01*
X066274Y045109D01*
X066144Y045164D01*
X066142Y045164D01*
X066140Y045164D01*
X065999Y045164D01*
X065480Y045168D01*
X065478Y045168D01*
X065337Y045168D01*
X065196Y045169D01*
X065194Y045168D01*
X062830Y045168D01*
X062830Y045385D01*
X062828Y045390D01*
X062828Y045543D01*
X062794Y045626D01*
X062828Y045708D01*
X062828Y045862D01*
X062830Y045866D01*
X062830Y046172D01*
X062828Y046177D01*
X062828Y046331D01*
X062786Y046431D01*
X072540Y046431D01*
X072540Y046315D01*
X072667Y046010D01*
X072900Y045776D01*
X073205Y045650D01*
X073318Y045650D01*
X073318Y042881D01*
X073318Y043267D02*
X066717Y043267D01*
X066717Y043765D02*
X073318Y043765D01*
X073318Y044264D02*
X066717Y044264D01*
X066645Y044762D02*
X073318Y044762D01*
X073318Y045261D02*
X062830Y045261D01*
X062828Y045759D02*
X072942Y045759D01*
X072564Y046258D02*
X062828Y046258D01*
X060887Y046789D02*
X058757Y046789D01*
X057115Y046789D01*
X057139Y046813D01*
X057268Y047126D01*
X057268Y047464D01*
X057139Y047776D01*
X057120Y047795D01*
X057139Y047813D01*
X057268Y048126D01*
X057268Y048464D01*
X057139Y048776D01*
X057120Y048795D01*
X057139Y048813D01*
X057268Y049126D01*
X057268Y049464D01*
X057139Y049776D01*
X057120Y049795D01*
X057139Y049813D01*
X057268Y050126D01*
X057268Y050408D01*
X060887Y046789D01*
X060422Y047255D02*
X057268Y047255D01*
X057149Y047753D02*
X059923Y047753D01*
X059425Y048252D02*
X057268Y048252D01*
X057150Y048750D02*
X058926Y048750D01*
X058428Y049249D02*
X057268Y049249D01*
X057151Y049747D02*
X057929Y049747D01*
X057431Y050246D02*
X057268Y050246D01*
X055008Y050881D02*
X055008Y051177D01*
X055114Y051431D01*
X049403Y051431D01*
X049134Y051542D01*
X049016Y051660D01*
X049016Y051649D01*
X048887Y051337D01*
X048868Y051319D01*
X048887Y051300D01*
X049016Y050988D01*
X049016Y050881D01*
X051922Y050881D01*
X051938Y050887D01*
X052064Y050881D01*
X055008Y050881D01*
X055036Y051243D02*
X048911Y051243D01*
X049850Y052891D02*
X054369Y052891D01*
X054318Y053016D01*
X054318Y054179D01*
X054279Y054449D01*
X054243Y054536D01*
X054243Y054699D01*
X054240Y054720D01*
X054243Y054732D01*
X045507Y054732D01*
X045507Y054381D02*
X045507Y056273D01*
X051150Y056273D01*
X051184Y056229D01*
X051194Y056209D01*
X051209Y056196D01*
X051280Y056103D01*
X051394Y056037D01*
X051411Y056022D01*
X051429Y056016D01*
X051531Y055957D01*
X051662Y055939D01*
X051680Y055933D01*
X051729Y055913D01*
X052067Y055913D01*
X052365Y056036D01*
X053359Y055042D01*
X053627Y054931D01*
X053917Y054931D01*
X053942Y054941D01*
X054291Y054941D01*
X054243Y054826D01*
X054243Y054732D01*
X054310Y054234D02*
X048914Y054234D01*
X048887Y054300D02*
X048648Y054539D01*
X048335Y054669D01*
X047437Y054669D01*
X047125Y054539D01*
X046967Y054381D01*
X045507Y054381D01*
X045507Y055231D02*
X053170Y055231D01*
X052672Y055729D02*
X045507Y055729D01*
X045507Y056228D02*
X051184Y056228D01*
X051186Y057813D02*
X044584Y057813D01*
X044301Y057696D01*
X044084Y057479D01*
X043967Y057196D01*
X043967Y053938D01*
X043916Y053814D01*
X043916Y053452D01*
X043892Y053509D01*
X043892Y058727D01*
X052172Y058593D01*
X051752Y058173D01*
X051729Y058173D01*
X051417Y058044D01*
X051186Y057813D01*
X051800Y058222D02*
X043892Y058222D01*
X043892Y058720D02*
X044346Y058720D01*
X044367Y057723D02*
X043892Y057723D01*
X043892Y057225D02*
X043979Y057225D01*
X043967Y056726D02*
X043892Y056726D01*
X043892Y056228D02*
X043967Y056228D01*
X043967Y055729D02*
X043892Y055729D01*
X043892Y055231D02*
X043967Y055231D01*
X043967Y054732D02*
X043892Y054732D01*
X043892Y054234D02*
X043967Y054234D01*
X043916Y053735D02*
X043892Y053735D01*
X041048Y051661D02*
X041150Y051456D01*
X040012Y051594D02*
X040012Y053106D01*
X040301Y053874D02*
X040175Y053926D01*
X039849Y053926D01*
X039778Y053896D01*
X039778Y053955D01*
X040006Y054049D01*
X040244Y054287D01*
X040318Y054465D01*
X040318Y053874D01*
X040301Y053874D01*
X040318Y054234D02*
X040190Y054234D01*
X038318Y053937D02*
X038318Y052545D01*
X038315Y052546D01*
X037985Y052546D01*
X037680Y052420D01*
X037650Y052390D01*
X037620Y052420D01*
X037315Y052546D01*
X036985Y052546D01*
X036680Y052420D01*
X036650Y052390D01*
X036620Y052420D01*
X036315Y052546D01*
X036022Y052546D01*
X036907Y053431D01*
X037193Y053431D01*
X037461Y053542D01*
X037942Y054022D01*
X038006Y054049D01*
X038026Y054069D01*
X038046Y054049D01*
X038318Y053937D01*
X038318Y053735D02*
X037654Y053735D01*
X038318Y053237D02*
X036712Y053237D01*
X036214Y052738D02*
X038318Y052738D01*
X039048Y051661D02*
X039150Y051456D01*
X041474Y057391D02*
X041558Y057475D01*
X041728Y057769D01*
X041816Y058097D01*
X041816Y058437D01*
X041752Y058675D01*
X042432Y058675D01*
X042432Y057292D01*
X042193Y057391D01*
X041474Y057391D01*
X041701Y057723D02*
X042432Y057723D01*
X042432Y058222D02*
X041816Y058222D01*
X048887Y054300D02*
X049016Y053988D01*
X049016Y053725D01*
X049850Y052891D01*
X049505Y053237D02*
X054318Y053237D01*
X054318Y053735D02*
X049016Y053735D01*
X052543Y049441D02*
X055008Y049441D01*
X055008Y049126D01*
X055138Y048813D01*
X055156Y048795D01*
X055138Y048776D01*
X055008Y048464D01*
X055008Y048126D01*
X055138Y047813D01*
X055156Y047795D01*
X055138Y047776D01*
X055008Y047464D01*
X055008Y047126D01*
X055138Y046813D01*
X055162Y046789D01*
X052458Y046789D01*
X052453Y046787D01*
X052299Y046787D01*
X052090Y046701D01*
X051929Y046540D01*
X051843Y046331D01*
X051843Y046177D01*
X051841Y046172D01*
X051841Y046002D01*
X050969Y046002D01*
X050969Y048449D01*
X051967Y048449D01*
X052231Y048559D01*
X052434Y048761D01*
X052543Y049026D01*
X052543Y049441D01*
X052543Y049249D02*
X055008Y049249D01*
X055127Y048750D02*
X052423Y048750D01*
X050969Y048252D02*
X055008Y048252D01*
X055128Y047753D02*
X050969Y047753D01*
X050969Y047255D02*
X055008Y047255D01*
X052224Y046756D02*
X050969Y046756D01*
X050969Y046258D02*
X051843Y046258D01*
X052768Y043728D02*
X054100Y043728D01*
X053753Y043108D01*
X053613Y043108D01*
X053282Y042971D01*
X053201Y042891D01*
X053121Y042971D01*
X052790Y043108D01*
X052768Y043108D01*
X052768Y043728D01*
X052768Y043267D02*
X053841Y043267D01*
X055356Y043024D02*
X055470Y043228D01*
X058161Y043228D01*
X058142Y043181D01*
X058142Y042558D01*
X058229Y042349D01*
X058389Y042188D01*
X058598Y042102D01*
X059221Y042102D01*
X059313Y042140D01*
X060608Y042140D01*
X060608Y041793D01*
X060624Y041755D01*
X060250Y041381D01*
X055328Y041381D01*
X055483Y041445D01*
X055736Y041698D01*
X055873Y042029D01*
X055873Y042387D01*
X055736Y042718D01*
X055483Y042971D01*
X055356Y043024D01*
X055686Y042768D02*
X058142Y042768D01*
X058308Y042270D02*
X055873Y042270D01*
X055766Y041771D02*
X060617Y041771D01*
X061208Y039777D02*
X055137Y039777D01*
X061593Y039279D02*
X061876Y039115D01*
X062192Y039031D01*
X062518Y039031D01*
X062834Y039115D01*
X063117Y039279D01*
X064625Y039279D01*
X064908Y039115D01*
X065223Y039031D01*
X065550Y039031D01*
X065865Y039115D01*
X066148Y039279D01*
X064625Y039279D02*
X064394Y039510D01*
X064230Y039792D01*
X064146Y040108D01*
X064146Y040435D01*
X064230Y040750D01*
X064394Y041033D01*
X064562Y041201D01*
X064542Y041209D01*
X064461Y041290D01*
X064380Y041209D01*
X064050Y041072D01*
X063692Y041072D01*
X063361Y041209D01*
X063280Y041290D01*
X063199Y041209D01*
X063180Y041201D01*
X063348Y041033D01*
X063511Y040750D01*
X063595Y040435D01*
X063595Y040108D01*
X063511Y039792D01*
X063348Y039510D01*
X063117Y039279D01*
X063502Y039777D02*
X064239Y039777D01*
X064146Y040276D02*
X063595Y040276D01*
X063497Y040774D02*
X064244Y040774D01*
X064444Y041273D02*
X064478Y041273D01*
X063297Y041273D02*
X063263Y041273D01*
X065277Y043227D02*
X065190Y043382D01*
X065190Y043728D01*
X065277Y043728D01*
X065277Y043227D01*
X065277Y043267D02*
X065254Y043267D01*
X064825Y048391D02*
X064733Y048429D01*
X064110Y048429D01*
X063994Y048381D01*
X062360Y048381D01*
X062348Y048393D01*
X062371Y048393D01*
X062463Y048431D01*
X072540Y048431D01*
X072540Y048391D01*
X064825Y048391D01*
X062463Y049891D02*
X062371Y049929D01*
X061812Y049929D01*
X057790Y053951D01*
X060630Y053951D01*
X060885Y054056D01*
X061391Y054228D01*
X061415Y054228D01*
X061526Y054274D01*
X061640Y054313D01*
X061658Y054329D01*
X061680Y054338D01*
X061765Y054423D01*
X061855Y054502D01*
X061865Y054523D01*
X061883Y054541D01*
X061928Y054651D01*
X061981Y054759D01*
X061983Y054783D01*
X061992Y054805D01*
X061992Y054925D01*
X062000Y055045D01*
X061992Y055067D01*
X061992Y055431D01*
X075318Y055431D01*
X075318Y049101D01*
X075229Y049012D01*
X074461Y049780D01*
X074193Y049891D01*
X062463Y049891D01*
X061496Y050246D02*
X075318Y050246D01*
X075318Y050744D02*
X060997Y050744D01*
X060499Y051243D02*
X075318Y051243D01*
X075318Y051741D02*
X060000Y051741D01*
X059502Y052240D02*
X075318Y052240D01*
X075318Y052738D02*
X059003Y052738D01*
X058505Y053237D02*
X075318Y053237D01*
X075318Y053735D02*
X058006Y053735D01*
X057223Y055411D02*
X057268Y055518D01*
X057268Y055536D01*
X060372Y055536D01*
X060402Y055526D01*
X060515Y055536D01*
X060552Y055536D01*
X060552Y055464D01*
X060395Y055411D01*
X057223Y055411D01*
X061428Y054234D02*
X075318Y054234D01*
X075318Y054732D02*
X061968Y054732D01*
X061992Y055231D02*
X075318Y055231D01*
X077778Y055231D02*
X079328Y055231D01*
X079328Y055363D02*
X079328Y052413D01*
X077778Y053963D01*
X077778Y055941D01*
X078750Y055941D01*
X079328Y055363D01*
X078961Y055729D02*
X077778Y055729D01*
X077778Y054732D02*
X079328Y054732D01*
X079328Y054234D02*
X077778Y054234D01*
X078006Y053735D02*
X079328Y053735D01*
X079328Y053237D02*
X078505Y053237D01*
X079003Y052738D02*
X079328Y052738D01*
X077935Y051741D02*
X076778Y051741D01*
X076778Y051243D02*
X078434Y051243D01*
X078932Y050744D02*
X076778Y050744D01*
X076778Y050246D02*
X079431Y050246D01*
X079929Y049747D02*
X076778Y049747D01*
X076778Y049391D02*
X080285Y049391D01*
X076778Y052899D01*
X076778Y049391D01*
X075318Y049249D02*
X074993Y049249D01*
X075318Y049747D02*
X074494Y049747D01*
X076975Y047891D02*
X077015Y047931D01*
X082387Y047931D01*
X082387Y047891D01*
X076975Y047891D01*
X077220Y046431D02*
X081285Y046431D01*
X077278Y042423D01*
X077278Y045806D01*
X077167Y046075D01*
X077134Y046107D01*
X077220Y046315D01*
X077220Y046431D01*
X077197Y046258D02*
X081112Y046258D01*
X080613Y045759D02*
X077278Y045759D01*
X077278Y045261D02*
X080115Y045261D01*
X079616Y044762D02*
X077278Y044762D01*
X077278Y044264D02*
X079118Y044264D01*
X078619Y043765D02*
X077278Y043765D01*
X077278Y043267D02*
X078121Y043267D01*
X077622Y042768D02*
X077278Y042768D01*
X075818Y042768D02*
X074973Y042768D01*
X074778Y042963D02*
X074778Y045413D01*
X075140Y045051D01*
X075405Y044941D01*
X075818Y044941D01*
X075818Y041923D01*
X074778Y042963D01*
X074778Y043267D02*
X075818Y043267D01*
X075818Y043765D02*
X074778Y043765D01*
X074778Y044264D02*
X075818Y044264D01*
X075818Y044762D02*
X074778Y044762D01*
X074778Y045261D02*
X074930Y045261D01*
X075472Y042270D02*
X075818Y042270D01*
X079192Y041273D02*
X086526Y041273D01*
X086526Y041771D02*
X079690Y041771D01*
X080189Y042270D02*
X086235Y042270D01*
X085962Y042768D02*
X080687Y042768D01*
X081186Y043267D02*
X085962Y043267D01*
X085962Y043765D02*
X081684Y043765D01*
X082183Y044264D02*
X085962Y044264D01*
X086448Y044762D02*
X082681Y044762D01*
X083180Y045261D02*
X087110Y045261D01*
X087608Y045759D02*
X083678Y045759D01*
X087732Y043705D02*
X087732Y043542D01*
X087599Y043409D01*
X087732Y043276D01*
X087732Y043113D01*
X087909Y042936D01*
X088026Y042653D01*
X088026Y042346D01*
X087986Y042250D01*
X087986Y040810D01*
X088346Y040450D01*
X091357Y040450D01*
X091134Y040542D01*
X089634Y042042D01*
X089429Y042248D01*
X089318Y042516D01*
X089318Y044306D01*
X089399Y044502D01*
X088529Y044502D01*
X087732Y043705D01*
X087792Y043765D02*
X089318Y043765D01*
X089318Y043267D02*
X087732Y043267D01*
X087979Y042768D02*
X089318Y042768D01*
X089420Y042270D02*
X087995Y042270D01*
X087986Y041771D02*
X089905Y041771D01*
X090404Y041273D02*
X087986Y041273D01*
X088022Y040774D02*
X090902Y040774D01*
X093363Y043431D02*
X093363Y043507D01*
X093237Y043812D01*
X093003Y044046D01*
X092698Y044172D01*
X092569Y044172D01*
X091961Y044780D01*
X091693Y044891D01*
X090310Y044891D01*
X090820Y045400D01*
X091025Y045606D01*
X091136Y045874D01*
X091136Y046040D01*
X093745Y043431D01*
X093363Y043431D01*
X093411Y043765D02*
X093256Y043765D01*
X092913Y044264D02*
X092478Y044264D01*
X092414Y044762D02*
X091979Y044762D01*
X091916Y045261D02*
X090680Y045261D01*
X091088Y045759D02*
X091417Y045759D01*
X089676Y046322D02*
X089316Y045962D01*
X088420Y045962D01*
X088344Y045993D01*
X088461Y046042D01*
X089461Y047042D01*
X089647Y047228D01*
X089676Y047240D01*
X089676Y046322D01*
X089612Y046258D02*
X088677Y046258D01*
X089175Y046756D02*
X089676Y046756D01*
X089318Y044264D02*
X088290Y044264D01*
X086526Y040774D02*
X080314Y040774D01*
X080614Y040276D02*
X086562Y040276D01*
X086954Y039777D02*
X080668Y039777D01*
X080491Y039279D02*
X087453Y039279D01*
X087617Y038282D02*
X099067Y038282D01*
X099067Y038780D02*
X079929Y038780D01*
X078962Y038780D02*
X074755Y038780D01*
X075318Y039279D02*
X078400Y039279D01*
X073789Y038780D02*
X045743Y038780D01*
X039258Y040391D02*
X039214Y040373D01*
X038997Y040156D01*
X038993Y040145D01*
X038776Y040145D01*
X038583Y040065D01*
X037633Y040065D01*
X037633Y040391D01*
X039258Y040391D01*
X039117Y040276D02*
X037633Y040276D01*
X035846Y039737D02*
X035733Y039464D01*
X035733Y039126D01*
X035827Y038898D01*
X034754Y038911D01*
X034843Y039126D01*
X034843Y039336D01*
X035245Y039737D01*
X035846Y039737D01*
X035733Y039279D02*
X034843Y039279D01*
X033720Y040391D02*
X033474Y040145D01*
X033264Y040145D01*
X032952Y040015D01*
X032926Y039990D01*
X032926Y040600D01*
X032952Y040574D01*
X033264Y040445D01*
X033265Y040445D01*
X033395Y040391D01*
X033720Y040391D01*
X033605Y040276D02*
X032926Y040276D01*
X029776Y040276D02*
X027778Y040276D01*
X027778Y040774D02*
X029776Y040774D01*
X029776Y041273D02*
X027778Y041273D01*
X027778Y041771D02*
X029776Y041771D01*
X029776Y042270D02*
X027818Y042270D01*
X027530Y042768D02*
X029776Y042768D01*
X029776Y043267D02*
X027031Y043267D01*
X026533Y043765D02*
X029776Y043765D01*
X029776Y044264D02*
X026034Y044264D01*
X027778Y039777D02*
X029776Y039777D01*
X029776Y039279D02*
X027778Y039279D01*
X027778Y038780D02*
X029776Y038780D01*
X029776Y038282D02*
X027778Y038282D01*
X027778Y037783D02*
X029776Y037783D01*
X029776Y037285D02*
X027778Y037285D01*
X027778Y036786D02*
X029776Y036786D01*
X029776Y036288D02*
X028053Y036288D01*
X027288Y035783D02*
X027048Y035661D01*
X027048Y034661D02*
X027288Y034602D01*
X027970Y034011D02*
X028051Y034092D01*
X028059Y034112D01*
X028227Y033944D01*
X028510Y033781D01*
X028825Y033696D01*
X029152Y033696D01*
X029468Y033781D01*
X029750Y033944D01*
X029776Y033970D01*
X029776Y032872D01*
X029750Y032898D01*
X029468Y033061D01*
X029152Y033146D01*
X028825Y033146D01*
X028510Y033061D01*
X028227Y032898D01*
X028059Y032730D01*
X028051Y032750D01*
X027970Y032830D01*
X028051Y032911D01*
X028188Y033242D01*
X028188Y033600D01*
X028051Y033931D01*
X027970Y034011D01*
X028107Y033795D02*
X028485Y033795D01*
X028188Y033297D02*
X029776Y033297D01*
X029776Y033795D02*
X029493Y033795D01*
X028127Y032798D02*
X028002Y032798D01*
X026501Y032691D02*
X026388Y032419D01*
X026388Y032061D01*
X026442Y031931D01*
X016818Y031931D01*
X016818Y032300D02*
X026388Y032300D01*
X026481Y032691D02*
X026501Y032691D01*
X026481Y032691D02*
X026213Y032802D01*
X026008Y033007D01*
X026222Y032798D02*
X016818Y032798D01*
X015278Y032798D02*
X002217Y032798D01*
X002217Y032300D02*
X015278Y032300D01*
X015278Y033297D02*
X002217Y033297D01*
X002217Y033795D02*
X015278Y033795D01*
X015278Y034294D02*
X002217Y034294D01*
X002217Y034792D02*
X015278Y034792D01*
X015278Y035291D02*
X002217Y035291D01*
X002217Y035789D02*
X015278Y035789D01*
X015278Y036288D02*
X002217Y036288D01*
X002217Y036786D02*
X015278Y036786D01*
X015278Y037285D02*
X002217Y037285D01*
X002217Y037783D02*
X015278Y037783D01*
X015278Y038282D02*
X002217Y038282D01*
X002217Y038780D02*
X015278Y038780D01*
X015278Y039279D02*
X002217Y039279D01*
X002217Y039777D02*
X015278Y039777D01*
X015278Y040276D02*
X002217Y040276D01*
X002217Y040774D02*
X015278Y040774D01*
X015278Y041273D02*
X002217Y041273D01*
X002217Y041771D02*
X015278Y041771D01*
X015278Y042270D02*
X002217Y042270D01*
X002217Y042768D02*
X015278Y042768D01*
X015278Y043267D02*
X002217Y043267D01*
X002217Y043765D02*
X015278Y043765D01*
X015278Y044264D02*
X002217Y044264D01*
X002217Y044762D02*
X015278Y044762D01*
X015278Y045261D02*
X012236Y045261D01*
X012735Y045759D02*
X015278Y045759D01*
X015278Y046258D02*
X013233Y046258D01*
X013732Y046756D02*
X015278Y046756D01*
X015278Y047255D02*
X014230Y047255D01*
X014729Y047753D02*
X015278Y047753D01*
X015278Y048252D02*
X015212Y048252D01*
X013778Y048980D02*
X013778Y051767D01*
X013677Y051666D01*
X013394Y051549D01*
X011648Y051549D01*
X011648Y050008D01*
X011531Y049725D01*
X011315Y049508D01*
X011032Y049391D01*
X010407Y049391D01*
X011893Y047905D01*
X012048Y047831D01*
X012267Y047588D01*
X012298Y047500D01*
X013778Y048980D01*
X013778Y049249D02*
X010549Y049249D01*
X011048Y048750D02*
X013548Y048750D01*
X013049Y048252D02*
X011546Y048252D01*
X012118Y047753D02*
X012551Y047753D01*
X011548Y047161D02*
X011378Y046807D01*
X009528Y046756D02*
X002217Y046756D01*
X002217Y046258D02*
X009570Y046258D01*
X009778Y045759D02*
X002217Y045759D01*
X002217Y045261D02*
X009880Y045261D01*
X009365Y047255D02*
X007302Y047255D01*
X007877Y047753D02*
X008867Y047753D01*
X008048Y049661D02*
X007733Y050094D01*
X006733Y050364D02*
X006733Y050723D01*
X006885Y051091D01*
X007166Y051372D01*
X007534Y051524D01*
X007932Y051524D01*
X008299Y051372D01*
X008581Y051091D01*
X008647Y050931D01*
X010108Y050931D01*
X010108Y052472D01*
X010226Y052755D01*
X010442Y052971D01*
X010725Y053089D01*
X012471Y053089D01*
X012471Y054606D01*
X012407Y054931D01*
X011797Y054931D01*
X011701Y054891D01*
X011395Y054891D01*
X011112Y055008D01*
X010996Y055124D01*
X010510Y054638D01*
X009822Y054638D01*
X009336Y055124D01*
X009336Y055368D01*
X009278Y055508D01*
X009278Y057488D01*
X009209Y057488D01*
X008897Y057617D01*
X008658Y057856D01*
X008528Y058169D01*
X008528Y059067D01*
X008625Y059301D01*
X005021Y059360D01*
X005079Y059219D01*
X005201Y059097D01*
X005318Y058814D01*
X005318Y056911D01*
X005330Y056899D01*
X005457Y056594D01*
X005457Y056264D01*
X005330Y055959D01*
X005097Y055725D01*
X005080Y055718D01*
X005201Y055597D01*
X005249Y055480D01*
X005330Y055399D01*
X005457Y055094D01*
X005457Y054764D01*
X005330Y054459D01*
X005318Y054446D01*
X005318Y051524D01*
X005570Y051524D01*
X005937Y051372D01*
X006218Y051091D01*
X006371Y050723D01*
X006371Y050381D01*
X006691Y050381D01*
X006733Y050364D01*
X006742Y050744D02*
X006362Y050744D01*
X006066Y051243D02*
X007037Y051243D01*
X008429Y051243D02*
X010108Y051243D01*
X010108Y051741D02*
X005318Y051741D01*
X005318Y052240D02*
X010108Y052240D01*
X010219Y052738D02*
X005318Y052738D01*
X005318Y053237D02*
X012471Y053237D01*
X012471Y053735D02*
X005318Y053735D01*
X005318Y054234D02*
X012471Y054234D01*
X012446Y054732D02*
X010604Y054732D01*
X009728Y054732D02*
X005444Y054732D01*
X005400Y055231D02*
X009336Y055231D01*
X009278Y055729D02*
X005101Y055729D01*
X005442Y056228D02*
X009278Y056228D01*
X009278Y056726D02*
X005402Y056726D01*
X005318Y057225D02*
X009278Y057225D01*
X008791Y057723D02*
X005318Y057723D01*
X005318Y058222D02*
X008528Y058222D01*
X008528Y058720D02*
X005318Y058720D01*
X005079Y059219D02*
X008591Y059219D01*
X012318Y057302D02*
X013205Y056415D01*
X013049Y056446D01*
X012769Y056391D01*
X012318Y056391D01*
X012318Y057302D01*
X012318Y057225D02*
X012395Y057225D01*
X012318Y056726D02*
X012894Y056726D01*
X014075Y057723D02*
X026114Y057723D01*
X025851Y058222D02*
X013576Y058222D01*
X013228Y058720D02*
X025851Y058720D01*
X028452Y057225D02*
X014573Y057225D01*
X013688Y059219D02*
X013166Y059219D01*
X015318Y055231D02*
X017524Y055231D01*
X018002Y054732D02*
X015318Y054732D01*
X015318Y054234D02*
X018479Y054234D01*
X018957Y053735D02*
X016638Y053735D01*
X017061Y053237D02*
X019434Y053237D01*
X016048Y053161D02*
X015603Y053031D01*
X013778Y051741D02*
X013752Y051741D01*
X013778Y051243D02*
X011648Y051243D01*
X011648Y050744D02*
X013778Y050744D01*
X013778Y050246D02*
X011648Y050246D01*
X011540Y049747D02*
X013778Y049747D01*
X005801Y047255D02*
X002217Y047255D01*
X002217Y047753D02*
X005226Y047753D01*
X005122Y048252D02*
X002217Y048252D01*
X002217Y048750D02*
X004964Y048750D01*
X004460Y049249D02*
X002217Y049249D01*
X002217Y049747D02*
X003886Y049747D01*
X003778Y050246D02*
X002217Y050246D01*
X002217Y050744D02*
X003778Y050744D01*
X003778Y051243D02*
X002217Y051243D01*
X002217Y051741D02*
X003778Y051741D01*
X003778Y052240D02*
X002217Y052240D01*
X002217Y052738D02*
X003778Y052738D01*
X003778Y053237D02*
X002217Y053237D01*
X002217Y053735D02*
X003778Y053735D01*
X003628Y054234D02*
X002605Y054234D01*
X002944Y054732D02*
X003290Y054732D01*
X003333Y055231D02*
X002900Y055231D01*
X002601Y055729D02*
X003633Y055729D01*
X003292Y056228D02*
X002942Y056228D01*
X002902Y056726D02*
X003331Y056726D01*
X003778Y057225D02*
X002374Y057225D01*
X002217Y057723D02*
X002704Y057723D01*
X002442Y058222D02*
X002217Y058222D01*
X002217Y058720D02*
X002442Y058720D01*
X002505Y059219D02*
X002217Y059219D01*
X028157Y030804D02*
X028415Y030804D01*
X027808Y030306D02*
X029776Y030306D01*
X029776Y030804D02*
X029563Y030804D01*
X029776Y029807D02*
X011852Y029807D01*
X011818Y030306D02*
X026768Y030306D01*
X029776Y029309D02*
X012105Y029309D01*
X012105Y028810D02*
X029776Y028810D01*
X029776Y028312D02*
X012105Y028312D01*
X012105Y027813D02*
X029776Y027813D01*
X029776Y027315D02*
X012105Y027315D01*
X012105Y026816D02*
X029776Y026816D01*
X029776Y026318D02*
X012105Y026318D01*
X012027Y025819D02*
X029776Y025819D01*
X029776Y025321D02*
X011221Y025321D01*
X011464Y024822D02*
X029776Y024822D01*
X029776Y024324D02*
X011814Y024324D01*
X011818Y023825D02*
X029776Y023825D01*
X029776Y023327D02*
X011841Y023327D01*
X012099Y022828D02*
X029776Y022828D01*
X029776Y022330D02*
X012105Y022330D01*
X012105Y021831D02*
X029776Y021831D01*
X029776Y021333D02*
X012105Y021333D01*
X012105Y020834D02*
X029776Y020834D01*
X029776Y020336D02*
X012041Y020336D01*
X011166Y019837D02*
X029776Y019837D01*
X029776Y019339D02*
X011210Y019339D01*
X010878Y018840D02*
X029776Y018840D01*
X028745Y000894D02*
X003248Y000894D01*
X003746Y000396D02*
X028247Y000396D01*
X095057Y039279D02*
X099067Y039279D01*
X099067Y039777D02*
X095111Y039777D01*
X094990Y040276D02*
X099067Y040276D01*
X099067Y040774D02*
X098178Y040774D01*
X098278Y041273D02*
X099067Y041273D01*
X099067Y041771D02*
X098278Y041771D01*
X098278Y042270D02*
X099067Y042270D01*
X099067Y042768D02*
X098278Y042768D01*
X098278Y043267D02*
X099067Y043267D01*
X099067Y043765D02*
X098278Y043765D01*
X098278Y044264D02*
X099067Y044264D01*
X099067Y044762D02*
X098278Y044762D01*
X097981Y045261D02*
X099067Y045261D01*
X099067Y045759D02*
X095539Y045759D01*
X095040Y046258D02*
X099067Y046258D01*
X099067Y046756D02*
X094542Y046756D01*
X094697Y047255D02*
X094737Y047255D01*
X095697Y047255D02*
X095737Y047255D01*
X096697Y047255D02*
X099067Y047255D01*
X099067Y047753D02*
X097035Y047753D01*
X097047Y048252D02*
X099067Y048252D01*
X099067Y048750D02*
X096999Y048750D01*
X096502Y049249D02*
X097823Y049249D01*
X097512Y049747D02*
X093768Y049747D01*
X093768Y049249D02*
X093932Y049249D01*
X094502Y049249D02*
X094932Y049249D01*
X095502Y049249D02*
X095932Y049249D01*
X095746Y050246D02*
X095688Y050246D01*
X094746Y050246D02*
X094688Y050246D01*
X096688Y050246D02*
X097510Y050246D01*
X097510Y050744D02*
X097031Y050744D01*
X097047Y051243D02*
X097480Y051243D01*
X096541Y052240D02*
X096524Y052240D01*
X096541Y052738D02*
X093060Y052738D01*
X093558Y052240D02*
X093910Y052240D01*
X094524Y052240D02*
X094910Y052240D01*
X095524Y052240D02*
X095910Y052240D01*
X097013Y053237D02*
X092256Y053237D01*
X092684Y053735D02*
X099067Y053735D01*
X099067Y053237D02*
X097729Y053237D01*
X098201Y052738D02*
X099067Y052738D01*
X099067Y052240D02*
X098661Y052240D01*
X099027Y051741D02*
X099067Y051741D01*
X099050Y051243D02*
X099067Y051243D01*
X099050Y050744D02*
X099067Y050744D01*
X099050Y050246D02*
X099067Y050246D01*
X099048Y049747D02*
X099067Y049747D01*
X099067Y049249D02*
X098737Y049249D01*
X099067Y054234D02*
X092751Y054234D01*
X092751Y054732D02*
X099067Y054732D01*
X099067Y055231D02*
X092751Y055231D01*
X091211Y055231D02*
X087511Y055231D01*
X088009Y054732D02*
X091211Y054732D01*
X091075Y054234D02*
X088508Y054234D01*
X089006Y053735D02*
X089491Y053735D01*
X088378Y052298D02*
X083818Y056859D01*
X083818Y052201D01*
X084052Y052298D01*
X084382Y052298D01*
X084687Y052172D01*
X084717Y052142D01*
X084747Y052172D01*
X085052Y052298D01*
X085382Y052298D01*
X085687Y052172D01*
X085717Y052142D01*
X085747Y052172D01*
X086052Y052298D01*
X086382Y052298D01*
X086687Y052172D01*
X086717Y052142D01*
X086747Y052172D01*
X087052Y052298D01*
X087382Y052298D01*
X087687Y052172D01*
X087717Y052142D01*
X087747Y052172D01*
X088052Y052298D01*
X088378Y052298D01*
X087910Y052240D02*
X087524Y052240D01*
X086910Y052240D02*
X086524Y052240D01*
X085910Y052240D02*
X085524Y052240D01*
X084910Y052240D02*
X084524Y052240D01*
X083910Y052240D02*
X083818Y052240D01*
X083818Y052738D02*
X087938Y052738D01*
X087440Y053237D02*
X083818Y053237D01*
X083818Y053735D02*
X086941Y053735D01*
X086443Y054234D02*
X083818Y054234D01*
X083818Y054732D02*
X085944Y054732D01*
X085446Y055231D02*
X083818Y055231D01*
X083818Y055729D02*
X084947Y055729D01*
X084449Y056228D02*
X083818Y056228D01*
X083818Y056726D02*
X083950Y056726D01*
X085018Y057723D02*
X099067Y057723D01*
X099067Y057225D02*
X097741Y057225D01*
X098201Y056726D02*
X099067Y056726D01*
X099067Y056228D02*
X098201Y056228D01*
X097853Y055729D02*
X099067Y055729D01*
X097001Y057225D02*
X085517Y057225D01*
X086015Y056726D02*
X091362Y056726D01*
X091211Y056228D02*
X086514Y056228D01*
X087012Y055729D02*
X091211Y055729D01*
X082278Y055729D02*
X081768Y055729D01*
X081768Y055231D02*
X082278Y055231D01*
X082278Y054732D02*
X081768Y054732D01*
X081768Y054234D02*
X082278Y054234D01*
X082278Y053735D02*
X081768Y053735D01*
X081768Y053237D02*
X082278Y053237D01*
X082278Y052738D02*
X081768Y052738D01*
X081768Y052459D02*
X082278Y051949D01*
X082278Y056941D01*
X081768Y056941D01*
X081768Y052459D01*
X081987Y052240D02*
X082278Y052240D01*
X077437Y052240D02*
X076778Y052240D01*
X076778Y052738D02*
X076938Y052738D01*
X080328Y056399D02*
X080328Y056441D01*
X080286Y056441D01*
X080328Y056399D01*
X081768Y056228D02*
X082278Y056228D01*
X082278Y056726D02*
X081768Y056726D01*
M02*
